<?xml version="1.0" encoding="utf-8"?>
<!-- Generator: Adobe Illustrator 25.2.1, SVG Export Plug-In . SVG Version: 6.00 Build 0)  -->
<svg version="1.1" id="Layer_1" xmlns="http://www.w3.org/2000/svg" xmlns:xlink="http://www.w3.org/1999/xlink" x="0px" y="0px"
	 viewBox="0 0 150 17.4" style="enable-background:new 0 0 150 17.4;" xml:space="preserve">
<style type="text/css">
	.st0{fill:#28635C;}
	.st1{clip-path:url(#SVGID_2_);}
	.st2{opacity:0.37;fill:#17443E;enable-background:new    ;}
</style>
<g id="Layer_3">
	<g id="Layer_22">
		<g>
			<g>
				<path id="XMLID_101_" class="st0" d="M150.7,1.4l-7.1,0.4c-3.3,0.2-6.5,0.6-9.8,1.3l-13.3,2.8c-2.7,0.6-5.6,0.6-8.4,0.1l0,0
					c-3.8-0.6-7.7-0.6-11.5,0.1L72,11.3c-2.9,0.5-5.9,0.9-8.9,1l-22.4,1.1c-2.6,0.1-5.1,0-7.6-0.3L24.9,12
					c-3.7-0.5-7.4-1.6-10.8-3.2L11,7.3C8.3,6,5.4,4.9,2.5,4.2l-2.6-0.6l-0.6,14.6l151-0.6L150.7,1.4z"/>
			</g>
			<g>
				<g>
					<g>
						<defs>
							<path id="SVGID_1_" d="M150.7,1.4l-7.1,0.4c-3.3,0.2-6.5,0.6-9.8,1.3l-13.3,2.8c-2.7,0.6-5.6,0.6-8.4,0.1l0,0
								c-3.8-0.6-7.7-0.6-11.5,0.1L72,11.3c-2.9,0.5-5.9,0.9-8.9,1l-22.4,1.1c-2.6,0.1-5.1,0-7.6-0.3L24.9,12
								c-3.7-0.5-7.4-1.6-10.8-3.2L11,7.3C8.3,6,5.4,4.9,2.5,4.2l-2.6-0.6l-0.6,14.6l151-0.6L150.7,1.4z"/>
						</defs>
						<clipPath id="SVGID_2_">
							<use xlink:href="#SVGID_1_"  style="overflow:visible;"/>
						</clipPath>
						<g class="st1">
							<path class="st2" d="M-0.8,5.6l13.1,5.6c4.1,1.8,8.5,2.8,12.9,3.1l11.2,0.8c2,0.1,4.1,0.2,6.1,0.1l19.1-0.5
								c2.2-0.1,4.4-0.3,6.6-0.6L89,10.4c3.9-0.7,8-0.7,12-0.1l2.1,0.4c6.9,1.1,13.9,0.4,20.4-2c5-1.9,13.5-2.9,13.9-2.9
								c0.5,0,6.7-0.5,12-0.3c1.8,0.1,3.3-1.4,3.3-3.2V1.5c0-1.8-1.4-3.2-3.2-3.2L0.5-0.5c-1.8,0-3.2,1.4-3.2,3.2l0,0
								C-2.7,4-1.9,5.1-0.8,5.6z"/>
						</g>
					</g>
				</g>
			</g>
		</g>
	</g>
</g>
</svg>
