<?xml version="1.0" encoding="utf-8"?>
<!-- Generator: Adobe Illustrator 25.2.1, SVG Export Plug-In . SVG Version: 6.00 Build 0)  -->
<svg version="1.1" id="Layer_3" xmlns="http://www.w3.org/2000/svg" xmlns:xlink="http://www.w3.org/1999/xlink" x="0px" y="0px"
	 viewBox="0 0 150 150" style="enable-background:new 0 0 150 150;" xml:space="preserve">
<style type="text/css">
	.st0{opacity:0.33;clip-path:url(#XMLID_3_);fill:#DBD2A8;}
	.st1{opacity:0.58;clip-path:url(#XMLID_3_);fill:#DBD2A8;}
	.st2{clip-path:url(#XMLID_3_);fill:#DBD2A8;}
</style>
<g>
	<defs>
		<rect id="XMLID_2_" x="-1.1" y="-0.6" width="151.7" height="152.6"/>
	</defs>
	<use xlink:href="#XMLID_2_"  style="overflow:visible;fill:#ECE6C7;"/>
	<clipPath id="XMLID_3_">
		<use xlink:href="#XMLID_2_"  style="overflow:visible;"/>
	</clipPath>
	<path class="st0" d="M48,53.9c15.4-3.5,29.3-11.5,43.8-17.5s31-10.1,46-5.2c2.9,1,5.8,2.3,8.9,2.7c3.1,0.4,6.5-0.2,8.5-2.6
		c1.7-2,2.1-4.7,2.4-7.3c0.7-6.2,1.4-12.4,2.1-18.6c0.4-3.4,0.7-7.2-1.5-9.9c-2.2-2.7-6-3.2-9.5-3.6c-21-2-42.1-4-63.1-6
		c-26.1-2.5-52.4-5-78.6-2.7c-5.7,0.5-12.2,1.7-14.8,6.7C-10.3-5.4-8.2,0.3-6.5,5.4c2.1,6.6,3.4,13.5,3.8,20.4
		c0.2,3.4,0.2,6.9-0.1,10.3c-0.2,2.7-1,5.7-0.5,8.4c0.8,4.2,4.9,5.7,8.5,6.9c6.4,2.2,13,3.6,19.8,4.1C32.6,56.1,40.5,55.6,48,53.9z"
		/>
	<path class="st1" d="M25.3,45c13.4,0,26.3-5.1,38.9-9.7s25.8-9,39.2-7.6c6.1,0.6,12.1,2.4,17.9,4.2c11.4,3.4,22.8,6.9,34.2,10.3
		c-0.4-14.8-0.8-29.6-1.2-44.5C108.5-11.6,61.8-16.7,15-17.7c-4.8-0.1-10.2,0-13.8,3.2C-2.6-11-3.2-5.2-2.4-0.2
		c0.7,5.1,2.5,10,2.5,15.1c0,3.5-1.2,7.2-3.7,9.7c-0.8,0.9-3.6,1.9-3.8,3c-0.2,1.2,1.9,3.5,2.6,4.4c4.5,5.7,11.1,9.4,18,11.3
		C17.1,44.4,21.2,45,25.3,45z"/>
	<path class="st2" d="M75.1,21.9c-18.9,2.3-37.9,7.1-56.6,3.8C8.4,23.9-1.7,19.5-8.1,11.5s-8.4-20-2.9-28.7
		c64.6-3.1,129.3,16.1,193.4,7.7c-4.7,8.1-9.5,16.2-14.2,24.2c-1.9,3.3-3.7,6.7-5.8,9.8c-1.4,2-3.1,3.5-5.7,3.5
		c-1.8,0-3.5-0.6-5.3-1c-2.1-0.5-4.3-1.1-6.5-1.5c-4.4-1-8.8-1.8-13.3-2.5c-8.8-1.4-17.7-2.2-26.7-2.4c-9-0.2-17.9,0.1-26.9,1.1
		C77.2,21.6,76.1,21.9,75.1,21.9z"/>
</g>
</svg>
