<?xml version="1.0" encoding="utf-8"?>
<!-- Generator: Adobe Illustrator 25.2.1, SVG Export Plug-In . SVG Version: 6.00 Build 0)  -->
<svg version="1.1" id="Layer_3" xmlns="http://www.w3.org/2000/svg" xmlns:xlink="http://www.w3.org/1999/xlink" x="0px" y="0px"
	 viewBox="0 0 150 150" style="enable-background:new 0 0 150 150;" xml:space="preserve">
<style type="text/css">
	.st0{opacity:0.33;clip-path:url(#XMLID_3_);fill:#DBD2A8;}
	.st1{opacity:0.58;clip-path:url(#XMLID_3_);fill:#DBD2A8;}
	.st2{clip-path:url(#XMLID_3_);fill:#DBD2A8;}
</style>
<g>
	<defs>
		<rect id="XMLID_2_" x="-1.1" y="-0.6" width="151.7" height="152.6"/>
	</defs>
	<use xlink:href="#XMLID_2_"  style="overflow:visible;fill:#ECE6C7;"/>
	<clipPath id="XMLID_3_">
		<use xlink:href="#XMLID_2_"  style="overflow:visible;"/>
	</clipPath>
	<path class="st0" d="M102.1,43.1c-17.2,6.1-32.6,19.8-48.8,30.2S18.8,90.7,1.9,82.6c-3.3-1.6-6.5-3.7-10-4.4s-7.3,0.5-9.5,4.5
		c-1.9,3.4-2.2,8-2.5,12.4c-0.7,10.5-1.3,20.9-2,31.4c-0.4,5.8-0.6,12.2,1.9,16.8c2.5,4.5,6.8,5.4,10.7,5.9
		c23.6,3.1,47.2,6.2,70.9,9.3c29.3,3.9,58.9,7.7,88.2,3.6c6.3-0.9,13.6-3.1,16.5-11.6c2.7-8,0.2-17.6-1.7-26.2
		c-2.5-11.1-4.1-22.7-4.6-34.4c-0.3-5.8-0.3-11.6-0.1-17.4c0.2-4.6,1-9.6,0.3-14.2c-0.9-7.1-5.6-9.5-9.6-11.5
		c-7.2-3.6-14.7-5.9-22.2-6.7C119.3,39.1,110.6,40.1,102.1,43.1z"/>
	<path class="st1" d="M125.7,59.4c-14.6,0.9-28.1,9.6-41.3,17.7S57.2,92.9,42.5,91.6c-6.7-0.6-13.3-3-19.9-5.5
		C10,81.4-2.7,76.7-15.4,72c1.8,23.4,3.6,46.7,5.4,70.1c50.6,11.8,101.8,17,152.7,15.5c5.3-0.2,11-0.7,14.6-6
		c3.8-5.6,3.9-14.8,2.7-22.7c-1.3-7.9-3.7-15.6-4.1-23.7c-0.3-5.5,0.6-11.5,3.1-15.6c0.8-1.4,3.8-3.2,3.9-5c0.1-2-2.4-5.4-3.2-6.8
		c-5.4-8.7-12.9-14.1-20.5-16.7C134.7,59.7,130.2,59.1,125.7,59.4z"/>
	<path class="st2" d="M64,91.9c21.5-4.8,43.1-14.9,64.6-8.5c11.6,3.5,23.1,12.3,30.6,28.5c7.5,16.1,10,40.4,3.9,58.1
		c-73.6,7-148-31-221-13.2c5.2-16.4,10.5-32.8,15.7-49.2c2.1-6.6,4-13.6,6.4-19.9c1.5-4.1,3.5-7.1,6.4-7.1c2,0,4,1.2,6,2.1
		c2.5,1.1,4.9,2.1,7.4,3c5,1.9,10.1,3.6,15.2,4.9c10.1,2.7,20.3,4.2,30.5,4.5c10.2,0.4,20.5-0.5,30.6-2.5
		C61.7,92.4,62.9,91.9,64,91.9z"/>
</g>
</svg>
