<?xml version="1.0" encoding="utf-8"?>
<!-- Generator: Adobe Illustrator 25.2.1, SVG Export Plug-In . SVG Version: 6.00 Build 0)  -->
<svg version="1.1" xmlns="http://www.w3.org/2000/svg" xmlns:xlink="http://www.w3.org/1999/xlink" x="0px" y="0px"
	 viewBox="0 0 100 31.6" style="enable-background:new 0 0 100 31.6;" xml:space="preserve">
<style type="text/css">
	.st0{fill-rule:evenodd;clip-rule:evenodd;fill:#E0753E;}
	.st1{opacity:0.14;clip-path:url(#SVGID_2_);fill-rule:evenodd;clip-rule:evenodd;fill:#27625B;enable-background:new    ;}
	.st2{opacity:0.14;clip-path:url(#SVGID_4_);fill-rule:evenodd;clip-rule:evenodd;fill:#27625B;enable-background:new    ;}
	.st3{fill-rule:evenodd;clip-rule:evenodd;fill:#F4EEC3;}
	.st4{clip-path:url(#SVGID_6_);}
	.st5{fill:#F4EEC3;}
	.st6{clip-path:url(#SVGID_8_);fill-rule:evenodd;clip-rule:evenodd;fill:#EB7A40;stroke:#F4EEC3;stroke-miterlimit:10;}
	.st7{opacity:0.11;clip-path:url(#SVGID_10_);fill-rule:evenodd;clip-rule:evenodd;fill:#BE5429;enable-background:new    ;}
	.st8{clip-path:url(#SVGID_12_);fill:#E96329;}
	.st9{clip-path:url(#SVGID_14_);fill:#E96329;}
	.st10{clip-path:url(#SVGID_16_);}
	.st11{fill-rule:evenodd;clip-rule:evenodd;fill:#ED946A;}
	.st12{opacity:0.25;clip-path:url(#SVGID_18_);fill-rule:evenodd;clip-rule:evenodd;fill:#A65A33;enable-background:new    ;}
	.st13{opacity:0.39;clip-path:url(#SVGID_20_);fill-rule:evenodd;clip-rule:evenodd;fill:#BE5429;enable-background:new    ;}
	.st14{opacity:0.43;clip-path:url(#SVGID_22_);fill-rule:evenodd;clip-rule:evenodd;fill:#BE5429;enable-background:new    ;}
	.st15{opacity:0.43;clip-path:url(#SVGID_24_);fill-rule:evenodd;clip-rule:evenodd;fill:#BE5429;enable-background:new    ;}
	.st16{fill-rule:evenodd;clip-rule:evenodd;fill:#EA7039;}
	.st17{fill-rule:evenodd;clip-rule:evenodd;fill:#F5F0CC;}
	.st18{clip-path:url(#SVGID_26_);fill-rule:evenodd;clip-rule:evenodd;fill:#F3F3F3;stroke:#F4EEC3;stroke-miterlimit:10;}
	.st19{fill:none;stroke:#F4EEC3;stroke-miterlimit:10;}
	.st20{clip-path:url(#SVGID_28_);fill-rule:evenodd;clip-rule:evenodd;fill:#F3F3F3;stroke:#F4EEC3;stroke-miterlimit:10;}
	.st21{opacity:0.56;fill:#7A958B;enable-background:new    ;}
	.st22{fill:#7A958B;}
	.st23{fill:#36444A;}
	.st24{fill:#FFFFFF;}
	.st25{clip-path:url(#XMLID_5_);fill:#D8D1A7;}
	.st26{clip-path:url(#XMLID_6_);fill:#D8D1A7;}
</style>
<g id="Layer_1">
	<g id="Layer_4">
		<g>
			<g>
				<path id="XMLID_33_" class="st0" d="M81.2,18.8l3.9-11c0.5-1.5-0.9-3-2.6-2.5l-15.6,5.7L81.2,18.8z"/>
			</g>
			<g>
				<g>
					<g>
						<g>
							<g>
								<g>
									<defs>
										<path id="SVGID_1_" d="M81.2,18.8l3.9-11c0.5-1.5-0.9-3-2.6-2.5l-15.6,5.7L81.2,18.8z"/>
									</defs>
									<clipPath id="SVGID_2_">
										<use xlink:href="#SVGID_1_"  style="overflow:visible;"/>
									</clipPath>
									<path class="st1" d="M79.3,18.4l3.3-8C83,9.7,82,8.9,81.2,9.2L69,15.2L79.3,18.4z"/>
								</g>
							</g>
						</g>
					</g>
				</g>
			</g>
		</g>
		<g>
			<g>
				<path id="XMLID_29_" class="st0" d="M33.5,17.1V3.4c0-1.9,2.2-2.9,3.9-1.8l15.1,12.5L33.5,17.1z"/>
			</g>
			<g>
				<g>
					<g>
						<g>
							<g>
								<g>
									<defs>
										<path id="SVGID_3_" d="M33.5,17.1V3.4c0-1.9,2.2-2.9,3.9-1.8l15.1,12.5L33.5,17.1z"/>
									</defs>
									<clipPath id="SVGID_4_">
										<use xlink:href="#SVGID_3_"  style="overflow:visible;"/>
									</clipPath>
									<path class="st2" d="M35.7,17.6L35.3,7.4c-0.1-1.1,1.3-1.5,2-0.8L48.5,18L35.7,17.6z"/>
								</g>
							</g>
						</g>
					</g>
				</g>
			</g>
		</g>
		<g>
			<g>
				<path id="XMLID_28_" class="st3" d="M79.8,38.5c-2.1,1.6-4.4,3.1-6.9,4.2s-5,2-7.6,2.7l-4.8,1.2c-0.9,0.2-1.9,0.4-2.8,0.4h-1.1
					c-1,0-2-0.1-3.1-0.4l-4.7-1.2c-2.6-0.7-5.2-1.5-7.6-2.7s-4.7-2.5-6.9-4.2c-3.7-2.8-5.4-7.4-4.5-11.8l0.7-3.5
					c0.7-3.3,2.7-6.1,5.6-8l2.3-1.5c2.2-1.4,4.6-2.4,7.3-2.8l3.3-0.5c2.7-0.4,5.4-0.7,8.1-0.7l0,0c2.7-0.1,5.4,0.1,8.1,0.7l3.3,0.5
					c2.6,0.4,5.1,1.4,7.3,2.8l2.3,1.5c2.9,1.9,4.9,4.7,5.6,8l0.8,3.5C85.2,31.1,83.5,35.7,79.8,38.5z"/>
			</g>
			<g>
				<g>
					<g>
						<g>
							<g>
								<g>
									<defs>
										<path id="SVGID_5_" d="M79.8,38.5c-2.1,1.6-4.4,3.1-6.9,4.2s-5,2-7.6,2.7l-4.8,1.2c-0.9,0.2-1.9,0.4-2.8,0.4h-1.1
											c-1,0-2-0.1-3.1-0.4l-4.7-1.2c-2.6-0.7-5.2-1.5-7.6-2.7s-4.7-2.5-6.9-4.2c-3.7-2.8-5.4-7.4-4.5-11.8l0.7-3.5
											c0.7-3.3,2.7-6.1,5.6-8l2.3-1.5c2.2-1.4,4.6-2.4,7.3-2.8l3.3-0.5c2.7-0.4,5.4-0.7,8.1-0.7l0,0c2.7-0.1,5.4,0.1,8.1,0.7
											l3.3,0.5c2.6,0.4,5.1,1.4,7.3,2.8l2.3,1.5c2.9,1.9,4.9,4.7,5.6,8l0.8,3.5C85.2,31.1,83.5,35.7,79.8,38.5z"/>
									</defs>
									<clipPath id="SVGID_6_">
										<use xlink:href="#SVGID_5_"  style="overflow:visible;"/>
									</clipPath>
									<g class="st4">
										<g>
											<g>
												<g>
													<g>
														<path class="st5" d="M1.7,2.7L1.6,2.6C1.6,2.6,1.7,2.7,1.7,2.7z"/>
														<path class="st5" d="M2,3L1.9,2.9L2,3z"/>
														<path class="st5" d="M2,3C2.1,3.2,1.9,3,2,3L2,3L2,3C1.9,2.9,2,3,2,3z"/>
														<path class="st5" d="M1.5,2.5C1.6,2.7,1.6,2.6,1.5,2.5L1.5,2.5L1.5,2.5z"/>
														<path class="st5" d="M1.5,2.5C1.5,2.5,1.5,2.4,1.5,2.5L1.5,2.5z"/>
														<path class="st5" d="M1.5,2.6L1.5,2.6C1.4,2.5,1.4,2.5,1.4,2.5C1.5,2.4,1.5,2.5,1.5,2.6z"/>
														<path class="st5" d="M1.7,2.7L1.7,2.7L1.7,2.7z"/>
														<path class="st5" d="M1.6,2.7L1.6,2.7C1.7,2.7,1.7,2.8,1.6,2.7C1.7,2.7,1.7,2.7,1.6,2.7z"/>
														<path class="st5" d="M1.7,2.7c0.1,0.1,0.1,0.1,0.1,0.1C1.7,2.8,1.6,2.7,1.7,2.7z"/>
														<path class="st5" d="M2.1,3.2L2.1,3.2L2.1,3.2C2.2,3.2,2.1,3.2,2.1,3.2z"/>
														<path class="st5" d="M1.5,2.5c0.1,0.1,0.1,0.1,0.1,0.1L1.5,2.5C1.5,2.6,1.5,2.5,1.5,2.5z"/>
														<path class="st5" d="M1.6,2.7L1.6,2.7C1.7,2.7,1.7,2.7,1.6,2.7z"/>
														<path class="st5" d="M2,3L1.9,2.9L2,3z"/>
														<polygon class="st5" points="1.5,2.4 1.4,2.4 1.5,2.5 														"/>
														<path class="st5" d="M1.5,2.5C1.4,2.4,1.4,2.4,1.3,2.3C1.3,2.3,1.4,2.4,1.5,2.5C1.4,2.4,1.4,2.4,1.5,2.5z"/>
														<path class="st5" d="M1.5,2.5C1.5,2.4,1.5,2.4,1.5,2.5C1.5,2.4,1.5,2.5,1.5,2.5z"/>
														<path class="st5" d="M1.7,2.7C1.6,2.6,1.6,2.6,1.6,2.6L1.7,2.7L1.7,2.7z"/>
														<path class="st5" d="M1.7,2.7L1.7,2.7L1.7,2.7L1.7,2.7z"/>
														<path class="st5" d="M1.7,2.7L1.7,2.7L1.7,2.7z"/>
														<path class="st5" d="M1.8,2.9C1.9,3,1.9,3,2,3.1C2,3,1.9,3,1.8,2.9z"/>
														<path class="st5" d="M1.8,2.9L1.8,2.9L1.8,2.9L1.8,2.9z"/>
														<polygon class="st5" points="1.9,2.9 1.8,2.9 1.8,2.9 														"/>
														<path class="st5" d="M1.6,2.7C1.7,2.7,1.7,2.7,1.6,2.7c0.1,0.1,0.1,0.1,0.1,0.1C1.7,2.7,1.6,2.7,1.6,2.7z"/>
														<path class="st5" d="M1.7,2.7L1.7,2.7L1.7,2.7z"/>
														<path class="st5" d="M1.7,2.7L1.7,2.7L1.7,2.7L1.7,2.7z"/>
														<path class="st5" d="M1.7,2.8L1.7,2.8L1.7,2.8L1.7,2.8z"/>
														<path class="st5" d="M1.5,2.7C1.6,2.7,1.6,2.7,1.5,2.7C1.6,2.7,1.5,2.6,1.5,2.7z"/>
														<path class="st5" d="M1.6,2.7L1.6,2.7L1.6,2.7z"/>
														<path class="st5" d="M1.6,2.7L1.6,2.7C1.7,2.7,1.7,2.7,1.6,2.7C1.7,2.7,1.6,2.7,1.6,2.7z"/>
														<path class="st5" d="M2.4,3.5C2.3,3.4,2.2,3.3,2.3,3.4C2.2,3.3,1.9,3,1.6,2.7c0.1,0.1,0.1,0.1,0.1,0.1
															C1.8,2.9,1.8,2.9,1.9,3S1.8,2.9,1.8,2.9C2.1,3.2,2.2,3.3,2.4,3.5L2.3,3.4C2.3,3.5,2.4,3.5,2.4,3.5z"/>
														<path class="st5" d="M1.7,2.8L1.7,2.8C1.6,2.7,1.6,2.7,1.6,2.7C1.6,2.7,1.6,2.7,1.7,2.8L1.7,2.8L1.7,2.8z"/>
														<path class="st5" d="M1.7,2.7C1.8,2.8,1.8,2.8,2,3L1.9,2.9C1.9,3,1.7,2.9,1.7,2.7L1.7,2.7C1.6,2.7,1.6,2.7,1.7,2.7
															L1.7,2.7L1.7,2.7L1.7,2.7C1.6,2.7,1.7,2.7,1.7,2.7L1.7,2.7L1.7,2.7L1.7,2.7L1.7,2.7L1.7,2.7L1.7,2.7
															C1.7,2.8,1.7,2.8,1.7,2.7z"/>
														<path class="st5" d="M2.3,3.4C2.3,3.4,2.3,3.3,2.3,3.4L2.3,3.4z"/>
														<path class="st5" d="M2.2,3.3C2.2,3.3,2.1,3.2,2.2,3.3L2.2,3.3L2.2,3.3L2.2,3.3C2.1,3.2,1.9,3,1.9,3
															C2,3.1,2.1,3.2,2.2,3.3z"/>
														<path class="st5" d="M2,3L2,3l0.2,0.2L2.1,3.1C2.1,3.2,2,3.1,2,3z"/>
														<polygon class="st5" points="1.6,2.7 1.5,2.5 1.7,2.7 														"/>
														<path class="st5" d="M1.6,2.7L1.6,2.7L1.6,2.7z"/>
														<path class="st5" d="M2.8,4.3L2.8,4.3L2.8,4.3z"/>
														<path class="st5" d="M2.8,4.3L2.8,4.3C2.8,4.2,2.8,4.3,2.8,4.3z"/>
														<path class="st5" d="M1.6,2.8C1.5,2.7,1.3,2.5,1.5,2.7L1.6,2.8C1.5,2.7,1.5,2.7,1.6,2.8z"/>
														<path class="st5" d="M2.3,3.5L2.3,3.5L2.3,3.5C2.2,3.5,2.2,3.5,2.3,3.5z"/>
														<path class="st5" d="M2.7,4L2.7,4L2.7,4z"/>
														<path class="st5" d="M2.9,4.4L3,4.5C3.1,4.5,3,4.4,2.9,4.4z"/>
														<path class="st5" d="M1.7,2.8C1.6,2.7,1.6,2.7,1.7,2.8C1.7,2.8,1.7,2.9,1.7,2.8z"/>
														<path class="st5" d="M1.6,2.9C1.7,3,1.7,3,1.6,2.9C1.6,3,1.6,3,1.6,2.9z"/>
														<path class="st5" d="M1.6,2.7L1.6,2.7L1.6,2.7C1.5,2.7,1.5,2.7,1.6,2.7z"/>
														<path class="st5" d="M2.8,4.3L2.8,4.3L2.8,4.3z"/>
														<path class="st5" d="M1.5,3.2C1.5,3.1,1.5,3.1,1.5,3.2C1.5,3.1,1.5,3.1,1.5,3.2z"/>
														<path class="st5" d="M1.6,2.7C1.5,2.7,1.5,2.7,1.6,2.7L1.6,2.7z"/>
														<path class="st5" d="M2,3.2L2,3.2L2,3.2z"/>
														<path class="st5" d="M2.3,3.5L2.3,3.5L2.3,3.5z"/>
														<path class="st5" d="M1.6,2.7L1.6,2.7L1.6,2.7z"/>
														<path class="st5" d="M1.6,2.7L1.6,2.7C1.5,2.7,1.5,2.7,1.6,2.7z"/>
														<path class="st5" d="M1.6,2.7L1.6,2.7L1.6,2.7L1.6,2.7z"/>
														<path class="st5" d="M2.5,4L2.5,4L2.5,4z"/>
														<path class="st5" d="M2.8,4L2.8,4L2.8,4z"/>
														<path class="st5" d="M2.8,4.1C2.7,4,2.7,4,2.7,4L2.3,3.6L2.8,4.1z"/>
														<path class="st5" d="M2.8,4.3l0.1,0.1C3,4.6,3,4.5,3.2,4.7C2.8,4.3,3.2,4.6,2.8,4.3L2.8,4.3L2.8,4.3
															c0.3,0.3-0.2-0.2-0.1-0.1C2.8,4.2,2.8,4.2,2.8,4.3L2.8,4.3L2.8,4.3L2.8,4.3L2.8,4.3C2.7,4.2,2.6,4.1,2.5,4
															c0.1,0.1,0.1,0.1,0.1,0.1L2.5,4c0.1,0.1,0.2,0.2,0.1,0.2C3.1,4.5,2.7,4,2.8,4.3L2.8,4.3C3.1,4.6,3,4.5,3.2,4.7
															C3.1,4.5,2.9,4.3,2.8,4.3c0,0,0,0-0.1-0.1C2.8,4.3,2.8,4.3,2.8,4.3l0.1,0.1C2.8,4.3,2.8,4.3,2.7,4.2
															c0,0,0.1,0.1,0.3,0.3C3.1,4.5,2.8,4.3,2.8,4.3S2.7,4.2,2.6,4.1C2.8,4.1,2.8,4.2,2.8,4.3L2.7,4.1L2.8,4.3
															C2.7,4.1,2.7,4,2.6,4C2.4,3.8,2.9,4.3,2.7,4.1C2.7,4,2.8,4.1,2.8,4.3C2.6,4.1,2.6,4.1,2.4,3.9L2.5,4
															C2.4,3.9,2.2,3.7,2.1,3.6C2,3.5,2,3.5,2,3.5L1.9,3.4C2,3.5,2,3.5,2,3.5L1.9,3.4C2,3.5,2,3.5,2.2,3.7
															C2.1,3.6,2.1,3.6,2.1,3.6C2.2,3.7,2.3,3.8,2.4,4C2.3,3.9,2.3,3.9,2.3,3.9C2.4,4,2.4,4,2.4,4L2.3,3.9l0.2,0.2L2.4,4
															l0.1,0.1C2.3,3.9,2.1,3.6,2,3.5c0.1,0.1,0.2,0.2,0.4,0.4C2.2,3.7,2.5,4,2.5,4L2.8,4.3L2.7,4.1
															C2.8,4.2,2.8,4.2,2.8,4.3C2.5,3.9,2.6,4,2.5,3.9C2.6,4,2.7,4.1,2.6,4c0.2,0.2-0.3-0.4-0.1-0.1c0,0,0,0,0.1,0.1
															c-0.1-0.1,0-0.1,0.1,0.1l0,0c0.1,0.1,0,0-0.2-0.2C2.5,3.9,2.8,4.1,2.8,4.3L1.9,3.4C2.2,3.6,2.6,4.1,2.8,4.3L2.8,4.3
															C2.7,4.2,2.4,3.9,2.4,3.9C2.7,4.1,2.6,4,2.8,4.3C2.7,4.2,2.4,3.9,2.4,3.9C2.5,3.9,2.7,4.1,2.8,4.3L2.4,3.9
															C2.5,4,2.8,4.2,2.8,4.3C2.8,4.2,2.8,4.3,2.8,4.3L2.7,4.2c0.1,0.1-0.4-0.4-0.4-0.4c0.1,0.1,0.4,0.4,0.4,0.4
															C2.6,4.1,2,3.4,1.8,3.3l0.1,0.1L1.8,3.3C2,3.5,2.5,4.1,2.7,4.2C2.8,4.2,2.8,4.3,2.8,4.3c0.1,0.1,0.1,0.1,0.1,0.1
															L3,4.5C2.8,4.3,2.8,4.3,2.7,4.1L2.8,4.3C2.7,4.1,2.4,3.8,2.5,3.8C2.6,3.9,2.8,4.2,2.8,4.3c0-0.1-0.1-0.2,0-0.1V4.3
															C3,4.3,2.7,4,2.8,4.3c0-0.1,0.2,0.1,0.1,0.1c-0.2-0.2-0.9-0.9-1-1c0,0,0.2,0.2,0.3,0.3s0.4,0.4,0.5,0.5
															C2.6,4.1,2.6,4.1,2.6,4.1c0.1,0.1,0.1,0.1,0.1,0.1c-0.2-0.2,0,0-0.1-0.1C2.5,4,2.7,4.2,2.7,4.2
															C2.6,4.1,2.3,3.8,2.3,3.8c0.1,0.1,0.1,0.1,0.1,0.1L2.5,4c0.1,0.1,0.1,0.1,0.2,0.2C2.6,4.1,2.6,4.1,2.6,4.1
															C2.8,4.1,2.7,4,2.8,4.3C2.7,4.1,2.7,4.1,2.6,4C2.5,3.9,2.5,3.9,2.7,4.1C2.5,3.9,2.3,3.6,2.2,3.5s0.1,0.1,0.1,0.1
															c0.1,0.1-0.4-0.4-0.2-0.2c0.1,0.1,0.3,0.3,0.4,0.4c0.1,0.1-0.1-0.1-0.1-0.1l0.1,0.1c0.1,0.1,0.1,0.1,0.1,0.1
															C2.7,4,2.7,4,2.7,4C2.6,3.9,2.6,3.9,2.6,3.9V4C2.5,3.9,2.5,3.9,2.4,3.8S2.2,3.6,2.3,3.7l0.1,0.1
															C2.3,3.7,2.3,3.7,2.3,3.7c-0.1-0.1,0.2,0.2,0,0L2.2,3.6C2.1,3.5,1.9,3.3,2,3.4C1.9,3.3,2,3.5,1.9,3.2
															c0.2,0.2,0,0,0.2,0.2C1.9,3.2,2,3.3,1.8,3.1c0.1,0.1,0.1,0.1,0.1,0.1L2,3.3l0,0l0,0l0,0c0.1,0.1,0.1,0.1,0.1,0.1
															c0.1,0.1,0.1,0.1,0.2,0.2C2.2,3.5,2.2,3.5,2.2,3.5l0.1,0.1C2.2,3.5,2.1,3.4,2,3.3l0,0C1.9,3.2,1.9,3.2,1.9,3.2
															C1.8,3.1,2,3.3,2,3.3l0.1,0.1L2,3.3c0,0,0.2,0.2-0.1,0C2,3.4,2,3.4,2,3.4L1.9,3.3c0.1,0.1-0.1-0.1,0,0
															C1.6,3,1.8,3.2,1.8,3.2l0.1,0.1L2,3.4l0.1,0.1C2.2,3.6,2,3.4,2,3.4c-0.1-0.1-0.1-0.1,0,0c-0.3-0.3,0.2,0.2,0,0
															c0.1,0.1,0.1,0.1,0,0l0,0l0,0C1.9,3.3,1.9,3.3,1.9,3.3C2,3.4,2,3.4,2,3.4s0,0,0.1,0.1L2,3.4l0,0
															C1.9,3.3,2.1,3.5,2.1,3.5c0.1,0.1,0.1,0.1,0.1,0.1C2,3.4,2.3,3.7,2.1,3.5c0.1,0.1,0.1,0.1,0.3,0.3
															C2.3,3.7,2.3,3.7,2.3,3.7c-0.1-0.1-0.1-0.1,0,0L2.2,3.6l0.2,0.2C2.3,3.7,2.3,3.7,2.1,3.5c0.2,0.2,0.1,0.1,0.3,0.3
															L2.3,3.7l0.1,0.1C2.2,3.6,2.3,3.7,2.2,3.6c0.3,0.3-0.1-0.1,0.1,0.1C2.2,3.6,2.2,3.6,2.1,3.5C2.2,3.6,2,3.4,2.2,3.6
															C2.1,3.5,2.1,3.5,2.1,3.5s0.1,0.1,0,0.1C2,3.5,2,3.5,2,3.5s0.2,0.3,0.4,0.4C2.3,3.8,2.3,3.8,2.5,4
															C2.4,3.9,2.4,3.9,2.4,3.8c0,0-0.1-0.1,0.1,0.1c-0.1-0.1,0,0,0,0s-0.1-0.1,0,0L2.6,4c0.2,0.2,0.1,0.1,0.1,0.1L2.6,4
															C2.5,3.9,2.7,4.1,2.5,3.9L2.6,4c0.3,0.3-0.1-0.1-0.1-0.1L2.6,4c0.1,0.1-0.4-0.4-0.4-0.4C2.1,3.5,2.1,3.5,2.1,3.5
															C2,3.4,2.2,3.7,2.3,3.7C2.2,3.6,2.1,3.5,2.1,3.4C2,3.3,2.4,3.7,2.2,3.5c0.1,0.1,0.1,0.1,0.2,0.2S2.1,3.4,2.3,3.6
															c0-0.1-0.1-0.1-0.1-0.1c0.1,0.1,0.1,0.1,0.2,0.2C2,3.3,2.6,3.9,2.2,3.5v0.1L2.1,3.5C2,3.4,2.2,3.6,2.2,3.7
															C2.1,3.6,2.1,3.6,2.1,3.6C2,3.5,2,3.5,2.2,3.7L2.1,3.6C2.2,3.7,1.9,3.4,2,3.5L1.9,3.4C2,3.5,1.5,3,2,3.5l0.1,0.1
															c0.1,0.1,0.2,0.2,0.3,0.3S2.3,3.8,2.3,3.7l0.1,0.1C2.2,3.5,2.3,3.7,2.1,3.5L2,3.4l0.2,0.2l0,0
															C2.1,3.5,2.1,3.5,2.1,3.5C2,3.4,2.2,3.6,2.2,3.6C2.1,3.5,2,3.4,2,3.4l0,0l0.1,0.1c0.1,0.1,0.1,0.1,0.1,0.1
															C2.1,3.5,2.1,3.5,2.1,3.5s-0.1-0.1,0,0l0,0l0.1,0.1c0.1,0.1,0,0,0.1,0.2C2,3.5,2.2,3.7,2.1,3.6
															c0.1,0.1,0.1,0.1,0.1,0.1c0.1,0.1,0.2,0.2,0.2,0.2C2,3.5,2.3,3.8,2,3.5c0.1,0.2,0.1,0.1,0.3,0.3
															C2.2,3.7,2.2,3.7,2.1,3.6C2.2,3.7,2,3.5,2,3.5c0.1,0.1,0.1,0.1,0.2,0.2L2,3.5c0.1,0.1,0.3,0.3,0.1,0.1
															c0.1,0.1,0.1,0.1,0.1,0.1C2,3.5,2.3,3.9,1.9,3.5C2,3.6,2,3.6,2,3.6c0.1,0.1,0.1,0.1,0.2,0.2L2,3.6
															c0.2,0.2,0,0,0.2,0.2L2.1,3.7c0.2,0.2,0.4,0.4,0.7,0.7c-0.2-0.2,0.4,0.4,0,0c0.1,0.1,0.1,0.1,0.1,0.1
															C2.8,4.4,2.8,4.4,2.8,4.4l0.1,0.1C2.8,4.4,3,4.6,3,4.6L2.9,4.5L3,4.6c-0.2-0.2,0,0-0.2-0.2c0.3,0.3,0,0,0.3,0.3L3,4.6
															l0.1,0.1L3,4.6c0,0,0.1,0.1,0.2,0.2c0,0,0,0.1,0.1,0.1c0.1,0.1-0.1-0.1,0,0L3.2,4.8C3.1,4.7,3.3,4.9,3.1,4.7L3,4.6
															c-0.1-0.1,0.1,0.1,0,0l0,0C2.9,4.5,2.9,4.5,2.9,4.5C3,4.6,3,4.6,3.1,4.7C3,4.6,3,4.6,2.8,4.3L2.8,4.3
															c-0.1,0-0.2-0.1-0.2-0.1c0.1,0.1,0.1,0.1,0.3,0.3S2.7,4.3,3,4.6C2.7,4.3,2.9,4.5,2.8,4.4C2.7,4.3,2.6,4.2,2.6,4.2
															L3,4.6v0.1c0.1,0.1-0.1-0.1,0.1,0c-0.1-0.2,0,0-0.2-0.2L3,4.6C2.9,4.5,2.7,4.3,2.8,4.4s0.1,0.1,0.1,0.1
															C3,4.6,2.8,4.4,3,4.6c0.2,0.2,0.1,0.1,0.2,0.2c0.1,0.1-0.1-0.1,0.1,0.1C3,4.6,3.4,5,3.1,4.7l0.1,0.1
															C3.1,4.7,3.1,4.7,3.1,4.7l0.1,0.1C3.1,4.7,3.3,4.9,3.3,4.9S3.2,4.8,3.1,4.6C3,4.4,3.5,5,3.4,4.9L3.3,4.8
															c0.1,0.1,0.1,0.1,0.1,0.1C3.3,4.8,3.3,4.8,3.2,4.7c0.1,0.1-0.1-0.1-0.1-0.1l0.1,0.1c0.1,0.1-0.3-0.3-0.1-0.2l0.2,0.2
															L3.2,4.6l0.1,0.1C3.2,4.6,3.2,4.6,3.2,4.6C3.1,4.5,3,4.4,3,4.4c0.1,0.1,0.1,0.1,0.1,0.1c0.1,0.1,0.2,0.2,0.1,0.1
															c0.1,0.1,0.1,0.1,0.1,0.1h0.1C2.8,4.3,2.8,4.3,2.8,4.3L2.6,4.2C2.7,4.2,2.7,4.2,2.8,4.3L2.7,4.2
															C2.8,4.3,2.9,4.4,3,4.5L2.8,4.3c0.1,0.1,0.1,0.1,0.1,0.2C3.1,4.5,2.8,4.3,2.8,4.3L2.8,4.3C2.8,4.3,3,4.5,2.8,4.3
															L3,4.5C3,4.4,2.8,4.3,2.8,4.3C2.7,4.2,2.9,4.4,2.9,4.4C2.8,4.3,2.7,4,2.8,4.3L2.8,4.3z M2.8,4.1
															C2.8,4.2,2.8,4.3,2.8,4.1C2.7,4,2.7,4.1,2.8,4.1z M2.5,3.8L2.5,3.8L2.5,3.8z M1.7,2.8L1.7,2.8
															C1.6,2.7,1.7,2.7,1.7,2.8z M1.7,2.8L1.7,2.8L1.7,2.8C1.7,2.8,1.7,2.9,1.7,2.8z M1.6,3L1.6,3C1.7,3.2,1.6,3.1,1.6,3z"
															/>
														<path class="st5" d="M2.7,4C2.6,3.9,2.6,3.9,2.7,4C2.6,4,2.6,4,2.7,4z"/>
														<path class="st5" d="M2.9,4.3L2.9,4.3L2.9,4.3L2.9,4.3z"/>
														<path class="st5" d="M2.8,4L2.8,4L2.8,4z"/>
														<path class="st5" d="M1.5,2.6L1.5,2.6C1.6,2.7,1.6,2.7,1.5,2.6C1.5,2.7,1.5,2.6,1.5,2.6z"/>
														<path class="st5" d="M2.3,3.5C2.3,3.4,2.3,3.4,2.3,3.5L2.3,3.5C2.3,3.4,2.3,3.4,2.3,3.5z"/>
														<path class="st5" d="M2,3C2,3.2,2,3.2,2,3L2,3C1.9,3,1.9,3,2,3z"/>
														<path class="st5" d="M2,3.1L2,3.1C2,3,2,3.1,2,3.1z"/>
														<path class="st5" d="M1.7,2.7c0.1,0.1-0.1-0.1-0.1-0.1C1.5,2.5,1.7,2.8,1.7,2.7z"/>
														<path class="st5" d="M2.3,3.4L2.3,3.4L2.3,3.4z"/>
														<path class="st5" d="M2.2,3.3L2.2,3.3L2.2,3.3L2.2,3.3z"/>
														<path class="st5" d="M2.2,3.3L2.2,3.3L2.2,3.3z"/>
														<polygon class="st5" points="2.4,3.5 2.3,3.5 2.3,3.5 														"/>
														<path class="st5" d="M2.2,3.3L2.2,3.3C2.3,3.4,2.3,3.5,2.2,3.3C2.2,3.4,2.2,3.4,2.2,3.3z"/>
														<path class="st5" d="M2.5,3.7C2.4,3.6,2.4,3.6,2.4,3.6L2.5,3.7L2.5,3.7z"/>
														<path class="st5" d="M2.5,3.8c0.1,0.1,0.1,0.1,0.1,0.1C2.6,3.8,2.6,3.8,2.5,3.8z"/>
														<polygon class="st5" points="2.3,3.5 2.3,3.5 2,3.2 														"/>
														<path class="st5" d="M3,4.3C3.1,4.3,2.8,4,3,4.3C2.9,4.2,2.9,4.2,2.8,4.1C2.8,4.1,2.8,4,3,4.3z"/>
														<path class="st5" d="M2.8,4L2.8,4L2.8,4z"/>
														<polygon class="st5" points="1.4,3 1.4,2.9 1.5,3 														"/>
														<path class="st5" d="M1.6,3.2L1.5,3L1.6,3.2C1.6,3.2,1.5,3.2,1.6,3.2z"/>
														<path class="st5" d="M3.1,4.5L3.1,4.5L3.1,4.5L3.1,4.5z"/>
														<polygon class="st5" points="3,4.4 3,4.4 2.8,4.3 														"/>
														<path class="st5" d="M3.2,4.6C3.2,4.6,3.1,4.5,3.2,4.6C3.2,4.6,3,4.4,3.2,4.6z"/>
													</g>
												</g>
											</g>
										</g>
									</g>
								</g>
							</g>
						</g>
					</g>
				</g>
			</g>
			<g>
				<g>
					<g>
						<g>
							<g>
								<g>
									<defs>
										<path id="SVGID_7_" d="M79.8,38.5c-2.1,1.6-4.4,3.1-6.9,4.2s-5,2-7.6,2.7l-4.8,1.2c-0.9,0.2-1.9,0.4-2.8,0.4h-1.1
											c-1,0-2-0.1-3.1-0.4l-4.7-1.2c-2.6-0.7-5.2-1.5-7.6-2.7s-4.7-2.5-6.9-4.2c-3.7-2.8-5.4-7.4-4.5-11.8l0.7-3.5
											c0.7-3.3,2.7-6.1,5.6-8l2.3-1.5c2.2-1.4,4.6-2.4,7.3-2.8l3.3-0.5c2.7-0.4,5.4-0.7,8.1-0.7l0,0c2.7-0.1,5.4,0.1,8.1,0.7
											l3.3,0.5c2.6,0.4,5.1,1.4,7.3,2.8l2.3,1.5c2.9,1.9,4.9,4.7,5.6,8l0.8,3.5C85.2,31.1,83.5,35.7,79.8,38.5z"/>
									</defs>
									<clipPath id="SVGID_8_">
										<use xlink:href="#SVGID_7_"  style="overflow:visible;"/>
									</clipPath>
									<path class="st6" d="M53.6,25.1c-2.5,1-4.5,2.7-6.5,4.4s-4.1,3.3-6.6,4.2c-2,0.7-4.3,0.9-6.5,0.9c-2.1,0-4.4-0.2-6-1.5
										c-2.4-1.8-2.7-5.2-2.2-8c1.3-6.9,6.7-12.6,13.2-15.8s14.1-4.1,21.4-3.6c3.6,0.2,7.3,0.7,10.5,2.5c3.1,1.8,5.3,5.3,4.6,8.6
										c-0.5,2.8-3,5-5.7,6.2c-2.1,0.9-4.5,1.4-6.8,1.6c-0.9,0.1-1.8,0.4-2.7,0.1c-1-0.4-2.1-0.5-3.2-0.4
										C55.9,24.3,54.8,24.6,53.6,25.1z"/>
								</g>
							</g>
						</g>
					</g>
				</g>
			</g>
			<g>
				<g>
					<g>
						<g>
							<g>
								<g>
									<defs>
										<path id="SVGID_9_" d="M79.8,38.5c-2.1,1.6-4.4,3.1-6.9,4.2s-5,2-7.6,2.7l-4.8,1.2c-0.9,0.2-1.9,0.4-2.8,0.4h-1.1
											c-1,0-2-0.1-3.1-0.4l-4.7-1.2c-2.6-0.7-5.2-1.5-7.6-2.7s-4.7-2.5-6.9-4.2c-3.7-2.8-5.4-7.4-4.5-11.8l0.7-3.5
											c0.7-3.3,2.7-6.1,5.6-8l2.3-1.5c2.2-1.4,4.6-2.4,7.3-2.8l3.3-0.5c2.7-0.4,5.4-0.7,8.1-0.7l0,0c2.7-0.1,5.4,0.1,8.1,0.7
											l3.3,0.5c2.6,0.4,5.1,1.4,7.3,2.8l2.3,1.5c2.9,1.9,4.9,4.7,5.6,8l0.8,3.5C85.2,31.1,83.5,35.7,79.8,38.5z"/>
									</defs>
									<clipPath id="SVGID_10_">
										<use xlink:href="#SVGID_9_"  style="overflow:visible;"/>
									</clipPath>
									<path class="st7" d="M55.1,39.6c-0.5,0-1.2,0-1.5,0.4s-0.2,1,0.1,1.5c0.4,0.4,0.9,0.7,1.4,0.8c1.3,0.4,2.7,0.7,4.1,0.6
										c0.7-0.1,1.4-0.1,2-0.4c0.5-0.3,1-0.7,1.2-1.3c0.1-0.4-0.1-1.2-0.5-1.4c-0.4-0.1-0.9,0.1-1.3,0.1c-0.8,0.1-1.5,0-2.3-0.1
										C57,39.6,55.9,39.6,55.1,39.6z"/>
								</g>
							</g>
						</g>
					</g>
				</g>
			</g>
			<g>
				<g>
					<g>
						<g>
							<g>
								<g>
									<defs>
										<path id="SVGID_11_" d="M79.8,38.5c-2.1,1.6-4.4,3.1-6.9,4.2s-5,2-7.6,2.7l-4.8,1.2c-0.9,0.2-1.9,0.4-2.8,0.4h-1.1
											c-1,0-2-0.1-3.1-0.4l-4.7-1.2c-2.6-0.7-5.2-1.5-7.6-2.7s-4.7-2.5-6.9-4.2c-3.7-2.8-5.4-7.4-4.5-11.8l0.7-3.5
											c0.7-3.3,2.7-6.1,5.6-8l2.3-1.5c2.2-1.4,4.6-2.4,7.3-2.8l3.3-0.5c2.7-0.4,5.4-0.7,8.1-0.7l0,0c2.7-0.1,5.4,0.1,8.1,0.7
											l3.3,0.5c2.6,0.4,5.1,1.4,7.3,2.8l2.3,1.5c2.9,1.9,4.9,4.7,5.6,8l0.8,3.5C85.2,31.1,83.5,35.7,79.8,38.5z"/>
									</defs>
									<clipPath id="SVGID_12_">
										<use xlink:href="#SVGID_11_"  style="overflow:visible;"/>
									</clipPath>
									<path class="st8" d="M57.3,36.9c-2.5,0-4.8-1.4-5.9-3.5c-0.3-0.6-0.1-1.3,0.5-1.6s1.3-0.1,1.6,0.5c0.7,1.4,2.3,2.3,3.9,2.3
										c1.7,0,3.3-1,4-2.5c0.3-0.6,0.9-0.8,1.5-0.6c0.6,0.3,0.8,0.9,0.6,1.5C62.3,35.4,59.9,36.9,57.3,36.9z"/>
								</g>
							</g>
						</g>
					</g>
				</g>
			</g>
			<g>
				<g>
					<g>
						<g>
							<g>
								<g>
									<defs>
										<path id="SVGID_13_" d="M79.8,38.5c-2.1,1.6-4.4,3.1-6.9,4.2s-5,2-7.6,2.7l-4.8,1.2c-0.9,0.2-1.9,0.4-2.8,0.4h-1.1
											c-1,0-2-0.1-3.1-0.4l-4.7-1.2c-2.6-0.7-5.2-1.5-7.6-2.7s-4.7-2.5-6.9-4.2c-3.7-2.8-5.4-7.4-4.5-11.8l0.7-3.5
											c0.7-3.3,2.7-6.1,5.6-8l2.3-1.5c2.2-1.4,4.6-2.4,7.3-2.8l3.3-0.5c2.7-0.4,5.4-0.7,8.1-0.7l0,0c2.7-0.1,5.4,0.1,8.1,0.7
											l3.3,0.5c2.6,0.4,5.1,1.4,7.3,2.8l2.3,1.5c2.9,1.9,4.9,4.7,5.6,8l0.8,3.5C85.2,31.1,83.5,35.7,79.8,38.5z"/>
									</defs>
									<clipPath id="SVGID_14_">
										<use xlink:href="#SVGID_13_"  style="overflow:visible;"/>
									</clipPath>
									<path class="st9" d="M57.3,36.9c-0.7,0-1.2-0.5-1.2-1.1l-0.3-6.7c0-0.7,0.4-1.2,1.1-1.2s1.2,0.4,1.2,1.1l0.3,6.7
										C58.6,36.4,58,36.9,57.3,36.9C57.4,36.9,57.3,36.9,57.3,36.9z"/>
								</g>
							</g>
						</g>
					</g>
				</g>
			</g>
			<g>
				<g>
					<g>
						<g>
							<g>
								<g>
									<defs>
										<path id="SVGID_15_" d="M79.8,38.5c-2.1,1.6-4.4,3.1-6.9,4.2s-5,2-7.6,2.7l-4.8,1.2c-0.9,0.2-1.9,0.4-2.8,0.4h-1.1
											c-1,0-2-0.1-3.1-0.4l-4.7-1.2c-2.6-0.7-5.2-1.5-7.6-2.7s-4.7-2.5-6.9-4.2c-3.7-2.8-5.4-7.4-4.5-11.8l0.7-3.5
											c0.7-3.3,2.7-6.1,5.6-8l2.3-1.5c2.2-1.4,4.6-2.4,7.3-2.8l3.3-0.5c2.7-0.4,5.4-0.7,8.1-0.7l0,0c2.7-0.1,5.4,0.1,8.1,0.7
											l3.3,0.5c2.6,0.4,5.1,1.4,7.3,2.8l2.3,1.5c2.9,1.9,4.9,4.7,5.6,8l0.8,3.5C85.2,31.1,83.5,35.7,79.8,38.5z"/>
									</defs>
									<clipPath id="SVGID_16_">
										<use xlink:href="#SVGID_15_"  style="overflow:visible;"/>
									</clipPath>
									<g class="st10">
										<g>
											<ellipse id="XMLID_27_" class="st11" cx="57.3" cy="28.2" rx="4.6" ry="2.6"/>
										</g>
										<g>
											<g>
												<g>
													<g>
														<g>
															<g>
																<defs>
																	<ellipse id="SVGID_17_" cx="57.3" cy="28.2" rx="4.6" ry="2.6"/>
																</defs>
																<clipPath id="SVGID_18_">
																	<use xlink:href="#SVGID_17_"  style="overflow:visible;"/>
																</clipPath>
																<path class="st12" d="M52,27.1l2,1.6c2,1,4.4,1.4,6.5,0.8l3.1-1.4l-0.9,2.6h-10L52,27.1z"/>
															</g>
														</g>
													</g>
												</g>
											</g>
										</g>
									</g>
								</g>
							</g>
						</g>
					</g>
				</g>
			</g>
			<g>
				<g>
					<g>
						<g>
							<g>
								<g>
									<defs>
										<path id="SVGID_19_" d="M79.8,38.5c-2.1,1.6-4.4,3.1-6.9,4.2s-5,2-7.6,2.7l-4.8,1.2c-0.9,0.2-1.9,0.4-2.8,0.4h-1.1
											c-1,0-2-0.1-3.1-0.4l-4.7-1.2c-2.6-0.7-5.2-1.5-7.6-2.7s-4.7-2.5-6.9-4.2c-3.7-2.8-5.4-7.4-4.5-11.8l0.7-3.5
											c0.7-3.3,2.7-6.1,5.6-8l2.3-1.5c2.2-1.4,4.6-2.4,7.3-2.8l3.3-0.5c2.7-0.4,5.4-0.7,8.1-0.7l0,0c2.7-0.1,5.4,0.1,8.1,0.7
											l3.3,0.5c2.6,0.4,5.1,1.4,7.3,2.8l2.3,1.5c2.9,1.9,4.9,4.7,5.6,8l0.8,3.5C85.2,31.1,83.5,35.7,79.8,38.5z"/>
									</defs>
									<clipPath id="SVGID_20_">
										<use xlink:href="#SVGID_19_"  style="overflow:visible;"/>
									</clipPath>
									<path class="st13" d="M55.7,19.4c0.1,0.7,0.4,1.3,1.2,1.4c0.7,0.1,1.2-0.7,1.4-1.3c1.4-3.5,2.8-7,4.1-10.5
										c0,0.1-3.9-0.5-4.3-0.5c-1.5-0.1-2.9-0.2-4.4-0.1S53,10,53.3,10.8c0.4,1.4,0.8,2.7,1.2,4.1C54.8,16.4,55.3,17.9,55.7,19.4z
										"/>
								</g>
							</g>
						</g>
					</g>
				</g>
			</g>
			<g>
				<g>
					<g>
						<g>
							<g>
								<g>
									<defs>
										<path id="SVGID_21_" d="M79.8,38.5c-2.1,1.6-4.4,3.1-6.9,4.2s-5,2-7.6,2.7l-4.8,1.2c-0.9,0.2-1.9,0.4-2.8,0.4h-1.1
											c-1,0-2-0.1-3.1-0.4l-4.7-1.2c-2.6-0.7-5.2-1.5-7.6-2.7s-4.7-2.5-6.9-4.2c-3.7-2.8-5.4-7.4-4.5-11.8l0.7-3.5
											c0.7-3.3,2.7-6.1,5.6-8l2.3-1.5c2.2-1.4,4.6-2.4,7.3-2.8l3.3-0.5c2.7-0.4,5.4-0.7,8.1-0.7l0,0c2.7-0.1,5.4,0.1,8.1,0.7
											l3.3,0.5c2.6,0.4,5.1,1.4,7.3,2.8l2.3,1.5c2.9,1.9,4.9,4.7,5.6,8l0.8,3.5C85.2,31.1,83.5,35.7,79.8,38.5z"/>
									</defs>
									<clipPath id="SVGID_22_">
										<use xlink:href="#SVGID_21_"  style="overflow:visible;"/>
									</clipPath>
									<path class="st14" d="M64.7,12.6c-0.9,1.5-2,3.1-1.6,4.7c0.9,0.3,2-0.4,2.7-1c1.5-1.3,3.1-2.6,4.6-3.9
										c0.4-0.4,0.9-0.9,0.9-1.5c-0.1-0.8-1.2-1.2-2-1.2c-0.5,0-1.2,0.1-1.7-0.1c-0.4-0.1-0.7-0.3-1,0.1c-0.4,0.4-0.7,0.9-0.9,1.4
										S65.1,12.1,64.7,12.6z"/>
								</g>
							</g>
						</g>
					</g>
				</g>
			</g>
			<g>
				<g>
					<g>
						<g>
							<g>
								<g>
									<defs>
										<path id="SVGID_23_" d="M79.8,38.5c-2.1,1.6-4.4,3.1-6.9,4.2s-5,2-7.6,2.7l-4.8,1.2c-0.9,0.2-1.9,0.4-2.8,0.4h-1.1
											c-1,0-2-0.1-3.1-0.4l-4.7-1.2c-2.6-0.7-5.2-1.5-7.6-2.7s-4.7-2.5-6.9-4.2c-3.7-2.8-5.4-7.4-4.5-11.8l0.7-3.5
											c0.7-3.3,2.7-6.1,5.6-8l2.3-1.5c2.2-1.4,4.6-2.4,7.3-2.8l3.3-0.5c2.7-0.4,5.4-0.7,8.1-0.7l0,0c2.7-0.1,5.4,0.1,8.1,0.7
											l3.3,0.5c2.6,0.4,5.1,1.4,7.3,2.8l2.3,1.5c2.9,1.9,4.9,4.7,5.6,8l0.8,3.5C85.2,31.1,83.5,35.7,79.8,38.5z"/>
									</defs>
									<clipPath id="SVGID_24_">
										<use xlink:href="#SVGID_23_"  style="overflow:visible;"/>
									</clipPath>
									<path class="st15" d="M50.6,12.8c0.9,1.5,2,3.1,1.6,4.7c-0.9,0.3-2-0.4-2.7-1c-1.5-1.3-3.1-2.6-4.6-3.9
										c-0.4-0.4-0.9-0.9-0.9-1.5c0.1-0.8,1.2-1.2,2-1.2c0.5,0,1.2,0.1,1.7-0.1c0.4-0.1,0.7-0.3,1,0.1c0.4,0.4,0.7,0.9,0.9,1.4
										C49.9,11.9,50.3,12.3,50.6,12.8z"/>
								</g>
							</g>
						</g>
					</g>
				</g>
			</g>
		</g>
		<g>
			<ellipse class="st16" cx="41.9" cy="23.1" rx="7.8" ry="7.3"/>
			<g>
				<g>
					<ellipse id="XMLID_26_" class="st17" cx="42.2" cy="22.6" rx="5.9" ry="5.6"/>
				</g>
				<g>
					<g>
						<g>
							<g>
								<g>
									<g>
										<defs>
											<ellipse id="SVGID_25_" cx="42.2" cy="22.6" rx="5.9" ry="5.6"/>
										</defs>
										<clipPath id="SVGID_26_">
											<use xlink:href="#SVGID_25_"  style="overflow:visible;"/>
										</clipPath>
										<path class="st18" d="M38.6,19.5c-0.2,0.2-0.4,0.5-0.4,0.8c-0.1,0.3,0,0.7,0.2,0.9s0.7,0.2,0.9,0.1
											c0.3-0.1,0.5-0.4,0.8-0.7c0.4-0.4,0.7-0.7,0.9-1.2c0.2-0.4,0.4-1.4-0.2-1.5c-0.5-0.1-1.2,0.4-1.5,0.7
											C39,18.9,38.7,19.2,38.6,19.5z"/>
									</g>
								</g>
							</g>
						</g>
					</g>
				</g>
				<g>
					<ellipse id="XMLID_24_" class="st19" cx="42.2" cy="22.6" rx="5.9" ry="5.6"/>
				</g>
			</g>
		</g>
		<g>
			<ellipse class="st16" cx="71" cy="22.6" rx="7.8" ry="7.3"/>
			<g>
				<g>
					<ellipse id="XMLID_4_" class="st17" cx="70.7" cy="22.1" rx="5.9" ry="5.6"/>
				</g>
				<g>
					<g>
						<g>
							<g>
								<g>
									<g>
										<defs>
											<ellipse id="SVGID_27_" cx="70.7" cy="22.1" rx="5.9" ry="5.6"/>
										</defs>
										<clipPath id="SVGID_28_">
											<use xlink:href="#SVGID_27_"  style="overflow:visible;"/>
										</clipPath>
										<path class="st20" d="M74.4,19c0.2,0.2,0.4,0.5,0.4,0.8c0.1,0.3,0,0.7-0.2,0.9s-0.7,0.2-0.9,0.1c-0.3-0.1-0.5-0.4-0.8-0.7
											c-0.4-0.4-0.7-0.7-0.9-1.2c-0.2-0.4-0.4-1.4,0.2-1.5c0.5-0.1,1.2,0.4,1.5,0.7C74,18.4,74.2,18.7,74.4,19z"/>
									</g>
								</g>
							</g>
						</g>
					</g>
				</g>
				<g>
					<ellipse id="XMLID_3_" class="st19" cx="70.7" cy="22.1" rx="5.9" ry="5.6"/>
				</g>
			</g>
		</g>
		<path class="st21" d="M38.6,41.7c-0.1,0-0.3-0.1-0.4-0.1c-0.4-0.2-0.4-0.7-0.2-1.1c2.1-3.3,5.9-5.5,9.9-5.7c0.4,0,0.8,0.3,0.8,0.7
			s-0.3,0.8-0.7,0.8c-3.6,0.2-6.8,2.2-8.7,5C39.2,41.5,38.9,41.7,38.6,41.7z"/>
		<path class="st21" d="M33.9,35.4c-0.3,0-0.5-0.1-0.7-0.4c-0.2-0.4-0.1-0.9,0.3-1.1c4.1-2.3,9.2-3,13.8-1.9
			c0.4,0.1,0.7,0.5,0.6,0.9s-0.5,0.7-0.9,0.6c-4.3-0.9-8.9-0.4-12.6,1.7C34.1,35.4,33.9,35.4,33.9,35.4z"/>
		<path class="st21" d="M80.6,36.9c-0.1,0-0.3,0-0.4-0.1c-4-2.3-8.6-3.5-13.2-3.6c-0.4,0-0.8-0.4-0.8-0.8s0.4-0.8,0.8-0.8
			c4.9,0.1,9.7,1.4,13.9,3.8c0.4,0.2,0.5,0.7,0.3,1.1C81.1,36.7,80.9,36.9,80.6,36.9z"/>
		<path class="st22" d="M74.1,42.7c-0.3,0-0.5-0.1-0.7-0.4l-0.2-0.4c-0.8-1.4-1.5-2.6-2.5-3.7c-1.2-1.2-2.6-2-4-2.1
			C66.3,36,66,35.7,66,35.2c0.1-0.4,0.4-0.7,0.9-0.7c1.7,0.1,3.6,1.1,4.9,2.6c1.2,1.2,2,2.6,2.8,4l0.2,0.4c0.2,0.4,0.1,0.9-0.3,1.1
			C74.4,42.7,74.2,42.7,74.1,42.7z"/>
	</g>
	<ellipse transform="matrix(0.1961 -0.9806 0.9806 0.1961 10.2242 62.7115)" class="st23" cx="43.4" cy="25.1" rx="2.6" ry="2.9"/>
	<ellipse class="st23" cx="69.9" cy="25.1" rx="2.9" ry="2.6"/>
	<ellipse class="st24" cx="42.2" cy="23.8" rx="0.7" ry="0.6"/>
	<ellipse class="st24" cx="68.8" cy="23.9" rx="0.8" ry="0.8"/>
	<g>
		<defs>
			<ellipse id="XMLID_2_" cx="23.5" cy="32.3" rx="8.6" ry="7.8"/>
		</defs>
		<use xlink:href="#XMLID_2_"  style="overflow:visible;fill:#F4EEC3;"/>
		<clipPath id="XMLID_5_">
			<use xlink:href="#XMLID_2_"  style="overflow:visible;"/>
		</clipPath>
		<path class="st25" d="M23.4,25.4c2,0.9,3.7,2.8,4.7,5.1c0.5,1.3,0.9,2.9,2,3.6c1.1,0.8,2.7,0.2,3.4-1.1s0.7-3,0-4.4
			c-0.6-1.3-1.7-2.3-2.9-3c-1.2-0.6-2.5-1-3.8-1.3c-1-0.3-2-0.5-3-0.8c-1-0.3-2-0.6-3-0.7c-0.6-0.1-1.3,0-1.5,0.8
			c-0.2,0.8,0.3,0.9,0.9,0.9C21.3,24.7,22.4,25,23.4,25.4z"/>
	</g>
	<g>
		<defs>
			<ellipse id="XMLID_7_" cx="89.5" cy="33" rx="8.6" ry="7.8"/>
		</defs>
		<use xlink:href="#XMLID_7_"  style="overflow:visible;fill:#F4EEC3;"/>
		<clipPath id="XMLID_6_">
			<use xlink:href="#XMLID_7_"  style="overflow:visible;"/>
		</clipPath>
		<path class="st26" d="M89.4,26c2.1,0.9,3.8,2.8,4.7,5.1c0.5,1.3,0.9,2.9,2,3.6c1.1,0.8,2.7,0.2,3.5-1.1s0.7-3,0-4.4
			c-0.6-1.3-1.7-2.3-2.9-3s-2.5-1-3.8-1.3c-1-0.3-2-0.5-3-0.8c-1-0.3-2-0.6-3.1-0.7c-0.6-0.1-1.3,0-1.5,0.8
			c-0.2,0.8,0.3,0.9,0.9,0.9C87.3,25.3,88.4,25.6,89.4,26z"/>
	</g>
</g>
<g id="Layer_2">
</g>
</svg>
