<?xml version="1.0" encoding="utf-8"?>
<!-- Generator: Adobe Illustrator 25.2.1, SVG Export Plug-In . SVG Version: 6.00 Build 0)  -->
<svg version="1.1" id="Layer_2" xmlns="http://www.w3.org/2000/svg" xmlns:xlink="http://www.w3.org/1999/xlink" x="0px" y="0px"
	 viewBox="0 0 496 512" style="enable-background:new 0 0 496 512;" xml:space="preserve">
<style type="text/css">
	.st0{fill:#1E3F3B;}
</style>
<path class="st0" d="M277.3,165.8V76H136.4c-9.4,0-16.9,7.1-16.9,15.8v306.3c0,8.8,7.5,15.8,16.9,15.8h236.7
	c9.4,0,16.9-7.1,16.9-15.8V181.6h-95.8C284.9,181.6,277.3,174.5,277.3,165.8z M322.4,321.6c0,4.4-3.8,7.9-8.5,7.9H195.6
	c-4.6,0-8.5-3.6-8.5-7.9v-5.3c0-4.4,3.8-7.9,8.5-7.9h118.3c4.6,0,8.5,3.6,8.5,7.9V321.6z M322.4,279.3c0,4.4-3.8,7.9-8.5,7.9H195.6
	c-4.6,0-8.5-3.6-8.5-7.9V274c0-4.4,3.8-7.9,8.5-7.9h118.3c4.6,0,8.5,3.6,8.5,7.9V279.3z M322.4,231.8v5.3c0,4.4-3.8,7.9-8.5,7.9
	H195.6c-4.6,0-8.5-3.6-8.5-7.9v-5.3c0-4.4,3.8-7.9,8.5-7.9h118.3C318.6,223.9,322.4,227.4,322.4,231.8z M390,156.5v4h-90.2V76h4.3
	c4.5,0,8.8,1.7,12,4.6l69,64.7C388.2,148.3,390,152.3,390,156.5z"/>
</svg>
