<?xml version="1.0" encoding="utf-8"?>
<!-- Generator: Adobe Illustrator 25.2.1, SVG Export Plug-In . SVG Version: 6.00 Build 0)  -->
<svg version="1.1" id="Layer_1" xmlns="http://www.w3.org/2000/svg" xmlns:xlink="http://www.w3.org/1999/xlink" x="0px" y="0px"
	 viewBox="0 0 250 250" style="enable-background:new 0 0 250 250;" xml:space="preserve">
<style type="text/css">
	.st0{fill:#587C6B;}
	.st1{fill:#7A958B;}
	.st2{clip-path:url(#XMLID_2_);fill:#A9B3A3;}
	.st3{clip-path:url(#XMLID_3_);fill:#BD5840;}
	.st4{opacity:0.26;clip-path:url(#XMLID_3_);fill:#994322;}
	.st5{opacity:0.36;clip-path:url(#XMLID_3_);fill:#E18655;}
	.st6{fill:#A9B3A3;}
	.st7{clip-path:url(#XMLID_4_);fill:#A9B3A3;}
	.st8{clip-path:url(#XMLID_5_);fill:#BD5840;}
	.st9{opacity:0.26;clip-path:url(#XMLID_5_);fill:#994322;}
	.st10{opacity:0.36;clip-path:url(#XMLID_5_);fill:#E18655;}
	.st11{fill:#DF7D4A;}
</style>
<g>
	<g>
		
			<ellipse transform="matrix(0.7101 -0.7041 0.7041 0.7101 -88.2681 169.4852)" class="st0" cx="161.7" cy="191.9" rx="1.4" ry="7.1"/>
		
			<ellipse transform="matrix(0.7101 -0.7041 0.7041 0.7101 -87.9827 169.5863)" class="st1" cx="162" cy="191.6" rx="1.4" ry="7.1"/>
		
			<ellipse transform="matrix(0.7101 -0.7041 0.7041 0.7101 -87.7988 169.905)" class="st1" cx="162.4" cy="191.6" rx="0.6" ry="2.6"/>
	</g>
	<g>
		<defs>
			<path id="XMLID_119_" d="M165.6,195c-1-0.4-2.6-1.2-4.1-2.7c-1.6-1.6-2.4-3.4-2.8-4.3c4.1-4.1,8.3-8.3,12.4-12.4l7,7L165.6,195z"
				/>
		</defs>
		<use xlink:href="#XMLID_119_"  style="overflow:visible;fill:#DBD2A8;"/>
		<clipPath id="XMLID_2_">
			<use xlink:href="#XMLID_119_"  style="overflow:visible;"/>
		</clipPath>
		<polygon class="st2" points="176.7,179.9 162.3,194.1 164.1,197.1 179.3,182.3 		"/>
	</g>
	<g>
		<defs>
			<path id="XMLID_118_" d="M168.6,177.6c1.1,0.7,2.5,1.7,3.9,3c1.7,1.6,2.8,3.3,3.6,4.6c-1.2,1.3-2.5,2.6-3.8,3.9
				c-1.8,1.8-3.6,3.5-5.4,5c-0.9-1.3-2.1-2.6-3.5-4.1c-1.4-1.4-2.7-2.5-3.9-3.4c1.6-1.7,3.3-3.4,5.1-5.2
				C165.9,180.1,167.2,178.8,168.6,177.6z"/>
		</defs>
		<use xlink:href="#XMLID_118_"  style="overflow:visible;fill:#DF7D4A;"/>
		<clipPath id="XMLID_3_">
			<use xlink:href="#XMLID_118_"  style="overflow:visible;"/>
		</clipPath>
		<path class="st3" d="M174.1,184.3c0.5,0.6,1,1.3,1,2.1c-0.4-0.6-0.9-1.2-1.4-1.8c-0.5-0.6-1-1.1-1.6-1.6c-0.6-0.5-1.2-1-1.8-1.4
			c-0.6-0.4-1.3-0.8-1.9-1.2c-0.7-0.4-1.4-0.7-2.1-0.9c-0.1,0-0.2-0.1-0.3-0.1c0.2-0.1,0.4-0.2,0.6-0.2c0.2-0.1,0.4,0,0.6,0.1
			c0.6,0.3,1.3,0.6,1.9,0.9c1.2,0.7,2.3,1.5,3.4,2.4C173,183.1,173.6,183.7,174.1,184.3z"/>
		<path class="st3" d="M166.4,178.7c0.2,0.1,0.3,0.3,0.5,0.4c0.2,0.2,0.3,0.3,0.5,0.5c0.3,0.3,0.6,0.6,0.9,1c0.6,0.6,1.2,1.3,1.7,2
			c0.5,0.7,1.1,1.4,1.6,2.1c0.5,0.7,1,1.5,1.4,2.2c0.2,0.4,0.4,0.8,0.7,1.1c0.1,0.2,0.1,0.1,0.1-0.1c0-0.6-0.3-1.2-0.6-1.8
			c-0.3-0.7-0.7-1.4-1.2-2.1c-0.4-0.7-0.9-1.3-1.5-1.9c-0.5-0.6-1.1-1.2-1.7-1.7c-0.6-0.5-1.3-1-2-1.4
			C166.7,178.9,166.6,178.8,166.4,178.7z"/>
		<path class="st3" d="M173.7,187.3c-0.4-0.6-0.9-1.1-1.3-1.7c-0.5-0.5-1-1-1.5-1.5c-0.5-0.5-1.1-0.9-1.7-1.3
			c-0.6-0.4-1.2-0.8-1.8-1.1c-0.6-0.3-1.3-0.7-1.9-0.9c-0.1,0-0.2-0.1-0.2-0.1c0.2-0.2,0.4-0.4,0.7-0.3c0.2,0,0.4,0.2,0.6,0.3
			c0.7,0.4,1.4,0.8,2,1.3c0.6,0.5,1.3,1,1.9,1.5c0.6,0.5,1.2,1.1,1.7,1.7c0.5,0.6,1,1.2,1.5,1.9
			C173.6,187.1,173.7,187.2,173.7,187.3z"/>
		<path class="st3" d="M166.8,182.6c-0.9-0.5-1.9-1.1-3-1c0.1,0,0.2,0.1,0.2,0.1c0.1,0,0.2,0.1,0.2,0.1c0.2,0.1,0.3,0.2,0.5,0.3
			c0.3,0.2,0.7,0.4,1,0.5c0.7,0.4,1.3,0.8,1.9,1.2c0.6,0.4,1.2,0.8,1.8,1.3c0.6,0.5,1.2,0.9,1.7,1.4s1.1,1,1.6,1.6
			c0.1,0.1,0.3,0.3,0.4,0.4c0,0,0.1,0.1,0.2,0.1c0.1,0,0.1-0.2,0.1-0.3c0-0.2-0.1-0.4-0.2-0.6c-0.1-0.3-0.3-0.4-0.5-0.6
			c-0.6-0.5-1.1-1-1.7-1.5c-0.6-0.5-1.2-1-1.8-1.4s-1.3-0.9-1.9-1.3C167.2,182.8,167,182.7,166.8,182.6z"/>
		<path class="st3" d="M162.5,182.7c1.9,0.7,3.8,1.3,5.5,2.4c0.7,0.4,1.3,0.9,1.9,1.4c0.6,0.5,1.1,1.1,1.5,1.8
			c0.2,0.4,0.4,0.8,0.6,1.2c0.1-0.2,0.1-0.3,0-0.4c-0.1-0.2-0.2-0.4-0.3-0.5c-0.2-0.3-0.4-0.7-0.7-1c-0.5-0.6-1.1-1.2-1.7-1.8
			c-0.6-0.5-1.3-1-2-1.4c-0.7-0.4-1.5-0.7-2.2-1c-0.8-0.3-1.6-0.4-2.4-0.5C162.7,182.7,162.6,182.7,162.5,182.7z"/>
		<path class="st3" d="M166.4,183.9c0.5,1,1.1,2,1.6,3s1.1,2,1.6,3c0.2,0.3,0.3,0.6,0.5,0.8c0.1,0.3,0.3,0.6,0.5,0.8
			c0.2-0.3,0.4-0.7,0.3-1.1c-0.2-0.6-0.5-1.2-0.8-1.7c-0.6-1.1-1.3-2.2-2.1-3.2C167.4,184.9,166.9,184.4,166.4,183.9z"/>
		<path class="st3" d="M164.5,183.7c-0.5-0.5-1.1-1-1.8-0.8c0.1,0,0.3,0.3,0.4,0.4c0.1,0.1,0.3,0.2,0.4,0.4c0.3,0.3,0.5,0.5,0.8,0.8
			c0.5,0.5,1,1.1,1.4,1.6c0.9,1.1,1.7,2.3,2.5,3.5c0.4,0.6,0.7,1.3,1,1.9c-0.3-1.1-0.8-2.2-1.4-3.2c-0.6-1.1-1.2-2.1-2-3
			C165.4,184.7,164.9,184.2,164.5,183.7z"/>
		<path class="st3" d="M169.8,192.2c-2.6-2.9-5.4-5.9-9.1-7.2c0,0,0.4-0.4,0.5-0.4c0.1-0.1,0.2-0.2,0.3-0.1c0.4,0.2,0.7,0.4,1.1,0.6
			c0.7,0.4,1.4,0.9,2,1.4c0.6,0.5,1.3,1,1.9,1.6c0.6,0.6,1.2,1.2,1.7,1.8c0.5,0.6,1,1.3,1.5,2C169.6,192,169.7,192.1,169.8,192.2z"
			/>
		<path class="st3" d="M168.7,192.3c-0.5-0.5-1-1-1.6-1.5s-1.1-0.9-1.7-1.3c-0.6-0.4-1.2-0.8-1.9-1.2c-0.6-0.4-1.3-0.7-2-1
			c-0.7-0.3-1.4-0.5-2.1-0.8c-0.1,0-0.2,0-0.3-0.1c0.2-0.2,0.5-0.5,0.7-0.6c0.2-0.1,0.5,0.1,0.7,0.2c0.8,0.3,1.5,0.7,2.2,1.1
			c0.7,0.4,1.4,0.9,2.1,1.4c0.7,0.5,1.3,1,1.9,1.6c0.6,0.6,1.2,1.2,1.7,1.8C168.6,192.1,168.7,192.2,168.7,192.3z"/>
		<path class="st3" d="M162.4,189.7c0.8,0.6,1.7,1.2,2.5,1.8s1.7,1.2,2.5,1.8c0.1,0.1,0.3,0.3,0.4,0.2c0.1,0,0.1-0.2,0-0.3
			c0-0.3-0.2-0.6-0.4-0.8c-0.6-0.7-1.4-1.2-2.2-1.7c-0.8-0.5-1.6-0.8-2.5-1C162.7,189.8,162.6,189.7,162.4,189.7z"/>
		<path class="st3" d="M173,181.7c0.4,0.3,0.9,0.7,1.3,1c-1-1.6-2.8-2.5-4.4-3.3c-0.3-0.2-0.6-0.3-1-0.5c-0.3-0.1-0.6-0.3-0.9-0.4
			c0.1,0.1,0.2,0.1,0.4,0.2c0.2,0.1,0.4,0.1,0.5,0.2c0.4,0.2,0.7,0.3,1.1,0.5c0.7,0.4,1.4,0.9,2,1.4c0.2,0.1,0.4,0.3,0.5,0.4
			C172.6,181.4,172.8,181.5,173,181.7z"/>
		<path class="st4" d="M173.2,185.4c-0.5,0.6-1,1.3-1.8,1.4c0.2,0.2,0,0.6-0.3,0.7c-0.3,0.1-0.6,0-0.9,0c-0.3-0.1-0.6-0.1-0.9,0.1
			c-0.4,0.4-0.1,1.1-0.3,1.6c-0.1,0.4-0.4,0.6-0.8,0.8c-0.3,0.2-0.7,0.2-1.1,0.2c-0.9,0.1-1.7,0.2-2.6,0.3c0.5,1.4,1.3,2.7,2.4,3.8
			c3.5-1,6.2-3.6,8.3-6.6c0.5-0.8,1-1.6,1.1-2.5c0-0.6-0.3-1.3-0.9-1.7c-0.2-0.1-0.5-0.3-0.8-0.2c-0.1,0-0.2,0.1-0.3,0.2
			c-0.1,0.2-0.3,0.4-0.4,0.5C173.8,184.6,173.5,185,173.2,185.4z"/>
		<path class="st5" d="M172.7,182c-0.3,0.1-0.6,0.4-0.8,0.6c-1.1,1.1-2.1,2.1-3.2,3.2c-0.6,0.6-1.2,1.2-2,1.6
			c-1,0.5-2.1,0.6-3.1,1.2c-0.3,0.2-0.6,0.4-0.7,0.8c-0.1,0.3-0.1,0.8,0.2,1c0.3-0.5,0.8-0.8,1.4-0.9c0.5-0.2,1.1-0.2,1.7-0.4
			c1.1-0.4,2-1.1,2.8-1.9c1.1-0.9,2.1-1.9,3.2-2.8c0.3-0.3,0.7-0.6,1-0.9c0.3-0.3,0.7-0.6,1-0.9C173.8,182.1,173.2,181.8,172.7,182z
			"/>
	</g>
	<g>
		
			<ellipse transform="matrix(0.7101 -0.7041 0.7041 0.7101 -75.5642 174.9298)" class="st1" cx="174.7" cy="179.2" rx="1.4" ry="7.1"/>
		
			<ellipse transform="matrix(0.7101 -0.7041 0.7041 0.7101 -75.2788 175.0309)" class="st6" cx="174.9" cy="178.9" rx="1.4" ry="7.1"/>
		
			<ellipse transform="matrix(0.7101 -0.7041 0.7041 0.7101 -75.0949 175.3496)" class="st1" cx="175.4" cy="178.9" rx="0.6" ry="2.6"/>
	</g>
</g>
<g>
	<g>
		
			<ellipse transform="matrix(0.7311 -0.6823 0.6823 0.7311 -103.185 201.6507)" class="st0" cx="204.2" cy="231.7" rx="11.3" ry="2.2"/>
		
			<ellipse transform="matrix(0.7311 -0.6823 0.6823 0.7311 -103.0212 201.2427)" class="st1" cx="203.8" cy="231.3" rx="11.3" ry="2.2"/>
		
			<ellipse transform="matrix(0.7311 -0.6823 0.6823 0.7311 -102.5273 201.0062)" class="st1" cx="203.7" cy="230.6" rx="4.2" ry="0.9"/>
	</g>
	<g>
		<defs>
			<path id="XMLID_117_" d="M209.5,225.6c-0.7,1.5-2.1,4-4.6,6.4c-2.7,2.5-5.5,3.8-7,4.4c-6-6.4-12.1-12.9-18.1-19.3l11.6-10.9
				L209.5,225.6z"/>
		</defs>
		<use xlink:href="#XMLID_117_"  style="overflow:visible;fill:#DBD2A8;"/>
		<clipPath id="XMLID_4_">
			<use xlink:href="#XMLID_117_"  style="overflow:visible;"/>
		</clipPath>
		<polygon class="st7" points="186.9,208.5 207.6,230.7 212.5,228.1 190.9,204.4 		"/>
	</g>
	<g>
		<defs>
			<path id="XMLID_116_" d="M182.6,221.1c1.2-1.8,2.9-3.9,5.1-6c2.7-2.6,5.4-4.4,7.5-5.6c1.9,1.9,3.8,3.8,5.7,5.9
				c2.6,2.8,5,5.6,7.3,8.3c-2,1.4-4.3,3.2-6.7,5.5c-2.3,2.2-4.1,4.3-5.7,6.2c-2.5-2.5-5-5.1-7.6-7.9
				C186.2,225.3,184.4,223.1,182.6,221.1z"/>
		</defs>
		<use xlink:href="#XMLID_116_"  style="overflow:visible;fill:#DF7D4A;"/>
		<clipPath id="XMLID_5_">
			<use xlink:href="#XMLID_116_"  style="overflow:visible;"/>
		</clipPath>
		<path class="st8" d="M193.5,212.5c1-0.8,2.2-1.6,3.4-1.5c-1,0.7-2,1.4-2.9,2.2c-0.9,0.8-1.8,1.6-2.7,2.5c-0.8,0.9-1.6,1.8-2.4,2.8
			c-0.7,1-1.4,2-2,3c-0.6,1-1.2,2.1-1.7,3.2c-0.1,0.1-0.1,0.3-0.2,0.4c-0.1-0.3-0.2-0.6-0.3-1c-0.1-0.3,0-0.6,0.2-0.9
			c0.5-1,1-2,1.6-2.9c1.2-1.9,2.6-3.6,4.1-5.2C191.6,214.1,192.5,213.3,193.5,212.5z"/>
		<path class="st8" d="M184.1,224.5c0.2-0.3,0.5-0.5,0.7-0.7c0.3-0.2,0.5-0.5,0.8-0.7c0.5-0.5,1-0.9,1.6-1.4
			c1.1-0.9,2.2-1.8,3.3-2.7c1.1-0.9,2.3-1.7,3.4-2.5s2.4-1.5,3.6-2.2c0.6-0.4,1.2-0.7,1.8-1c0.3-0.2,0.1-0.2-0.1-0.2
			c-1,0.1-2,0.5-2.9,0.9c-1.2,0.5-2.3,1.1-3.4,1.8c-1.1,0.7-2.1,1.4-3.1,2.3c-1,0.8-1.9,1.7-2.8,2.7c-0.9,1-1.7,2-2.4,3.1
			C184.4,223.9,184.2,224.2,184.1,224.5z"/>
		<path class="st8" d="M198.2,213c-0.9,0.6-1.9,1.4-2.7,2.1c-0.9,0.7-1.7,1.5-2.5,2.4c-0.8,0.8-1.5,1.7-2.2,2.6
			c-0.7,0.9-1.3,1.9-1.9,2.8c-0.6,1-1.1,2-1.6,3c-0.1,0.1-0.1,0.3-0.2,0.4c-0.2-0.3-0.5-0.7-0.5-1c0.1-0.3,0.3-0.7,0.5-0.9
			c0.7-1.1,1.5-2.1,2.3-3.1c0.8-1,1.7-2,2.6-2.9c0.9-0.9,1.9-1.8,2.8-2.7c1-0.8,2-1.6,3.1-2.4C197.9,213.2,198,213.1,198.2,213z"/>
		<path class="st8" d="M190.2,223.8c-0.9,1.5-1.8,3-1.9,4.7c0-0.1,0.2-0.3,0.2-0.4c0.1-0.1,0.1-0.3,0.2-0.4c0.1-0.3,0.3-0.5,0.4-0.8
			c0.3-0.5,0.6-1,0.9-1.5c0.6-1,1.3-2,2-3c0.7-1,1.4-1.9,2.2-2.8c0.8-0.9,1.6-1.8,2.4-2.7c0.8-0.9,1.7-1.7,2.6-2.5
			c0.2-0.2,0.4-0.4,0.7-0.6c0.1-0.1,0.2-0.2,0.2-0.3c0-0.2-0.3-0.1-0.5-0.1c-0.3,0-0.7,0.1-1,0.3c-0.4,0.2-0.7,0.5-1,0.8
			c-0.9,0.9-1.7,1.8-2.5,2.7c-0.8,0.9-1.6,1.9-2.4,2.9s-1.5,2-2.2,3C190.5,223.3,190.4,223.5,190.2,223.8z"/>
		<path class="st8" d="M189.9,230.5c1.2-3,2.4-5.9,4.2-8.6c0.7-1,1.5-2,2.4-3c0.9-0.9,1.8-1.7,2.9-2.4c0.6-0.4,1.2-0.7,1.9-1
			c-0.3-0.1-0.4-0.1-0.6,0.1c-0.3,0.2-0.6,0.3-0.8,0.5c-0.6,0.3-1.1,0.7-1.6,1.1c-1.1,0.8-2,1.6-2.9,2.6c-0.9,1-1.7,2-2.4,3.1
			c-0.7,1.1-1.3,2.3-1.8,3.5c-0.5,1.2-0.8,2.4-1,3.7C189.9,230.2,189.9,230.4,189.9,230.5z"/>
		<path class="st8" d="M192.1,224.5c1.6-0.8,3.2-1.7,4.8-2.5c1.6-0.8,3.2-1.7,4.8-2.5c0.5-0.2,0.9-0.5,1.4-0.7
			c0.4-0.2,0.9-0.4,1.3-0.7c-0.5-0.3-1.1-0.7-1.7-0.4c-0.9,0.3-1.9,0.8-2.8,1.3c-1.8,0.9-3.6,2.1-5.2,3.4
			C193.9,222.9,193,223.7,192.1,224.5z"/>
		<path class="st8" d="M191.7,227.4c-0.8,0.7-1.6,1.7-1.5,2.7c0-0.1,0.5-0.5,0.6-0.6c0.2-0.2,0.4-0.4,0.6-0.6
			c0.4-0.4,0.8-0.8,1.3-1.2c0.9-0.8,1.7-1.5,2.7-2.2c1.8-1.4,3.8-2.7,5.8-3.8c1-0.6,2-1.1,3.1-1.6c-1.8,0.5-3.5,1.3-5.2,2.1
			c-1.7,0.9-3.3,1.9-4.9,3.1C193.3,226,192.5,226.7,191.7,227.4z"/>
		<path class="st8" d="M205.4,219.2c-4.8,4.1-9.7,8.4-12.1,14.2c0-0.1-0.5-0.6-0.6-0.7c-0.2-0.2-0.3-0.3-0.1-0.5
			c0.3-0.6,0.7-1.1,1.1-1.7c0.8-1.1,1.6-2.1,2.4-3.1c0.9-1,1.8-2,2.7-2.9c0.9-0.9,1.9-1.8,3-2.6c1-0.8,2.1-1.6,3.2-2.3
			C205.1,219.4,205.2,219.3,205.4,219.2z"/>
		<path class="st8" d="M205.5,220.8c-0.9,0.8-1.7,1.6-2.5,2.5c-0.8,0.9-1.6,1.8-2.3,2.7c-0.7,0.9-1.4,1.9-2,2.9
			c-0.6,1-1.2,2-1.7,3.1c-0.5,1.1-1,2.1-1.4,3.2c0,0.1-0.1,0.3-0.1,0.4c-0.3-0.3-0.7-0.7-0.8-1.1c-0.1-0.4,0.2-0.8,0.4-1.1
			c0.6-1.2,1.3-2.3,2-3.4c0.7-1.1,1.5-2.2,2.4-3.2c0.8-1,1.8-2,2.7-2.9c1-0.9,2-1.8,3-2.6C205.2,221,205.4,220.9,205.5,220.8z"/>
		<path class="st8" d="M200.8,230.6c1-1.3,2.1-2.6,3.1-3.9c1-1.3,2.1-2.6,3.1-3.9c0.1-0.1,0.4-0.4,0.4-0.6c-0.1-0.1-0.3-0.1-0.4-0.1
			c-0.5,0.1-1,0.3-1.3,0.7c-1.1,1-2,2.2-2.8,3.4c-0.8,1.2-1.4,2.6-1.9,3.9C200.9,230.2,200.9,230.4,200.8,230.6z"/>
		<path class="st8" d="M189.3,214.2c0.6-0.7,1.1-1.3,1.7-2c-2.6,1.5-4.1,4.3-5.6,6.9c-0.3,0.5-0.5,1-0.8,1.5
			c-0.2,0.4-0.6,0.9-0.7,1.4c0.2-0.1,0.2-0.4,0.3-0.6c0.1-0.3,0.3-0.6,0.4-0.9c0.3-0.6,0.6-1.1,1-1.6c0.7-1.1,1.5-2.1,2.3-3.1
			c0.2-0.3,0.5-0.6,0.7-0.8C188.9,214.8,189.1,214.5,189.3,214.2z"/>
		<path class="st9" d="M195.2,213.9c0.9,0.7,1.9,1.6,2.1,2.8c0.4-0.3,1,0,1.1,0.4c0.1,0.4,0,0.9-0.1,1.4s-0.2,1,0.1,1.4
			c0.5,0.7,1.7,0.2,2.5,0.5c0.6,0.2,1,0.6,1.2,1.2c0.2,0.5,0.2,1.1,0.3,1.7c0.1,1.3,0.2,2.7,0.3,4c2.3-0.7,4.4-2,6.1-3.7
			c-1.2-5.4-5.1-9.7-9.5-12.9c-1.1-0.8-2.4-1.6-3.8-1.6c-1,0-2.1,0.5-2.7,1.3c-0.2,0.3-0.5,0.8-0.4,1.2c0,0.2,0.2,0.3,0.3,0.4
			c0.3,0.2,0.5,0.4,0.8,0.6C194,213,194.6,213.4,195.2,213.9z"/>
		<path class="st10" d="M189.8,214.7c0.2,0.5,0.5,0.9,0.9,1.3c1.5,1.6,3.1,3.3,4.6,4.9c0.9,0.9,1.8,1.9,2.3,3.1
			c0.7,1.5,0.8,3.3,1.6,4.8c0.3,0.5,0.6,0.9,1.1,1.1c0.5,0.2,1.2,0.1,1.5-0.4c-0.7-0.5-1.1-1.3-1.3-2.2c-0.2-0.8-0.3-1.7-0.5-2.6
			c-0.5-1.7-1.6-3.1-2.7-4.4c-1.4-1.6-2.7-3.3-4.1-4.9c-0.4-0.5-0.9-1-1.3-1.6c-0.4-0.5-0.8-1.1-1.3-1.6
			C190.1,212.9,189.6,213.8,189.8,214.7z"/>
	</g>
	<g>
		
			<ellipse transform="matrix(0.7311 -0.6823 0.6823 0.7311 -94.4432 183.586)" class="st1" cx="185.7" cy="211.6" rx="11.3" ry="2.2"/>
		
			<ellipse transform="matrix(0.7311 -0.6823 0.6823 0.7311 -94.2794 183.178)" class="st6" cx="185.3" cy="211.2" rx="11.3" ry="2.2"/>
		
			<ellipse transform="matrix(0.7311 -0.6823 0.6823 0.7311 -93.7855 182.9415)" class="st1" cx="185.2" cy="210.5" rx="4.2" ry="0.9"/>
	</g>
</g>
<g>
	<g>
		<path class="st11" d="M119.7,114.4c-5.4-1.2-10.9-2.5-16.3-3.7c-5.1-1.1-10.6-0.2-15.2,2.5c-5.2,3.1-8.8,8.9-10.8,14.5
			c-3.8,10.9-1.4,23.2,6.3,31.8c6,6.7,14.5,10.3,23.4,10.6c12.9,0.5,25.7,0.9,38.6,1.4c6.2,0.2,12.3,0.5,18.5,0
			c5.5-0.4,11-0.9,16.5-1.4c5.3-0.4,10.5,1,14.9,3.9c5,3.4,8.4,8.5,10.1,14.2c1.8,6.3,1.3,13.1-1.3,19.1c-1.2,2.8-2.4,5.6-3.7,8.4
			c-0.4,0.9-0.8,1.7-1.1,2.6c-0.2,0.5,2.5,0.2,2.9-0.5c1.1-2.6,2.3-5.2,3.4-7.8c1.6-3.7,3.1-7.3,3.6-11.4c1.4-11.9-5-24-16.5-28.2
			c-7.1-2.6-15-1.1-22.3-0.5c-5.8,0.5-11.6,0.8-17.4,0.6c-13.2-0.5-26.3-0.9-39.5-1.4c-1.7-0.1-3.5-0.1-5.2-0.2
			c-4.1-0.2-8.1-1-11.9-2.7c-9.7-4.5-16.6-13.8-18.1-24.4c-0.8-6.3,0.2-12.8,3-18.4c2.6-5.4,6.9-10.8,13.2-11.8
			c3.3-0.5,6.4,0.3,9.6,1c3.5,0.8,7,1.6,10.6,2.4c0.7,0.2,1.4,0.3,2.2,0.5c0.6,0.1,1.5-0.1,2-0.4C119.6,115,120.3,114.5,119.7,114.4
			L119.7,114.4z"/>
	</g>
</g>
</svg>
