<?xml version="1.0" encoding="utf-8"?>
<!-- Generator: Adobe Illustrator 25.2.1, SVG Export Plug-In . SVG Version: 6.00 Build 0)  -->
<svg version="1.1" id="Layer_2" xmlns="http://www.w3.org/2000/svg" xmlns:xlink="http://www.w3.org/1999/xlink" x="0px" y="0px"
	 viewBox="0 0 195.4 30" style="enable-background:new 0 0 195.4 30;" xml:space="preserve">
<style type="text/css">
	.st0{fill:#28635C;}
	.st1{opacity:0.33;fill:#AAC6B5;enable-background:new    ;}
</style>
<g id="footer-bg">
	<g>
		<rect x="-0.6" y="0.2" class="st0" width="196.4" height="29.7"/>
		<path class="st1" d="M64.2,3.4h-13c-0.6,0-1.1-0.5-1.1-1.1l0,0c0-0.6,0.5-1.1,1.1-1.1h13c0.6,0,1.1,0.5,1.1,1.1l0,0
			C65.4,2.9,64.9,3.4,64.2,3.4z"/>
		<path class="st1" d="M73.7,3.3h-4.9c-0.6,0-1.1-0.5-1.1-1.1l0,0c0-0.6,0.5-1.1,1.1-1.1h4.9c0.6,0,1.1,0.5,1.1,1.1l0,0
			C74.8,2.8,74.3,3.3,73.7,3.3z"/>
		<path class="st1" d="M82.8,6.8H62.2c-0.6,0-1.1-0.5-1.1-1.1l0,0c0-0.6,0.5-1.1,1.1-1.1h20.6C83.5,4.5,84,5,84,5.6l0,0
			C83.9,6.3,83.5,6.8,82.8,6.8z"/>
		<path class="st1" d="M135,11.4h-13c-0.6,0-1.1-0.5-1.1-1.1l0,0c0-0.6,0.5-1.1,1.1-1.1h13c0.6,0,1.1,0.5,1.1,1.1l0,0
			C136.2,10.9,135.7,11.4,135,11.4z"/>
		<path class="st1" d="M144.5,11.3h-4.9c-0.6,0-1.1-0.5-1.1-1.1l0,0c0-0.6,0.5-1.1,1.1-1.1h4.9c0.6,0,1.1,0.5,1.1,1.1l0,0
			C145.6,10.8,145.1,11.3,144.5,11.3z"/>
		<path class="st1" d="M153.6,14.8H133c-0.6,0-1.1-0.5-1.1-1.1l0,0c0-0.6,0.5-1.1,1.1-1.1h20.6c0.6,0,1.1,0.5,1.1,1.1l0,0
			C154.8,14.3,154.3,14.8,153.6,14.8z"/>
		<path class="st1" d="M7.5,3.5h-13c-0.6,0-1.1-0.5-1.1-1.1l0,0c0-0.6,0.5-1.1,1.1-1.1h13c0.6,0,1.1,0.5,1.1,1.1l0,0
			C8.6,3,8.1,3.5,7.5,3.5z"/>
		<path class="st1" d="M16.9,3.4H12c-0.6,0-1.1-0.5-1.1-1.1l0,0c0-0.6,0.5-1.1,1.1-1.1h4.9c0.6,0,1.1,0.5,1.1,1.1l0,0
			C18.1,2.9,17.5,3.4,16.9,3.4z"/>
		<path class="st1" d="M12.2,6.9H4c-0.6,0-1.1-0.5-1.1-1.1l0,0c0-0.6,0.5-1.1,1.1-1.1h8.3c0.6,0,1.1,0.5,1.1,1.1l0,0
			C13.4,6.4,12.9,6.9,12.2,6.9z"/>
	</g>
</g>
</svg>
