<?xml version="1.0" encoding="utf-8"?>
<!-- Generator: Adobe Illustrator 25.2.1, SVG Export Plug-In . SVG Version: 6.00 Build 0)  -->
<svg version="1.1" id="Layer_3_1_" xmlns="http://www.w3.org/2000/svg" xmlns:xlink="http://www.w3.org/1999/xlink" x="0px" y="0px"
	 viewBox="0 0 250 250" style="enable-background:new 0 0 250 250;" xml:space="preserve">
<style type="text/css">
	.st0{opacity:0.76;clip-path:url(#XMLID_3_);fill:#7A958B;enable-background:new    ;}
	.st1{fill:#E0753E;}
	.st2{fill:#EB7A41;}
	.st3{opacity:0.18;fill:#132427;enable-background:new    ;}
	.st4{fill:#CC4728;}
	.st5{fill:#AAC7B4;}
	.st6{fill:#17443E;}
	.st7{fill:#7A958B;enable-background:new    ;}
	.st8{fill:#E58961;}
	.st9{clip-path:url(#XMLID_4_);fill:#E0DAB3;}
	.st10{clip-path:url(#XMLID_4_);fill:#C1BB95;}
	.st11{clip-path:url(#XMLID_4_);fill:#EDE6BE;}
</style>
<g>
	<defs>
		<rect id="XMLID_1_" x="109.7" y="62.2" width="11.5" height="137.2"/>
	</defs>
	<use xlink:href="#XMLID_1_"  style="overflow:visible;fill:#AAC7B4;"/>
	<clipPath id="XMLID_3_">
		<use xlink:href="#XMLID_1_"  style="overflow:visible;"/>
	</clipPath>
	<rect x="116.3" y="59.4" class="st0" width="10.6" height="142.1"/>
</g>
<path class="st1" d="M97.6,17.2H134c9.2,0,16.7,7.5,16.7,16.7V60H80.9V33.9C80.9,24.7,88.4,17.2,97.6,17.2z"/>
<path class="st2" d="M97.1,17.2h3.8c9.2,0,16.7,7.5,16.7,16.7v26.5H80.3V33.9C80.3,24.7,87.8,17.2,97.1,17.2z"/>
<path class="st3" d="M98.8,18.8L98.8,18.8c9.2,0,16.7,7.5,16.7,16.7v25H82.1v-25C82.1,26.3,89.5,18.8,98.8,18.8z"/>
<rect x="59.5" y="59.1" class="st4" width="92.2" height="3.1"/>
<rect x="120.7" y="1.7" class="st5" width="2.7" height="29.2"/>
<polygon class="st6" points="131.6,1.5 129.1,5.1 131.8,8 120.7,8.2 120.7,1.7 "/>
<circle class="st7" cx="122.4" cy="31.1" r="3.5"/>
<path class="st8" d="M140,24.8h-15.4c-0.5,0-1-0.4-1-1v-0.5c0-0.5,0.4-1,1-1H140c0.5,0,1,0.4,1,1v0.5C141,24.4,140.6,24.8,140,24.8z
	"/>
<g>
	<defs>
		<path id="XMLID_13_" d="M100.1,58.9H68.6c-1.2,0-2.2-1-2.2-2.2v-20c0-1.2,1-2.2,2.2-2.2h31.5c1.2,0,2.2,1,2.2,2.2v20
			C102.3,58,101.3,58.9,100.1,58.9z"/>
	</defs>
	<use xlink:href="#XMLID_13_"  style="overflow:visible;fill:#F4EEC3;"/>
	<clipPath id="XMLID_4_">
		<use xlink:href="#XMLID_13_"  style="overflow:visible;"/>
	</clipPath>
	<path class="st9" d="M63.8,61.4l18.7-15c1.4-1.1,3.3-1,4.6,0.1l17.4,15.3L63.8,61.4z"/>
	<path class="st10" d="M64.9,33.5l16.9,14.6c1.4,1.2,3.6,1.2,5,0l16.4-14.2L64.9,33.5z"/>
	<path class="st11" d="M64.9,33.1l16.9,14.6c1.4,1.2,3.6,1.2,5,0l16.4-14.2"/>
</g>
</svg>
