<?xml version="1.0" encoding="utf-8"?>
<!-- Generator: Adobe Illustrator 25.2.1, SVG Export Plug-In . SVG Version: 6.00 Build 0)  -->
<svg version="1.1" id="Layer_1" xmlns="http://www.w3.org/2000/svg" xmlns:xlink="http://www.w3.org/1999/xlink" x="0px" y="0px"
	 viewBox="0 0 150 29.9" style="enable-background:new 0 0 150 29.9;" xml:space="preserve">
<style type="text/css">
	.st0{fill:#174343;}
	.st1{opacity:0.49;clip-path:url(#SVGID_2_);fill:#123837;enable-background:new    ;}
	.st2{fill:#28635C;}
	.st3{opacity:0.29;clip-path:url(#SVGID_4_);fill:#174343;enable-background:new    ;}
	.st4{clip-path:url(#SVGID_6_);fill:#EBE6C8;}
	.st5{fill:#EBE6C8;}
</style>
<g id="Layer_3">
	<g id="footer-separator">
		<g>
			<g>
				<rect id="XMLID_99_" x="-0.2" y="-0.3" class="st0" width="150.2" height="31"/>
			</g>
			<g>
				<g>
					<defs>
						<rect id="SVGID_1_" x="-0.2" y="-0.3" width="150.2" height="31"/>
					</defs>
					<clipPath id="SVGID_2_">
						<use xlink:href="#SVGID_1_"  style="overflow:visible;"/>
					</clipPath>
					<path class="st1" d="M152.8,0.9l-9-0.5c-5.7-0.3-11.3,0.8-16.6,3.1l0,0c-4,1.8-7.8,4.4-11.1,7.5l-2.8,2.7
						c-4.1,4-9.1,6.7-14.5,7.8l0,0c-5.6,1.1-11.3,0.5-16.5-1.8l-7.2-3.2c-3.9-1.7-8.1-2.7-12.3-2.9L51,12.9
						c-2.4-0.1-4.8-0.6-7.2-1.4C36.7,9.2,21.1,4,20.5,4S-0.9,0.6-0.9,0.6l0.2,33L151,32.5L152.8,0.9z"/>
				</g>
			</g>
		</g>
		<g>
			<g>
				<path id="XMLID_100_" class="st2" d="M150.2,3.4l-4.7,0.1c-5.4,0.1-10.8,1.2-15.8,3.4l0,0c-4.3,1.9-8.3,4.4-11.7,7.6l-1.1,1
					c-4.7,4.4-10.8,7.2-17.2,8.1l0,0c-3.8,0.5-7.6,0.4-11.4-0.5L70.2,19c-2-0.5-4.1-0.8-6.2-1.1L49.4,16c-3.9-0.5-7.8-1.3-11.6-2.4
					L19.3,8.3c-1.9-0.5-3.9-1-5.9-1.4L-0.4,4l0.2,26.6H150L150.2,3.4z"/>
			</g>
			<g>
				<g>
					<defs>
						<path id="SVGID_3_" d="M150.2,3.4l-4.7,0.1c-5.4,0.1-10.8,1.2-15.8,3.4l0,0c-4.3,1.9-8.3,4.4-11.7,7.6l-1.1,1
							c-4.7,4.4-10.8,7.2-17.2,8.1l0,0c-3.8,0.5-7.6,0.4-11.4-0.5L70.2,19c-2-0.5-4.1-0.8-6.2-1.1L49.4,16
							c-3.9-0.5-7.8-1.3-11.6-2.4L19.3,8.3c-1.9-0.5-3.9-1-5.9-1.4L-0.4,4l0.2,26.6H150L150.2,3.4z"/>
					</defs>
					<clipPath id="SVGID_4_">
						<use xlink:href="#SVGID_3_"  style="overflow:visible;"/>
					</clipPath>
					<path class="st3" d="M-2.8,17l12.3-0.5c8.2-0.4,16.4,0.7,24.2,3.1l6.5,2c4.7,1.4,9.5,2.2,14.3,2.2h17.4c1,0,1.9,0.1,2.8,0.2
						l16.5,2.3c4.3,0.6,8.7,0.6,13,0.1l3.3-0.4c6.9-0.9,13.5-3.4,19.3-7.4l0,0c1.7-1.2,3.6-2.5,5.3-3.8c4.8-3.6,10.5-5.8,16.5-6.4
						l2-0.2l-0.7,22.5H-1.3L-2.8,17z"/>
				</g>
			</g>
			<g>
				<g>
					<defs>
						<path id="SVGID_5_" d="M150.2,3.4l-4.7,0.1c-5.4,0.1-10.8,1.2-15.8,3.4l0,0c-4.3,1.9-8.3,4.4-11.7,7.6l-1.1,1
							c-4.7,4.4-10.8,7.2-17.2,8.1l0,0c-3.8,0.5-7.6,0.4-11.4-0.5L70.2,19c-2-0.5-4.1-0.8-6.2-1.1L49.4,16
							c-3.9-0.5-7.8-1.3-11.6-2.4L19.3,8.3c-1.9-0.5-3.9-1-5.9-1.4L-0.4,4l0.2,26.6H150L150.2,3.4z"/>
					</defs>
					<clipPath id="SVGID_6_">
						<use xlink:href="#SVGID_5_"  style="overflow:visible;"/>
					</clipPath>
					<path class="st4" d="M153,11.1l-3.1,0.4c-5.8,0.8-11.4,2.7-16.4,5.8l-5.5,3.4c-7.6,4.7-16.3,7.5-25.3,8L97.4,29
						c-2.6,0.2-5.3,0.1-7.9-0.2l-16.7-1.6c-2.8-0.3-5.6-0.4-8.4-0.3l-12.6,0.3c-5.2,0.2-10.4-0.5-15.4-1.8l-18.9-5.2
						c-3.1-0.8-6.3-1.3-9.4-1.4l-9.7-0.3l-0.8,15.4l153.9-0.2L153,11.1z"/>
				</g>
			</g>
		</g>
		<path class="st5" d="M109.3,10.5c-1.8,0.4-3.4,1.7-4.9,3c-2.2,1.9-4.5,3.7-6.7,5.6c-0.6,0.5-1.3,1.1-1.6,1.9c-0.3,1,0,2.1,0.6,2.8
			c0.6,0.7,1.5,1,2.3,1.3c3.9,1.1,8.3,0.7,12.1-1.4c1.7-0.9,3.3-2.1,4.5-3.8c0.7-1,1.3-2.1,1.5-3.3c0.2-0.8,0.4-1.9,0-2.6
			c-0.4-0.7-1.1-1.1-1.7-1.6c-0.8-0.7-1.8-1.3-2.8-1.7C111.6,10.4,110.4,10.2,109.3,10.5z"/>
	</g>
</g>
</svg>
