<?xml version="1.0" encoding="utf-8"?>
<!-- Generator: Adobe Illustrator 25.2.1, SVG Export Plug-In . SVG Version: 6.00 Build 0)  -->
<svg version="1.1" id="Layer_1" focusable="false" xmlns="http://www.w3.org/2000/svg" xmlns:xlink="http://www.w3.org/1999/xlink"
	 x="0px" y="0px" viewBox="0 0 496 512" style="enable-background:new 0 0 496 512;" xml:space="preserve">
<style type="text/css">
	.st0{fill:#1E3F3B;}
</style>
<path class="st0" d="M173.1,398.1c0,2-2.2,3.6-5,3.6c-3.2,0.3-5.4-1.3-5.4-3.6c0-2,2.2-3.6,5-3.6
	C170.6,394.2,173.1,395.8,173.1,398.1z M143.2,393.6c-0.7,2,1.3,4.3,4.1,4.9c2.5,1,5.4,0,6-2c0.6-2-1.3-4.3-4.1-5.2
	C146.6,390.6,143.8,391.6,143.2,393.6L143.2,393.6z M185.7,391.9c-2.8,0.7-4.7,2.6-4.4,4.9c0.3,2,2.8,3.3,5.7,2.6
	c2.8-0.7,4.7-2.6,4.4-4.6C191.1,392.9,188.5,391.6,185.7,391.9z M249,8.7C115.6,8.7,13.4,114,13.4,252.7
	c0,110.9,67.2,205.8,163.1,239.2c12.3,2.3,16.6-5.6,16.6-12.1c0-6.2-0.3-40.4-0.3-61.4c0,0-67.4,15-81.5-29.8c0,0-11-29.1-26.8-36.6
	c0,0-22-15.7,1.5-15.4c0,0,24,2,37.1,25.8c21.1,38.6,56.4,27.5,70.2,20.9c2.2-16,8.5-27.1,15.4-33.7
	c-53.8-6.2-108.1-14.3-108.1-110.5c0-27.5,7.3-41.3,22.7-58.9c-2.5-6.5-10.7-33.3,2.5-67.9c20.1-6.5,66.4,27,66.4,27
	c19.2-5.6,39.9-8.5,60.4-8.5s41.2,2.9,60.4,8.5c0,0,46.3-33.6,66.4-27c13.2,34.7,5,61.4,2.5,67.9c15.4,17.7,24.8,31.5,24.8,58.9
	c0,96.5-56.7,104.2-110.5,110.5c8.9,7.9,16.4,22.9,16.4,46.4c0,33.7-0.3,75.4-0.3,83.6c0,6.5,4.4,14.4,16.6,12.1
	c96.2-33.2,161.5-128.1,161.5-239C490.8,114,382.5,8.7,249,8.7z M107,353.6c-1.3,1-1,3.3,0.7,5.2c1.5,1.6,3.8,2.3,5,1
	c1.3-1,1-3.3-0.7-5.2C110.5,353,108.2,352.3,107,353.6z M96.6,345.5c-0.7,1.3,0.3,2.9,2.2,3.9c1.5,1,3.5,0.7,4.1-0.7
	c0.7-1.3-0.3-2.9-2.2-3.9C98.8,344.2,97.3,344.5,96.6,345.5z M127.8,381.1c-1.5,1.3-1,4.3,1.3,6.2c2.2,2.3,5,2.6,6.3,1
	c1.3-1.3,0.7-4.3-1.3-6.2C131.9,379.8,129,379.5,127.8,381.1z M116.8,366.4c-1.5,1-1.5,3.6,0,5.9s4.1,3.3,5.4,2.3
	c1.5-1.3,1.5-3.9,0-6.2C120.8,366.1,118.3,365.1,116.8,366.4L116.8,366.4z"/>
</svg>
