<?xml version="1.0" encoding="utf-8"?>
<!-- Generator: Adobe Illustrator 25.2.1, SVG Export Plug-In . SVG Version: 6.00 Build 0)  -->
<svg version="1.1" id="Layer_3" xmlns="http://www.w3.org/2000/svg" xmlns:xlink="http://www.w3.org/1999/xlink" x="0px" y="0px"
	 viewBox="0 0 496 512" style="enable-background:new 0 0 496 512;" xml:space="preserve">
<style type="text/css">
	.st0{fill:#1E3F3B;}
</style>
<path class="st0" d="M124.5,56.8c-2.7-7.7-13.6-7.7-16.3,0L59.4,207.8h114C173.2,207.8,124.5,56.8,124.5,56.8z M34.4,283.7
	c-2.2,6.9,0.3,14.6,6.1,19l214,158.9L59.3,207.8L34.4,283.7z M173.2,207.8l81.4,253.8l81.4-253.8H173.2z M474.9,283.7l-24.9-76
	L254.7,461.6l214-158.9C474.6,298.3,477.1,290.6,474.9,283.7z M401.2,56.8c-2.7-7.7-13.6-7.7-16.3,0L336,207.8h114L401.2,56.8z"/>
</svg>
