<?xml version="1.0" encoding="utf-8"?>
<!-- Generator: Adobe Illustrator 25.2.1, SVG Export Plug-In . SVG Version: 6.00 Build 0)  -->
<svg version="1.1" id="Layer_1" xmlns="http://www.w3.org/2000/svg" xmlns:xlink="http://www.w3.org/1999/xlink" x="0px" y="0px"
	 viewBox="0 0 16 16" style="enable-background:new 0 0 16 16;" xml:space="preserve">
<style type="text/css">
	.st0{fill-rule:evenodd;clip-rule:evenodd;fill:#25635C;}
</style>
<path class="st0" d="M1.2,13.2c0-0.4,0.3-0.6,0.6-0.6h12.3c0.3,0,0.6,0.3,0.6,0.6s-0.3,0.6-0.6,0.6H1.9C1.5,13.9,1.2,13.6,1.2,13.2z
	 M1.2,8.1c0-0.4,0.3-0.7,0.6-0.7h12.3c0.3,0,0.6,0.3,0.6,0.7c0,0.4-0.3,0.6-0.6,0.6H1.9C1.5,8.7,1.2,8.4,1.2,8.1z M1.2,2.8
	c0-0.4,0.3-0.6,0.6-0.6h12.3c0.3,0,0.6,0.3,0.6,0.6c0,0.4-0.3,0.7-0.6,0.7H1.9C1.5,3.5,1.2,3.2,1.2,2.8z"/>
</svg>
