<?xml version="1.0" encoding="utf-8"?>
<!-- Generator: Adobe Illustrator 25.2.1, SVG Export Plug-In . SVG Version: 6.00 Build 0)  -->
<svg version="1.1" id="Layer_2_1_" xmlns="http://www.w3.org/2000/svg" xmlns:xlink="http://www.w3.org/1999/xlink" x="0px" y="0px"
	 viewBox="0 0 150 118.7" style="enable-background:new 0 0 150 118.7;" xml:space="preserve">
<style type="text/css">
	.st0{fill:#1A2E36;}
	.st1{fill:#142427;}
	.st2{fill:#DF7D4A;}
	.st3{fill:#F4CE8D;}
	.st4{fill:#E5C388;}
	.st5{fill:#C6744F;}
	.st6{fill:#CD4828;}
	.st7{fill:#F4EEC3;}
	.st8{opacity:0.35;fill:#EA5958;enable-background:new    ;}
	.st9{opacity:0.48;fill:#E18655;enable-background:new    ;}
	.st10{opacity:0.61;fill:#CE8754;enable-background:new    ;}
	.st11{fill:#E6E7E7;}
	.st12{fill:#EA5958;}
	.st13{fill:#B0262C;}
	.st14{fill:#D3D4D4;}
	.st15{opacity:0.36;fill:#DF7D4A;enable-background:new    ;}
	.st16{fill:#E18655;}
	.st17{fill:#7A958B;}
</style>
<g id="intro-scene-bg_copy">
	<g id="Layer_1_3_">
		<g id="Layer_1_4_">
			<g>
				<path class="st0" d="M67,52.2c0,1.4,0.4,2.7,0.9,3.8c-0.6-0.1-1.3-0.2-1.9-0.4c-0.1,0-0.2-0.1-0.3-0.1c-0.4,0.1-0.9,0.2-1.4,0.2
					c-0.8,0-1.6-0.2-2.3-0.5c-0.6,0.2-1.4,0.3-2,0.2c-1.1-0.1-2-0.5-3-0.9l0,0c-0.3-0.8-0.5-1.6-0.6-2.4c-0.1-0.9-0.2-1.9-0.1-2.8
					V49c-0.6,0.2-0.9,0.9-1.1,1.5c-0.2,0.8-0.4,1.6-0.4,2.5c-0.6-0.9-0.4-2.1,0-3.1S56,48,56.5,47c0.1-0.1,0.1-0.1,0.1-0.2
					c0.1-0.2,0.2-0.4,0.3-0.6c0.2-0.4,0.3-0.7,0.4-1.1c0.1-0.1,0.1-0.3,0.1-0.4l0,0c0.4,0.2,0.8,0.2,1.4-0.1c0.5-0.2,1-0.6,1.5-1
					c0.3-0.3,0.6-0.6,0.8-0.9c0.4-0.4,0.7-0.9,1-1.4c0.1-0.1,0.1-0.2,0.2-0.3c0.6,1.7,1.9,3.3,3.8,4.5c0.6,0.4,1.3,0.8,2,1
					c0.4,0.1,0.8,0.3,1.2,0.4C68,47.8,67,49.9,67,52.2z"/>
				<path class="st0" d="M62.5,40.9L62.5,40.9L62.5,40.9L62.5,40.9z"/>
				<path class="st0" d="M74.7,37.4c-0.1-0.1-0.1-0.1-0.2-0.2c-0.1-0.1-0.1-0.1-0.1-0.1c0-0.1-0.1-0.1-0.1-0.1
					c-0.1-0.1-0.1-0.1-0.1-0.1C74,36.8,74,36.8,74,36.7l0,0l-0.1-0.1l-0.1-0.1c-0.1-0.1-0.2-0.1-0.3-0.2s-0.2-0.1-0.3-0.2
					c-0.1-0.1-0.3-0.2-0.4-0.3s-0.1-0.1-0.2-0.1c-0.1-0.1-0.1-0.1-0.2-0.1c-0.2-0.1-0.4-0.2-0.6-0.4c-0.1,0-0.1-0.1-0.1-0.1
					c-0.1-0.1-0.3-0.1-0.4-0.2c0.1,0.6,0,1.3-0.1,1.9c0,0.1,0,0.1-0.1,0.2c0.3,0.2,0.6,0.5,0.9,0.7c0.4,0.3,0.7,0.6,1.1,0.9
					c0.4,0.3,0.8,0.7,1.3,0.7c0.3-0.4,0.6-0.8,0.8-1.3C75,37.9,74.9,37.7,74.7,37.4z M70,43.7L70,43.7L70,43.7L70,43.7L70,43.7
					L70,43.7z"/>
				<path class="st0" d="M60.4,38.1c0,0.2-0.1,0.3-0.1,0.5c-0.1,0.4-0.1,0.7-0.3,1.1c-0.3,0.7-0.8,1.3-1.3,1.9
					c-0.3-0.8-0.3-1.7,0.1-2.4c0.2-0.5,0.6-1,1.1-1.3c0.1-0.1,0.4-0.2,0.5-0.1C60.5,38,60.4,38.1,60.4,38.1z"/>
				<path class="st1" d="M60.7,44.2c0,1-1.1,1.9-2.6,1.9c-0.4,0-0.7-0.1-1-0.2c0.2-0.4,0.3-0.7,0.4-1.1c0.1-0.1,0.1-0.3,0.1-0.4l0,0
					c0.4,0.2,0.8,0.2,1.4-0.1c0.5-0.2,1-0.6,1.5-1C60.6,43.7,60.7,43.9,60.7,44.2z"/>
				<g>
					<g>
						<path id="XMLID_64_" class="st0" d="M81.4,56.3c-0.1,0.2-0.2,0.5-0.4,0.6C80.9,57,80.8,57,80.7,57c0.4-1,0.4-2.2,0.1-3.3
							c-0.3-1.2-1-2.3-1.7-3.3c0.1,0.1,0.1,0.1,0.1,0.2c0.3,0.6,0.5,1.2,0.6,1.9s0.2,1.3,0.2,2c0,0.6-0.1,1.3-0.3,1.9
							c0,0.1,0,0.1-0.1,0.1l-0.1-0.1c-0.6-0.4-1.4-0.7-2.1-0.9c0.1-1.1,0-2.3-0.3-3.4c-0.1,1-0.3,2.1-0.6,3.1c0,0.1-0.1,0.1-0.1,0.2
							c-0.1,0-0.1,0-0.2,0c0.4-0.9,0.7-2.1,0.7-3.2c0-2.1-0.8-3.9-1.9-5.1c-0.3-0.3-0.7-0.6-1.1-0.8c0.8-0.4,1.4-0.9,1.9-1.7
							c0.5-0.7,0.7-1.6,0.7-2.5l0,0c0,0,0,0,0.1-0.1l0,0l0,0c0.1,0.4,0.2,1,0.4,1.5c0.3,0.9,0.7,1.9,1.1,2.4c0.8,1,1.7,1.9,2.4,2.9
							C81.9,51.1,82.2,53.9,81.4,56.3z"/>
					</g>
				</g>
				<path class="st1" d="M77,52.2c0,1.2-0.3,2.3-0.7,3.2c-0.4-0.1-0.9-0.1-1.3,0c-1.6,0.1-3.1,0.4-4.7,0.5c-0.5,0.1-1,0.1-1.6,0.1
					c-0.3,0-0.5,0-0.8-0.1l0,0c-0.6-1.1-0.9-2.4-0.9-3.8c0-2.4,1-4.4,2.4-5.5c0.4,0.1,0.8,0.1,1.2,0.2c0.3,0,0.6,0,0.8,0
					c0.9,0,1.8-0.2,2.5-0.6c0.4,0.2,0.8,0.5,1.1,0.8C76.3,48.3,77,50.1,77,52.2z"/>
				<path class="st2" d="M73.7,52.9c-0.1,0.6-0.6,1-1.1,1.2s-1.1,0.1-1.6-0.2c-0.4-0.3-0.8-0.7-0.9-1.2s-0.1-1.1,0.2-1.5
					c0.1-0.1,0.1-0.2,0.2-0.2c0,0,0,0,0.1-0.1l0,0c0.2-0.1,0.4-0.2,0.6-0.2c0.1,0,0.3,0,0.5-0.1c0.1,0,0.1,0,0.1,0l0.1,0.1
					c0,0.1,0,0.1,0.1,0.1c0,0.1-0.1,0.3-0.2,0.4l0,0c-0.1,0.1-0.2,0.2-0.3,0.3c-0.2,0.3-0.4,0.6-0.3,0.9l0,0c0,0.1,0.1,0.1,0.1,0.2
					c0.1,0.3,0.5,0.4,0.8,0.4c0.1,0,0.2,0,0.3,0c0.7,0,1.3-0.6,1.3-1.4c0-0.4-0.2-0.8-0.5-1.1l-0.1-0.1c0.1,0,0.1,0.1,0.1,0.1
					c0.1,0.1,0.2,0.2,0.3,0.4C73.7,51.7,73.8,52.3,73.7,52.9z"/>
				<path class="st3" d="M74.8,48.2c0,0.1,0,0.3-0.1,0.4c-0.1-0.3-0.3-0.6-0.6-0.7c-0.1-0.1-0.3-0.2-0.5-0.2
					c-0.2-0.1-0.3-0.1-0.5-0.1c-0.6,0-1.2,0.2-1.6,0.7c-0.5,0.5-0.7,1.2-0.9,1.9c-0.1,0.3-0.1,0.5-0.1,0.8l0,0c0,0-0.1,0-0.1-0.1
					c-0.1-0.1-0.1-0.2-0.1-0.4c-0.1-0.3-0.1-0.6-0.1-0.9s0-0.6,0.1-0.9c0-0.1,0.1-0.3,0.1-0.4c0.1-0.1,0.1-0.3,0.1-0.4
					c0.1-0.2,0.3-0.4,0.4-0.6c0.1-0.2,0.3-0.4,0.5-0.5l0.1-0.1l0.1-0.1c0.4-0.4,1-0.6,1.5-0.6c0.6,0,1.1,0.3,1.4,0.8
					C74.8,47.3,74.8,47.8,74.8,48.2z"/>
				<path class="st4" d="M74.7,48.5c-0.1,0.7-0.5,1.4-1,1.9c-0.2,0.2-0.4,0.3-0.6,0.5c-0.1,0-0.1-0.1-0.1-0.1c0.1,0,0.1,0.1,0.1,0.1
					c-0.3,0.1-0.5,0.3-0.8,0.4c-0.2,0.1-0.4,0.1-0.6,0.1l0,0c0.1-0.1,0.2-0.3,0.2-0.4c0.3-0.1,0.6-0.3,0.8-0.6
					c0.4-0.5,0.7-1.1,0.7-1.8c0-0.2,0-0.5-0.1-0.7c-0.1-0.1-0.1-0.3-0.2-0.4c0.2,0,0.4,0,0.5,0.1c0.2,0.1,0.4,0.1,0.5,0.2
					C74.4,48,74.6,48.3,74.7,48.5z"/>
				<path class="st5" d="M73.5,48.6c-0.1,0.6-0.3,1.3-0.7,1.8c-0.2,0.3-0.5,0.4-0.8,0.6c-0.4,0-0.7,0.1-1,0c-0.1,0-0.3-0.1-0.4-0.1
					l0,0l0,0c0-0.3,0-0.5,0.1-0.8c0.1-0.7,0.4-1.4,0.9-1.9c0.4-0.4,1.1-0.7,1.6-0.7c0.1,0.1,0.2,0.2,0.2,0.4
					C73.5,48.1,73.5,48.3,73.5,48.6z"/>
				<path class="st6" d="M73.6,51.9c0,0.8-0.6,1.4-1.3,1.4c-0.1,0-0.2,0-0.3,0c0.1,0,0.2,0,0.3-0.1c0.3-0.1,0.4-0.5,0.4-0.8
					s-0.1-0.6-0.3-0.9c-0.1-0.1-0.1-0.2-0.1-0.3c0.3-0.1,0.5-0.2,0.8-0.4C73.4,51.1,73.6,51.5,73.6,51.9z"/>
				<path class="st3" d="M59.3,49.7c0,0.3,0,0.5-0.1,0.8c-0.1,0.2-0.1,0.5-0.3,0.6l0,0c-0.1,0.1-0.3,0-0.4,0l0,0V51
					c0-0.1-0.2-0.1-0.3-0.1l-0.1-0.1c0-0.1-0.1-0.1-0.1-0.1c-0.1-0.2-0.2-0.4-0.3-0.6c-0.1-0.2-0.1-0.4-0.1-0.6c0-0.2,0-0.4,0-0.6
					c0-0.2,0.1-0.4,0.2-0.6c0.1-0.2,0.2-0.4,0.4-0.5s0.4,0,0.5,0.1c0.2,0.1,0.3,0.4,0.4,0.6c0.1,0.2,0.2,0.5,0.2,0.7
					C59.3,49.2,59.3,49.5,59.3,49.7z"/>
				<path class="st2" d="M59.4,53.3c-0.1,0.1-0.1,0.1-0.2,0.1c-0.3,0.1-0.6,0.2-0.9,0.2c-0.2,0-0.4-0.1-0.5-0.1
					c-0.5-0.3-0.9-0.9-0.8-1.4c0.1-0.6,0.5-1.1,1.1-1.2c0,0,0,0,0.1,0s0.3,0,0.3,0.1v0.1l0,0c-0.5,0.1-0.8,0.5-0.8,1
					c0,0.6,0.4,1,1,1c0.2,0,0.4-0.1,0.6-0.2l0,0C59.4,53,59.5,53.1,59.4,53.3C59.5,53.2,59.5,53.3,59.4,53.3z"/>
				<path class="st7" d="M62,37.4c-1.4,0.7-1.9,2.2-2.7,4.9c-0.6,2.1-0.8,3.8-1,7.2c-0.2,2.1-0.1,3.6,0.5,5.1
					c0.3,0.6,0.6,1.3,1.3,1.9c1.2,0.9,2.7,0.7,4.3,0.5c1.8-0.2,3.7-0.5,5.1-2.1c0.9-1,1.2-2.1,1.5-3.2c0.5-1.8,0.4-3.2,0.3-4.8
					c-0.2-2.7-0.3-4.1-1.1-5.8c-0.4-0.7-1.5-2.7-3.9-3.6C65.7,37.3,63.8,36.5,62,37.4z"/>
				<path class="st3" d="M71.1,51.7c-0.3,1.1-0.6,2.2-1.5,3.2c-1.4,1.5-3.3,1.8-5.1,2.1c-0.5,0.1-1,0.1-1.5,0.2
					c3.3-1.1,5.6-4.2,5.6-7.8c0-1.1-0.2-2.1-0.6-3c-2.2-0.5-4.1-1.7-5.1-3.3c-0.9,1.3-2.4,2.2-4.2,2.2c0.1-1,0.3-1.9,0.6-2.9
					c0.1-0.5,0.3-0.9,0.4-1.3c0.6-1.8,1.1-2.9,2.3-3.5c0.1-0.1,0.2-0.1,0.3-0.1c0.1,0.1,0.1,0.1,0.2,0.2c0.1-0.1,0.1-0.2,0.2-0.4
					c1.5-0.4,3.1,0.2,3.6,0.4c2.3,0.9,3.4,2.9,3.9,3.6c0.9,1.5,1,2.9,1.1,5.3c0,0.1,0,0.3,0,0.4C71.5,48.5,71.6,49.9,71.1,51.7z"/>
				<g>
					<path class="st8" d="M66.1,50.8c-0.1,0.2-0.2,0.4-0.4,0.6c0,0-0.1,0.1,0,0.1c0,0.1,0.1,0.1,0.1,0.1c0.1,0,0.2-0.1,0.2-0.1
						c0.1-0.1,0.2-0.3,0.3-0.4c0-0.1,0.1-0.1,0.1-0.2c0-0.1,0.1-0.1-0.1-0.1C66.2,50.6,66.2,50.7,66.1,50.8z"/>
					<path class="st8" d="M66.9,50.8c-0.1,0.2-0.2,0.4-0.4,0.6c0,0-0.1,0.1,0,0.1c0,0.1,0.1,0.1,0.1,0.1c0.1,0,0.2-0.1,0.2-0.1
						c0.1-0.1,0.2-0.3,0.3-0.4c0-0.1,0.1-0.1,0.1-0.2c0-0.1,0.1-0.1-0.1-0.1C67,50.6,67,50.7,66.9,50.8z"/>
					<path class="st8" d="M67.7,50.7c-0.1,0.2-0.2,0.5-0.3,0.7c0,0.1-0.1,0.1,0,0.1c0,0.1,0.1,0.1,0.1,0.1c0.1,0,0.2-0.1,0.2-0.1
						c0.1-0.2,0.2-0.4,0.3-0.6c0-0.1,0.1-0.2,0.1-0.3s0-0.1-0.1-0.2C67.8,50.5,67.7,50.7,67.7,50.7z"/>
				</g>
				<g>
					<ellipse class="st9" cx="66.7" cy="47.6" rx="2.6" ry="1.8"/>
					<path class="st1" d="M69.7,47.4c0,0.1-0.1,0.2-0.1,0.2L69,47.8c0,0.1,0,0.1,0,0.1c0,0.1,0,0.2,0.1,0.3c0,0.1-0.1,0.1-0.1,0.2
						c-0.2,0.1-0.3,0.1-0.4,0.1c0-0.2-0.1-0.3-0.1-0.4c-0.3-0.5-1-1-1.8-1s-1.5,0.4-1.8,1c-0.1,0.2-0.1,0.3-0.1,0.5c0,0,0,0,0,0.1
						c-0.1,0-0.2-0.1-0.2-0.1c-0.2-0.1-0.2-0.2-0.2-0.3c0-0.1,0-0.1,0-0.1c0.1-1,1.1-1.8,2.3-1.8c0.6,0,1.1,0.2,1.6,0.5l0.4-0.3
						c0.1-0.1,0.3-0.1,0.3,0.1c0,0.1,0.1,0.1,0.1,0.1c0,0.1,0,0.1-0.1,0.2l-0.4,0.3c0.1,0.1,0.1,0.2,0.2,0.3l0.5-0.3
						C69.4,47.2,69.6,47.3,69.7,47.4L69.7,47.4z"/>
					<path class="st10" d="M66.3,44.4c-0.5,0-1.1,0.1-1.6,0.4c-0.1,0.1-0.3,0.2-0.4,0.2c-0.2,0-0.4-0.2-0.4-0.4s0.1-0.4,0.3-0.6
						c0.2-0.1,0.4-0.2,0.6-0.3c0.5-0.2,1.1-0.3,1.6-0.3c0.6,0,1.1,0.2,1.5,0.6c0.1,0.2,0.3,0.4,0.3,0.6c0,0.1-0.1,0.3-0.2,0.3
						s-0.1,0-0.2,0s-0.1-0.1-0.2-0.1c-0.3-0.2-0.6-0.4-0.9-0.4C66.7,44.4,66.5,44.4,66.3,44.4z"/>
					<path class="st1" d="M66.2,44.1c-0.5,0-1.1,0.1-1.5,0.4c-0.1,0.1-0.3,0.2-0.4,0.2c-0.2,0-0.4-0.2-0.4-0.4s0.1-0.4,0.3-0.5
						c0.2-0.1,0.4-0.2,0.5-0.3c0.5-0.2,1.1-0.3,1.6-0.3s1.1,0.2,1.5,0.6c0.1,0.1,0.3,0.4,0.3,0.6c0,0.1-0.1,0.2-0.2,0.3
						c-0.1,0-0.1,0-0.2,0s-0.1-0.1-0.2-0.1c-0.3-0.2-0.5-0.3-0.9-0.4C66.6,44.1,66.4,44.1,66.2,44.1z"/>
				</g>
				<g>
					<path class="st6" d="M66.6,52.3c0,0.3-0.1,0.7-0.3,1c-0.1,0.3-0.2,0.5-0.4,0.7c-0.1,0-0.2-0.1-0.3-0.1c-0.1,0-0.3,0-0.4,0
						c-0.3,0-0.5,0.1-0.8,0.2c0,0-0.1,0-0.1,0.1c-0.4,0.2-0.7,0.4-0.9,0.8c-0.1,0.2-0.2,0.4-0.3,0.6v0.1c-0.1,0-0.1,0-0.1,0
						c-0.5-0.1-0.9-0.5-1.4-0.9c-0.2-0.1-0.3-0.4-0.3-0.6c0-0.3,0.3-0.5,0.6-0.6c0,0,0.1,0,0.1-0.1c0,0,0,0.1,0.1,0.1
						c0.1,0.1,0.2,0.1,0.3,0.1h0.1c0,0.1,0.1,0.1,0.1,0.1c0.1,0.1,0.2,0.1,0.3,0.2c0.1,0,0.1,0.1,0.2,0.1h0.1c0.2,0,0.4-0.1,0.6-0.1
						c0.9-0.4,1.8-0.9,2.6-1.5C66.5,52.4,66.5,52.3,66.6,52.3z"/>
					<path class="st11" d="M66.6,52.1c0,0.1,0,0.1,0,0.2c-0.1,0.1-0.1,0.1-0.2,0.1c-0.8,0.6-1.7,1.1-2.6,1.5
						C63.6,54,63.4,54,63.2,54h-0.1c-0.1,0-0.1,0-0.2,0c-0.1-0.1-0.2-0.1-0.3-0.2c-0.1-0.1-0.1-0.1-0.1-0.1l0,0
						c0.1,0,0.2-0.1,0.3-0.1l0.1-0.1c1-0.6,2.1-1.1,3.2-1.5l0,0h0.1c0.1,0,0.2-0.1,0.3-0.1l0.1-0.1v0.1C66.6,51.9,66.6,52,66.6,52.1
						z"/>
					<path class="st12" d="M66,54c0,0.1-0.1,0.1-0.1,0.2c-0.2,0.3-0.4,0.6-0.7,0.9c-0.5,0.4-1.2,0.7-1.9,0.6v-0.1
						c0.1-0.2,0.1-0.5,0.3-0.6c0.2-0.3,0.5-0.6,0.9-0.8c0,0,0.1,0,0.1-0.1c0.2-0.1,0.5-0.1,0.8-0.2c0.1,0,0.3,0,0.4,0
						C65.8,53.9,65.9,53.9,66,54z"/>
					<path class="st13" d="M66.6,52.3c0,0.3-0.1,0.7-0.3,1c-0.1,0.3-0.2,0.5-0.4,0.7c-0.1,0-0.2-0.1-0.3-0.1c-0.1,0-0.3,0-0.4,0
						c-0.3,0-0.5,0.1-0.8,0.2c0,0-0.1,0-0.1,0.1c-0.4,0.2-0.7,0.4-0.9,0.8c-0.2-0.1-0.4-0.3-0.4-0.4c0-0.2,0-0.3,0-0.4
						s-0.1-0.1-0.1-0.2c0.1,0,0.1,0,0.2,0h0.1c0.2,0,0.4-0.1,0.6-0.1c0.9-0.4,1.8-0.9,2.6-1.5C66.5,52.4,66.5,52.3,66.6,52.3z"/>
					<path class="st14" d="M66.6,51.8C66.5,51.8,66.5,51.8,66.6,51.8c-0.2,0.1-0.3,0.2-0.4,0.2h-0.1l0,0c-1.1,0.4-2.2,0.9-3.2,1.5
						l-0.1,0.1c-0.1,0.1-0.2,0.1-0.3,0.1l0,0h-0.1c-0.1,0-0.2-0.1-0.3-0.1c0,0,0-0.1-0.1-0.1c0.1,0,0.1-0.1,0.2-0.1
						c0.8-0.4,1.5-0.8,2.3-1.1c0.3-0.1,0.5-0.3,0.8-0.4c0.2-0.1,0.5-0.1,0.7-0.1c0.1,0,0.2,0,0.4,0C66.5,51.7,66.5,51.8,66.6,51.8z"
						/>
				</g>
				<g>
					<path class="st15" d="M62.8,48.4c-0.1,0.1-0.2,0.3-0.3,0.4c-0.3,0.6-0.4,1.2-0.5,1.9c-0.1,0.4-0.1,0.9,0.1,1.3
						c0.2,0.4,0.5,0.7,0.9,0.6c0.2-0.1,0.4-0.2,0.5-0.5c0.1-0.2,0.2-0.5,0.2-0.7c0.1-0.5,0.1-1,0-1.4c-0.1-0.5-0.2-0.9-0.4-1.4
						c-0.1-0.1-0.1-0.2-0.2-0.2C62.9,48.3,62.8,48.4,62.8,48.4z"/>
					<path class="st16" d="M62.4,49.7c-0.1,0.1-0.2,0.2-0.2,0.3c-0.2,0.4-0.3,0.8-0.4,1.1c-0.1,0.3-0.1,0.6,0.1,0.8
						c0.1,0.3,0.4,0.4,0.7,0.4c0.2,0,0.3-0.1,0.4-0.3c0.1-0.1,0.1-0.3,0.1-0.5c0.1-0.3,0.1-0.6,0-0.9C63,50.3,63,50,62.8,49.7
						c0-0.1-0.1-0.1-0.1-0.1C62.5,49.6,62.5,49.6,62.4,49.7z"/>
				</g>
				<g>
					<path class="st10" d="M60,45.6c0.4-0.1,0.9-0.1,1.3,0c0.1,0.1,0.2,0.1,0.4,0.1c0.1-0.1,0.2-0.3,0.2-0.4
						c-0.1-0.2-0.2-0.3-0.4-0.4c-0.1-0.1-0.3-0.1-0.5-0.1c-0.4,0-0.9,0-1.3,0.1c-0.4,0.1-0.8,0.4-1,0.9c-0.1,0.2-0.1,0.4-0.1,0.5
						c0.1,0.1,0.1,0.2,0.2,0.2c0.1,0,0.1,0,0.1,0c0.1,0,0.1-0.1,0.1-0.1c0.1-0.2,0.3-0.4,0.5-0.6C59.8,45.6,59.9,45.6,60,45.6z"/>
					<g>
						
							<ellipse transform="matrix(3.764334e-02 -0.9993 0.9993 3.764334e-02 9.7187 106.6955)" class="st9" cx="60.3" cy="48.3" rx="1.4" ry="1.9"/>
						<g>
							<path class="st1" d="M58,48.2c0,0.1,0.1,0.1,0.1,0.2l0.4,0.2v0.1c0,0.1,0,0.1,0,0.2c0,0.1,0.1,0.1,0.1,0.1
								c0.1,0.1,0.2,0.1,0.3,0c0-0.1,0-0.3,0.1-0.3c0.2-0.5,0.7-0.8,1.3-0.8c0.6-0.1,1.2,0.3,1.4,0.8c0.1,0.2,0.1,0.3,0.1,0.4l0,0
								c0.1,0,0.1-0.1,0.2-0.1c0-0.1,0.1-0.1,0.1-0.1v-0.1c-0.1-0.8-0.9-1.3-1.8-1.3c-0.5,0-0.9,0.2-1.1,0.5l-0.5-0.3
								c-0.1-0.1-0.2,0-0.3,0.1v0.1c0,0.1,0,0.1,0.1,0.1l0.3,0.2c-0.1,0.1-0.1,0.2-0.1,0.3L58.3,48C58.2,48,58.1,48.1,58,48.2
								C58,48.1,58,48.2,58,48.2z"/>
						</g>
					</g>
					<path class="st1" d="M59.8,45.3c0.4-0.1,0.8-0.1,1.2,0.1c0.1,0.1,0.2,0.1,0.4,0.1c0.1-0.1,0.2-0.3,0.1-0.5
						c-0.1-0.2-0.2-0.4-0.4-0.4c-0.1-0.1-0.3-0.1-0.5-0.1c-0.4-0.1-0.9-0.1-1.3,0.1c-0.4,0.1-0.8,0.5-0.9,0.9
						c-0.1,0.2-0.1,0.4,0,0.6c0.1,0.1,0.1,0.2,0.2,0.2c0.1,0,0.1,0,0.1,0c0.1-0.1,0.1-0.1,0.1-0.1c0.1-0.2,0.3-0.4,0.5-0.6
						C59.5,45.4,59.7,45.3,59.8,45.3z"/>
				</g>
				<g>
					<path class="st8" d="M59.2,51.1c-0.1,0.2-0.2,0.4-0.4,0.6c0,0-0.1,0.1,0,0.1c0,0.1,0.1,0.1,0.1,0.1c0.1,0,0.2-0.1,0.2-0.1
						c0.1-0.1,0.2-0.3,0.3-0.4c0-0.1,0.1-0.1,0.1-0.2c0-0.1,0.1-0.1-0.1-0.1C59.3,50.9,59.2,51,59.2,51.1z"/>
					<path class="st8" d="M60,51.1c-0.1,0.2-0.2,0.4-0.4,0.6c0,0-0.1,0.1,0,0.1c0,0.1,0.1,0.1,0.1,0.1c0.1,0,0.2-0.1,0.2-0.1
						c0.1-0.1,0.2-0.3,0.3-0.4c0-0.1,0.1-0.1,0.1-0.2c0-0.1,0.1-0.1-0.1-0.1C60.1,50.9,60,51,60,51.1z"/>
					<path class="st8" d="M60.8,51c-0.1,0.2-0.2,0.5-0.3,0.7c0,0.1-0.1,0.1,0,0.1c0,0.1,0.1,0.1,0.1,0.1c0.1,0,0.2-0.1,0.2-0.1
						c0.1-0.2,0.2-0.4,0.3-0.6c0-0.1,0.1-0.2,0.1-0.3s0-0.1-0.1-0.2C60.9,50.8,60.8,51,60.8,51z"/>
				</g>
				<path class="st2" d="M73.7,52.9c-0.1,0.6-0.6,1-1.1,1.2s-1.1,0.1-1.6-0.2c-0.4-0.3-0.8-0.7-0.9-1.2s-0.1-1.1,0.2-1.5
					c0.1-0.1,0.1-0.2,0.2-0.2c0,0,0,0,0.1-0.1l0,0c0.2-0.1,0.4-0.2,0.6-0.2c0.1,0,0.3,0,0.5-0.1c0.1,0,0.1,0,0.1,0l0.1,0.1
					c0,0.1,0,0.1,0.1,0.1c0,0.1-0.1,0.3-0.2,0.4l0,0c-0.1,0.1-0.2,0.2-0.3,0.3c-0.2,0.3-0.4,0.6-0.3,0.9l0,0c0,0.1,0.1,0.1,0.1,0.2
					c0.1,0.3,0.5,0.4,0.8,0.4c0.1,0,0.2,0,0.3,0c0.7,0,1.3-0.6,1.3-1.4c0-0.4-0.2-0.8-0.5-1.1l-0.1-0.1c0.1,0,0.1,0.1,0.1,0.1
					c0.1,0.1,0.2,0.2,0.3,0.4C73.7,51.7,73.8,52.3,73.7,52.9z"/>
				<path class="st0" d="M69.9,94.9"/>
				<path class="st17" d="M73.8,112.3"/>
				<path class="st0" d="M63.4,35.5L63.4,35.5c-1-0.7-3.1,0.9-4.7,3.3c-0.8,1.3-1.4,2.6-1.5,3.6c-0.2,1-0.1,1.7,0.4,2l0,0
					c0.4,0.2,0.8,0.2,1.4-0.1c0.5-0.2,1-0.6,1.5-1c0.3-0.3,0.6-0.6,0.8-0.9c0.4-0.4,0.7-0.9,1-1.4c0.1-0.1,0.1-0.2,0.2-0.3l0,0
					c-0.6-1.6-0.5-3.3,0.3-4.6C63,36,63.2,35.7,63.4,35.5z M60.4,38.1c0,0.2-0.1,0.3-0.1,0.5c-0.1,0.4-0.1,0.7-0.3,1.1
					c-0.3,0.7-0.8,1.3-1.3,1.9c-0.3-0.8-0.3-1.7,0.1-2.4c0.2-0.5,0.6-1,1.1-1.3c0.1-0.1,0.4-0.2,0.5-0.1
					C60.5,38,60.4,38.1,60.4,38.1z"/>
				<path class="st0" d="M76.7,42L76.7,42c0-0.1,0-0.2,0-0.2l0,0v-0.1c0-0.1,0-0.1,0-0.2c0-0.1,0-0.1,0-0.2v-0.1c0-0.1,0-0.1,0-0.1
					c0-0.1-0.1-0.3-0.1-0.4c0-0.1,0-0.1,0-0.1c0-0.1,0-0.1-0.1-0.2c-0.1-0.2-0.1-0.4-0.2-0.5c0-0.1,0-0.1-0.1-0.1
					c-0.1-0.3-0.3-0.6-0.5-1l0,0c0-0.1-0.1-0.1-0.1-0.1l0,0l0,0c0-0.1-0.1-0.1-0.1-0.1s0,0,0-0.1l-0.1-0.1c0-0.1-0.1-0.1-0.1-0.1
					c0-0.1-0.1-0.1-0.1-0.1c-0.3,0.4-0.5,0.9-0.8,1.3c-0.5,0-0.9-0.4-1.3-0.7s-0.7-0.6-1.1-0.9c-0.3-0.2-0.6-0.5-0.9-0.7
					c0-0.1,0-0.1,0.1-0.2c0.1-0.6,0.1-1.3,0.1-1.9C71.2,35,71.1,35,71,35c-0.1,0-0.1-0.1-0.2-0.1s-0.1-0.1-0.2-0.1h-0.1
					c-0.1,0-0.1,0-0.1-0.1c-0.1-0.1-0.3-0.1-0.4-0.1s-0.1-0.1-0.2-0.1s-0.1-0.1-0.2-0.1s-0.1,0-0.2-0.1C69.1,34,69,34,68.9,34h-0.1
					c-0.1,0-0.1,0-0.2,0s-0.2,0-0.3-0.1l0,0c-0.1,0-0.2,0-0.2,0s0,0-0.1,0c-0.2,0-0.4,0-0.5,0c-0.7,0-1.4,0.1-2.1,0.3
					c-0.8,0.2-1.6,0.6-2.2,1.2c-0.2,0.2-0.4,0.5-0.6,0.8c-0.9,1.3-0.9,3-0.3,4.6l0,0l0,0c0.6,1.7,1.9,3.3,3.8,4.5
					c0.6,0.4,1.3,0.8,2,1c0.4,0.1,0.8,0.3,1.2,0.4c0.4,0.1,0.8,0.1,1.2,0.2c0.3,0,0.6,0,0.8,0c0.9,0,1.8-0.2,2.5-0.6
					c0.8-0.4,1.4-0.9,1.9-1.7c0.5-0.7,0.7-1.6,0.7-2.5l0,0C76.7,42.1,76.7,42.1,76.7,42z M68.6,41.8c0.1-0.1,0.2,0.1,0.3,0.1
					c0.1,0.1,0.3,0.3,0.4,0.4c0.2,0.2,0.4,0.4,0.7,0.6c0.1,0.1,0.2,0.2,0.3,0.3c0.1,0.1,0.1,0.1,0.1,0.2c0.1,0.1,0.1,0.2,0,0.3
					s-0.3,0.1-0.5,0.1c0,0-0.1,0-0.1,0.1l0,0v-0.1c-0.6-0.3-1-0.7-1.4-1.2C68.5,42.2,68.3,41.9,68.6,41.8z M70.4,45.3
					C70.3,45.3,70.3,45.3,70.4,45.3C70.3,45.3,70.3,45.3,70.4,45.3c-0.1,0-0.1,0-0.2,0s0,0-0.1,0s-0.1,0-0.1,0h-0.1
					c-0.3,0-0.5,0-0.8-0.1l0,0c-0.4-0.1-0.8-0.2-1.1-0.3c-1.6-0.7-2.6-2.3-2.6-3.9c0.4,0.9,1.1,1.8,1.9,2.5c0.7,0.6,1.5,1,2.3,1.3
					c0.1,0,0.2,0.1,0.3,0.1l0,0c0.1,0,0.2,0.1,0.2,0.1l0,0h0.1c0.3,0.1,0.5,0.1,0.8,0.1C70.8,45.2,70.6,45.3,70.4,45.3z M72,42.2
					c-0.3,0.2-0.5,0.5-0.8,0.7c-0.3-0.1-0.6-0.2-0.8-0.4c-0.1,0-0.1-0.1-0.2-0.1c-0.4-0.2-0.7-0.5-1-0.9c-0.1-0.1-0.3-0.3-0.4-0.5
					c0.4-0.3,0.8-0.6,1.1-1c0.1-0.1,0.1-0.2,0.2-0.3c0.3-0.4,0.5-0.9,0.7-1.3c0.2,0.1,0.5,0.4,0.7,0.5c0.4,0.4,0.7,0.8,1.1,1.2
					c0.2,0.3,0.4,0.6,0.6,0.9C72.7,41.4,72.4,41.8,72,42.2z"/>
				<path class="st17" d="M73.1,41c-0.4,0.4-0.7,0.8-1.1,1.2c-0.3,0.2-0.5,0.5-0.8,0.7c-0.3-0.1-0.6-0.2-0.8-0.4
					c-0.1,0-0.1-0.1-0.2-0.1c-0.4-0.2-0.7-0.5-1-0.9c-0.1-0.1-0.3-0.3-0.4-0.5c0.4-0.3,0.8-0.6,1.1-1c0.1-0.1,0.1-0.2,0.2-0.3
					c0.3-0.4,0.5-0.9,0.7-1.3c0.2,0.1,0.5,0.4,0.7,0.5c0.4,0.4,0.7,0.8,1.1,1.2C72.7,40.4,72.9,40.7,73.1,41z"/>
				<path class="st17" d="M75.2,38.1c-0.3,0.4-0.5,0.9-0.8,1.3c-0.5,0-0.9-0.4-1.3-0.7s-0.7-0.6-1.1-0.9c-0.3-0.2-0.6-0.5-0.9-0.7
					c0-0.1,0-0.1,0.1-0.2c0.1-0.6,0.1-1.3,0.1-1.9c0.1,0.1,0.3,0.1,0.4,0.2c0.1,0,0.1,0.1,0.1,0.1c0.2,0.1,0.4,0.2,0.6,0.4
					c0.1,0.1,0.1,0.1,0.2,0.1c0.1,0.1,0.1,0.1,0.2,0.1c0.1,0.1,0.3,0.2,0.4,0.3s0.2,0.1,0.3,0.2s0.2,0.1,0.3,0.2l0.1,0.1l0.1,0.1
					l0,0c0.1,0.1,0.1,0.1,0.1,0.1l0.1,0.1c0.1,0.1,0.1,0.1,0.1,0.1c0.1,0.1,0.1,0.1,0.1,0.1c0.1,0.1,0.1,0.1,0.2,0.2
					C74.9,37.7,75,37.9,75.2,38.1z"/>
				<path class="st17" d="M70.5,43.6c-0.1,0.1-0.3,0.1-0.5,0.1c0,0,0,0-0.1,0s0,0,0,0c-0.6-0.3-1-0.7-1.4-1.2
					c-0.1-0.2-0.3-0.5,0-0.6c0.1-0.1,0.2,0.1,0.3,0.1c0.1,0.1,0.3,0.3,0.4,0.4c0.2,0.2,0.4,0.4,0.7,0.6c0.1,0.1,0.2,0.2,0.3,0.3
					c0.1,0.1,0.1,0.1,0.1,0.2C70.5,43.5,70.5,43.6,70.5,43.6z"/>
				<path class="st17" d="M60.4,38.1c0,0.2-0.1,0.3-0.1,0.5c-0.1,0.4-0.1,0.7-0.3,1.1c-0.3,0.7-0.8,1.3-1.3,1.9
					c-0.3-0.8-0.3-1.7,0.1-2.4c0.2-0.5,0.6-1,1.1-1.3c0.1-0.1,0.4-0.2,0.5-0.1C60.5,38,60.4,38.1,60.4,38.1z"/>
			</g>
		</g>
	</g>
	<g id="Layer_3_2_">
	</g>
</g>
</svg>
