<?xml version="1.0" encoding="utf-8"?>
<!-- Generator: Adobe Illustrator 25.2.1, SVG Export Plug-In . SVG Version: 6.00 Build 0)  -->
<svg version="1.1" id="Layer_3" xmlns="http://www.w3.org/2000/svg" xmlns:xlink="http://www.w3.org/1999/xlink" x="0px" y="0px"
	 viewBox="0 0 43.8 47.8" style="enable-background:new 0 0 43.8 47.8;" xml:space="preserve">
<style type="text/css">
	.st0{fill:#28635C;}
	.st1{opacity:0.19;clip-path:url(#SVGID_2_);fill:#174343;enable-background:new    ;}
	.st2{fill:#174343;}
	.st3{opacity:0.39;clip-path:url(#SVGID_4_);fill:#123837;enable-background:new    ;}
	.st4{clip-path:url(#SVGID_6_);fill:#123837;}
</style>
<g id="intro-blob">
	<g>
		<g>
			<path id="XMLID_96_" class="st0" d="M44.4,0l-8.7,0.6c-6.3,0.4-12.5,2.1-18.1,5l-6.5,3.3C7,11,3.8,14.6,2.3,19l-1,2.8
				c-1.5,4.3-1.4,9,0.4,13.2l0,0c2.7,6.3,8.6,10.5,15.4,11l3.5,0.3c1.7,0.1,3.4,0,5-0.3l0,0c3.2-0.7,6.4-0.7,9.6-0.1l8.5,1.5L44.4,0
				z"/>
		</g>
		<g>
			<defs>
				<path id="SVGID_1_" d="M44.4,0l-8.7,0.6c-6.3,0.4-12.5,2.1-18.1,5l-6.5,3.3C7,11,3.8,14.6,2.3,19l-1,2.8
					c-1.5,4.3-1.4,9,0.4,13.2l0,0c2.7,6.3,8.6,10.5,15.4,11l3.5,0.3c1.7,0.1,3.4,0,5-0.3l0,0c3.2-0.7,6.4-0.7,9.6-0.1l8.5,1.5
					L44.4,0z"/>
			</defs>
			<clipPath id="SVGID_2_">
				<use xlink:href="#SVGID_1_"  style="overflow:visible;"/>
			</clipPath>
			<path class="st1" d="M44.4,2.9L31.9,3.8c-1.5,0.1-3,0.4-4.4,1L15.4,9.6c-3.2,1.3-5.8,3.5-7.5,6.5l-2.6,4.4c-2.3,4-2.6,8.8-0.9,13
				l0.3,0.8c1,2.5,2.7,4.7,4.8,6.4l0,0c2.1,1.6,4.5,2.6,7.1,2.9l6.8,0.9c1.2,0.1,2.4,0.2,3.5,0.1l0,0c3.1-0.3,6.2-0.1,9.2,0.7l7.7,2
				l0.2,4.9l-44.2-3L0.2,0.4l45-1.7L44.4,2.9"/>
		</g>
	</g>
	<g>
		<g>
			<path id="XMLID_97_" class="st2" d="M44.4,8.7l-20.7,2.8c-1.9,0.3-3.6,1-5,2.3L12,19.6c-1.9,1.7-3.1,4.1-3.3,6.7l-0.1,1.6
				c-0.1,0.8,0,1.7,0.2,2.5l0.4,1.8c0.4,2.2,1.6,4.1,3.3,5.5l0,0c2.4,2,5.6,2.7,8.6,1.9l0,0c2.2-0.6,4.5-0.6,6.7,0l3.5,0.9l12.9,3.9
				L44.4,8.7z"/>
		</g>
		<g>
			<defs>
				<path id="SVGID_3_" d="M44.4,8.7l-20.7,2.8c-1.9,0.3-3.6,1-5,2.3L12,19.6c-1.9,1.7-3.1,4.1-3.3,6.7l-0.1,1.6
					c-0.1,0.8,0,1.7,0.2,2.5l0.4,1.8c0.4,2.2,1.6,4.1,3.3,5.5l0,0c2.4,2,5.6,2.7,8.6,1.9l0,0c2.2-0.6,4.5-0.6,6.7,0l3.5,0.9
					l12.9,3.9L44.4,8.7z"/>
			</defs>
			<clipPath id="SVGID_4_">
				<use xlink:href="#SVGID_3_"  style="overflow:visible;"/>
			</clipPath>
			<path class="st3" d="M43.9,12.8l-17.4,1.3c-1.9,0.1-3.7,0.9-5.2,2.1l-5.5,4.6c-2.1,1.7-3.2,4.3-3.2,6.9v1c0,2.9,1.4,5.6,3.8,7.3
				l0,0c1.6,1.2,3.5,1.8,5.5,1.7h0.2c3.8-0.1,7.5,0.8,10.8,2.6l6.5,3.5L5.4,42.8L9,7.7l36,0.2L43.9,12.8z"/>
		</g>
		<g>
			<defs>
				<path id="SVGID_5_" d="M44.4,8.7l-20.7,2.8c-1.9,0.3-3.6,1-5,2.3L12,19.6c-1.9,1.7-3.1,4.1-3.3,6.7l-0.1,1.6
					c-0.1,0.8,0,1.7,0.2,2.5l0.4,1.8c0.4,2.2,1.6,4.1,3.3,5.5l0,0c2.4,2,5.6,2.7,8.6,1.9l0,0c2.2-0.6,4.5-0.6,6.7,0l3.5,0.9
					l12.9,3.9L44.4,8.7z"/>
			</defs>
			<clipPath id="SVGID_6_">
				<use xlink:href="#SVGID_5_"  style="overflow:visible;"/>
			</clipPath>
			<path class="st4" d="M44.2,24l-12.2-1.4c-0.8-0.1-1.7,0-2.4,0.4l-5,2.2c-1.6,0.7-2.7,2.3-2.8,4.1l0,0c-0.1,2.6,1.8,4.8,4.3,5
				l0.8,0.1c1.5,0.1,3.1,0.4,4.6,0.8l2.1,0.6c3.6,1,7,2.6,9.9,4.9l0,0c0.2,0.1,0.5,0,0.5-0.2L44.2,24z"/>
		</g>
	</g>
</g>
</svg>
