<?xml version="1.0" encoding="utf-8"?>
<!-- Generator: Adobe Illustrator 25.2.1, SVG Export Plug-In . SVG Version: 6.00 Build 0)  -->
<svg version="1.1" id="Layer_4" xmlns="http://www.w3.org/2000/svg" xmlns:xlink="http://www.w3.org/1999/xlink" x="0px" y="0px"
	 viewBox="0 0 496 512" style="enable-background:new 0 0 496 512;" xml:space="preserve">
<style type="text/css">
	.st0{fill:#1E3F3B;}
</style>
<path class="st0" d="M134,422.2H91.2c-9.8,0-17.8-8-17.8-17.8V182.6c0-9.8,8-17.8,17.8-17.8H134c9.8,0,17.8,8,17.8,17.8v221.8
	C151.8,414.2,143.9,422.2,134,422.2z M112.6,129.7c-25.1,0-45.4-21.2-45.4-46.7c0-25.6,20.3-46.3,45.4-46.3
	c25.1,0,45.4,20.7,45.4,46.3C158,108.5,137.7,129.7,112.6,129.7z M445.4,422.2h-61.5c-9.3,0-16.8-7.5-16.8-16.8V296.9
	c0-29.9-0.6-68.2-40.8-68.2c-40.8,0-47,32.4-47,66v110.7c0,9.3-7.5,16.8-16.8,16.8h-44.7c-9.3,0-16.8-7.5-16.8-16.8V181.6
	c0-9.3,7.5-16.8,16.8-16.8h41.6c9.3,0,16.8,7.5,16.8,16.8v18.3h1.1c10.5-20.2,36-41.6,74.2-41.6c79.4,0,94,53.3,94,122.5
	L445.4,422.2L445.4,422.2z"/>
</svg>
