<?xml version="1.0" encoding="utf-8"?>
<!-- Generator: Adobe Illustrator 25.2.1, SVG Export Plug-In . SVG Version: 6.00 Build 0)  -->
<svg version="1.1" xmlns="http://www.w3.org/2000/svg" xmlns:xlink="http://www.w3.org/1999/xlink" x="0px" y="0px"
	 viewBox="0 0 52.3 30" style="enable-background:new 0 0 52.3 30;" xml:space="preserve">
<style type="text/css">
	.st0{fill:#28635C;}
	.st1{opacity:0.14;clip-path:url(#SVGID_2_);fill:#174343;enable-background:new    ;}
	.st2{fill:#174343;}
	.st3{opacity:0.41;clip-path:url(#SVGID_4_);fill:#123837;enable-background:new    ;}
</style>
<g id="Layer_2">
</g>
<g id="Layer_3">
	<g id="lp-blob">
		<g>
			<g>
				<path id="XMLID_4_" class="st0" d="M42.7,28.3c-6,1.3-12.3,1.7-18.4,1.3c-4.8-0.3-9.7-1.2-14-3.4s-8-6-9.3-10.7S1,5.4,4.9,2.5
					C8,0.2,12.2-0.2,16,0.6S23.3,3.2,26.7,5C32.5,8,38.3,11,44.1,14c3.7,1.9,10.5,5.1,6.7,10.1C48.9,26.8,45.7,27.6,42.7,28.3z"/>
			</g>
			<g>
				<defs>
					<path id="SVGID_1_" d="M42.7,28.3c-6,1.3-12.3,1.7-18.4,1.3c-4.8-0.3-9.7-1.2-14-3.4s-8-6-9.3-10.7S1,5.4,4.9,2.5
						C8,0.2,12.2-0.2,16,0.6S23.3,3.2,26.7,5C32.5,8,38.3,11,44.1,14c3.7,1.9,10.5,5.1,6.7,10.1C48.9,26.8,45.7,27.6,42.7,28.3z"/>
				</defs>
				<clipPath id="SVGID_2_">
					<use xlink:href="#SVGID_1_"  style="overflow:visible;"/>
				</clipPath>
				<path class="st1" d="M17.5,31.4l-8.3-5.9c-1.2-0.9-2.3-2-3-3.3l-1.7-2.8c-1.9-3.3-1.9-7.4,0-10.7l0,0c1.8-3,4.9-5,8.4-5.2
					l1.4-0.1c2-0.1,3.9,0.3,5.6,1.1l9.5,4.8l13.6,7.2l5.3,3.6c0.6,0.4,1.1,0.9,1.4,1.5l0,0c0.6,1.1,0.7,2.5,0.3,3.7l-1.5,4l5.2-5.2
					L52.2,8.5L9.3-1.4L-1.3,0.1l1.2,29.5L17.5,31.4z"/>
			</g>
		</g>
		<g>
			<g>
				<path id="XMLID_5_" class="st2" d="M23.5,10c-2.1-1.4-4.3-2.7-6.7-3.4S11.6,6,9.6,7.5C6.4,9.7,6,14.7,8,18.2s5.7,5.5,9.5,6.6
					c5.9,1.8,12.2,1.9,18.1,0.2c1.5-0.4,3.1-1,4-2.3c0.9-1.3,0.3-2.2-0.8-3c-3.1-2.2-6.4-4.1-9.6-6.1C27.3,12.4,25.4,11.2,23.5,10z"
					/>
			</g>
			<g>
				<defs>
					<path id="SVGID_3_" d="M23.5,10c-2.1-1.4-4.3-2.7-6.7-3.4S11.6,6,9.6,7.5C6.4,9.7,6,14.7,8,18.2s5.7,5.5,9.5,6.6
						c5.9,1.8,12.2,1.9,18.1,0.2c1.5-0.4,3.1-1,4-2.3c0.9-1.3,0.3-2.2-0.8-3c-3.1-2.2-6.4-4.1-9.6-6.1C27.3,12.4,25.4,11.2,23.5,10z
						"/>
				</defs>
				<clipPath id="SVGID_4_">
					<use xlink:href="#SVGID_3_"  style="overflow:visible;"/>
				</clipPath>
				<path class="st3" d="M8.8,20.3c-1.7-3.2-1.3-7.8,1.8-9.5c3.1-1.8,7.1,0,10.2,1.8c4.6,2.7,9.2,5.3,13.9,8
					c2.1,1.2,4.5,3.1,3.8,5.5c1.6,1,3.9,0.1,4.8-1.5c0.9-1.7,0.6-3.8-0.4-5.4c-1-1.6-2.5-2.9-4-4C31.8,10,23.3,6.7,14.6,5.7
					C11.9,5.4,9,5.3,6.7,6.8c-3.7,2.3-4.3,7.7-2.7,11.8c1,2.6,2.8,5,5.1,6.7c0.8,0.7,2,1.7,3.1,1.1c0.3-0.2,0.8-0.6,0.8-1
					c0-0.6-0.6-0.8-0.9-1.2C10.8,23.1,9.7,21.8,8.8,20.3z"/>
			</g>
		</g>
	</g>
</g>
</svg>
