<?xml version="1.0" encoding="utf-8"?>
<!-- Generator: Adobe Illustrator 25.2.1, SVG Export Plug-In . SVG Version: 6.00 Build 0)  -->
<svg version="1.1" id="Layer_1" xmlns="http://www.w3.org/2000/svg" xmlns:xlink="http://www.w3.org/1999/xlink" x="0px" y="0px"
	 viewBox="0 0 508.6 402.4" style="enable-background:new 0 0 508.6 402.4;" xml:space="preserve">
<style type="text/css">
	.st0{fill:#25625B;}
	.st1{opacity:0.14;clip-path:url(#SVGID_2_);fill:#154242;enable-background:new    ;}
	.st2{fill:#154242;}
	.st3{opacity:0.36;clip-path:url(#SVGID_4_);fill:#113736;enable-background:new    ;}
	.st4{fill:#113736;}
	.st5{opacity:6.000000e-02;clip-path:url(#SVGID_6_);fill:#0C2322;enable-background:new    ;}
</style>
<g id="lp-bg">
	<g>
		<g>
			<path id="XMLID_1_" class="st0" d="M469.5,13L429,26.8c-34.5,11.7-69.6,21.7-105,30l-50.1,11.8c-35.5,8.3-71.3,15-107.4,19.9
				l-27.9,3.8c-23.3,3.2-45.4,12.6-64,27.1l-9.3,7.3c-23.9,18.7-40.7,44.9-47.6,74.4l0,0c-4.3,18.4-4.7,37.4-1.1,55.9l5,25.9
				c7.1,36.5,29.1,68.3,60.7,87.9l17.9,11.1c20.9,12.9,45,19.9,69.5,20l175.2,0.9l56.1-1c44.6-0.8,89.1-4.6,133.2-11.4l4-0.6L550-1
				l0,0C522.6-0.5,495.4,4.2,469.5,13z"/>
		</g>
		<g>
			<defs>
				<path id="SVGID_1_" d="M469.5,13L429,26.8c-34.5,11.7-69.6,21.7-105,30l-50.1,11.8c-35.5,8.3-71.3,15-107.4,19.9l-27.9,3.8
					c-23.3,3.2-45.4,12.6-64,27.1l-9.3,7.3c-23.9,18.7-40.7,44.9-47.6,74.4l0,0c-4.3,18.4-4.7,37.4-1.1,55.9l5,25.9
					c7.1,36.5,29.1,68.3,60.7,87.9l17.9,11.1c20.9,12.9,45,19.9,69.5,20l175.2,0.9l56.1-1c44.6-0.8,89.1-4.6,133.2-11.4l4-0.6L550-1
					l0,0C522.6-0.5,495.4,4.2,469.5,13z"/>
			</defs>
			<clipPath id="SVGID_2_">
				<use xlink:href="#SVGID_1_"  style="overflow:visible;"/>
			</clipPath>
			<path class="st1" d="M469.9,22.1l-60.2,21.2c-12.3,4.3-24.9,8.1-37.6,11.2l-111,27.3c-6.9,1.7-13.8,3.2-20.8,4.5l-98.2,18.8
				c-24.9,4.8-47.9,16.8-66,34.6l-10.6,10.5c-21.3,20.9-34.6,48.6-37.6,78.3l0,0C26,246.6,28,265,33.8,282.2l4.4,13.1
				c7,20.9,19.2,39.7,35.5,54.5l8.5,7.7c8.7,7.9,18.4,14.5,28.8,19.7l9.9,5c17.2,8.6,36.1,13.2,55.3,13.5l102.6,1.7H397
				c8.3,0,16.6-0.3,24.8-0.9l73.6-5.6c8.9-0.7,17.8-1.8,26.7-3.2l19.1-3.2l-5.4,25.9l-522.7,3.2l4.3-337L431,9.6l93-17.1h30.2
				l2.2,10.8l-1.9,0.2C525.7,6.3,497.3,12.5,469.9,22.1z"/>
		</g>
	</g>
	<g>
		<g>
			<path id="XMLID_2_" class="st2" d="M510,67l-48.7,4.4C422,75,383.8,85.3,348.1,101.9l-5.9,2.8C318.8,115.5,294,123,268.6,127
				l-95.2,14.7c-21.6,3.3-40.8,15.5-53.1,33.6L98,208.1c-12.7,18.8-16.8,42.2-11,64.1l0.4,1.7c5.6,21.6,20.2,39.8,40,50l18.8,9.7
				c9.9,5.1,20.1,9.8,30.4,13.9l0,0c28.7,11.5,60,15.3,90.6,11.1l69.6-9.5c22.3-3,45-1.6,66.7,4.1l0,0c13.2,3.5,26.9,4.8,40.6,3.8
				l65.8-4.9"/>
		</g>
		<g>
			<defs>
				<path id="SVGID_3_" d="M510,67l-48.7,4.4C422,75,383.8,85.3,348.1,101.9l-5.9,2.8C318.8,115.5,294,123,268.6,127l-95.2,14.7
					c-21.6,3.3-40.8,15.5-53.1,33.6L98,208.1c-12.7,18.8-16.8,42.2-11,64.1l0.4,1.7c5.6,21.6,20.2,39.8,40,50l18.8,9.7
					c9.9,5.1,20.1,9.8,30.4,13.9l0,0c28.7,11.5,60,15.3,90.6,11.1l69.6-9.5c22.3-3,45-1.6,66.7,4.1l0,0c13.2,3.5,26.9,4.8,40.6,3.8
					l65.8-4.9"/>
			</defs>
			<clipPath id="SVGID_4_">
				<use xlink:href="#SVGID_3_"  style="overflow:visible;"/>
			</clipPath>
			<path class="st3" d="M527.3,72.4l-64.8,4.9c-13.6,1-27.2,3.2-40.4,6.5l-29,7.2c-13.5,3.4-26.6,7.9-39.3,13.5l-18.3,8.1
				c-12.5,5.5-25.4,10-38.7,13.3l-23.3,5.8c-2.9,0.7-5.8,1.3-8.7,1.8l-84,14.8c-14.2,2.5-27.1,9.5-37,20l-29.6,31.3
				c-6.1,6.5-10.8,14.1-14,22.4l0,0c-5.3,14.2-5.7,29.8-0.9,44.2l4.2,12.9c5.1,15.6,15.8,28.8,30,37l34.8,20.2
				c6.7,3.9,14.1,6.6,21.7,8l33.4,6c6,1.1,12.1,1.3,18.1,0.8l88.6-8.4c18.3-1.7,36.7-1.4,54.9,0.9l15.9,2.1c10,1.3,20,2.1,30,2.3
				l20.5,0.5c8.6,0.2,17.3,0,25.9-0.6l33.5-2.3l1.1,27l-430-1.7L84.5,94l445-32.4L527.3,72.4z"/>
		</g>
	</g>
	<g>
		<g>
			<path id="XMLID_3_" class="st4" d="M341.9,154.5l77.9-10.3c23.9-3.2,47.2-9.7,69.3-19.4l21-9.2l-1.1,189H407.2
				c-9.5,0-19.1-0.3-28.6-0.9l-43.8-2.8c-28.4-1.8-57-0.2-85,4.9l-25.1,4.5c-21.2,3.8-42.8-4.6-55.8-21.7l-12.4-16.3
				c-4.3-5.7-7.6-12.2-9.5-19.1l0,0c-6.7-24,3.1-49.5,24.1-63l20.6-13.2c7.5-4.8,15.9-7.8,24.8-8.7L341.9,154.5z"/>
		</g>
		<g>
			<defs>
				<path id="SVGID_5_" d="M341.9,154.5l77.9-10.3c23.9-3.2,47.2-9.7,69.3-19.4l21-9.2l-1.1,189H407.2c-9.5,0-19.1-0.3-28.6-0.9
					l-43.8-2.8c-28.4-1.8-57-0.2-85,4.9l-25.1,4.5c-21.2,3.8-42.8-4.6-55.8-21.7l-12.4-16.3c-4.3-5.7-7.6-12.2-9.5-19.1l0,0
					c-6.7-24,3.1-49.5,24.1-63l20.6-13.2c7.5-4.8,15.9-7.8,24.8-8.7L341.9,154.5z"/>
			</defs>
			<clipPath id="SVGID_6_">
				<use xlink:href="#SVGID_5_"  style="overflow:visible;"/>
			</clipPath>
			<path class="st5" d="M511.1,129.7l-35.2,12.5c-21.1,7.5-43,12.3-65.3,14.5l-90.7,8.7l-101.8,14.4c-8.3,1.2-16.2,4.6-22.7,9.9
				L174,207.1c-13.3,10.8-19.4,28.2-16,44.9l0,0c2,9.6,7,18.4,14.3,24.9l12.9,11.6c6.2,5.6,13.7,9.4,21.8,11l8.2,1.6
				c4.2,0.8,8.5,1.1,12.8,0.7l55-4.5c20.1-1.7,40.3-0.6,60.2,3.1l56.5,10.6l-190.1,20.5l-90.7-7.6l20.5-171.7l374.8-40L511.1,129.7
				L511.1,129.7"/>
		</g>
	</g>
</g>
</svg>
