<?xml version="1.0" encoding="utf-8"?>
<!-- Generator: Adobe Illustrator 25.2.1, SVG Export Plug-In . SVG Version: 6.00 Build 0)  -->
<svg version="1.1" id="Layer_1" xmlns="http://www.w3.org/2000/svg" xmlns:xlink="http://www.w3.org/1999/xlink" x="0px" y="0px"
	 viewBox="0 0 194.4 107.2" style="enable-background:new 0 0 194.4 107.2;" xml:space="preserve">
<style type="text/css">
	.st0{fill:#C2B59B;}
	.st1{fill:none;}
	.st2{fill:#6ABD45;}
	.st3{fill:#040202;}
	.st4{fill:#144242;}
</style>
<g id="Layer_2_1_">
	<path class="st0" d="M143.2-81.2c0,0.4-0.1,0.8-0.2,1.2v-1.2H143.2z"/>
</g>
<g id="Layer_1_1_">
	<path d="M45.8-68.9c-3.9-2.3-7-5.4-9.3-9.4s-3.4-8.3-3.4-13.1c0-4.9,1.1-9.3,3.3-13.2c2.2-3.9,5.2-7,9.1-9.3
		c3.8-2.2,8.2-3.3,13-3.3c2.6,0,5.1,0.3,7.6,0.9s4.6,1.5,6.4,2.7l-2,11.1c-3.4-1.3-6.5-2-9.3-2c-3.8,0-6.8,1.1-8.9,3.3
		c-2.1,2.2-3.1,5.4-3.1,9.6c0,4.1,1.1,7.3,3.3,9.5c2.2,2.3,5.2,3.4,9.1,3.4c1.5,0,2.9-0.1,4.2-0.4s2.9-0.8,4.8-1.6l2,11.4
		c-4.2,2.4-8.7,3.7-13.7,3.7C54.1-65.5,49.7-66.6,45.8-68.9z"/>
	<path d="M112.3-87c-0.1-0.4-0.2-0.8-0.2-1.1c0.1,0,0.2-0.1,0.2-0.1c3.1-1.4,5.5-3.1,7-5.2c0.7-1,1.2-2,1.6-3.2
		c0.3-1,0.5-2.1,0.6-3.2c0-0.6,0.1-1.1,0.1-1.7c0-2.9-0.9-5.4-2.6-7.6s-4.2-3.9-7.3-5.2c-3.1-1.2-6.8-1.8-10.9-1.8H79v49.5h15.8
		v-18.9h3.4l1.3,5.3l0.1,0.6c0.4,1.6,1.1,3,2.1,4.4c2.3,3.5,6.1,6.4,10.7,8c2.1,0.7,4.3,1.2,6.6,1.4c0.8,0.1,1.6,0.1,2.4,0.1
		c8,0,15-3.3,18.9-8.3c1.4-1.8,2.4-3.8,2.8-6v-1.2h0.2c0.1-0.5,0.1-1,0.1-1.6v-20h-15.3v19.9l0,0c-0.1,1.1-0.5,2.1-1,2.9
		c-1.3,2-3.7,3.4-6.4,3.4c-1.1,0-2.1-0.2-3-0.6c-1.6-0.6-2.8-1.8-3.6-3.2c-0.4-0.8-0.7-1.4-0.9-2.3 M105.1-96.7
		c-1.5,0.8-4,1.2-7.5,1.2h-2.7v-10h5c2.6,0,4.5,0.4,5.7,1.1s1.8,1.9,1.8,3.6C107.3-98.9,106.5-97.5,105.1-96.7z"/>
	<path d="M141.4-120.6c-1.6-1.4-3.5-2.2-5.7-2.2c-2.1,0-4,0.7-5.6,2.1s-2.5,3.1-2.5,5.2s0.8,3.8,2.3,5.2c1.6,1.4,3.5,2.1,5.7,2.1
		s4.1-0.7,5.7-2.1c1.6-1.4,2.5-3.1,2.5-5.3C143.8-117.4,143-119.2,141.4-120.6z"/>
	<path d="M146.9-69.3l3.6-11.2c4.9,1.8,9.4,2.7,13.2,2.7c2.1,0,3.7-0.3,4.6-0.8c1-0.5,1.5-1.3,1.5-2.3c0-0.7-0.3-1.3-0.8-1.8
		s-1.6-1.1-3.2-1.7c-1.6-0.6-4-1.4-7.1-2.3c-3.9-1.2-6.9-3-9.1-5.7c-2.2-2.6-3.2-5.6-3.2-9c0-5.3,1.7-9.3,5.2-12s8.2-4.1,14.1-4.1
		c3.1,0,6.1,0.3,9.1,1c3,0.6,5.6,1.6,7.9,2.8l-3.9,10.9c-2.7-0.9-5-1.6-7-2s-3.9-0.6-5.8-0.6c-3.2,0-4.8,0.9-4.8,2.6
		c0,0.9,0.5,1.6,1.5,2.2s3.2,1.4,6.4,2.3c5,1.3,8.9,3.4,11.4,6.2c2.6,2.8,3.9,6.1,3.9,9.9c0,5.3-1.7,9.4-5.2,12.3
		c-3.5,2.9-8.6,4.3-15.3,4.3S151.5-66.8,146.9-69.3z"/>
	<path d="M217.7-110H234l7.6,30.9l7.6-30.9h17l-15.5,49.5h-18.4L217.7-110z"/>
	<path d="M271.3-104c-1.6-1.4-2.3-3.2-2.3-5.2c0-2.1,0.8-3.8,2.4-5.2c1.6-1.4,3.5-2.1,5.6-2.1c2.2,0,4.1,0.7,5.7,2.2
		c1.6,1.4,2.4,3.1,2.4,5.1c0,2.1-0.8,3.9-2.4,5.3s-3.5,2.1-5.7,2.1C274.7-101.9,272.8-102.6,271.3-104z M272.8-63.7
		c-2.3-2.6-3.4-6.1-3.4-10.6v-22.2h15.3V-75c0,1.1,0.3,2,0.9,2.6s1.4,0.9,2.3,0.9c1,0,1.9-0.3,3-0.9l0.8,10
		c-1.1,0.8-2.4,1.4-4.1,1.9c-1.7,0.4-3.5,0.6-5.3,0.6C278.2-59.8,275-61.1,272.8-63.7z"/>
	<path d="M296.9-110h15.6v38.6h17.2v10.9h-32.8L296.9-110L296.9-110z"/>
	<path d="M335.6-110h15.6v38.6h17.2v10.9h-32.8L335.6-110L335.6-110z"/>
	<path class="st1" d="M416.2-93.5c0,0.5,0,1-0.1,1.5c-0.1-3.6-0.6-5.2-0.9-6C415.8-96.6,416.2-95.1,416.2-93.5z"/>
	<path class="st2" d="M385.9-109.8c-4.6,0.5-8.8,1.8-12.2,3.7c4.5-2.5,10-4,16-4c0.1,0,0.2,0,0.2,0c-0.4,0-0.8,0-1.2,0
		C387.8-110,386.8-109.9,385.9-109.8L385.9-109.8z"/>
	<path class="st2" d="M416.1-90.8c0,0.1,0,0.2,0,0.3c0-0.5,0-1,0-1.5C416.1-91.6,416.1-91.2,416.1-90.8z"/>
	<path class="st3" d="M416.1-90.5c0-0.5,0-1,0-1.5l0,0c-0.9-10-12.2-17.9-26.1-18c-0.4,0-0.8,0-1.2,0c-0.9,0-1.9,0.1-2.8,0.2l0,0
		c-4.6,0.5-8.8,1.8-12.2,3.7c-1.6,0.9-3,1.9-4.3,3c-0.1,0.1-0.1,0.1-0.2,0.2l4.5,9.1c1.4-3.3,6.8-5.7,13.3-5.7h0.3
		c0.2,0,0.3,0,0.4,0c1.1,0,2.2,0.1,3.3,0.3c0,0,0,0,0.1,0c1.6,0.3,3.2,0.8,4.5,1.5c2.3,1.1,4,2.7,4.9,4.6c0,0,0,0,0,0.1
		c0.1,0.2,0.2,0.4,0.2,0.5c0.3,0.7,0.4,1.4,0.4,2.2c0,0.1,0,0.1,0,0.2s0,0.2,0,0.3v3.5c-0.2-0.4-0.4-0.9-0.6-1.2
		c-0.2-0.4-0.5-0.8-0.8-1.2c-0.1-0.1-0.1-0.2-0.2-0.2c-0.9-1.2-2-2.2-3.3-3c-2.1-1.3-4.4-1.9-6.9-1.9c-3.1,0-6,0.7-8.7,2.2
		c-0.8,0.4-1.5,0.9-2.2,1.4s-1.4,1.1-2.1,1.8c-0.2,0.2-0.4,0.4-0.6,0.7c-0.3,0.3-0.6,0.7-0.8,1c-0.3,0.4-0.6,0.8-0.8,1.2
		c-0.8,1.2-1.4,2.6-1.8,4c-0.4,1.5-0.7,3-0.7,4.7c0,0.1,0,0.2,0,0.3c0,3.1,0.8,5.9,2.4,8.5s3.8,4.7,6.5,6.2s5.6,2.3,8.8,2.3
		c5.5,0,9.4-2.2,11.8-6.7v6.2h15.1v-29.1C416.1-89.8,416.1-90.2,416.1-90.5z M401-76.7c-0.1,1.4-0.6,2.7-1.6,3.8
		c-0.2,0.2-0.4,0.4-0.6,0.6c-1.4,1.3-3,1.9-4.9,1.9c-1.5,0-2.9-0.4-4.1-1.2c-0.3-0.2-0.7-0.5-1-0.7c-1.4-1.3-2.2-2.8-2.2-4.7
		c0-0.1,0-0.1,0-0.2c0-1.5,0.6-2.9,1.7-4.1c0.1-0.1,0.3-0.3,0.4-0.4c1.4-1.3,3.1-1.9,5.1-2h0.1c0.8,0,1.5,0.1,2.1,0.3
		c1,0.3,1.9,0.8,2.7,1.5c1.1,1,1.8,2.1,2.1,3.3c0.1,0.4,0.2,0.8,0.2,1.2L401-76.7L401-76.7z"/>
	<path class="st0" d="M143.2-4.1c0,0.4-0.1,0.8-0.2,1.2v-1.2H143.2z"/>
	<path class="st4" d="M19.9,48.4C15.1,46.1,11.3,43,8.5,39s-4.2-8.3-4.2-13.1c0-4.9,1.4-9.3,4.1-13.2s6.4-7,11.1-9.3
		c4.7-2.2,10-3.3,15.9-3.3c3.2,0,6.3,0.3,9.4,0.9c3.1,0.6,5.7,1.5,7.9,2.7l-2.4,11.2c-4.2-1.3-8.1-1.9-11.5-1.9
		c-4.7,0-8.3,1.1-10.9,3.3c-2.5,2.2-3.8,5.4-3.8,9.6c0,4.1,1.3,7.3,4,9.5c2.7,2.3,6.4,3.4,11.2,3.4c1.8,0,3.5-0.1,5.1-0.4
		s3.5-0.8,5.8-1.6l2.5,11.4C47.6,50.6,42,51.8,36,51.8C30.1,51.8,24.7,50.7,19.9,48.4z"/>
	<path class="st4" d="M100,30.4c-0.1-0.4-0.2-0.8-0.3-1.1c0.1,0,0.2-0.1,0.3-0.1c3.6-1.4,6.3-3.1,8-5.2c0.8-1,1.4-2,1.8-3.2
		c0.4-1,0.6-2.1,0.7-3.2c0.1-0.6,0.1-1.1,0.1-1.7c0-2.9-1-5.4-3-7.6s-4.8-3.9-8.4-5.2c-3.6-1.2-7.8-1.8-12.5-1.8h-25v49.5H80V31.9
		h3.9l1.5,5.3l0.2,0.6c0.4,1.6,1.3,3,2.4,4.4c2.6,3.5,6.9,6.4,12.2,8c2.3,0.7,4.9,1.2,7.6,1.4c0.9,0.1,1.8,0.1,2.7,0.1
		c9.2,0,17.2-3.3,21.6-8.3c1.6-1.8,2.7-3.8,3.2-6v-1.2h0.2c0.1-0.5,0.1-1,0.1-1.6v-20h-17.5v19.9l0,0c-0.1,1.1-0.5,2.1-1.2,2.9
		c-1.5,2-4.2,3.4-7.3,3.4c-1.2,0-2.4-0.2-3.5-0.6c-1.8-0.6-3.3-1.8-4.1-3.2c-0.5-0.8-0.8-1.4-1-2.3 M91.7,20.6
		c-1.7,0.8-4.5,1.2-8.6,1.2H80v-9.9h5.7c3,0,5.1,0.4,6.5,1.1s2.1,1.9,2.1,3.6C94.3,18.5,93.4,19.8,91.7,20.6z"/>
	<path class="st4" d="M142.9,48.1l4.3-11.2c5.9,1.8,11.1,2.7,15.8,2.7c2.5,0,4.4-0.3,5.5-0.8c1.2-0.5,1.8-1.3,1.8-2.3
		c0-0.7-0.3-1.3-0.9-1.8c-0.6-0.5-1.9-1.1-3.8-1.7c-1.9-0.6-4.7-1.4-8.5-2.3c-4.6-1.2-8.2-3-10.8-5.7c-2.6-2.6-3.9-5.6-3.9-9
		c0-5.3,2.1-9.3,6.2-12c4.1-2.7,9.7-4.1,16.7-4.1c3.7,0,7.2,0.3,10.8,1c3.5,0.6,6.7,1.6,9.4,2.8l-4.5,11c-3.2-0.9-6-1.6-8.3-2
		c-2.4-0.4-4.7-0.6-6.9-0.6c-3.8,0-5.7,0.9-5.7,2.6c0,0.9,0.6,1.6,1.8,2.2c1.2,0.6,3.8,1.4,7.6,2.3c6,1.3,10.5,3.4,13.6,6.2
		s4.6,6.1,4.6,9.9c0,5.3-2.1,9.4-6.2,12.3c-4.1,2.9-10.2,4.3-18.2,4.3C155.3,51.8,148.5,50.6,142.9,48.1z"/>
	<path class="st4" d="M9.9,60h14.4l6.8,28.7L37.9,60H53l-13.7,46H22.9L9.9,60z"/>
	<path class="st4" d="M81.5,60h13.8v35.9h15.3v10.2H81.5V60z"/>
	<path class="st4" d="M116.9,60h13.8v35.9H146v10.2h-29.1V60z"/>
	<path class="st1" d="M416.2-16.4c0,0.5,0,1-0.1,1.5c-0.1-3.6-0.6-5.2-0.9-6C415.8-19.5,416.2-18,416.2-16.4z"/>
	<path class="st2" d="M385.9-32.7c-4.6,0.5-8.8,1.8-12.2,3.7c4.5-2.5,10-4,16-4c0.1,0,0.2,0,0.2,0c-0.4,0-0.8,0-1.2,0
		C387.8-32.9,386.8-32.8,385.9-32.7L385.9-32.7z"/>
	<path class="st2" d="M416.1-13.7c0,0.1,0,0.2,0,0.3c0-0.5,0-1,0-1.5C416.1-14.5,416.1-14.1,416.1-13.7z"/>
	<rect x="59" y="59.4" class="st4" width="13.6" height="46"/>
	<path class="st4" d="M187.5,77.8c0-0.5,0-1,0-1.4l0,0c-0.8-9.3-10.8-16.7-23.2-16.7c-0.4,0-0.7,0-1.1,0c-0.4,0-0.8,0-1.2,0.1l0,0
		h-13v9.7h12.9l0,0c0.1,0,0.3,0,0.4,0c1,0,2,0.1,2.9,0.3c0,0,0,0,0.1,0c1.5,0.3,2.8,0.8,4,1.4c2,1,3.5,2.5,4.3,4.3c0,0,0,0,0,0.1
		c0.1,0.2,0.1,0.3,0.2,0.5c0.2,0.7,0.3,1.3,0.3,2c0,0.1,0,0.1,0,0.2s0,0.2,0,0.3v3.2c-0.2-0.4-0.3-0.8-0.5-1.2
		c-0.2-0.4-0.4-0.8-0.7-1.1c-0.1-0.1-0.1-0.2-0.2-0.2c-0.8-1.2-1.8-2.1-2.9-2.8c-1.9-1.2-3.9-1.8-6.2-1.8c-2.7,0-5.3,0.7-7.7,2
		c-0.7,0.4-1.3,0.8-2,1.3s-1.3,1-1.8,1.7c-0.2,0.2-0.4,0.4-0.6,0.6c-0.3,0.3-0.5,0.6-0.7,1c-0.3,0.4-0.5,0.7-0.7,1.1
		c-0.7,1.2-1.2,2.4-1.6,3.7c-0.4,1.4-0.6,2.8-0.6,4.4c0,0.1,0,0.2,0,0.3c0,2.9,0.8,5.5,2.2,7.9s3.4,4.4,5.8,5.8
		c2.4,1.4,5,2.1,7.8,2.1c4.9,0,8.4-2.1,10.5-6.2v5.7h13.4v-27C187.5,78.5,187.5,78.1,187.5,77.8z M174.1,90.7
		c-0.1,1.3-0.5,2.5-1.4,3.6c-0.2,0.2-0.3,0.4-0.6,0.6c-1.2,1.2-2.7,1.7-4.4,1.7c-1.4,0-2.6-0.4-3.7-1.1c-0.3-0.2-0.6-0.4-0.9-0.7
		c-1.3-1.2-1.9-2.6-1.9-4.4c0-0.1,0-0.1,0-0.2c0-1.4,0.5-2.7,1.5-3.8c0.1-0.1,0.2-0.3,0.4-0.4c1.2-1.2,2.7-1.8,4.5-1.8h0.1
		c0.7,0,1.3,0.1,1.9,0.3c0.9,0.3,1.7,0.8,2.4,1.4c1,0.9,1.6,1.9,1.9,3.1c0.1,0.3,0.1,0.7,0.2,1.1V90.7z"/>
</g>
</svg>
