<?xml version="1.0" encoding="utf-8"?>
<!-- Generator: Adobe Illustrator 25.2.1, SVG Export Plug-In . SVG Version: 6.00 Build 0)  -->
<svg version="1.1" id="Layer_2" xmlns="http://www.w3.org/2000/svg" xmlns:xlink="http://www.w3.org/1999/xlink" x="0px" y="0px"
	 viewBox="0 0 508.6 402.4" style="enable-background:new 0 0 508.6 402.4;" xml:space="preserve">
<style type="text/css">
	.st0{fill:#293D45;}
	.st1{fill:#F9F5E3;}
	.st2{fill:#17231F;}
</style>
<g id="pupil">
	<g id="XMLID_8_">
		<g>
			<path class="st0" d="M327.7,160.7c5.2,0,9.3,4,9.3,9s-4.2,9-9.3,9c-5.2,0-9.3-4-9.3-9C318.3,164.7,322.5,160.7,327.7,160.7z
				 M334.4,166.7c0-0.9-1.1-1.7-2.5-1.7c-0.8,0-1.5,0.3-1.9,0.7c-0.7-0.4-1.5-0.6-2.3-0.6c-2.6,0-4.7,2.1-4.7,4.6
				c0,2.5,2.1,4.6,4.7,4.6c2.6,0,4.7-2.1,4.7-4.6c0-0.5-0.1-0.9-0.2-1.3C333.4,168.3,334.4,167.6,334.4,166.7z"/>
			<path class="st1" d="M331.9,165.1c1.4,0,2.5,0.8,2.5,1.7c0,0.8-1,1.6-2.3,1.7c-0.4-1.1-1.1-2.1-2.2-2.7
				C330.4,165.3,331.1,165.1,331.9,165.1z"/>
			<path class="st2" d="M332.2,168.4c0.1,0.4,0.2,0.8,0.2,1.3c0,2.5-2.1,4.6-4.7,4.6c-2.6,0-4.7-2.1-4.7-4.6s2.1-4.6,4.7-4.6
				c0.8,0,1.6,0.2,2.3,0.6c-0.3,0.3-0.5,0.7-0.5,1c0,0.9,1.1,1.7,2.5,1.7C332,168.4,332.1,168.4,332.2,168.4z"/>
			<path class="st1" d="M332.2,168.4c-0.1,0-0.2,0-0.2,0c-1.4,0-2.5-0.8-2.5-1.7c0-0.4,0.2-0.8,0.5-1
				C331,166.2,331.8,167.3,332.2,168.4z"/>
			<path class="st0" d="M258.4,161.2c5.2,0,9.3,4,9.3,9c0,5-4.2,9-9.3,9c-5.2,0-9.3-4-9.3-9C249,165.2,253.2,161.2,258.4,161.2z
				 M265.3,167.2c0-0.9-1.1-1.7-2.5-1.7c-0.8,0-1.6,0.3-2,0.7c-0.7-0.4-1.5-0.7-2.4-0.7c-2.6,0-4.7,2.1-4.7,4.6s2.1,4.6,4.7,4.6
				c2.6,0,4.7-2.1,4.7-4.6c0-0.5-0.1-0.9-0.2-1.3C264.2,168.9,265.3,168.1,265.3,167.2z"/>
			<path class="st1" d="M262.8,165.6c1.4,0,2.5,0.8,2.5,1.7s-1.1,1.6-2.4,1.7c-0.3-1.1-1.1-2.1-2.1-2.6
				C261.2,165.9,261.9,165.6,262.8,165.6z"/>
			<path class="st2" d="M262.9,168.9c0.1,0.4,0.2,0.8,0.2,1.3c0,2.5-2.1,4.6-4.7,4.6c-2.6,0-4.7-2.1-4.7-4.6c0-2.5,2.1-4.6,4.7-4.6
				c0.9,0,1.7,0.2,2.4,0.7c-0.3,0.3-0.5,0.7-0.5,0.9C260.3,168.1,261.4,168.9,262.9,168.9C262.8,168.9,262.8,168.9,262.9,168.9z"/>
			<path class="st1" d="M262.9,168.9C262.8,168.9,262.8,168.9,262.9,168.9c-1.5,0-2.6-0.8-2.6-1.7c0-0.4,0.2-0.8,0.5-0.9
				C261.8,166.8,262.5,167.7,262.9,168.9z"/>
		</g>
	</g>
</g>
</svg>
