<?xml version="1.0" encoding="utf-8"?>
<!-- Generator: Adobe Illustrator 25.2.1, SVG Export Plug-In . SVG Version: 6.00 Build 0)  -->
<svg version="1.1" xmlns="http://www.w3.org/2000/svg" xmlns:xlink="http://www.w3.org/1999/xlink" x="0px" y="0px"
	 viewBox="0 0 193.9 172.8" style="enable-background:new 0 0 193.9 172.8;" xml:space="preserve">
<style type="text/css">
	.st0{fill:#E0743E;}
	.st1{opacity:0.35;fill:#15433D;}
	.st2{opacity:0.43;clip-path:url(#XMLID_34_);fill:#754C29;}
	.st3{opacity:0.43;clip-path:url(#XMLID_35_);fill:#754C29;}
	.st4{opacity:0.43;clip-path:url(#XMLID_36_);fill:#754C29;}
	.st5{opacity:0.43;clip-path:url(#XMLID_37_);fill:#754C29;}
	.st6{opacity:0.18;clip-path:url(#XMLID_38_);fill:#15433D;}
	.st7{opacity:0.13;clip-path:url(#XMLID_38_);fill:#15433D;}
	.st8{opacity:0.1;clip-path:url(#XMLID_38_);fill:#FFFFFF;}
	.st9{opacity:0.24;clip-path:url(#XMLID_38_);fill:#15433D;}
	.st10{fill:#EB9269;}
	.st11{fill:#E88153;}
	.st12{fill:#A65A36;}
	.st13{clip-path:url(#XMLID_39_);fill:#E88153;}
	.st14{opacity:0.42;clip-path:url(#XMLID_40_);fill-rule:evenodd;clip-rule:evenodd;fill:#15433D;}
	.st15{opacity:0.42;clip-path:url(#XMLID_41_);fill-rule:evenodd;clip-rule:evenodd;fill:#15433D;}
	.st16{opacity:0.55;clip-path:url(#XMLID_42_);fill-rule:evenodd;clip-rule:evenodd;fill:#15433D;}
	.st17{opacity:0.51;clip-path:url(#XMLID_42_);fill-rule:evenodd;clip-rule:evenodd;fill:#15433D;}
	.st18{fill-rule:evenodd;clip-rule:evenodd;fill:#E0743E;}
	.st19{opacity:0.71;clip-path:url(#SVGID_2_);}
	.st20{fill-rule:evenodd;clip-rule:evenodd;fill:#7A958B;}
	.st21{clip-path:url(#SVGID_2_);}
	.st22{fill-rule:evenodd;clip-rule:evenodd;fill:#A65A36;}
	.st23{fill:#436F69;}
	.st24{clip-path:url(#SVGID_2_);fill-rule:evenodd;clip-rule:evenodd;fill:#436F69;}
	.st25{opacity:0.63;clip-path:url(#XMLID_43_);fill-rule:evenodd;clip-rule:evenodd;fill:#15433D;}
	.st26{opacity:0.39;fill-rule:evenodd;clip-rule:evenodd;fill:#15433D;}
	.st27{opacity:0.14;clip-path:url(#XMLID_44_);fill-rule:evenodd;clip-rule:evenodd;fill:#1F5F58;}
	.st28{clip-path:url(#XMLID_45_);fill-rule:evenodd;clip-rule:evenodd;fill:#F5D99E;}
	.st29{fill-rule:evenodd;clip-rule:evenodd;fill:#D2653E;}
	.st30{opacity:0.76;clip-path:url(#XMLID_46_);fill-rule:evenodd;clip-rule:evenodd;fill:#BB5029;}
	.st31{clip-path:url(#XMLID_46_);fill-rule:evenodd;clip-rule:evenodd;fill:#F5D99E;}
	.st32{opacity:0.3;clip-path:url(#XMLID_46_);fill-rule:evenodd;clip-rule:evenodd;fill:#994322;}
	.st33{opacity:0.14;clip-path:url(#XMLID_47_);fill-rule:evenodd;clip-rule:evenodd;fill:#1F5F58;}
	.st34{clip-path:url(#XMLID_48_);}
	.st35{fill:#F4EEC3;}
	.st36{clip-path:url(#XMLID_48_);fill-rule:evenodd;clip-rule:evenodd;fill:#EC7943;stroke:#F4EEC3;stroke-miterlimit:10;}
	.st37{opacity:0.11;clip-path:url(#XMLID_48_);fill-rule:evenodd;clip-rule:evenodd;fill:#BB5029;}
	
		.st38{clip-path:url(#XMLID_48_);fill-rule:evenodd;clip-rule:evenodd;fill:none;stroke:#E96029;stroke-width:6;stroke-linecap:round;stroke-miterlimit:10;}
	.st39{opacity:0.25;clip-path:url(#XMLID_49_);fill-rule:evenodd;clip-rule:evenodd;fill:#A65A36;}
	.st40{opacity:0.39;clip-path:url(#XMLID_48_);fill-rule:evenodd;clip-rule:evenodd;fill:#BB5029;}
	.st41{opacity:0.43;clip-path:url(#XMLID_48_);fill-rule:evenodd;clip-rule:evenodd;fill:#BB5029;}
	.st42{fill-rule:evenodd;clip-rule:evenodd;fill:#E86D3C;}
	.st43{clip-path:url(#XMLID_50_);fill-rule:evenodd;clip-rule:evenodd;fill:#344147;stroke:#F4EEC3;stroke-miterlimit:10;}
	.st44{clip-path:url(#XMLID_50_);fill-rule:evenodd;clip-rule:evenodd;fill:#F1F2F2;stroke:#F4EEC3;stroke-miterlimit:10;}
	.st45{opacity:0.21;clip-path:url(#XMLID_51_);fill-rule:evenodd;clip-rule:evenodd;fill:#A65A36;}
	.st46{opacity:0.21;clip-path:url(#XMLID_52_);fill-rule:evenodd;clip-rule:evenodd;fill:#A65A36;}
	.st47{opacity:0.21;clip-path:url(#XMLID_53_);fill-rule:evenodd;clip-rule:evenodd;fill:#A65A36;}
	.st48{clip-path:url(#XMLID_54_);fill-rule:evenodd;clip-rule:evenodd;fill:#344147;stroke:#F4EEC3;stroke-miterlimit:10;}
	.st49{clip-path:url(#XMLID_54_);fill-rule:evenodd;clip-rule:evenodd;fill:#F1F2F2;stroke:#F4EEC3;stroke-miterlimit:10;}
	
		.st50{opacity:0.56;fill-rule:evenodd;clip-rule:evenodd;fill:none;stroke:#7A958B;stroke-width:4;stroke-linecap:round;stroke-miterlimit:10;}
	.st51{opacity:0.22;clip-path:url(#XMLID_55_);fill:#8CA199;}
	.st52{opacity:0.31;clip-path:url(#XMLID_55_);fill:#8CA199;}
	.st53{opacity:0.18;clip-path:url(#XMLID_56_);fill:#7A958B;}
	.st54{opacity:0.18;clip-path:url(#XMLID_57_);fill:#7A958B;}
	.st55{fill:#15433D;}
	.st56{opacity:0.21;clip-path:url(#XMLID_58_);fill:#F1F2F2;}
	.st57{fill:#365550;}
	.st58{opacity:0.22;clip-path:url(#XMLID_59_);fill:#F4EEC3;}
	.st59{opacity:0.1;clip-path:url(#XMLID_60_);fill:#F4EEC3;}
	.st60{fill:none;}
	.st61{fill:#192E34;}
	
		.st62{opacity:0.22;clip-path:url(#XMLID_61_);fill:none;stroke:#E0743E;stroke-width:9;stroke-linecap:round;stroke-miterlimit:10;}
	.st63{opacity:0.29;clip-path:url(#XMLID_62_);fill:#E0743E;}
	.st64{opacity:0.22;clip-path:url(#XMLID_63_);fill:#E0743E;}
	.st65{fill:#0E4C44;}
</style>
<g id="Layer_1">
	<g>
		<polygon class="st0" points="-500,-305 -500,-260.9 -446.9,-280.7 -449.3,-305 		"/>
		<ellipse class="st1" cx="-401.7" cy="-186.9" rx="125.3" ry="14.9"/>
		<g>
			<defs>
				<path id="XMLID_3_" d="M-485.1-178.4h-5.5c-2.3,0-4.2-1.5-4.2-3.3l-3.3-41.1h20.4l-3.3,41.1
					C-480.9-179.9-482.8-178.4-485.1-178.4z"/>
			</defs>
			<use xlink:href="#XMLID_3_"  style="overflow:visible;fill:#8B5E3C;"/>
			<clipPath id="XMLID_34_">
				<use xlink:href="#XMLID_3_"  style="overflow:visible;"/>
			</clipPath>
			<path class="st2" d="M-501.8-224.9l2.4,27.3l3.5-2.1c4.7-2.9,11.3-2.8,15.9,0.1l3.4,2.2l4.6-26.6L-501.8-224.9z"/>
		</g>
		<g>
			<defs>
				<path id="XMLID_4_" d="M-381.8-178.4h-5.5c-2.3,0-4.2-1.5-4.2-3.3l-3.3-41.1h20.4l-3.3,41.1
					C-377.6-179.9-379.5-178.4-381.8-178.4z"/>
			</defs>
			<use xlink:href="#XMLID_4_"  style="overflow:visible;fill:#8B5E3C;"/>
			<clipPath id="XMLID_35_">
				<use xlink:href="#XMLID_4_"  style="overflow:visible;"/>
			</clipPath>
			<path class="st3" d="M-398.4-224.9l2.4,27.3l3.5-2.1c4.7-2.9,11.3-2.8,15.9,0.1l3.4,2.2l4.6-26.6L-398.4-224.9z"/>
		</g>
		<g>
			<defs>
				<path id="XMLID_5_" d="M-322.5-183.4h-5.5c-2.3,0-4.2-1.5-4.2-3.3l-3.3-41.1h20.4l-3.3,41.1
					C-318.3-184.9-320.2-183.4-322.5-183.4z"/>
			</defs>
			<use xlink:href="#XMLID_5_"  style="overflow:visible;fill:#754C29;"/>
			<clipPath id="XMLID_36_">
				<use xlink:href="#XMLID_5_"  style="overflow:visible;"/>
			</clipPath>
			<path class="st4" d="M-339.1-229.9l2.4,27.3l3.5-2.1c4.7-2.9,11.3-2.8,15.9,0.1l3.4,2.2l4.6-26.6L-339.1-229.9z"/>
		</g>
		<g>
			<defs>
				<path id="XMLID_6_" d="M-425-183.4h-5.5c-2.3,0-4.2-1.5-4.2-3.3l-3.3-41.1h20.4l-3.3,41.1C-420.8-184.9-422.7-183.4-425-183.4z"
					/>
			</defs>
			<use xlink:href="#XMLID_6_"  style="overflow:visible;fill:#754C29;"/>
			<clipPath id="XMLID_37_">
				<use xlink:href="#XMLID_6_"  style="overflow:visible;"/>
			</clipPath>
			<path class="st5" d="M-441.7-229.9l2.4,27.3l3.5-2.1c4.7-2.9,11.3-2.8,15.9,0.1l3.4,2.2l4.6-26.6L-441.7-229.9z"/>
		</g>
		<g>
			<defs>
				<path id="XMLID_1_" d="M-304.2-229.3l3.1-7.3c3.1-7.2,4.8-14.9,4.9-22.7l1.3-56.4c0.1-3.6,0.1-7.3-0.1-10.9l-1.5-39.4
					c-0.3-8.8-1.2-17.5-2.5-26.2l-7.1-45.2c-1.8-11.5-11.7-20.1-23.4-20.1h-90.2c-5.1,0-9.3,3.9-9.6,9l-3.6,53.9
					c-0.3,3.8-0.8,7.6-1.6,11.4l-14.4,65.9l-2.6,9.8v2.5v30.7l77.3,13.1l1.1-38.2h12.6l-3.6,45.6l-9,29.5l63,1.4l3.4-3.1
					C-305.6-226.9-304.8-228-304.2-229.3z"/>
			</defs>
			<use xlink:href="#XMLID_1_"  style="overflow:visible;fill:#E0743E;"/>
			<clipPath id="XMLID_38_">
				<use xlink:href="#XMLID_1_"  style="overflow:visible;"/>
			</clipPath>
			<path class="st6" d="M-363.6-305l-13.7,76.4h76.6l9.6-38.6v-107l-16.8-79.7l-21.6-9.6l-3.8,6l4.8,9c2.9,5.3,4.9,11.1,6,17
				l6.6,35.2c2.3,12.5,3.5,25.1,3.5,37.8v47.6c0,3.3-2.7,5.9-5.9,5.9H-363.6z"/>
			<path class="st7" d="M-333.8-433.4l-0.9-1.4c-3.7-6.2-10.4-10-17.6-10h-60.2c-3.3,0-6,2.6-6.1,5.9l-0.4,15.3
				c-0.3,9.2-1.1,18.4-2.7,27.5l-8.3,49.2l17.8-42.9c8.2-19.8,24.7-34.9,45.1-41.3l0,0c7.5-2.4,15.5-2.9,23.3-1.5l8.2,1.5
				C-334.1-430.8-333-432.2-333.8-433.4z"/>
			<path class="st8" d="M-328.6-411.8l2.5,21.7c1.2,10.5,1.9,21.1,2.1,31.8l0.6,32.5c0.1,3.1,2.8,5.4,5.8,5l0,0c2.9-0.4,5-2.9,5-5.8
				l-0.3-30.6c-0.1-11.1-1.1-22.1-2.8-33.1l-3.7-23.1c-0.5-3-3.6-4.7-6.3-3.5l0,0C-327.7-416-328.9-413.9-328.6-411.8z"/>
			<path class="st9" d="M-456.7-305l19.4,6.2c13.6,4.4,27.7,6.6,42,6.6h27.5l-1,20.6l-92.2,2.9L-456.7-305z"/>
		</g>
		<path class="st10" d="M-494.1-274l26.3-5.4l12.7-2.8c2.4-0.6,4.8-0.9,7.3-1.1l22.1-1.6c4.6-0.3,9.2-0.3,13.8,0.2l38.8,4.1l1.8,13
			l-66.7,3.8L-494.1-274z"/>
		<path class="st11" d="M-378.7-302h20.9l-2.2,33.8c-0.5,7.1-1.5,14.2-3.2,21.1l-5.1,21.4h-42.8v-15.1l17.3-1
			c6.2-1.5,12.1-7.5,13.7-13.7l1.4-8.4c1-4,0-8.5,0-12.5V-302z"/>
		<path class="st12" d="M-315.5-302h-62.4c-1.7,0-3-1.3-3-3l0,0c0-1.7,1.3-3,3-3h62.4c1.7,0,3,1.3,3,3l0,0
			C-312.5-303.3-313.8-302-315.5-302z"/>
		<path class="st12" d="M-449.9-302h-62.4c-1.7,0-3-1.3-3-3l0,0c0-1.7,1.3-3,3-3h62.4c1.7,0,3,1.3,3,3l0,0
			C-446.9-303.3-448.2-302-449.9-302z"/>
		<path class="st11" d="M-496.2-302h-18.1l-0.8,20.2c-0.3,8.9,0.2,17.8,1.7,26.5c0.5,3,1.1,5.8,1.6,8.1l7,21.4h40.9v-15.1l-17.3-1
			c-6.2-1.5-12.1-7.5-13.7-13.7l-1.4-8.4c-1-4,0-8.5,0-12.5V-302z"/>
		<g>
			<defs>
				<path id="XMLID_2_" d="M-400.2-240.8h-75.3c-11.7,0-21.1-9.5-21.1-21.2v-5.9c0-3.5,2.9-6.4,6.4-6.4h107.4c3.1,0,5.6,2.5,5.6,5.6
					v5C-377.3-251-387.5-240.8-400.2-240.8z"/>
			</defs>
			<use xlink:href="#XMLID_2_"  style="overflow:visible;fill:#C2502A;"/>
			<clipPath id="XMLID_39_">
				<use xlink:href="#XMLID_2_"  style="overflow:visible;"/>
			</clipPath>
			<path class="st13" d="M-496.3-284.4l-0.2,20c-0.1,11.6,9.3,21.1,20.9,21.1h72.4c14.3,0,25.9-11.6,25.9-25.9v-9.3L-496.3-284.4z"
				/>
		</g>
		<rect x="-477.6" y="-241" class="st11" width="81.3" height="16.3"/>
		<path class="st12" d="M-304.6-222.8H-504c-1.7,0-3.1-1.4-3.1-3.1v-4c0-1.7,1.4-3.1,3.1-3.1h199.4c1.7,0,3.1,1.4,3.1,3.1v4
			C-301.5-224.2-302.9-222.8-304.6-222.8z"/>
	</g>
	<g>
		<g>
			<defs>
				<polygon id="XMLID_8_" points="-87.8,-91.5 -18,-431.2 0,-431.2 -69.8,-86.9 -87.8,-86.9 				"/>
			</defs>
			<use xlink:href="#XMLID_8_"  style="overflow:visible;fill-rule:evenodd;clip-rule:evenodd;fill:#E0743E;"/>
			<clipPath id="XMLID_40_">
				<use xlink:href="#XMLID_8_"  style="overflow:visible;"/>
			</clipPath>
			<polygon class="st14" points="-7.5,-440.9 -85,-75 -106.6,-82.2 -19.1,-441.6 			"/>
		</g>
		<g>
			<defs>
				<polygon id="XMLID_9_" points="25.1,-95.2 94.9,-434.9 112.9,-434.9 43.1,-90.5 25.1,-90.5 				"/>
			</defs>
			<use xlink:href="#XMLID_9_"  style="overflow:visible;fill-rule:evenodd;clip-rule:evenodd;fill:#E0743E;"/>
			<clipPath id="XMLID_41_">
				<use xlink:href="#XMLID_9_"  style="overflow:visible;"/>
			</clipPath>
			<polygon class="st15" points="105.5,-444.5 28,-78.6 6.4,-85.8 93.8,-445.2 			"/>
		</g>
		<g>
			<defs>
				<polygon id="XMLID_7_" points="-13.7,-434.9 28.1,-86.9 51.1,-86.9 33.1,-234.1 128.9,-231.9 152.6,-95.9 176.7,-94.4 
					118.8,-434.9 				"/>
			</defs>
			<use xlink:href="#XMLID_7_"  style="overflow:visible;fill-rule:evenodd;clip-rule:evenodd;fill:#DF7D4A;"/>
			<clipPath id="XMLID_42_">
				<use xlink:href="#XMLID_7_"  style="overflow:visible;"/>
			</clipPath>
			<polygon class="st16" points="-7.9,-444.6 36.7,-76.4 20.2,-78.6 -19.4,-444.6 			"/>
			<polyline class="st17" points="113.8,-232.3 134.6,-232.7 160.6,-90.1 144,-86.9 113.8,-232.3 113.8,-232.3 			"/>
		</g>
		<polygon class="st18" points="-64.8,-147 53.9,-143.8 50.7,-127.9 -64.8,-133.3 		"/>
		<g>
			<defs>
				<polygon id="SVGID_1_" points="7.6,-402.6 27.7,-239.1 144.7,-240.6 131,-404.4 19.8,-408.3 11.9,-402.9 				"/>
			</defs>
			<use xlink:href="#SVGID_1_"  style="overflow:visible;fill-rule:evenodd;clip-rule:evenodd;fill:#F4EEC3;"/>
			<clipPath id="SVGID_2_">
				<use xlink:href="#SVGID_1_"  style="overflow:visible;"/>
			</clipPath>
			<g class="st19">
				<polygon class="st20" points="19.1,-413 47.2,-226.9 19.8,-233.7 3.2,-410.1 				"/>
			</g>
			<g class="st21">
				<polygon class="st22" points="10.1,-415.5 38.2,-224.4 23.4,-230.1 3.2,-410.1 				"/>
			</g>
			<g class="st21">
				<g>
					<g>
						<g>
							<g>
								<path class="st23" d="M110.5-381.6c0.1-0.4-0.8-0.2-0.9-0.3C109.7-381.3,110.7-381.6,110.5-381.6z"/>
								<polygon class="st23" points="112.5,-375.7 112.2,-375.8 113,-374.9 								"/>
								<path class="st23" d="M112.6-370.1c1.4-0.5-0.3-2,0.2-3l0.3-0.2l-1.2-0.4C112.2-372.5,113-371,112.6-370.1z"/>
								<path class="st23" d="M109.5-367.1c0.6-0.2,0.5,0.6,0.2-0.7c-0.1,0.1-0.1,0.1-0.1,0.1C109.6-367.6,109.6-367.4,109.5-367.1z
									"/>
								<path class="st23" d="M109.6-367.7C109.5-368.3,109.1-367.3,109.6-367.7L109.6-367.7z"/>
								<path class="st23" d="M109.9-365l-0.5-0.8c-0.3,0.2-0.4,0.8-0.6,0.6C109-364.4,109.3-364.6,109.9-365z"/>
								<path class="st23" d="M110.9-364.3l-0.2-0.4C110.6-364.6,110.5-364.5,110.9-364.3z"/>
								<path class="st23" d="M110.3-365.5l0.4,0.8c0.2-0.1,0.7-0.1-0.2-0.4C111-365,110.6-365.2,110.3-365.5z"/>
								<path class="st23" d="M110.5-366c0.3-0.4,0.5-1,1-0.2C111.3-367.7,110.3-367.5,110.5-366z"/>
								<path class="st23" d="M114.1-369.8l0.4-0.6l-0.5-0.5C114.3-370.7,113.6-369.8,114.1-369.8z"/>
								<path class="st23" d="M109.1-360.3c0.3,0.1,0.8-0.2,1.2-0.3l-0.3-0.6C109.7-360.9,109.5-360.3,109.1-360.3z"/>
								<path class="st23" d="M110.3-360.6l0.5,0.9C110.9-360.5,110.6-360.6,110.3-360.6z"/>
								<polygon class="st23" points="112.5,-364.1 111.4,-365.5 112.5,-363.9 								"/>
								<polygon class="st23" points="108.9,-357.1 108.2,-357.7 109.2,-356.8 								"/>
								<path class="st23" d="M108.9-355.1c-0.6-0.4-1,0.4-1.3,0c0.1,0.6,0.5,1.1,1,1.5C108.3-354,108.4-354.4,108.9-355.1z"/>
								<path class="st23" d="M109.1-352.7c-0.1-0.2-0.3-0.5-0.6-0.8C108.6-353.2,108.8-353,109.1-352.7z"/>
								<path class="st23" d="M110.6-358.3c-0.2,0.1-0.7,0.2-0.9,0.6l0.9-0.3C110.5-358.1,110.6-358.2,110.6-358.3z"/>
								<path class="st23" d="M110.6-358L110.6-358c-0.1,0.4-0.1,0.6-0.1,0.7C110.5-357.4,110.5-357.6,110.6-358z"/>
								<path class="st23" d="M110.6-358.4C110.6-358.4,110.6-358.3,110.6-358.4C110.7-358.3,110.7-358.4,110.6-358.4z"/>
								<path class="st23" d="M111.7-361.9c0.5,0.5,1,1.6,1.7,0.6C112.8-361.7,112.4-361.2,111.7-361.9z"/>
								<path class="st23" d="M111.7-358.8l0.2-0.9c-0.2,0-0.6,0.2-0.8-0.1L111.7-358.8z"/>
								<polygon class="st23" points="111.9,-358.3 111.7,-358.8 111.6,-358.4 								"/>
								<path class="st23" d="M110-354.1c0.3,0.4,0.4,0.8,0.4,1.3c0.2-0.5,0.3-1,0.4-1.5C110.5-354.4,110-354.7,110-354.1z"/>
								<path class="st23" d="M110.4-356C110.4-356,110.4-355.9,110.4-356C110.5-356,110.5-356,110.4-356z"/>
								<polygon class="st23" points="109.9,-348.2 110.1,-348.3 109.9,-348.3 								"/>
								<path class="st23" d="M110.9-354.4c0.2-0.4,0-0.6-0.3-0.8c0.1,0.3,0.1,0.6,0.1,0.9C110.9-354.3,110.9-354.3,110.9-354.4z"/>
								<path class="st23" d="M109.4-351.4c0.2-0.2,0.4-0.4,0.5-0.6C109.6-351.8,109.2-351.5,109.4-351.4z"/>
								<path class="st23" d="M110.2-355.8C110.2-355.8,110.1-355.8,110.2-355.8C109.9-355.7,110-355.8,110.2-355.8z"/>
								<path class="st23" d="M110.2-355.8c0.1,0.2,0.3,0.4,0.5,0.5c-0.1-0.2-0.1-0.5-0.2-0.6C110.3-355.9,110.3-355.8,110.2-355.8z
									"/>
								<path class="st23" d="M115.2-346.1c-0.8-0.2-1.4-1.3-0.4-2.1c-0.5-0.9-3.1-0.6-4.7-0.1c0.3,0.1,0.7,0.1,1,1
									c0.5-0.2,1.2-1.8,1.9-1c0.3,1.2-0.4,0.9-0.9,1.4c1-0.4,1.2,1.7,2.7,1.6l-0.4-1.1C114.6-346.3,114.9-345.9,115.2-346.1z"/>
								<path class="st23" d="M110.3-349.9l-0.1-0.4c-0.2,0.4-0.5,0.6-1.2,1.1c0.3,0.6,0.6,0.8,0.9,0.9l0.3-1.7L110.3-349.9z"/>
								<path class="st23" d="M110.4-351.9c0.8,0.4,1.1,1.3,2.1,0.8c0-1.1-0.7-0.8-1-1.5C111.6-350.8,111.1-353.1,110.4-351.9
									c0-0.4,0-0.7,0-0.9c-0.1,0.3-0.3,0.6-0.5,0.8c0,0,0,0,0.1,0l0,0l0,0c0.1-0.1,0.2-0.1,0.1,0c0,0,0,0,0,0
									C110.2-352,110.3-351.9,110.4-351.9c-0.2,0.5-0.2,0.1-0.3-0.1c0,0-0.1,0-0.1,0c0,0,0,0,0,0l0.3,1.7
									C110.4-350.6,110.4-351.1,110.4-351.9z"/>
								<path class="st23" d="M115.2-360.4c-0.1,0.1-0.1,0-0.2,0.1C115.1-360.2,115.2-360.1,115.2-360.4z"/>
								<path class="st23" d="M114.7-359.7c-0.1-0.1-0.5-0.2-0.4-0.7c0.3-0.4,0.4,0,0.7,0c-0.2-0.3-0.6-0.9-1-0.1l0.1,0.1
									c-0.3,0.7-1.4,1.6-1.5,1.4C113.4-359,113.9-359.2,114.7-359.7z"/>
								<path class="st23" d="M112.8-355.7l0.3,1.5l0.8-0.7l-0.4,0C113.7-355.7,113.2-355.5,112.8-355.7z"/>
								<polygon class="st23" points="109.5,-348.1 108.6,-348.4 109.8,-347.5 								"/>
								<polygon class="st23" points="109.3,-346.3 108.6,-346.5 109,-345.9 								"/>
								<path class="st23" d="M83.3-278.5l-0.4-0.3C83-278.7,83.1-278.6,83.3-278.5z"/>
								<path class="st23" d="M84.6-275.3l0.4-0.1C84.8-275.4,84.6-275.4,84.6-275.3z"/>
								<path class="st23" d="M101.4-300c-0.8,0.5-2,1.1-1.1,1.1l0.9-0.1C101-299.4,101.2-299.7,101.4-300z"/>
								<path class="st23" d="M100.4-267.6c0.1,0.1,0.1,0.1,0.2,0.2c0-0.3-0.1-0.6-0.1-0.8c-0.1-0.3-0.1-0.6-0.2-0.8
									C100.3-268.6,100.3-268.1,100.4-267.6z"/>
								<path class="st23" d="M101.9-261.8c-0.2,0.1-0.4,0.1-0.7,0.2C101.4-261.6,101.7-261.6,101.9-261.8z"/>
								<path class="st23" d="M76.8-294.9l-1-0.2C76-294.4,76.4-294.9,76.8-294.9z"/>
								<path class="st23" d="M105.7-327.5c-0.5,0.5-0.7,0.9-0.8,1.3C105.5-326.8,106.3-327.2,105.7-327.5z"/>
								<path class="st23" d="M92.2-281c-0.2-0.2-0.4-0.2-0.6-0.1C91.8-280.9,92-280.9,92.2-281z"/>
								<path class="st23" d="M104.5-324.6c0.1-0.1,0.2-0.2,0.3-0.3c-0.1-0.4-0.1-0.9,0.1-1.3C104.4-325.8,104.1-325.3,104.5-324.6z
									"/>
								<path class="st23" d="M55.4-352.5c0-0.1,0-0.1,0-0.2C55.4-352.6,55.4-352.5,55.4-352.5z"/>
								<path class="st23" d="M56.6-372.5c0.1,0.1,0.2,0.4,0.3,0.7C56.9-372,56.8-372.2,56.6-372.5z"/>
								<path class="st23" d="M107.7-339.2C107.7-339.6,107.6-339.3,107.7-339.2L107.7-339.2z"/>
								<path class="st23" d="M111.4-340.4c0.1,0.1,0.2,0.2,0.4,0.2C111.6-340.2,111.5-340.3,111.4-340.4z"/>
								<path class="st23" d="M109.1-319.6C109.1-319.6,109.1-319.6,109.1-319.6C109.3-319.7,109.2-319.7,109.1-319.6z"/>
								<path class="st23" d="M108.2-339.7c-0.1,0.1-0.3,0.3-0.4,0.4C107.9-339.3,108.1-339.4,108.2-339.7z"/>
								<path class="st23" d="M107.8-339.7c0.1-0.1,0.1-0.2,0.2-0.3C107.8-340.1,107.7-340.1,107.8-339.7z"/>
								<path class="st23" d="M107.6-338.7c0-0.2,0.1-0.4,0.2-0.6c-0.1,0.1-0.1,0.1-0.2,0.1C107.7-339.1,107.7-338.9,107.6-338.7z"
									/>
								<path class="st23" d="M70.3-322.7c0,0,0-0.1,0-0.1C69.8-323.1,69.9-322.9,70.3-322.7z"/>
								<path class="st23" d="M109-288.4C109-288.4,109-288.4,109-288.4C108.9-288.4,108.9-288.4,109-288.4L109-288.4z"/>
								<path class="st23" d="M109.4-286.8c-1-0.8-0.8-1.1-0.5-1.6l-2.6,0.1L109.4-286.8z"/>
								<path class="st23" d="M80.3-285.8l-0.4,1.3c-1.6-0.8-1.5-1.8-2.2-0.5c2.6-0.7,1.6,3.9,4.2,3.1l-0.3,0.9
									c0-0.2-0.2-0.2-0.3-0.4c-0.7,1.8,2.2,0.3,2.5,2c0,0.6-0.2,1.2-0.6,0.9l1.2,1c0.1,0.4-0.4,0.5-0.5,0.1l1.2,2.1l-0.1,0
									c0.6,0.2,1.5,0.7,1.9,0.9c0,0.9-0.4-0.1-0.6,0.2c0.4,0.4,0.8,0.7,1.2,1c-0.1,0.5-0.5,0.7-0.8,0.5c-0.4-0.2-0.8-0.7-1-1.3
									c-0.8,1.5-0.4,1.9,0.1,2.2c0.5,0.4,1.2,0.7,1.5,3c-0.3-0.4-0.7-0.8-1-1.2c-0.3,1.1-0.1,2,0.2,2.8c0.3,0.9,0.6,1.8,0.9,3.3
									c0-0.5-0.2-2.1-0.1-3.4c0-1.2,0.3-2.1,1-1.6c0.1,0.7,0.4,1.4,1.2,1.7c-0.5,1.1,0.1,1.7,0.7,2.7l-0.6,1.5
									c0.9,0.8,1.1-0.2,1.7-0.3c0.7,1.4,0.5,3.2,0.5,4.8c0.6,1.3,0.5,0.3,0.4-0.8c-0.1-1-0.1-2.1,0.6-1c0.9,2.5,1.7,2.9,2.9,3.3
									c0.7,2-0.1,1.4,0.1,2.5c0.2-0.3,0.4-0.7,0.6-1c0.1,0.3,0.1,0.9,0.1,1.2c0.5,0,0-2.6,0.6-2.1c0-1.2,0.3-0.1,0.8,1.6
									c0.1,0.3,0.3,0.6,0.4,0.8c0.1,0.1,0.3,0,0.4-0.1c0.2-0.3,0.5-0.9,0.5-2.2c0.3,0.3,0.1,1.7,0.3,2.6c0.4-2.2,0.5-3.1,0.6-3.9
									c0.1-0.8,0.2-1.8,0.2-3.8c0.3,0,0.6,0,0.9-0.1c-0.4-0.2-0.6-1.1-0.7-2.3c-0.1-1.2-0.1-2.5-0.2-3.7c-0.3-0.4-0.7-0.9-0.8-1.1
									c0-0.9,0.1-1.7,0.1-2.5c0.2,0.2,0.4,1,0.7,2.1c0-0.3-0.1-0.5-0.1-0.8c0.2,0.1,0.5,0.6,0.6,1c0.2,0.5,0.3,1.2,0.4,1.9
									c-0.2-0.1-0.4-0.3-0.6-0.5c0.3,1.5,0.5,3.2,0.9,4.3c0-0.3,0-0.8,0.1-1.1c0.1,0.4,0.1,0.8,0.2,0.9c0.1,0.1,0-0.5,0-1.3
									c0.3,0.5,0.6,1.1,0.9,1.6l-0.3-0.9c0.5-0.5,1-1,1.5-1.6c-0.1-1.9-0.4-3.7-0.7-5.5c-0.3-1.8-0.6-3.3-0.6-4.7
									c0.7,1.3,1.4,1.3,2.5,2.1c-0.7,0-0.7,0.6-0.7,1.6c0,0.9,0.1,2.2-0.3,2.8c0.4-0.7,0.7,0,0.8,0.5c0-1.5,0-2.9-0.1-4.1
									c0.8,0.8,0.8-0.1,1.4-0.7c-1-0.3-1.1-1.1-1-1.9c0-0.8,0.3-1.8,0.1-2.5c0.7,0.1,1.3,0.6,0.7,2.2c0.9-0.5,0.5-1.4,0-2.1
									c-0.2-0.4-0.5-0.7-0.6-1c-0.1-0.3-0.1-0.5,0.3-0.7c0,0.3-0.2,0.4,0.1,0.6c-0.4-0.8,0.3-2.2,0.8-1.7l0,0.3
									c0.3-0.9,0.5-2.3,0.5-3.5c0-1.2-0.4-2.3-1.2-2.6c0.2,0,2,0.6,2.3,0.7c-1.7-1.4-3.4-2.7-5.2-4c1.4,0.5,5-0.1,5.6,1.5
									c0.3-0.4,0.6-0.9,0.2-1.9c-0.2,0.3-2.2,0.4-2.3,0c1.8-0.9,1-0.6,2.5-1.8c-0.4,0.4-2.6-0.4-2.4-1.1c0.3,0.2,2.3,0.2,2.5,0.5
									l-2-2c0.3,0.5,1.9,0.3,2.6,0c-0.5,0.1,0.2-1.5,0.1-2l-0.6,0.7c0.6-1.9-2.9-2.3-2.6-4.2c0.4,0.3,2.8,0.9,3.2,0
									c-1.1-0.6-5.3-2.6-6-4.4l0.7-0.3l-0.6-1.4c1.6,1,5,3.7,6.3,5.1c0.6-0.7,0.8-0.1,0.9-1.2c0.7-0.3,0.9,0.7,0.9,1l0.7-2.5
									c-1.4,0-1.1-2.1-2.2-2.1l1.1,2.9c-1.3,0-3.6-2-3.2-3.8c0.6-0.4,2.3,0.6,2.8,0.6c-0.4-0.3-0.7-1.8-0.3-1.9l0.6,0.8
									c0.6-0.9-1.6-1.8-0.1-2.9c0.1-0.4,1.9-1,1.1-1.2c-1.6,0.5-6.3,0-7.4-0.6c0.1-0.1,1.7-2,2.6-2.3c1.3-0.5,2.7,1.4,3.8,1
									c-0.4-0.1-0.8-0.5-0.9-0.7c0.4-0.4,1.1,0.3,1.1-0.6c-1.3-0.4,0.4-1.9-1.1-0.6c-0.3-1,0.4-0.9,0.5-2c-0.9,0.2-2.8-1.4-3-2.4
									c0.3,0.1,0.8,0,1-0.1c0.4-1.9,1.2-2.7,1.6-4.5c0.4-0.1,0.9-0.8,1.4-0.4c-0.2-0.3-0.6-0.6-0.5-1.2c1.4-0.8-0.1,1.2,1.5,0.7
									c-0.8-0.2-0.8-1.6-1.1-2.5c-1.2,0-0.6,1.7-0.3,2.5c-1.7-0.3-3.1-2-3.4-4.1c-0.1-1.5,1.2-0.4,1-0.7c0.9-2.6-2.3-3-0.6-4.9
									c1.3-0.6,2.1,0.5,2.9,0.5c0.1,1.3-1.1,1.6-1.3,2.4l0.7-0.9c0.3,0.5,0.3,1.3-0.1,1.6c1.1-0.5,1.3-4.5,2.6-6.4
									c-0.3-0.5-0.5-1.2-1-1l0,0.7c-1,0.4-0.9-1.5-1.5-0.7c-0.4-1-1.1-2.2-0.4-3.3l1.2,0c-0.4,0-0.9,0.7-0.6,1.1
									c-0.4-0.6,2-1.6,0.5-2.4l-1,0.7c-0.4-1-1.6-2.3-1-3.3c-1.3,0.3,0.1,0.3-1.4,0.8c1.9-0.4-0.5,2.7,1.5,2
									c-1.8,0.5-0.9,1.2-2.5,1.9c0.4,0,0.8-0.2,0.5,0.6c0.1,0.1,0.2,0.2,0.3,0.3c0,0,0,0,0,0.1l0.1,0c0.1,0.1,0.1,0.1,0,0
									c0.2-0.2,0.5-0.3,0.7-0.3c0.8,0.6,0.5,2.1,0.8,2.6c-0.3,0.5-0.4-0.3-0.9-0.1l0.5,0.9c-0.9-0.1-1.8,1.1-2-0.3l-0.3,1.1
									c-0.7,0.6-1.1,1.4-0.8,2.1c-0.3,0.5,0.6,1.6,0.1,1l0.1,2l-0.2,0c-0.6,1.8,0.6,4.1-1.4,5.9c0.1,0.7,0.2,1.4-0.2,2.4l-0.8,0.1
									c0.1,0.9-1.2,2.3-0.4,2.8c-2.2,0.6-1.1,3.9-1.6,5.3l1,0.2c-0.2,1,0,1.9,0.2,3.2l0.9,0c0.6,1.1-1,2.6-1.1,4.2
									c-0.3-0.2-0.2-0.6,0.1-0.8c-2.3,1.7,1,4.3-0.7,5.9c0.3,0.5,0.1,0.8-0.1,1.1c0,0,0-0.1,0-0.1c0,0,0,0.1,0,0.2
									c-0.2,0.2-0.4,0.4-0.5,0.6c0.2-0.2,0.4-0.3,0.5-0.5c0,0.3,0,0.9,0.2,1.4l-1,0.1c0,0,0,0.1,0,0.1c-0.4,0.4,0.4,0.4,1.2,0.3
									c0.1,0.3,0.3,0.5,0.5,0.7c-1.6,0.2,0.4,1.4-1.4,1.7c0.8,0.4,0.3,2.6,1.9,3.1c-0.2,0-0.3,0.1-0.3-0.1
									c-0.3,0.5-0.5,1.1-0.1,1.6l-1.2,0.1l1.5,1.4c-0.8,0.6-1.3,0.9-2.1,0c1.2,2,0.3,1.5,1.5,3.2l-0.8-0.2
									c-0.1,0.5,0.9,1.6,0.2,1.8c-0.8,0.5-1.2,1.9-1.5,3.6c-0.1,0.4-0.2,0.8-0.3,1.3l-0.1,0.3l-0.1,0.2c0,0.1-0.1,0.2-0.1,0.3
									c-0.2,0.5-0.5,0.8-0.9,1c1.1,0.6,0.8,0.6,0.4,0.7c-0.3,0-0.7-0.1,0,0.7c-0.5-0.4-0.8-0.5-1.1-1.1c0.1,0.6-0.1,0.6-0.2,0.7
									c-0.1,0.1-0.2,0.3,0.3,1.5c-0.4-0.7-0.5-1.2-0.8-1.5c0.1,0.2,0.3,0.8,0,0.4c-0.2-0.4-0.3-0.7-0.4-1.1c0,0.5,1,3.2,2,5.7
									c-0.7-0.6-0.6-0.4-0.2,1.9c-0.4-0.7-0.7-1.5-0.6-2.4c-0.1,0.1-0.3,0.2-0.5,0.6c-0.1,0.4-0.3,1.1,0,2.5
									c-0.2-0.6-0.2,0.3-0.2,0.7c-0.2,0.3-0.3,0.4-0.4,0.6c0,0.1-0.1,0.2-0.1,0.3c0,0.1-0.1,0.2-0.1,0.2c0,0-0.1-0.1-0.1-0.1
									l0.2,0.7c0.1,1.3,0,1.7,0,1.6c-0.1-0.1-0.4-1.5-0.6-1.6l0-0.3c-0.5-2-0.5-1.8-0.6-1.7c-0.1,0.1-0.2,0.1-0.5-1.8l-0.1,2
									c-0.1,2-0.4,0.9-0.5-0.4c-0.2-1.3-0.3-2.8-0.6-2.6l0,1.2c-0.2,0.3-0.2-1.2-0.1-2.7c0.1-1.5,0.4-3,0.4-3.3
									c0.1-0.3,0.2-0.3,0.3-0.4c0.1-1.1,0-0.6-0.3,0c-0.2,0.6-0.6,1.6-0.8,1.4c0.3-0.9,1-2,0.9-2.4c0.1-0.4-0.3,0.1-0.7,0.2
									c-0.4,0.2-0.9,0-0.5-0.7c-0.4,0.4-0.7,1-1.2,0.9c-0.2-0.2,0-0.9,0.2-1.4l0-0.2c0-0.1,0-0.2,0-0.2c0-0.2-0.1-0.3-0.1-0.4
									c-0.1-0.3-0.4-0.4-0.9-0.5c0.1-0.2,0.2-0.3,0.3-0.3c-0.7-0.5-1.6-2-2.6-2.1c1.4-0.9,0.6-1.8-0.1-2.7
									c-0.8-0.9-1.5-1.7-0.1-2.2l-0.9-2.2l0.3,0c-0.3-1.5-1.1-1.8-2-2.1c0.1-0.4,0.4-0.2,0.6-0.3c-0.1-2.3-0.2-2.5-2.2-3.8
									l0.9-0.5c-0.7-0.3,0.6-3.5-1.2-5.3c0.1,0,0.3,0,0.5,0.1c-1.8-2,0.8-6.6-3-6.3l-1.4-1.3c0.4,2.1-1.6,0.2-1.9,1.2
									c-0.5-0.7,0.3-2.4,0.8-1.5l-0.1,0.2c1.9-0.3-0.2-2.7,1-3.1c-1.5-3.9-2-8.1-3.3-11.7l-1.2,1l-0.4-1.3
									c0.2-0.5,0.9-0.9,1.2,0.1c0.6-0.8-1.2-1.3-1.6-1.2c-0.2-2,1.9,0.1,1.7-0.5l-0.4-0.7l-0.1,0.2c-0.8-0.4-1.4-0.2-1.8-1.3
									c0-0.8,0.7-0.7,0.6-1c0.1,0,0.1-0.1-0.1-0.4l-0.5-1.6l-0.8,1.1c-0.8-0.5-0.6-1.5-1.5-0.3c1.4-1.8-1.8-6.2-1.5-7
									c-1.2-0.7-1.6-1.6-2-2.9c-0.1,0.4-1.2,1.1-1.5,0c2.6-0.7,0.3-2.3,1.7-3.9c-0.9,1.2-1.5-2.8-2.7-0.9
									c-0.2-0.9,0.9-0.4,1.2-1.3c-1.8-1.6-1.3-4.8-2.6-7.1c-0.3,0.1-0.7,0.7-1.4,0.4l1.1-2c-0.4-0.4-2.1,0.3-1.3-1.1
									c-0.2,0.2-0.6,0.6-0.8,0.3c-0.5-5.6-5.5-9.6-4.6-15.8c-0.3,0.9-0.6,0.5-0.8,0c0,0.4-0.8,0.3-1.2,0.6l0.3-2.6
									c-1.4,0.1-1-2.2-2.3-1.9l0.5,0.6c-1.7-0.3-2.5,2.5-4.4,3.1c2,0.3-1.2,3.6,1.7,4.3c-0.2,0.5-0.7-0.1-1,0.3
									c0.9,0.1,1.3,0.5,1.3,1.6l-0.2,0c1.3,2.5,1,3.9,1.7,7.1l0.8-0.6c0.1,0.7-0.1,0.9-0.2,1.3c1.6,0.2-0.7-1.8,1.1-1.7
									c-1.4,1.6,1.8,4.4,0,5.8c0.4,1,0.9-0.7,1.3,0.3l-0.4,0.5l0.8-0.1c0.1,0.7-0.4,1.3-0.9,1.5c0-0.2-0.3-0.4-0.4-0.5
									c-0.3,1.1,1.2,2.2,1.1,2.6l0-1.1c1.6,2.4,2.2,5.9,4.4,8l0.3-0.4c1.6,1.6,0.2,1.7,1.4,3.7l-0.1,0c0.6,0.3,1,0.7,1.2,1.3
									c-0.7-0.3-0.5,1.4-1.3,0.9c1.7,1.8,1.1,0.8,3.2,1.5l-0.6,0.6c0.8,0.2,1.2,0.1,1.8,1.1c-0.9-0.6-0.8,1.1-1.9,0.5
									c-0.6,2.8,2.9,2.7,1.1,4.6c2.3,0.2,0.3-2.4,0.9-2c0.4-0.7,1.8,0.3,1.9,1c0.2,0.7-1.9,2.2-1.2,4c-0.1-0.2-0.2-0.1-0.3-0.3
									c-0.2,0.9,1.2,1,0.7,2.2c1.3,0,0.4,1.1,1.9,0.6l-1-1.5c0.8,0.8,2.8,1,2.6,2.8c-0.3,0-0.9-0.3-1.3-0.5
									c-0.3,0.6,0.6,0.8,0.4,1.4c-1.5,0.4-1.1-1.9-2.6-2.4c-0.4,0.7,1.8,1.5,0,1.6c2.3-0.1,0.4,1.9,2.5,2.5l-0.9,0.3
									c0.2,0.1,0.8,0.4,0.9,0.7l-1.4-0.2c1.4,0.6-0.1,2.2,0.8,3c-0.8-2,0.9-0.9,1.2-1.9c2.1,2-1.8,2.3-0.3,4.8
									c-0.3-0.3,0-1.6,0.6-1.2c0,0.6-0.1,1.4-0.4,1.9c0.9,1.7,0.8-0.6,1.6,0c-0.9,1,0.8,0.7,1.4,1.4l-0.9,0.3
									c0.2,2.3,2.1-0.1,2.1,2l-1.5-0.3l0.7,0.9l-1.1,0.2c1.1,0.8,1.1,1.2,1.1,2.3c0.6-0.5,1.7-0.4,2,0.5c-0.3,0.8-1-0.1-0.4,1.2
									c-0.7-0.1-1.5-0.2-0.8-1c-0.3,0-0.7-0.1-1-0.1c-0.4,0.9,0.4,1.7,0.6,2.2c0-0.2,0-0.4,0-0.6l1.9,1.5
									c-0.2,0.4-0.6,0.3-0.9,0.1c0.2,0.4,0.7,0.5,1,1c-0.8,0.1-1.6,0.4-2.2-0.3l1.4,1.5c-0.3,0.2-0.6,1.2-1,1.1
									c-0.1,1.1,2.2,2,2,3.6c0.2,0,0.3,0.1,0.5,0.4c0.2,1.3-0.4,2.7,1.1,4l-1.1,1.3c0.7,1.1,1.3-1.7,2.5,0.1
									c0.9,1.3-1,0.9-1.2,1.5c0.9,0.5,2.7,1.3,2,3C80.5-285,80.5-285.4,80.3-285.8z M88.2-269c-0.3-0.2-1.2-0.5-1-1.3
									C88.3-270.8,88.1-270,88.2-269z M102.2-267.5c0.1,0.7-0.1,0.9-0.5,0.8C101.8-267.1,101.9-267.4,102.2-267.5z M107.5-334.8
									C107.5-334.8,107.5-334.8,107.5-334.8C107-334.2,107.2-334.4,107.5-334.8z M108.2-336c-0.1-0.2-0.2-0.2-0.4-0.2
									c0.2,0.1,0.2,0.4,0,0.8C108.1-335.5,108.3-335.6,108.2-336z M74.7-329.2l-0.1,0.3C74.1-329.3,74.4-329.2,74.7-329.2z"/>
								<path class="st23" d="M101.8-262.5c-0.1-0.1-0.2-0.4-0.3-0.6C101.5-262.8,101.6-262.5,101.8-262.5z"/>
								<path class="st23" d="M77-294.9C77-294.9,77-294.9,77-294.9c-0.1-0.1-0.1-0.1-0.2,0L77-294.9z"/>
								<path class="st23" d="M112-313.7c-0.2,0.3-0.4,0.4-0.6,0.5C111.7-313.2,111.9-313.3,112-313.7z"/>
								<path class="st23" d="M108-343.2l0.1,0.9c0-0.4,0.3-0.5,0.4-0.7C108.4-343,108-342.9,108-343.2z"/>
								<path class="st23" d="M114.9-349.7c-0.1-0.1,0-0.3-0.1-0.4l-0.4,0C114.4-349.6,114.7-349.2,114.9-349.7z"/>
								<path class="st23" d="M111.3-343.4c0.8,0.1,0.6-0.5,0.6-1.1c0,0,0,0.1,0,0.1C110.8-344.8,111-344.1,111.3-343.4z"/>
								<path class="st23" d="M111.9-344.7c0-0.2,0-0.4,0.1-0.6C111.5-345.4,111.8-345,111.9-344.7z"/>
								<path class="st23" d="M108.1-337.8c0.3-0.2-1-0.4-0.6-0.5C106.5-338.8,108.3-336.2,108.1-337.8z"/>
								<polygon class="st23" points="114,-343.5 113,-343.4 113.8,-342.9 								"/>
								<path class="st23" d="M112.4-338.8l0.5-0.9c-0.2,0-0.2-0.2-0.3-0.3C112.5-339.5,112.1-338.9,112.4-338.8z"/>
								<path class="st23" d="M112.6-340.1c0.1-0.3,0.1-0.6,0-0.8C112.6-340.7,112.5-340.3,112.6-340.1z"/>
								<polygon class="st23" points="114.1,-342.1 113.9,-341.8 113.7,-341.2 								"/>
								<path class="st23" d="M109.8-328.6l0,1.1c0.3,0.2,0.6-0.1,0.5-0.5C110.2-328.3,110.2-328.7,109.8-328.6z"/>
								<path class="st23" d="M113.3-331.1c-0.3,0.2-0.5,0.2-0.9,0.3l1.2,0.3L113.3-331.1z"/>
								<path class="st23" d="M112.8-328c0.3,0.2,0.6,1.7,0.8,0.4C113.3-327.8,113.3-328.9,112.8-328z"/>
								<polygon class="st23" points="108.4,-312.5 108.4,-312.8 106.4,-313 								"/>
								<path class="st23" d="M111.6-297.8c0.6-1.2-1.2-0.4-0.5-1.5c-0.4-0.4-0.6,0.9-1,0.5C110.5-298,110.2-297.6,111.6-297.8z"/>
								<path class="st23" d="M110.1-298.8c-0.1-0.1-0.1-0.3-0.3-0.4C110-299,110-298.9,110.1-298.8z"/>
								<polygon class="st23" points="56.4,-375.7 56.5,-376.6 56.1,-375.9 								"/>
								<path class="st23" d="M54.4-376.6l1.1-0.7l-1.3,0C54.4-377.1,54.6-376.8,54.4-376.6z"/>
								<path class="st23" d="M88.7-262.8l0.2-0.3c0-0.6-0.1-0.9-0.4-1.6L88.7-262.8z"/>
								<polygon class="st23" points="81.7,-279.1 81.7,-278.9 82.7,-279.7 								"/>
								<path class="st23" d="M77-287.8c0.1,0.4,0.5,0.8,0.5,1.1C77.1-287.5,78.4-288.4,77-287.8z"/>
							</g>
						</g>
					</g>
				</g>
			</g>
			<path class="st24" d="M38.5-249.3c-2.4,0-2.4,3.8,0,3.8C40.9-245.6,40.9-249.3,38.5-249.3z"/>
			<path class="st24" d="M34.6-274.9c-2.4,0-2.4,3.8,0,3.8C37-271.1,37-274.9,34.6-274.9z"/>
			<path class="st24" d="M30.6-303.3c-2.4,0-2.4,3.8,0,3.8C33-299.6,33-303.3,30.6-303.3z"/>
			<path class="st24" d="M25.2-336.8c-2.4,0-2.4,3.8,0,3.8C27.6-333,27.6-336.8,25.2-336.8z"/>
			<path class="st24" d="M21.2-365.6c-2.4,0-2.4,3.8,0,3.8C23.7-361.8,23.7-365.6,21.2-365.6z"/>
			<path class="st24" d="M17.3-394.7c-2.4,0-2.4,3.8,0,3.8C19.7-391,19.7-394.7,17.3-394.7z"/>
		</g>
		<g>
			<defs>
				<polygon id="XMLID_11_" points="179.3,-241.3 179.3,-230.5 17.8,-232.3 16.7,-241.3 				"/>
			</defs>
			<use xlink:href="#XMLID_11_"  style="overflow:visible;fill-rule:evenodd;clip-rule:evenodd;fill:#E0743E;"/>
			<clipPath id="XMLID_43_">
				<use xlink:href="#XMLID_11_"  style="overflow:visible;"/>
			</clipPath>
			<rect x="13" y="-243.8" class="st25" width="33.9" height="15.1"/>
		</g>
	</g>
	<path class="st26" d="M-283.5,403.2h-203c-2.6,0-4.8-2.1-4.8-4.8v0c0-2.6,2.1-4.8,4.8-4.8h203c2.6,0,4.8,2.1,4.8,4.8v0
		C-278.7,401.1-280.8,403.2-283.5,403.2z"/>
	<g>
		<defs>
			<path id="XMLID_22_" d="M-290.4,184.2v-39.3c0-5.4-6.1-8.4-10.4-5.2l-40.9,35.8L-290.4,184.2z"/>
		</defs>
		<use xlink:href="#XMLID_22_"  style="overflow:visible;fill-rule:evenodd;clip-rule:evenodd;fill:#E0743E;"/>
		<clipPath id="XMLID_44_">
			<use xlink:href="#XMLID_22_"  style="overflow:visible;"/>
		</clipPath>
		<path class="st27" d="M-296.2,185.6l1.1-29.3c0.1-3-3.5-4.5-5.6-2.3l-30.6,32.6L-296.2,185.6z"/>
	</g>
	<g>
		<defs>
			<path id="XMLID_20_" d="M-466.8,396.2c-10.3-7.5-15.5-22.4-9.9-33.9c5.2-10.7,18.3-17,20.5-28.8c0.9-5.1-0.5-10.4-0.8-15.6
				s1.1-11.2,5.7-13.7c4.2-2.3,9.7-0.6,13,2.9s4.5,8.4,4.9,13.2c0.9,12.2-4.1,24.6-13.1,32.8c-5,4.6-11.2,7.9-15.7,13
				c-4.6,5.1-7.2,12.9-3.5,18.7c3.2,5.1,9.8,6.5,15.8,7c9.1,0.6,18.2-0.1,27-2.2c-1.7,3.2-3.2,6.8-5.3,9.7c-1.4,1.9-3.3,2.6-5.5,3
				c-7.2,1.5-14.9,1.4-21.9-0.7C-459.6,400.5-463.7,398.8-466.8,396.2z"/>
		</defs>
		<use xlink:href="#XMLID_20_"  style="overflow:visible;fill-rule:evenodd;clip-rule:evenodd;fill:#DB6233;"/>
		<clipPath id="XMLID_45_">
			<use xlink:href="#XMLID_20_"  style="overflow:visible;"/>
		</clipPath>
		<ellipse class="st28" cx="-445.7" cy="320.2" rx="15.8" ry="24.5"/>
	</g>
	<path class="st29" d="M-395.9,347.2h65.4c20.1,0,36.4,16.3,36.4,36.4v19.6h-138.2v-19.6C-432.3,363.5-416,347.2-395.9,347.2z"/>
	<g>
		<defs>
			<path id="XMLID_16_" d="M-354.5,263.5L-354.5,263.5c-21.2,0-38.4,17.2-38.4,38.4v101.3h76.8V301.9
				C-316.1,280.7-333.3,263.5-354.5,263.5z"/>
		</defs>
		<use xlink:href="#XMLID_16_"  style="overflow:visible;fill-rule:evenodd;clip-rule:evenodd;fill:#E0743E;"/>
		<clipPath id="XMLID_46_">
			<use xlink:href="#XMLID_16_"  style="overflow:visible;"/>
		</clipPath>
		<path class="st30" d="M-381.8,314.7c1.6,1.4,3.2,3.4,2.5,5.4c-0.8,2.3-3.9,2.4-6.3,2.1c-4.1-0.6-8.3-1.4-12-3.4
			c-3.7-2-6.9-5.2-7.9-9.3c-1.1-4.3,1.8-13,7.6-9.4c2.9,1.8,5.4,4.8,7.8,7.1C-387.3,309.7-384.5,312.2-381.8,314.7z"/>
		<path class="st30" d="M-388.8,333.1c2.5,1,5.1,2,7.2,3.7s3.6,4.4,3.3,7.1c-4.3-1.5-9-0.4-13.4,0.3c-4.5,0.7-9.6,0.7-12.9-2.4
			c-2-1.9-2.9-4.5-3.2-7.1c-0.2-2-0.7-5.7,1-7.2c1.9-1.7,6,1,7.9,1.7C-395.5,330.6-392.1,331.9-388.8,333.1z"/>
		<path class="st30" d="M-331.8,315.2c-1.6,1.4-3.2,3.4-2.5,5.4c0.8,2.3,3.9,2.4,6.3,2.1c4.1-0.6,8.3-1.4,12-3.4
			c3.7-2,6.9-5.2,7.9-9.3c1.1-4.3-1.8-13-7.6-9.4c-2.9,1.8-5.4,4.8-7.8,7.1C-326.3,310.2-329.1,312.7-331.8,315.2z"/>
		<path class="st30" d="M-324.1,330.7c-2.5,1-5.1,2-7.2,3.7s-3.6,4.4-3.3,7.1c4.3-1.5,9-0.4,13.4,0.3c4.5,0.7,9.6,0.7,12.9-2.4
			c2-1.9,2.9-4.5,3.2-7.1c0.2-2,0.7-5.7-1-7.2c-1.9-1.7-6,1-7.9,1.7C-317.4,328.1-320.8,329.4-324.1,330.7z"/>
		<path class="st31" d="M-380.2,263.5l19.6,91.8c1.5,6.8,11.1,6.9,12.8,0.2l22.8-95.1l-29.5-14.2L-380.2,263.5z"/>
		<ellipse class="st32" cx="-356.1" cy="278.1" rx="47.9" ry="31.9"/>
	</g>
	<g>
		<defs>
			<path id="XMLID_12_" d="M-419.8,186.4v-39.3c0-5.4,6.1-8.4,10.4-5.2l40.9,35.8L-419.8,186.4z"/>
		</defs>
		<use xlink:href="#XMLID_12_"  style="overflow:visible;fill-rule:evenodd;clip-rule:evenodd;fill:#E0743E;"/>
		<clipPath id="XMLID_47_">
			<use xlink:href="#XMLID_12_"  style="overflow:visible;"/>
		</clipPath>
		<path class="st33" d="M-414,187.8l-1.1-29.3c-0.1-3,3.5-4.5,5.6-2.3l30.6,32.6L-414,187.8z"/>
	</g>
	<g>
		<defs>
			<path id="XMLID_14_" d="M-283.6,263.3c-6.9,5.5-14.3,10.2-22.1,14.2c-7.8,3.9-16,7-24.6,9.2l-15.3,4c-3,0.8-6.1,1.2-9.1,1.2h-3.5
				c-3.3,0-6.5-0.4-9.7-1.2l-15-3.9c-8.5-2.2-16.8-5.3-24.6-9.2c-7.8-3.9-15.2-8.7-22.1-14.2c-11.9-9.6-17.5-25-14.4-40l2.4-11.8
				c2.3-11,8.7-20.7,18-27l7.2-4.9c7-4.8,14.9-8,23.2-9.5l10.8-1.9c8.6-1.5,17.2-2.2,25.8-2.1c0,0,0,0,0,0
				c8.6-0.1,17.3,0.6,25.8,2.1l10.8,1.9c8.3,1.5,16.2,4.7,23.2,9.5l7.2,4.9c9.2,6.3,15.7,16,18,27l2.4,11.8
				C-266.1,238.3-271.7,253.7-283.6,263.3z"/>
		</defs>
		<use xlink:href="#XMLID_14_"  style="overflow:visible;fill-rule:evenodd;clip-rule:evenodd;fill:#F4EEC3;"/>
		<clipPath id="XMLID_48_">
			<use xlink:href="#XMLID_14_"  style="overflow:visible;"/>
		</clipPath>
		<g class="st34">
			<g>
				<g>
					<g>
						<g>
							<path class="st35" d="M-533.8,142.8c0,0-0.3-0.3-0.3-0.3C-534.1,142.5-533.8,142.8-533.8,142.8z"/>
							<polygon class="st35" points="-533.2,143.5 -533.3,143.3 -533,143.6 							"/>
							<path class="st35" d="M-533.2,143.5c0.5,0.5-0.1-0.1,0.1,0.1l0.1,0.1l-0.4-0.4C-533.3,143.3-533.1,143.6-533.2,143.5z"/>
							<path class="st35" d="M-534.3,142.4C-534.1,142.6-534.2,142.6-534.3,142.4C-534.3,142.4-534.3,142.4-534.3,142.4
								C-534.3,142.4-534.3,142.4-534.3,142.4z"/>
							<path class="st35" d="M-534.3,142.4C-534.3,142.4-534.5,142.2-534.3,142.4L-534.3,142.4z"/>
							<path class="st35" d="M-534.2,142.5l-0.2-0.2c-0.1-0.1-0.1-0.1-0.2-0.2C-534.5,142.2-534.4,142.3-534.2,142.5z"/>
							<path class="st35" d="M-533.8,142.9L-533.8,142.9C-534,142.8-534,142.8-533.8,142.9z"/>
							<path class="st35" d="M-534.1,142.7l0.2,0.2c0.1,0.1,0.2,0.2-0.1-0.1C-533.8,142.9-534,142.8-534.1,142.7z"/>
							<path class="st35" d="M-534,142.7c0.1,0.1,0.2,0.2,0.4,0.4C-533.7,143-534.1,142.7-534,142.7z"/>
							<path class="st35" d="M-532.7,144l0.2,0.1L-532.7,144C-532.6,144.1-532.9,143.8-532.7,144z"/>
							<path class="st35" d="M-534.5,142.3c0.1,0.1,0.3,0.3,0.4,0.4l-0.1-0.1C-534.3,142.5-534.3,142.5-534.5,142.3z"/>
							<path class="st35" d="M-534.1,142.7l0.2,0.2C-533.9,142.9-533.9,142.8-534.1,142.7z"/>
							<polygon class="st35" points="-533.3,143.5 -533.7,143.1 -533.3,143.5 							"/>
							<polygon class="st35" points="-534.5,142.3 -534.8,142 -534.4,142.4 							"/>
							<path class="st35" d="M-534.5,142.3c-0.2-0.2-0.4-0.3-0.5-0.5c0,0,0.2,0.2,0.4,0.4C-534.7,142.2-534.6,142.2-534.5,142.3z"/>
							<path class="st35" d="M-534.4,142.5c0-0.1-0.1-0.1-0.2-0.2C-534.5,142.3-534.5,142.4-534.4,142.5z"/>
							<path class="st35" d="M-533.9,142.9c-0.1-0.1-0.2-0.2-0.3-0.3L-533.9,142.9C-533.9,142.9-533.9,142.9-533.9,142.9z"/>
							<path class="st35" d="M-533.9,142.9L-533.9,142.9C-534,142.8-534,142.8-533.9,142.9C-534,142.8-534,142.8-533.9,142.9z"/>
							<path class="st35" d="M-533.9,142.9C-533.9,142.9-533.9,142.9-533.9,142.9C-533.9,142.9-533.9,142.9-533.9,142.9z"/>
							<path class="st35" d="M-533.6,143.2c0.2,0.2,0.3,0.4,0.6,0.6C-533.2,143.6-533.3,143.5-533.6,143.2z"/>
							<path class="st35" d="M-533.6,143.2L-533.6,143.2c0,0-0.1-0.1-0.2-0.2L-533.6,143.2z"/>
							<polygon class="st35" points="-533.5,143.3 -533.6,143.2 -533.6,143.2 							"/>
							<path class="st35" d="M-534.1,142.8c0.1,0.1,0.1,0.1,0.2,0.2c0.1,0.1,0.1,0.1,0.1,0.1C-533.9,142.9-534.1,142.7-534.1,142.8z
								"/>
							<path class="st35" d="M-534,142.8C-534,142.8-534,142.8-534,142.8C-533.9,142.9-533.9,142.9-534,142.8z"/>
							<path class="st35" d="M-533.9,142.9C-533.9,143-533.9,143-533.9,142.9C-533.9,143-533.9,143-533.9,142.9L-533.9,142.9z"/>
							<path class="st35" d="M-533.8,143.1c0.1,0.1,0,0-0.1-0.1C-533.8,143-533.8,143-533.8,143.1
								C-533.8,143.1-533.7,143.1-533.8,143.1z"/>
							<path class="st35" d="M-534.2,142.6c0.1,0.1,0.1,0.1,0.2,0.2C-534.1,142.7-534.3,142.5-534.2,142.6z"/>
							<path class="st35" d="M-534,142.8C-534,142.8-534.1,142.8-534,142.8C-534.1,142.7-534.1,142.7-534,142.8z"/>
							<path class="st35" d="M-534,142.8c0,0,0.1,0.1,0.2,0.2C-533.9,142.9-533.9,142.9-534,142.8C-534,142.8-534,142.8-534,142.8z"
								/>
							<path class="st35" d="M-532,144.9c-0.3-0.3-0.5-0.5-0.2-0.2c-0.2-0.2-1.1-1.1-1.6-1.6c0.1,0.1,0.2,0.2,0.4,0.4
								c0.2,0.2,0.4,0.3,0.6,0.6c0.1,0.1-0.1-0.1-0.3-0.2c0.4,0.3,0.5,0.5,1,1l-0.2-0.2C-532.2,144.7-532.1,144.8-532,144.9z"/>
							<path class="st35" d="M-533.8,143L-533.8,143c-0.1-0.1-0.2-0.2-0.4-0.4C-534.1,142.7-534,142.9-533.8,143L-533.8,143
								L-533.8,143z"/>
							<path class="st35" d="M-533.9,143c0.3,0.3,0.4,0.4,0.8,0.8c0,0-0.3-0.3-0.4-0.4C-533.4,143.4-533.7,143.2-533.9,143
								C-533.9,143-533.9,142.9-533.9,143c-0.1-0.1-0.1-0.1-0.2-0.2c0,0,0,0,0,0l0,0c0,0,0,0,0,0c0,0,0.1,0.1,0,0c0,0,0,0,0,0
								C-533.9,142.9-533.9,142.9-533.9,143c-0.1-0.1-0.1-0.1-0.1-0.1c0,0,0,0,0,0c0,0,0,0,0,0L-533.9,143
								C-533.8,143-533.8,143-533.9,143z"/>
							<path class="st35" d="M-532.3,144.5C-532.3,144.4-532.4,144.4-532.3,144.5C-532.3,144.4-532.3,144.5-532.3,144.5z"/>
							<path class="st35" d="M-532.5,144.3c0,0-0.2-0.2-0.1-0.1c0.1,0.1,0.1,0.1,0.2,0.2c-0.1-0.1-0.2-0.2-0.4-0.4l0,0
								c-0.1-0.1-0.5-0.5-0.5-0.5C-533,143.8-532.8,144-532.5,144.3z"/>
							<path class="st35" d="M-533.1,143.7l0.1,0.2l0.3,0.3l-0.2-0.2C-532.8,144-533,143.8-533.1,143.7z"/>
							<polygon class="st35" points="-534.1,142.8 -534.4,142.5 -534,142.9 							"/>
							<polygon class="st35" points="-534.1,142.8 -534.3,142.6 -534.2,142.7 							"/>
							<path class="st35" d="M-531,146.7L-531,146.7C-530.9,146.8-531,146.8-531,146.7z"/>
							<path class="st35" d="M-531,146.7l-0.1-0.1C-531,146.7-531,146.7-531,146.7z"/>
							<path class="st35" d="M-534.2,143.1c-0.3-0.3-0.7-0.7-0.4-0.3L-534.2,143.1C-534.3,143-534.3,143-534.2,143.1z"/>
							<path class="st35" d="M-532.5,145C-532.5,145-532.4,145.1-532.5,145c0,0-0.1-0.1-0.2-0.2C-532.6,144.9-532.6,144.9-532.5,145
								z"/>
							<path class="st35" d="M-531.2,146.3l-0.2-0.2C-531.4,146.2-531.3,146.2-531.2,146.3z"/>
							<path class="st35" d="M-530.7,147.1l0.3,0.3C-530.4,147.4-530.6,147.3-530.7,147.1z"/>
							<path class="st35" d="M-534,143c-0.1-0.1-0.2-0.2-0.2-0.2C-534,143-533.8,143.3-534,143z"/>
							<path class="st35" d="M-534.2,143.5c0.1,0.1,0.1,0.1,0.2,0.2C-534.1,143.6-534.2,143.5-534.2,143.5z"/>
							<path class="st35" d="M-534.2,142.9C-534.2,142.9-534.2,142.9-534.2,142.9C-534.2,142.9-534.2,142.8-534.2,142.9
								C-534.3,142.7-534.4,142.6-534.2,142.9z"/>
							<path class="st35" d="M-531.2,147.1C-531.2,147.1-531.3,147.1-531.2,147.1C-531.2,147.1-531.2,147.1-531.2,147.1z"/>
							<path class="st35" d="M-534.4,144.1C-534.4,144.1-534.4,144.1-534.4,144.1C-534.4,144-534.4,144-534.4,144.1z"/>
							<path class="st35" d="M-534.2,142.7C-534.2,142.7-534.2,142.7-534.2,142.7L-534.2,142.7z"/>
							<path class="st35" d="M-533,143.9c0,0,0.1,0.1,0.1,0.1C-532.9,144-533,144-533,143.9z"/>
							<path class="st35" d="M-532.3,144.8C-532.3,144.8-532.3,144.8-532.3,144.8C-532.3,144.8-532.3,144.8-532.3,144.8z"/>
							<path class="st35" d="M-534.1,142.9C-534.1,142.8-534.1,142.8-534.1,142.9C-534.1,142.8-534.1,142.8-534.1,142.9z"/>
							<path class="st35" d="M-534.2,142.7C-534.2,142.7-534.2,142.7-534.2,142.7C-534.2,142.7-534.3,142.7-534.2,142.7z"/>
							<path class="st35" d="M-534.2,142.8C-534.2,142.7-534.2,142.8-534.2,142.8C-534.2,142.8-534.2,142.7-534.2,142.8
								C-534.2,142.7-534.2,142.7-534.2,142.8z"/>
							<path class="st35" d="M-531.9,146.2C-531.9,146.2-531.9,146.1-531.9,146.2C-531.8,146.3-531.8,146.2-531.9,146.2z"/>
							<polygon class="st35" points="-531.1,146.3 -531.1,146.3 -531.1,146.3 							"/>
							<path class="st35" d="M-530.8,146.5c-0.4-0.4-0.3-0.3-0.2-0.3l-0.9-0.9L-530.8,146.5z"/>
							<path class="st35" d="M-530.9,146.8l0.3,0.3c0.4,0.5,0.3,0.3,0.7,0.7c-1-1-0.1-0.1-1-1.1l0.2,0.2c0,0,0,0,0,0
								c0.5,0.5-0.7-0.7-0.5-0.6c0.1,0.1,0.2,0.2,0.3,0.3l-0.2-0.2c0,0,0.2,0.2,0.2,0.2l-0.1-0.1l0,0c-0.1-0.2-0.4-0.4-0.5-0.5
								c0.1,0.1,0.1,0.1,0.2,0.2l-0.2-0.2c0.3,0.2,0.5,0.5,0.4,0.5c1,1-0.2-0.2,0.3,0.3l0.1,0.1c0.5,0.5,0.4,0.3,0.7,0.7
								c-0.2-0.2-0.9-0.8-1.1-1.1c0.1,0.1,0.1,0.1-0.1-0.1c0.3,0.3,0.3,0.3,0.2,0.2l0.5,0.5c-0.1-0.1-0.4-0.4-0.6-0.6
								c0,0,0.4,0.4,0.7,0.7c0.1,0.1-0.6-0.6-0.6-0.6c0.2,0.2,0,0-0.3-0.3c0.2,0.2,0.3,0.3,0.4,0.4l-0.4-0.4c0,0,0.1,0.1,0.2,0.2
								c-0.1-0.1-0.5-0.5-0.6-0.6c-0.5-0.5,0.7,0.7,0.2,0.1c0.1,0.1,0.3,0.3,0.5,0.5c-0.4-0.4-0.3-0.3-0.8-0.8l0.3,0.3
								c-0.3-0.3-0.7-0.7-1.1-1.1c-0.2-0.2-0.3-0.3-0.4-0.4l-0.2-0.2c0.1,0.1,0.2,0.2,0.4,0.4c0,0-0.1-0.1-0.1-0.1
								c0.2,0.2,0.4,0.4,0.7,0.7c-0.1-0.1-0.2-0.2-0.3-0.3c0.3,0.3,0.6,0.6,0.8,0.8c-0.1-0.1-0.1-0.1-0.1-0.1
								c0.1,0.1,0.1,0.1,0.2,0.2c0,0-0.1-0.1-0.2-0.2l0.5,0.5l-0.2-0.2l0.3,0.3c-0.5-0.5-1.2-1.3-1.4-1.5c0.4,0.4,0.6,0.6,1,1
								c-0.5-0.5,0.2,0.2,0.1,0.1c0.1,0,0.3,0.3,0.3,0.3l-0.4-0.4c0.4,0.4,0.3,0.3,0.4,0.4c-0.7-0.7-0.5-0.5-0.7-0.7
								c0.2,0.2,0.5,0.5,0.4,0.4c0.5,0.5-0.8-0.8-0.4-0.4c0,0,0,0,0.1,0.1c-0.2-0.2,0-0.1,0.2,0.2l0,0c0.1,0.1,0,0-0.6-0.6
								c0.1,0.1,0.7,0.7,0.8,0.8l-2-2c0.5,0.5,1.7,1.7,2,2c0.1,0.1,0.2,0.2,0,0c-0.1-0.1-0.7-0.7-0.8-0.8c0.6,0.6,0.3,0.3,0.8,0.8
								c-0.1-0.1-0.9-0.9-0.9-0.9c0.1,0.1,0.8,0.8,0.9,0.9l-0.8-0.8c0.1,0.1,0.7,0.7,0.9,0.9c-0.2-0.2,0,0-0.1-0.1l-0.2-0.2
								c0.1,0.1-1.1-1.1-1.1-1.1c0.2,0.2,1,1,1.1,1.1c-0.4-0.4-2-2-2.3-2.3l0.2,0.2l-0.3-0.3c0.6,0.6,1.9,1.9,2.4,2.4
								c0.2,0.2,0.3,0.3,0.3,0.2c0.2,0.2,0.3,0.3,0.3,0.3l0.2,0.1c-0.5-0.5-0.5-0.5-0.9-0.9l0.5,0.5c-0.5-0.5-1.3-1.4-1.3-1.3
								c0.2,0.2,0.8,0.8,1,1c-0.2-0.2-0.3-0.3-0.2-0.2l0.3,0.3c0.2,0.2-0.6-0.6-0.2-0.2c0,0,0.6,0.6,0.3,0.3
								c-0.5-0.5-2.2-2.2-2.6-2.6c0,0,0.5,0.5,0.8,0.8c0.4,0.4,1,1,1.4,1.4c-0.1-0.1-0.3-0.3-0.3-0.3c0.1,0.1,0.4,0.4,0.3,0.3
								c-0.5-0.5,0,0-0.4-0.4c-0.1-0.1,0.1,0.1,0.1,0.1c-0.3-0.3-1.1-1.1-1.2-1.2c0.1,0.1,0.3,0.3,0.4,0.4c0.1,0,0.3,0.3,0.3,0.2
								c0.1,0.1,0.3,0.3,0.5,0.5c-0.1-0.1-0.2-0.3-0.3-0.3c0.4,0.4,0.1,0.1,0.6,0.6c-0.3-0.3-0.4-0.4-0.6-0.6
								c-0.4-0.4-0.1-0.1,0.1,0.1c-0.6-0.6-1.2-1.2-1.5-1.5c-0.1-0.2,0.4,0.4,0.3,0.3c0.1,0.1-1-1.1-0.6-0.6c0.4,0.4,0.8,0.8,1,1
								c0.1,0.1-0.2-0.2-0.2-0.2l0.2,0.2c0.1,0.1,0.2,0.2,0.1,0.1c0.3,0.3,0.1,0,0.4,0.4c-0.1-0.1-0.3-0.3-0.4-0.4l0.1,0.1
								c-0.3-0.3-0.4-0.4-0.6-0.6c-0.2-0.2-0.5-0.6-0.4-0.4l0.4,0.4c-0.1-0.1-0.3-0.3-0.1-0.1c-0.2-0.2,0.6,0.6,0,0l-0.3-0.3
								c-0.2-0.2-0.7-0.7-0.5-0.6c-0.4-0.4,0,0.1-0.5-0.4c0.6,0.6,0,0,0.6,0.6c-0.6-0.6-0.3-0.2-0.8-0.7c0.1,0.1,0.3,0.3,0.2,0.2
								c0,0,0.1,0.1,0.1,0.1c0,0,0,0,0,0c0,0,0,0,0,0c0,0,0,0,0,0c0.1,0.1,0.1,0.1,0.2,0.2c0.3,0.3,0.3,0.3,0.5,0.5
								c-0.1-0.1-0.2-0.2-0.3-0.3l0.3,0.3c-0.3-0.3-0.5-0.5-0.7-0.7l0,0c-0.2-0.2-0.3-0.2-0.1-0.1c-0.1-0.1,0.3,0.4,0.1,0.1l0.2,0.2
								l-0.1-0.1c0,0,0.5,0.5-0.1,0c0.1,0.1,0.2,0.2,0.1,0.1l-0.3-0.3c0.1,0.1-0.3-0.3,0,0c-0.7-0.7-0.2-0.1-0.3-0.3l0.4,0.4
								c0,0,0.1,0.1,0.2,0.2l0.3,0.3c0.3,0.3-0.2-0.2-0.2-0.2c-0.1-0.1-0.1-0.1,0,0c-0.7-0.7,0.5,0.5,0,0c0.1,0.1,0.1,0.1,0,0
								c0,0,0,0,0,0c0,0,0,0,0,0c-0.1-0.1-0.1-0.1-0.2-0.2c0.1,0.1,0.1,0.1,0.2,0.2c0,0,0,0,0.1,0.1l-0.3-0.3c0,0,0,0,0,0
								c-0.1-0.1,0.2,0.2,0.4,0.4c0.1,0.1,0.1,0.1,0.2,0.2c-0.6-0.5,0.2,0.2-0.4-0.4c0.3,0.3,0.2,0.2,0.8,0.8
								c-0.1-0.1-0.1-0.1-0.1-0.1c-0.1-0.1-0.1-0.1,0,0l-0.4-0.4l0.6,0.6c-0.3-0.3-0.4-0.4-0.8-0.7c0.5,0.5,0.2,0.2,0.7,0.7
								l-0.3-0.3c0,0,0.4,0.4,0.1,0.2c-0.5-0.5-0.1-0.1-0.6-0.5c0.8,0.8-0.4-0.4,0.3,0.3c-0.2-0.2-0.3-0.3-0.5-0.5
								c0.2,0.2-0.3-0.3,0.2,0.2c-0.2-0.2-0.3-0.3-0.4-0.4c0,0,0.2,0.2,0.1,0.1c-0.1-0.1-0.2-0.2-0.2-0.3c0,0,0.6,0.6,1.2,1.2
								c-0.3-0.3-0.2-0.2,0.1,0.1c-0.2-0.2-0.4-0.4-0.4-0.4c0,0-0.3-0.3,0.2,0.2c-0.1-0.1,0,0,0,0c0,0-0.1-0.1,0,0l0.1,0.1
								c0.5,0.5,0.1,0.1,0.2,0.2l-0.1-0.1c-0.4-0.4,0.2,0.2-0.3-0.2l0.3,0.3c0.7,0.7-0.4-0.4-0.2-0.1l0.2,0.2c0.2,0.3-1-1-1.1-1.1
								c-0.1-0.1-0.1-0.1-0.1-0.2c-0.4-0.4,0.4,0.4,0.5,0.6c-0.2-0.2-0.6-0.6-0.7-0.7c-0.2-0.2,0.8,0.8,0.3,0.3
								c0.2,0.2,0.4,0.4,0.5,0.5c0.1,0.1-0.7-0.7-0.1-0.1c-0.1,0-0.1-0.1-0.1-0.1c0.1,0.2,0.2,0.3,0.6,0.6c-1.2-1.2,0.6,0.6-0.5-0.5
								l0,0.1l-0.1-0.1c-0.1-0.1,0.2,0.2,0.4,0.5c-0.1-0.1-0.2-0.2-0.2-0.2c-0.2-0.2-0.2-0.2,0.3,0.4l-0.4-0.3
								c0.2,0.2-0.6-0.5-0.2-0.1c0,0-0.1-0.1-0.2-0.2c0.4,0.4-1-0.9,0.3,0.3l0.3,0.3c0.1,0.1,0.6,0.6,0.8,0.8
								c0.1,0.1-0.4-0.4-0.5-0.4l0.1,0.1c-0.7-0.7-0.2-0.2-0.7-0.7c0,0-0.4-0.3-0.4-0.3l0.5,0.5l0,0c-0.1-0.1-0.4-0.4-0.4-0.4
								c-0.3-0.3,0.2,0.3,0.4,0.4c-0.2-0.2-0.6-0.6-0.6-0.6l0,0l0.1,0.1c0.2,0.2,0.4,0.4,0.4,0.4c-0.1-0.1-0.3-0.3-0.3-0.3
								c0,0-0.1-0.1,0,0l-0.1,0l0.4,0.4c0.2,0.2,0,0,0.4,0.4c-0.7-0.7-0.3-0.2-0.5-0.5c0.3,0.3,0.3,0.3,0.2,0.3
								c0.1,0.1,0.5,0.5,0.5,0.5c-0.9-0.9-0.4-0.4-1.1-1.1c0.5,0.4,0.1,0.1,0.7,0.8c-0.1-0.1-0.4-0.4-0.6-0.6
								c0.4,0.4-0.3-0.2-0.1-0.1c0.1,0.1,0.3,0.3,0.5,0.5l-0.6-0.6c0.1,0.1,0.7,0.7,0.3,0.3c0.1,0.1,0.3,0.3,0.3,0.3
								c-0.6-0.6,0.5,0.5-0.7-0.6c0.2,0.2,0.3,0.3,0.3,0.3c0.1,0.1,0.3,0.3,0.5,0.5l-0.5-0.5c0.5,0.5,0,0,0.5,0.5l-0.1-0.1
								c0.5,0.5,1.2,1.2,1.9,1.8c-0.6-0.6,0.9,0.9,0,0c0.1,0.1,0.2,0.2,0.4,0.4c-0.3-0.3-0.3-0.4-0.2-0.2l0.1,0.1
								c-0.1-0.1,0.2,0.2,0.4,0.4l-0.3-0.3c0,0,0.2,0.1,0.2,0.2c-0.5-0.5,0,0-0.6-0.6c0.7,0.7,0,0,0.8,0.8c0,0-0.4-0.4-0.4-0.4
								l0.2,0.2l-0.3-0.3c0,0,0.3,0.3,0.5,0.5c0,0,0,0.1,0.1,0.1c0.3,0.2-0.1-0.1,0,0l-0.1-0.1c-0.2-0.2,0.1,0.1-0.3-0.4l-0.2-0.2
								c-0.3-0.3,0.2,0.2,0.1,0l0,0c-0.2-0.2-0.2-0.2-0.2-0.2c0.2,0.2,0.4,0.4,0.6,0.6c-0.3-0.3-0.2-0.3-0.8-0.8l0.3,0.3
								c-0.2-0.2-0.4-0.4-0.4-0.4c0.2,0.2,0.4,0.4,0.7,0.7c0.6,0.6-0.6-0.6,0.3,0.2c-0.7-0.7-0.4-0.4-0.6-0.6
								c-0.2-0.2-0.5-0.5-0.5-0.5c0,0,0.9,0.9,0.9,0.9c0,0,0.1,0.1,0,0c0.2,0.2-0.2-0.3,0.1,0c-0.4-0.4,0,0-0.5-0.5l0.1,0.1
								c-0.1-0.2-0.8-0.8-0.5-0.5c0.1,0.1,0.3,0.3,0.3,0.3c0.2,0.2-0.1-0.1,0.1,0.1c0.6,0.6,0.1,0.1,0.5,0.6
								c0.2,0.2-0.4-0.4,0.2,0.2c-0.8-0.8,0.1,0.1-0.5-0.5l0.3,0.3c-0.1-0.1-0.2-0.2-0.2-0.2l0.4,0.4c-0.4-0.4,0.3,0.3,0.1,0.1
								c0,0-0.4-0.4-0.7-0.6c-0.4-0.5,0.9,0.9,0.7,0.7c0,0-0.2-0.2-0.4-0.4c0.1,0.1,0.2,0.2,0.4,0.4c-0.1-0.1-0.3-0.3-0.5-0.6
								c0.4,0.4-0.2-0.2-0.3-0.3l0.3,0.3c0.2,0.2-0.7-0.7-0.4-0.5l0.5,0.5l-0.1-0.1l0.4,0.4c-0.3-0.3-0.2-0.2-0.1-0.1
								c-0.2-0.2-0.6-0.6-0.6-0.6c0.2,0.2,0.3,0.3,0.3,0.3c0.2,0.2,0.5,0.5,0.2,0.2c0.1,0.1,0.2,0.2,0.3,0.3c0.2,0.2,0.1,0,0.1,0
								c0,0,0,0-0.1-0.1l-0.5-0.5c0.1,0.1,0.2,0.2,0.3,0.3c0,0-0.2-0.2-0.2-0.2c0.3,0.3,0.6,0.6,0.7,0.7l-0.3-0.3
								c0.1,0.1,0.3,0.3,0.4,0.4c0.2,0.2-0.5-0.5-0.3-0.3C-530.9,147-530.9,147-530.9,146.8C-530.9,147-530.5,147.3-530.9,146.8
								l0.5,0.6c-0.1-0.1-0.6-0.6-0.8-0.8c-0.2-0.2,0.4,0.4,0.6,0.6C-530.9,146.9-531.4,146.4-530.9,146.8
								C-530.9,146.9-531,146.8-530.9,146.8z M-531.1,146.6C-531,146.6-530.8,146.9-531.1,146.6
								C-531.4,146.3-531.2,146.5-531.1,146.6z M-531.8,145.7C-531.7,145.8-531.8,145.7-531.8,145.7
								C-531.9,145.6-531.9,145.6-531.8,145.7z M-534,143C-533.9,143-533.9,143-534,143C-534.1,142.9-534,143-534,143z
								 M-533.8,143.2c0,0-0.1-0.1-0.1-0.1C-533.9,143.1-533.9,143.1-533.8,143.2C-533.8,143.2-533.7,143.3-533.8,143.2z
								 M-534.2,143.9L-534.2,143.9C-534.1,144.1-534.1,144-534.2,143.9z"/>
							<path class="st35" d="M-531.4,146.1c-0.1-0.1-0.1-0.1-0.2-0.2C-531.5,146-531.4,146.1-531.4,146.1z"/>
							<path class="st35" d="M-530.8,147.1C-530.8,147.1-530.8,147.1-530.8,147.1C-530.8,147.1-530.8,147.1-530.8,147.1
								L-530.8,147.1z"/>
							<path class="st35" d="M-531,146.1c-0.1,0-0.1-0.1-0.2-0.2C-531.1,146.1-531,146.1-531,146.1z"/>
							<path class="st35" d="M-534.4,142.6L-534.4,142.6c0.1,0.1,0.1,0.1,0.2,0.2C-534.2,142.7-534.3,142.6-534.4,142.6z"/>
							<path class="st35" d="M-532.2,144.6C-532.3,144.6-532.2,144.6-532.2,144.6l-0.2-0.2C-532.4,144.5-532.3,144.6-532.2,144.6z"
								/>
							<path class="st35" d="M-533.2,143.7c0.3,0.3,0.2,0.2,0.1,0.1c0,0,0,0,0,0C-533.5,143.4-533.3,143.6-533.2,143.7z"/>
							<path class="st35" d="M-533.1,143.8C-533.1,143.8-533.1,143.8-533.1,143.8C-533.2,143.6-533.1,143.8-533.1,143.8z"/>
							<path class="st35" d="M-534,143c0.1,0.1-0.4-0.4-0.2-0.3C-534.6,142.4-533.8,143.2-534,143z"/>
							<polygon class="st35" points="-532.3,144.6 -532.6,144.3 -532.3,144.6 							"/>
							<path class="st35" d="M-532.5,144.4l0.1,0.1C-532.5,144.4-532.5,144.4-532.5,144.4C-532.6,144.4-532.7,144.3-532.5,144.4z"/>
							<path class="st35" d="M-532.6,144.4C-532.6,144.4-532.6,144.4-532.6,144.4C-532.6,144.3-532.6,144.3-532.6,144.4z"/>
							<polygon class="st35" points="-532.2,144.8 -532.2,144.7 -532.3,144.7 							"/>
							<path class="st35" d="M-532.7,144.4l0.1,0.1c0.1,0.1,0.2,0.2,0.1,0.1C-532.5,144.5-532.5,144.5-532.7,144.4z"/>
							<path class="st35" d="M-531.7,145.3c-0.1-0.1-0.2-0.2-0.3-0.3l0.4,0.4L-531.7,145.3z"/>
							<path class="st35" d="M-531.6,145.4c0.1,0.1,0.3,0.4,0.3,0.3C-531.4,145.6-531.5,145.5-531.6,145.4z"/>
							<polygon class="st35" points="-532.2,145 -532.2,144.9 -532.9,144.2 							"/>
							<path class="st35" d="M-530.5,146.7c0.2,0.2-0.4-0.4-0.2-0.2c-0.2-0.2-0.2-0.2-0.3-0.3C-530.9,146.4-531,146.3-530.5,146.7z"
								/>
							<path class="st35" d="M-531.1,146.2c0,0-0.1-0.1-0.1-0.1C-531.1,146.1-531.1,146.1-531.1,146.2z"/>
							<polygon class="st35" points="-534.8,143.7 -535,143.6 -534.7,143.8 							"/>
							<path class="st35" d="M-534.3,144.2l-0.5-0.5L-534.3,144.2C-534.3,144.2-534.4,144.1-534.3,144.2z"/>
							<path class="st35" d="M-530.2,147.5l-0.1-0.1c-0.1-0.1-0.1-0.1-0.1-0.1L-530.2,147.5z"/>
							<polygon class="st35" points="-530.6,147.2 -530.5,147.2 -531,146.8 							"/>
							<path class="st35" d="M-530.1,147.8C-530,147.8-530.1,147.7-530.1,147.8C-530,147.8-530.6,147.2-530.1,147.8z"/>
						</g>
					</g>
				</g>
			</g>
		</g>
		<path class="st36" d="M-367.6,217.7c-7.8,3.4-14.4,9.2-20.9,14.8c-6.5,5.6-13.2,11.2-21.3,14.2c-6.6,2.5-13.7,3-20.8,3
			c-6.7,0-13.9-0.8-19.2-5c-7.6-6.1-8.7-17.3-7-26.9c4.2-23.2,21.5-42.7,42.4-53.5s45.3-13.7,68.8-12.4c11.6,0.6,23.7,2.3,33.5,8.5
			c9.9,6.2,17.1,17.9,15,29.3c-1.8,9.5-9.5,17-18.3,21c-6.9,3.2-14.4,4.6-21.9,5.5c-3,0.4-5.8,1.3-8.7,0.2
			c-3.3-1.2-6.8-1.7-10.3-1.5C-360.1,215.1-363.9,216.1-367.6,217.7z"/>
		<path class="st37" d="M-363.1,266.8c-1.8-0.1-3.9,0-5,1.4c-1.1,1.3-0.8,3.5,0.3,4.8s2.8,2.1,4.4,2.7c4.2,1.5,8.7,2.1,13.2,1.9
			c2.1-0.1,4.3-0.4,6.2-1.4c1.7-0.9,3.2-2.5,3.7-4.5c0.3-1.5-0.1-4-1.8-4.7c-1.3-0.5-2.9,0.1-4.2,0.2c-2.4,0.3-5,0-7.5-0.1
			C-356.9,267-360,266.9-363.1,266.8z"/>
		<path class="st38" d="M-371.3,244.3c3,5.9,9.1,9.6,15.6,9.6c6.9,0,13.2-4.1,16.1-10.6"/>
		<line class="st38" x1="-356.6" y1="231.4" x2="-355.7" y2="253.9"/>
		<g class="st34">
			<defs>
				<ellipse id="XMLID_21_" cx="-355.7" cy="228.4" rx="15" ry="8.9"/>
			</defs>
			<use xlink:href="#XMLID_21_"  style="overflow:visible;fill-rule:evenodd;clip-rule:evenodd;fill:#EB9269;"/>
			<clipPath id="XMLID_49_">
				<use xlink:href="#XMLID_21_"  style="overflow:visible;"/>
			</clipPath>
			<path class="st39" d="M-372.8,224.7l6.3,5.5c6.4,3.6,13.9,4.6,21,2.8l10.1-4.6l-2.9,8.9h-32.5L-372.8,224.7z"/>
		</g>
		<path class="st40" d="M-360.9,198.8c0.5,2,1.5,4.5,3.6,4.7c2.3,0.2,3.7-2.3,4.6-4.5c4.4-11.8,8.8-23.7,13.3-35.5
			c0,0.1-12.6-1.7-13.8-1.8c-4.6-0.4-9.3-0.6-14-0.5c-4.6,0.1-2.2,5.4-1.5,8.2c1.2,4.6,2.4,9.2,3.7,13.8
			C-363.6,188.3-362.3,193.6-360.9,198.8z"/>
		<path class="st41" d="M-331.8,175.6c-3.1,4.8-6.4,10.3-5.1,15.9c3.1,0.9,6.3-1.4,8.7-3.6c5-4.4,9.9-8.8,14.9-13.2
			c1.5-1.3,3.2-3,3-5c-0.3-2.7-3.6-3.9-6.3-3.9c-1.8,0-3.6,0.2-5.4-0.2c-1.4-0.3-2.3-0.9-3.4,0.3c-1.2,1.3-2.1,3.2-3.1,4.7
			C-329.7,172.3-330.7,173.9-331.8,175.6z"/>
		<path class="st41" d="M-377.2,176.5c3.1,4.8,6.4,10.3,5.1,15.9c-3.1,0.9-6.3-1.4-8.7-3.6c-5-4.4-9.9-8.8-14.9-13.2
			c-1.5-1.3-3.2-3-3-5c0.3-2.7,3.6-3.9,6.3-3.9c1.8,0,3.6,0.2,5.4-0.2c1.4-0.3,2.3-0.9,3.4,0.3c1.2,1.3,2.1,3.2,3.1,4.7
			C-379.4,173.2-378.3,174.8-377.2,176.5z"/>
	</g>
	<g>
		<circle class="st42" cx="-405.1" cy="211.2" r="24.9"/>
		<g>
			<defs>
				<circle id="XMLID_15_" cx="-404" cy="209.6" r="18.8"/>
			</defs>
			<use xlink:href="#XMLID_15_"  style="overflow:visible;fill-rule:evenodd;clip-rule:evenodd;fill:#F5F0CC;"/>
			<clipPath id="XMLID_50_">
				<use xlink:href="#XMLID_15_"  style="overflow:visible;"/>
			</clipPath>
			<circle class="st43" cx="-403.7" cy="208.9" r="7.6"/>
			<path class="st44" d="M-416,198.9c-0.6,0.8-1.1,1.8-1.3,2.8c-0.2,1.1,0,2.2,0.7,3c0.8,0.8,2,0.8,3,0.4c1-0.5,1.8-1.3,2.5-2.1
				c1.2-1.3,2.3-2.5,3.1-4.2c0.7-1.4,1.5-4.6-0.6-4.9c-1.7-0.3-3.8,1.3-5.1,2.4C-414.5,197-415.3,197.9-416,198.9z"/>
			
				<use xlink:href="#XMLID_15_"  style="overflow:visible;fill-rule:evenodd;clip-rule:evenodd;fill:none;stroke:#F4EEC3;stroke-miterlimit:10;"/>
		</g>
	</g>
	<g>
		<defs>
			<path id="XMLID_17_" d="M-328.3,378.1h2.8c9.7,0,17.6,7.9,17.6,17.6v7.5h-37.9v-7.5C-345.9,386-338,378.1-328.3,378.1z"/>
		</defs>
		<use xlink:href="#XMLID_17_"  style="overflow:visible;fill-rule:evenodd;clip-rule:evenodd;fill:#F5D99E;"/>
		<clipPath id="XMLID_51_">
			<use xlink:href="#XMLID_17_"  style="overflow:visible;"/>
		</clipPath>
		<path class="st45" d="M-348.8,387.9l11.7,5.4c6.6,3,14,3.6,20.9,1.8l16-4.3V409l-51.5,1L-348.8,387.9z"/>
	</g>
	<g>
		<defs>
			<path id="XMLID_18_" d="M-386.5,378.1h2.8c9.7,0,17.6,7.9,17.6,17.6v7.5H-404v-7.5C-404,386-396.2,378.1-386.5,378.1z"/>
		</defs>
		<use xlink:href="#XMLID_18_"  style="overflow:visible;fill-rule:evenodd;clip-rule:evenodd;fill:#F5D99E;"/>
		<clipPath id="XMLID_52_">
			<use xlink:href="#XMLID_18_"  style="overflow:visible;"/>
		</clipPath>
		<path class="st46" d="M-406.9,387.9l11.7,5.4c6.6,3,14,3.6,20.9,1.8l16-4.3V409l-51.5,1L-406.9,387.9z"/>
	</g>
	<g>
		<defs>
			<path id="XMLID_19_" d="M-248.5,315.5h10.7c7.4,0,13.4,6,13.4,13.4v1.5c0,5.6-4.6,10.2-10.2,10.2h-18c-5.4,0-9.7-4.3-9.7-9.7
				v-1.5C-262.3,321.7-256.1,315.5-248.5,315.5z"/>
		</defs>
		<use xlink:href="#XMLID_19_"  style="overflow:visible;fill-rule:evenodd;clip-rule:evenodd;fill:#F5D99E;"/>
		<clipPath id="XMLID_53_">
			<use xlink:href="#XMLID_19_"  style="overflow:visible;"/>
		</clipPath>
		<path class="st47" d="M-265.2,325.2l11.7,5.4c6.6,3,14,3.6,20.9,1.8l16-4.3v18.3l-51.5,1L-265.2,325.2z"/>
	</g>
	<g>
		<circle class="st42" cx="-311.8" cy="209.6" r="24.9"/>
		<g>
			<defs>
				<circle id="XMLID_23_" cx="-312.8" cy="207.9" r="18.8"/>
			</defs>
			<use xlink:href="#XMLID_23_"  style="overflow:visible;fill-rule:evenodd;clip-rule:evenodd;fill:#F5F0CC;"/>
			<clipPath id="XMLID_54_">
				<use xlink:href="#XMLID_23_"  style="overflow:visible;"/>
			</clipPath>
			<circle class="st48" cx="-313.1" cy="207.2" r="7.6"/>
			<path class="st49" d="M-300.8,197.2c0.6,0.8,1.1,1.8,1.3,2.8c0.2,1.1,0,2.2-0.7,3c-0.8,0.8-2,0.8-3,0.4c-1-0.5-1.8-1.3-2.5-2.1
				c-1.2-1.3-2.3-2.5-3.1-4.2c-0.7-1.4-1.5-4.6,0.6-4.9c1.7-0.3,3.8,1.3,5.1,2.4C-302.3,195.3-301.5,196.2-300.8,197.2z"/>
			
				<use xlink:href="#XMLID_23_"  style="overflow:visible;fill-rule:evenodd;clip-rule:evenodd;fill:none;stroke:#F4EEC3;stroke-miterlimit:10;"/>
		</g>
	</g>
	<path class="st50" d="M-385.7,252.9c-12.1,0.8-23.5,7.9-29.8,18.3"/>
	<path class="st50" d="M-388.6,243.9c-14.3-3.4-29.8-1.2-42.5,6.2"/>
	<path class="st50" d="M-324.8,242.6c15.3,0.3,30.5,4.6,43.6,12.5"/>
	<path class="st50" d="M-325.3,252.4c5.6,0.5,10.6,3.8,14.4,8c3.8,4.2,6.4,9.2,9.1,14.1"/>
</g>
<g id="Layer_2">
	<g>
		<defs>
			<ellipse id="XMLID_24_" cx="95.9" cy="86.4" rx="90" ry="86.4"/>
		</defs>
		<use xlink:href="#XMLID_24_"  style="overflow:visible;fill:#F6DEAC;"/>
		<clipPath id="XMLID_55_">
			<use xlink:href="#XMLID_24_"  style="overflow:visible;"/>
		</clipPath>
		<circle class="st51" cx="104.4" cy="23.5" r="8.5"/>
		<circle class="st51" cx="119.2" cy="22" r="2.8"/>
		<circle class="st51" cx="62.3" cy="37" r="4.3"/>
		<circle class="st51" cx="26" cy="107.8" r="8.4"/>
		<circle class="st51" cx="43.9" cy="111.8" r="3.6"/>
		<circle class="st51" cx="107.9" cy="134.5" r="17.7"/>
		<circle class="st51" cx="93" cy="67.3" r="8.9"/>
		<circle class="st51" cx="166.4" cy="78.8" r="3.6"/>
		<path class="st52" d="M31.3,12.7l7.6,6.8l-6.6,26.8c-2.5,10.2-3,20.8-1.4,31.1l1,6.6c1.7,10.8,6.3,21,13.4,29.4l2.4,2.9
			c7.5,8.8,17.5,15.1,28.8,17.8l16.1,3.9c9.1,2.2,18.3,3.3,27.7,3.3h9.4c5.5,0,10.9-0.6,16.2-1.8l2-0.4c9.2-2,17.9-6,25.5-11.7
			l8.2-6.2L140.8,177l-84,9L5.9,129.5l-10.1-59c0,0,11.5-35.5,12.5-37C9.2,32,31.3,12.7,31.3,12.7z"/>
	</g>
	<g>
		<defs>
			<circle id="XMLID_25_" cx="61" cy="63.6" r="15.7"/>
		</defs>
		<use xlink:href="#XMLID_25_"  style="overflow:visible;opacity:0.35;fill:#8CA199;"/>
		<clipPath id="XMLID_56_">
			<use xlink:href="#XMLID_25_"  style="overflow:visible;opacity:0.35;"/>
		</clipPath>
		<path class="st53" d="M55.8,46l-2.7,10.4c-0.8,2.9-0.7,6.1,0.3,8.9l0,0c1.2,3.5,4,6.3,7.6,7.4h0c2.6,0.8,5.3,1,7.9,0.7l7.7-0.9
			l-7,9.3H45.2l-2.9-18l2.9-11.4L55.8,46z"/>
	</g>
	<g>
		<defs>
			<ellipse id="XMLID_26_" cx="153.2" cy="112.9" rx="10.1" ry="10.4"/>
		</defs>
		<use xlink:href="#XMLID_26_"  style="overflow:visible;opacity:0.35;fill:#8CA199;"/>
		<clipPath id="XMLID_57_">
			<use xlink:href="#XMLID_26_"  style="overflow:visible;opacity:0.35;"/>
		</clipPath>
		<path class="st54" d="M149.9,101.2l-1.7,6.9c-0.5,2-0.4,4,0.2,5.9v0c0.8,2.4,2.6,4.2,4.9,4.9v0c1.7,0.5,3.4,0.7,5.1,0.4l5-0.6
			l-4.5,6.1h-15.8l-1.9-12l1.9-7.6L149.9,101.2z"/>
	</g>
	<g>
		<path class="st55" d="M-125.5,32.9c7.3-5.9,17.5-8,26.5-5.3C-101.3,16.8-93.1,5-82.3,3.4s22.2,7.3,23.1,18.3
			c9.5-5.7,22.6-4.2,30.6,3.5s10,20.7,4.7,30.4c-30.5,2.6-61,5.1-91.5,7.7c-6.1,0.5-13.5,0.9-18.7-3.1c-1.3-1-1.9-1.6-1.9-3.2
			c0-1.7,0-3.4,0.2-5.1c0.4-3.4,1.5-6.8,3-9.8C-131,38.5-128.5,35.3-125.5,32.9z"/>
		<path class="st55" d="M-503.4,67.8c-1.2-6.5,2-13.6,7.7-16.9s13.4-2.8,18.5,1.4c-3.3-5.6-4.8-12.8-2.1-18.7s10.8-9.4,16.3-5.9
			c-3.1-6.3-4.5-13.6-2.8-20.3c1.7-6.8,6.9-12.8,13.6-14.7c6.7-1.8,14.8,1.3,17.7,7.6c3.3-8.6,6.7-17.5,13.4-23.7
			c6.7-6.2,17.7-8.8,25.1-3.4c7.8,5.8,8.1,17.2,7.6,27c9.8-5.9,22.9-4.6,32.5,1.7c9.6,6.3,15.8,16.8,18.8,27.9s3.1,22.7,2.5,34.1
			c-12-0.1-23.9-0.1-35.9,0c-11.8,0.1-23.6,0.1-35.4,0.8c-7.6,0.4-14.9,2.3-22.5,3c-11.8,1.2-23.6,1.8-35.5,1.9
			c-11.9,0.1-23.7-0.3-35.5-1.3C-499.6,68.1-503.4,68-503.4,67.8z"/>
		<path class="st55" d="M-182.3-50.2c7.3-3,16.4-0.4,21,6c7.1-4,16.4-3.5,23,1.1s10.3,13.2,9,21.2c7.8-2.8,17.2,0.5,21.6,7.4
			c4.4,6.9,3.4,16.9-2.4,22.8c8.6,1.5,17.7,3.1,24.2,8.9c6.5,5.8,8.8,17.2,2.3,23C-75.4,42.1-69,50-69,58.4
			c-39.2,3.1-78.8,1.2-117.5-5.6c-0.5-0.1-1.8-4.5-2-5.1c-0.7-1.8-1.3-3.5-1.9-5.3c-1.2-3.6-2.2-7.3-3.1-11
			c-1.8-7.4-2.9-15-3.5-22.6c-0.5-7.6-0.5-15.2,0.2-22.7c0.3-3.8,0.8-7.5,1.5-11.3c0.5-2.8,1.7-5.4,2.1-8.2c0.5-3.3,0.8-6.2,2.5-9.1
			c1.5-2.7,3.7-5,6.3-6.6C-183.7-49.6-183-49.9-182.3-50.2z"/>
		<g>
			<defs>
				<path id="XMLID_27_" d="M-132.9,13.9l-28.9-0.5l-10.6-0.2l-17.6-0.3l-14.6-0.2l-91.3-1.4c-4.9,5.4-12,8.7-19.8,8.7
					c-14.8,0-26.9-12.1-26.9-27c0-14.9,12-27,26.9-27c0.7,0,1.5,0,2.2,0.1c-1.4-3.3-2.2-6.9-2.2-10.6c0-14.9,12-27,26.9-27
					c4.3,0,8.3,1,11.9,2.8c3.3-11.1,13.6-19.2,25.7-19.2c11.9,0,21.9,7.7,25.5,18.4c3.1-1.3,6.5-2,10.1-2c14.9,0,26.9,12.1,26.9,27
					c0,1.9-0.2,3.7-0.6,5.5c2.7,0.8,5.2,2,7.5,3.6c4.3-3,9.5-4.7,15.1-4.7c11.9,0,21.9,7.7,25.5,18.4c2.1,1.4,3.7,3.6,4.3,6.3
					L-132.9,13.9z"/>
			</defs>
			<use xlink:href="#XMLID_27_"  style="overflow:visible;fill:#365550;"/>
			<clipPath id="XMLID_58_">
				<use xlink:href="#XMLID_27_"  style="overflow:visible;"/>
			</clipPath>
			<path class="st56" d="M-271.6-42.7c4.3-12.1,18-19.5,29.9-16.1s20.1,17.1,18,29.9c6.5-2,13.9,0,18.6,5.1s6.5,13,4.5,19.8
				c10-13.8,27.7-20.8,43.8-17.5s29.9,16.9,34.3,33.7c0.6,2.4,1,5.1-0.1,7.3c-1.8,3.4-6.3,3.7-10,3.5c-57.9-2.3-115.9-0.6-173.6,5.2
				c-5.5,0.6-11.2,1.1-16.3-1.1c-6.3-2.8-10.4-9.2-14.1-15.3c-4.7-7.8-9.6-16.3-9-25.5c0.5-7.8,4.9-14.6,9.8-20.2
				c5.1-5.8,10.9-10.7,15.6-16.8c2.9-3.7,5.5-6.9,10-8.4c7.2-2.5,15.1-2.4,22.2,0.6c6.3,2.7,11.8,7.5,15.3,13.7
				C-272.6-44.5-271.5-43-271.6-42.7z"/>
		</g>
		<path class="st57" d="M-190.1,7.4c-2.2,0.6-4.5,0.9-6.9,0.9c-2.7,0-5.3-0.4-7.7-1.1L-190.1,7.4z"/>
		<path class="st57" d="M-161.8,7.9c-1.6,0.3-3.2,0.4-4.9,0.4c-2,0-3.9-0.2-5.8-0.6L-161.8,7.9z"/>
		<g>
			<defs>
				<path id="XMLID_28_" d="M-199.1,27c-7.8-7.2-21.3-6.8-28.7,0.7c7.1-7.9,5.6-21.1-1.4-29.1s-18.2-11.3-28.8-11.4
					c-4.6,0-9.4,0.5-13.3,2.9s-6.7,7.1-5.7,11.6c1.1-7.3-5.4-14.8-12.8-14.7c-7.4,0.1-13.7,7.7-12.4,15c1.5-9-3.4-18.4-10.8-23.7
					c-7.4-5.3-17-7.1-26.1-6.4c-10.1,0.8-20.5,4.8-26.6,12.9c-6.1,8.1-6.4,20.9,1,27.8c-7.9-2.6-17.1-0.5-23.1,5.2
					c-6,5.7-8.5,14.8-6.3,22.8c-3.5-4.7-10.6-6.1-15.7-3.3c-5.1,2.9-7.5,9.7-5.4,15.1c-4.3-1.2-9-2.4-13.3-1.1
					c-4.3,1.4-7.7,6.5-5.6,10.5c2,3.8,7.1,4.2,11.3,4.2c70.6-0.5,141.3-1,211.9-1.6c5.9,0,15.1-0.8,16.2-8.2
					c0.4-2.8,0.4-5.6,1.1-8.3c0.9-3.5,1-7.1,0.2-10.6C-194.2,33.5-196.1,29.7-199.1,27z"/>
			</defs>
			<use xlink:href="#XMLID_28_"  style="overflow:visible;fill:#1F5F58;"/>
			<clipPath id="XMLID_59_">
				<use xlink:href="#XMLID_28_"  style="overflow:visible;"/>
			</clipPath>
			<path class="st58" d="M-214.3,46.1c-7-5.2-16.6-5.4-25.1-3.6c4.6-8.9,1.9-20.9-6.1-26.9s-20.3-5.2-27.5,1.7
				c-11.4-11.5-32.3-11.7-43.9-0.3c-5.7-16.5-23.3-28-40.7-26.6c-13.7,1.1-25.7,9-37.1,16.7c-12,8.1-24,16.2-36.1,24.4
				c-5.1,3.4-10.4,7.2-12.7,12.8c-3.2,7.7,0,16.4,3.3,24.1c2.9,6.8,6.2,14.2,12.8,17.6c5,2.6,10.9,2.5,16.5,2.2
				c57.4-2.3,114.6-7.3,171.5-14.9c8.3-1.1,17.2-1.9,25.2-4.5c2.2-0.7,4.3-1.8,5.5-3.8c1.4-2.4,1.3-5.7,0.8-8.4
				C-208.8,52.5-211,48.6-214.3,46.1z"/>
		</g>
		<g>
			<defs>
				<path id="XMLID_29_" d="M-93.8,37c-5.3-7.3-16.5-9.6-24.2-5c4.3-11.1-3.6-24.4-14.9-28.2s-24.1,0.7-32.8,8.8
					c2.4-5.1,0.1-11.6-4.5-14.9s-10.6-4-16.1-3c-5.5,1-10.7,3.5-15.7,6c-5.4-5.5-13.3-8.5-21-8.1c-7.7,0.5-15.1,4.5-19.8,10.7
					c-3.6,4.8-5.6,11-4.7,17c0.9,6,4.9,11.5,10.5,13.7c-8.7-4.5-19.9-3.6-27.9,2.1s-12.4,16-11,25.7c15.2,0.6,30.4,1,45.6,1.2
					c15.2,0.3,30.4,0.3,45.6,0.3c15.2-0.1,30.3-0.3,45.5-0.7c7.6-0.2,15.2-0.4,22.7-0.7c5-0.2,10.2,0,15.2-0.5
					c3.5-0.4,6.8-1.6,8.6-4.8c2.7-4.6,2.8-11,0.9-15.8C-92.3,39.5-93,38.2-93.8,37z"/>
			</defs>
			<use xlink:href="#XMLID_29_"  style="overflow:visible;fill:#24695F;"/>
			<clipPath id="XMLID_60_">
				<use xlink:href="#XMLID_29_"  style="overflow:visible;"/>
			</clipPath>
			<path class="st59" d="M-222.5,43.1c-4-7.3-2.9-17,2.5-23.4s14.8-8.9,22.7-6.1s13.6,10.7,13.9,19c5.3-8,15.2-11.3,24.4-14
				c4.5-1.3,9-2.7,13.6-4c8.2-2.5,16.5-4.9,24.7-7.4c6.6-2,13.5-4,20.3-2.9c12,1.8,20.9,12.8,24,24.6c2.8,10.5,1.8,22-2.8,31.9
				c-0.1,0.2-5.7-0.6-6.3-0.6c-2.2-0.2-4.3-0.4-6.5-0.5c-4.3-0.3-8.7-0.4-13-0.5c-8.7-0.1-17.4,0.2-26.1,0.7
				c-8.7,0.5-17.4,1.4-26.1,2.3c-8.7,0.9-17.3,2-26,3c-8.7,1.1-17.4,2.1-26.1,3c-8.7,0.9-17.4,1.7-26.2,2.2
				c-4.4,0.3-8.7,0.5-13.1,0.6c-4,0.1-8.4,0.6-12.3,0c-5.6-0.9-4.9-7-3.3-11c2.6-6.3,8-11.5,14-14.7c6.8-3.6,14.8-4.9,22.3-3.6
				C-226.1,42-224.2,42.5-222.5,43.1z"/>
		</g>
	</g>
	<path class="st60" d="M-131,53.4c-0.2,0-0.3,0-0.5,0"/>
	<g>
		<path class="st61" d="M30.8,394.6c-6.5-5.7-10.6-14.8-10.7-24c-0.1-5.1,1.1-10.2,3.2-14.7c1.3-2.8,4.4-6.6,7.5-4.3
			c1.5,1.1,2,3.5,2.6,5.3c0.7,2.4,1.3,4.8,1.6,7.3c0.7,4.8,0.8,9.8,0.3,14.7C34.7,384.4,33.2,389.8,30.8,394.6z"/>
		<g>
			<defs>
				<rect id="XMLID_30_" x="25.4" y="228.6" width="160.8" height="49"/>
			</defs>
			<use xlink:href="#XMLID_30_"  style="overflow:visible;fill:#F4EEC3;"/>
			<clipPath id="XMLID_61_">
				<use xlink:href="#XMLID_30_"  style="overflow:visible;"/>
			</clipPath>
			<line class="st62" x1="191.5" y1="252.1" x2="45.8" y2="252.1"/>
			<line class="st62" x1="192.1" y1="266.8" x2="46.5" y2="266.8"/>
			<line class="st62" x1="193.1" y1="238" x2="47.4" y2="238"/>
		</g>
		<g>
			<defs>
				<rect id="XMLID_32_" x="2.4" y="287.6" width="175.2" height="41.3"/>
			</defs>
			<use xlink:href="#XMLID_32_"  style="overflow:visible;fill:#F4EEC3;"/>
			<clipPath id="XMLID_62_">
				<use xlink:href="#XMLID_32_"  style="overflow:visible;"/>
			</clipPath>
			<path class="st63" d="M156.7,310.7H2.4v-6.2h154.3c1.7,0,3.1,1.4,3.1,3.1l0,0C159.8,309.3,158.4,310.7,156.7,310.7z"/>
			<path class="st63" d="M1.2,315.7h154.3c1.7,0,3.1,1.4,3.1,3.1l0,0c0,1.7-1.4,3.1-3.1,3.1H1.2"/>
			<path class="st63" d="M0.2,293.4h154.3c1.7,0,3.1,1.4,3.1,3.1l0,0c0,1.7-1.4,3.1-3.1,3.1H0.2"/>
		</g>
		<g>
			<defs>
				<rect id="XMLID_31_" x="31.2" y="344.3" width="156" height="61.4"/>
			</defs>
			<use xlink:href="#XMLID_31_"  style="overflow:visible;fill:#F4EEC3;"/>
			<clipPath id="XMLID_63_">
				<use xlink:href="#XMLID_31_"  style="overflow:visible;"/>
			</clipPath>
			<path class="st64" d="M52.8,377h134.4v-8.6H52.8c-2.4,0-4.3,1.9-4.3,4.3l0,0C48.5,375.1,50.4,377,52.8,377z"/>
			<path class="st64" d="M187.2,384.7H52.8c-2.4,0-4.3,1.9-4.3,4.3l0,0c0,2.4,1.9,4.3,4.3,4.3h134.4"/>
			<path class="st64" d="M185.9,353H51.5c-2.4,0-4.3,1.9-4.3,4.3l0,0c0,2.4,1.9,4.3,4.3,4.3h134.4"/>
		</g>
		<path class="st0" d="M191.5,220H26.8c-4.7,0-8.6,3.8-8.6,8.6v47.2c0,4.7,3.8,8.6,8.6,8.6h164.7c3.4,0,6.2-2.8,6.2-6.2v-1.4
			c0-3.5-2.8-6.3-6.3-6.2l-152.2,1.3c-4.7,0-8.6-3.7-8.6-8.5l-0.3-22.2c-0.1-4.8,3.8-8.7,8.6-8.7h152.6c3.4,0,6.2-2.8,6.2-6.2v0
			C197.8,222.8,195,220,191.5,220z"/>
		<path class="st61" d="M-2,284.3h166.6c7.8,0,14.7,4.9,17.3,12.2l2.1,5.9c1.4,3.9,1.4,8.1,0.2,12l-2.5,7.7
			c-2.5,7.6-9.5,12.7-17.5,12.7H-1.2c-1.7,0-3-1.4-2.9-3.1l0.1-1.4c0.1-1.5,1.4-2.7,2.9-2.7l161.5,0.9c8,0,15.1-5.1,17.6-12.6v0
			c1.3-4,1.2-8.4-0.3-12.4l-0.8-2c-2.7-7.1-9.6-11.8-17.2-11.8L-1.9,290c-1.8,0-3.2-1.6-2.8-3.4h0C-4.5,285.3-3.3,284.3-2,284.3z"/>
		<path class="st65" d="M187.4,334.7H42.5c-7.2,0-14,3.1-18.8,8.5l-10.3,11.7c-7.8,8.9-8.3,22.1-1.2,31.6l11.4,15.1
			c4.7,6.3,12.1,9.9,20,9.9H187c3.8,0,6.7-3.2,6.5-6.9l0,0c-0.3-3.4-3.1-6-6.5-6L48.4,399c-7.5,0-14.7-3.4-19.5-9.2l-0.3-0.4
			c-7.7-9.4-7.5-22.9,0.5-32.1h0c4.7-5.5,11.6-8.6,18.8-8.7l139.6-0.9c3.6,0,6.4-2.9,6.4-6.5v-0.1
			C193.9,337.6,191,334.7,187.4,334.7z"/>
	</g>
</g>
</svg>
