<?xml version="1.0" encoding="utf-8"?>
<!-- Generator: Adobe Illustrator 25.2.1, SVG Export Plug-In . SVG Version: 6.00 Build 0)  -->
<svg version="1.1" id="Layer_1" xmlns="http://www.w3.org/2000/svg" xmlns:xlink="http://www.w3.org/1999/xlink" x="0px" y="0px"
	 viewBox="0 0 250 250" style="enable-background:new 0 0 250 250;" xml:space="preserve">
<style type="text/css">
	.st0{opacity:0.43;fill:#17352F;enable-background:new    ;}
	.st1{opacity:0.35;fill:#17352F;enable-background:new    ;}
	.st2{opacity:0.71;fill:#17352F;enable-background:new    ;}
	.st3{fill:#788E7D;}
	.st4{fill:#688377;}
	.st5{opacity:0.35;clip-path:url(#SVGID_2_);fill:#86A48F;enable-background:new    ;}
	.st6{opacity:0.44;clip-path:url(#SVGID_4_);fill:#86A48F;enable-background:new    ;}
	.st7{fill:#AEC4B8;}
	.st8{clip-path:url(#SVGID_6_);}
	.st9{fill:#15433D;}
	.st10{opacity:0.44;fill:#7A958B;enable-background:new    ;}
	.st11{clip-path:url(#SVGID_8_);fill:#688377;}
	.st12{clip-path:url(#SVGID_10_);}
	.st13{clip-path:url(#SVGID_12_);fill:#688377;}
	.st14{clip-path:url(#SVGID_14_);fill:#688377;}
	.st15{clip-path:url(#SVGID_16_);fill:#688377;}
	.st16{clip-path:url(#SVGID_18_);}
	.st17{fill:#86A48F;}
	.st18{opacity:0.3;clip-path:url(#SVGID_20_);fill:#AEC4B8;enable-background:new    ;}
	.st19{opacity:0.18;clip-path:url(#SVGID_22_);fill:#AEC4B8;enable-background:new    ;}
	.st20{clip-path:url(#SVGID_24_);fill:#AEC4B8;}
	.st21{fill:#647B6A;}
	.st22{fill:#3F5E58;}
	.st23{opacity:0.51;clip-path:url(#SVGID_26_);fill:#204C45;enable-background:new    ;}
	.st24{fill:#17352F;}
	.st25{opacity:0.49;fill:#647B6A;enable-background:new    ;}
	.st26{clip-path:url(#SVGID_28_);fill:#647B6A;}
	.st27{fill:#DBD2A8;}
	.st28{opacity:0.38;clip-path:url(#SVGID_30_);fill:#A9B3A3;enable-background:new    ;}
	.st29{clip-path:url(#SVGID_32_);fill:#DBD2A8;}
	.st30{opacity:0.43;clip-path:url(#SVGID_34_);fill:#A9B3A3;enable-background:new    ;}
	.st31{opacity:0.28;clip-path:url(#SVGID_36_);fill:#A9B3A3;enable-background:new    ;}
	.st32{opacity:0.26;clip-path:url(#SVGID_38_);fill:#A9B3A3;enable-background:new    ;}
	.st33{opacity:0.94;clip-path:url(#SVGID_40_);fill:#A9B3A3;enable-background:new    ;}
	.st34{opacity:0.94;clip-path:url(#SVGID_42_);fill:#A9B3A3;enable-background:new    ;}
	.st35{opacity:0.94;clip-path:url(#SVGID_44_);fill:#A9B3A3;enable-background:new    ;}
	.st36{opacity:0.94;clip-path:url(#SVGID_46_);fill:#A9B3A3;enable-background:new    ;}
	.st37{opacity:0.94;clip-path:url(#SVGID_48_);fill:#A9B3A3;enable-background:new    ;}
	.st38{opacity:0.94;clip-path:url(#SVGID_50_);fill:#A9B3A3;enable-background:new    ;}
	.st39{opacity:0.94;clip-path:url(#SVGID_52_);fill:#A9B3A3;enable-background:new    ;}
	.st40{opacity:0.94;clip-path:url(#SVGID_54_);fill:#A9B3A3;enable-background:new    ;}
	.st41{opacity:0.94;clip-path:url(#SVGID_56_);fill:#A9B3A3;enable-background:new    ;}
	.st42{clip-path:url(#SVGID_58_);fill:#DBD2A8;}
	.st43{clip-path:url(#SVGID_60_);fill:#DBD2A8;}
	.st44{clip-path:url(#SVGID_62_);fill:#DBD2A8;}
	.st45{fill:#7A958B;}
	.st46{fill:#A9B3A3;}
	.st47{fill:#F4EEC3;}
</style>
<g id="Layer_5">
	<path class="st0" d="M194.8,104.9h37.9c4.3,0,7.9,3.5,7.9,7.9l0.3,107.9c0,2.4-1.1,4.6-2.9,6.1l-2.4,2c-2,1.6-4.4,2.5-6.9,2.6
		l-47.9,1.3c-3.1,0.1-5.5-2.7-5-5.7L194.8,104.9z"/>
	<ellipse class="st1" cx="95.4" cy="161.9" rx="23.8" ry="25.2"/>
	<path class="st2" d="M30.3,216.1l3.5-17.8c0.1-0.3,0.3-0.5,0.6-0.5l79.5-6.6c2.7-0.2,4.8,2.1,4.4,4.8l-4,23.3
		c-0.6,3.5-2.7,6.5-5.8,8.2l-2.6,1.5c-1.2,0.7-2.6,1.1-4.1,1.1l-78.7-0.3c-2,0-2.6-2.7-0.8-3.6l0,0
		C26.5,224.3,29.5,220.6,30.3,216.1z"/>
	<polygon class="st3" points="27.5,164.2 41.6,161 88.8,161.2 96.7,164.2 	"/>
	<g>
		<g>
			<path id="XMLID_57_" class="st4" d="M226.6,104h-52.8c-4.3,0-7.7,3.5-7.7,7.7v110.9c0,4.3,3.5,7.7,7.7,7.7h52.8
				c4.3,0,7.7-3.5,7.7-7.7V111.7C234.4,107.4,230.9,104,226.6,104z"/>
		</g>
		<g>
			<defs>
				<path id="SVGID_1_" d="M226.6,104h-52.8c-4.3,0-7.7,3.5-7.7,7.7v110.9c0,4.3,3.5,7.7,7.7,7.7h52.8c4.3,0,7.7-3.5,7.7-7.7V111.7
					C234.4,107.4,230.9,104,226.6,104z"/>
			</defs>
			<clipPath id="SVGID_2_">
				<use xlink:href="#SVGID_1_"  style="overflow:visible;"/>
			</clipPath>
			<polygon class="st5" points="209,93.5 154.7,169.5 155.9,196 228.2,90.4 			"/>
		</g>
		<g>
			<defs>
				<path id="SVGID_3_" d="M226.6,104h-52.8c-4.3,0-7.7,3.5-7.7,7.7v110.9c0,4.3,3.5,7.7,7.7,7.7h52.8c4.3,0,7.7-3.5,7.7-7.7V111.7
					C234.4,107.4,230.9,104,226.6,104z"/>
			</defs>
			<clipPath id="SVGID_4_">
				<use xlink:href="#SVGID_3_"  style="overflow:visible;"/>
			</clipPath>
			<polygon class="st6" points="228.8,97.2 162.7,195.4 162.7,204.1 234.4,100.9 			"/>
		</g>
	</g>
	<g>
		<g>
			<path id="XMLID_56_" class="st7" d="M220.5,223.8h-40.6c-3.4,0-6.1-2.7-6.1-6.1v-99.3c0-3.4,2.7-6.1,6.1-6.1h40.6
				c3.4,0,6.1,2.7,6.1,6.1v99.3C226.7,221.1,223.9,223.8,220.5,223.8z"/>
		</g>
		<g>
			<defs>
				<path id="SVGID_5_" d="M220.5,223.8h-40.6c-3.4,0-6.1-2.7-6.1-6.1v-99.3c0-3.4,2.7-6.1,6.1-6.1h40.6c3.4,0,6.1,2.7,6.1,6.1v99.3
					C226.7,221.1,223.9,223.8,220.5,223.8z"/>
			</defs>
			<clipPath id="SVGID_6_">
				<use xlink:href="#SVGID_5_"  style="overflow:visible;"/>
			</clipPath>
			<g class="st8">
				<ellipse class="st9" cx="201.3" cy="197.8" rx="18.1" ry="18.5"/>
				<ellipse class="st10" cx="201.3" cy="197.5" rx="13.4" ry="13"/>
				<ellipse class="st9" cx="201.1" cy="197.6" rx="6.2" ry="6.3"/>
			</g>
		</g>
		<g>
			<defs>
				<path id="SVGID_7_" d="M220.5,223.8h-40.6c-3.4,0-6.1-2.7-6.1-6.1v-99.3c0-3.4,2.7-6.1,6.1-6.1h40.6c3.4,0,6.1,2.7,6.1,6.1v99.3
					C226.7,221.1,223.9,223.8,220.5,223.8z"/>
			</defs>
			<clipPath id="SVGID_8_">
				<use xlink:href="#SVGID_7_"  style="overflow:visible;"/>
			</clipPath>
			<ellipse class="st11" cx="178.5" cy="118" rx="1.9" ry="2"/>
		</g>
		<g>
			<defs>
				<path id="SVGID_9_" d="M220.5,223.8h-40.6c-3.4,0-6.1-2.7-6.1-6.1v-99.3c0-3.4,2.7-6.1,6.1-6.1h40.6c3.4,0,6.1,2.7,6.1,6.1v99.3
					C226.7,221.1,223.9,223.8,220.5,223.8z"/>
			</defs>
			<clipPath id="SVGID_10_">
				<use xlink:href="#SVGID_9_"  style="overflow:visible;"/>
			</clipPath>
			<g class="st12">
				<ellipse class="st9" cx="199.8" cy="160.1" rx="13.1" ry="13.2"/>
				<ellipse class="st10" cx="199.8" cy="159.9" rx="9.8" ry="9.2"/>
				<ellipse class="st9" cx="199.7" cy="159.9" rx="4.5" ry="4.5"/>
			</g>
		</g>
		<g>
			<defs>
				<path id="SVGID_11_" d="M220.5,223.8h-40.6c-3.4,0-6.1-2.7-6.1-6.1v-99.3c0-3.4,2.7-6.1,6.1-6.1h40.6c3.4,0,6.1,2.7,6.1,6.1
					v99.3C226.7,221.1,223.9,223.8,220.5,223.8z"/>
			</defs>
			<clipPath id="SVGID_12_">
				<use xlink:href="#SVGID_11_"  style="overflow:visible;"/>
			</clipPath>
			<ellipse class="st13" cx="221.1" cy="117.7" rx="1.9" ry="2"/>
		</g>
		<g>
			<defs>
				<path id="SVGID_13_" d="M220.5,223.8h-40.6c-3.4,0-6.1-2.7-6.1-6.1v-99.3c0-3.4,2.7-6.1,6.1-6.1h40.6c3.4,0,6.1,2.7,6.1,6.1
					v99.3C226.7,221.1,223.9,223.8,220.5,223.8z"/>
			</defs>
			<clipPath id="SVGID_14_">
				<use xlink:href="#SVGID_13_"  style="overflow:visible;"/>
			</clipPath>
			<ellipse class="st14" cx="179.5" cy="218.4" rx="1.9" ry="2"/>
		</g>
		<g>
			<defs>
				<path id="SVGID_15_" d="M220.5,223.8h-40.6c-3.4,0-6.1-2.7-6.1-6.1v-99.3c0-3.4,2.7-6.1,6.1-6.1h40.6c3.4,0,6.1,2.7,6.1,6.1
					v99.3C226.7,221.1,223.9,223.8,220.5,223.8z"/>
			</defs>
			<clipPath id="SVGID_16_">
				<use xlink:href="#SVGID_15_"  style="overflow:visible;"/>
			</clipPath>
			<ellipse class="st15" cx="220.9" cy="218.6" rx="1.9" ry="2"/>
		</g>
		<g>
			<defs>
				<path id="SVGID_17_" d="M220.5,223.8h-40.6c-3.4,0-6.1-2.7-6.1-6.1v-99.3c0-3.4,2.7-6.1,6.1-6.1h40.6c3.4,0,6.1,2.7,6.1,6.1
					v99.3C226.7,221.1,223.9,223.8,220.5,223.8z"/>
			</defs>
			<clipPath id="SVGID_18_">
				<use xlink:href="#SVGID_17_"  style="overflow:visible;"/>
			</clipPath>
			<g class="st16">
				<ellipse class="st9" cx="199.7" cy="130.8" rx="7.9" ry="8"/>
				<ellipse class="st10" cx="199.7" cy="130.7" rx="4.6" ry="4.6"/>
			</g>
		</g>
	</g>
	<g>
		<g>
			<path id="XMLID_59_" class="st17" d="M107.8,219.1l-91.9-0.6c-1.7,0-3.2-1.4-3.3-3.1L10,183.6c-0.2-1.9,1.4-3.6,3.3-3.6h98.2
				c2,0,3.5,1.7,3.3,3.7l-3.6,32.4C110.9,217.8,109.5,219.1,107.8,219.1z"/>
		</g>
		<g>
			<defs>
				<path id="SVGID_19_" d="M107.8,219.1l-91.9-0.6c-1.7,0-3.2-1.4-3.3-3.1L10,183.6c-0.2-1.9,1.4-3.6,3.3-3.6h98.2
					c2,0,3.5,1.7,3.3,3.7l-3.6,32.4C110.9,217.8,109.5,219.1,107.8,219.1z"/>
			</defs>
			<clipPath id="SVGID_20_">
				<use xlink:href="#SVGID_19_"  style="overflow:visible;"/>
			</clipPath>
			<polygon class="st18" points="78.4,175 15,222.3 44.1,222.6 100.6,176.6 			"/>
		</g>
		<g>
			<defs>
				<path id="SVGID_21_" d="M107.8,219.1l-91.9-0.6c-1.7,0-3.2-1.4-3.3-3.1L10,183.6c-0.2-1.9,1.4-3.6,3.3-3.6h98.2
					c2,0,3.5,1.7,3.3,3.7l-3.6,32.4C110.9,217.8,109.5,219.1,107.8,219.1z"/>
			</defs>
			<clipPath id="SVGID_22_">
				<use xlink:href="#SVGID_21_"  style="overflow:visible;"/>
			</clipPath>
			<polygon class="st19" points="104.9,175.3 54.6,222.3 61.7,223.5 107.7,175.7 			"/>
		</g>
		<g>
			<defs>
				<path id="SVGID_23_" d="M107.8,219.1l-91.9-0.6c-1.7,0-3.2-1.4-3.3-3.1L10,183.6c-0.2-1.9,1.4-3.6,3.3-3.6h98.2
					c2,0,3.5,1.7,3.3,3.7l-3.6,32.4C110.9,217.8,109.5,219.1,107.8,219.1z"/>
			</defs>
			<clipPath id="SVGID_24_">
				<use xlink:href="#SVGID_23_"  style="overflow:visible;"/>
			</clipPath>
			<path class="st20" d="M177.5,272.7"/>
		</g>
	</g>
	<path class="st21" d="M104.2,216.3H20c-2.9,0-5.3-2.3-5.5-5.2l-1.6-24.5c-0.1-1,0.3-2.1,1-2.8c0.7-0.8,1.7-1.1,2.7-1.2l91.3,1.2
		c1,0,2,0.5,2.7,1.2c0.7,0.8,1,1.8,1,2.8l-1.9,23.4C109.5,214.1,107.1,216.3,104.2,216.3z M16.7,184.4c-0.6,0-1.1,0.2-1.5,0.6
		c-0.4,0.4-0.6,0.9-0.5,1.5l1.6,24.5c0.1,2,1.8,3.6,3.8,3.6h84.2c2,0,3.6-1.5,3.8-3.5l1.9-23.4c0-0.6-0.1-1.1-0.5-1.5
		s-0.9-0.6-1.5-0.7L16.7,184.4L16.7,184.4z"/>
	<polygon class="st22" points="21.6,218.3 19.2,218.4 19.2,218.3 	"/>
	<g>
		<g>
			<path id="XMLID_58_" class="st21" d="M106.3,218.3l-2,8.3c-0.3,1.2-1.4,2-2.6,2h-3c-0.9,0-1.8-0.6-2.1-1.4l-0.1-0.2
				c-0.8-2-2.3-3.6-4.2-4.6H31.8c-2.1,0.9-3.8,2.6-4.6,4.8l-0.1,0.2c-0.4,0.9-1.2,1.4-2.1,1.4h-3c-1.2,0-2.3-0.8-2.6-2l-2-8.3
				l1.6-0.1l2.5-0.1h76.9l3.7-0.2L106.3,218.3z"/>
		</g>
		<g>
			<defs>
				<path id="SVGID_25_" d="M106.3,218.3l-2,8.3c-0.3,1.2-1.4,2-2.6,2h-3c-0.9,0-1.8-0.6-2.1-1.4l-0.1-0.2c-0.8-2-2.3-3.6-4.2-4.6
					H31.8c-2.1,0.9-3.8,2.6-4.6,4.8l-0.1,0.2c-0.4,0.9-1.2,1.4-2.1,1.4h-3c-1.2,0-2.3-0.8-2.6-2l-2-8.3l1.6-0.1l2.5-0.1h76.9
					l3.7-0.2L106.3,218.3z"/>
			</defs>
			<clipPath id="SVGID_26_">
				<use xlink:href="#SVGID_25_"  style="overflow:visible;"/>
			</clipPath>
			<rect x="10.9" y="213.8" class="st23" width="99.9" height="7"/>
		</g>
	</g>
	<g>
		<path class="st21" d="M31.8,195.9l-4.6,3.3c-0.7,0.5-0.7,1.5,0,2l4.2,2.9c0.7,0.4,1.6,0,1.6-0.7v-7
			C33.1,195.8,32.3,195.5,31.8,195.9z"/>
		<path class="st21" d="M37.1,195.9l-4.6,3.3c-0.7,0.5-0.7,1.5,0,2l4.2,2.9c0.7,0.4,1.6,0,1.6-0.7v-7
			C38.4,195.9,37.6,195.6,37.1,195.9z"/>
		<path class="st21" d="M42.3,203.7h-0.6c-0.5,0-1-0.4-1-1v-5.4c0-0.5,0.4-1,1-1h0.6c0.5,0,1,0.4,1,1v5.4
			C43.3,203.2,42.9,203.7,42.3,203.7z"/>
	</g>
	<g>
		<path class="st21" d="M95.7,195.8l4.6,3.3c0.7,0.5,0.7,1.5,0,2l-4.2,2.9c-0.7,0.4-1.6,0-1.6-0.7v-7
			C94.4,195.7,95.2,195.4,95.7,195.8z"/>
		<path class="st21" d="M90.4,195.8l4.6,3.3c0.7,0.5,0.7,1.5,0,2l-4.2,2.9c-0.7,0.4-1.6,0-1.6-0.7v-7
			C89.2,195.7,89.9,195.4,90.4,195.8z"/>
		<path class="st21" d="M85.2,203.5h0.6c0.5,0,1-0.4,1-1v-5.4c0-0.5-0.4-1-1-1h-0.6c-0.5,0-1,0.4-1,1v5.4
			C84.2,203.1,84.7,203.5,85.2,203.5z"/>
		<rect x="30.7" y="166.4" class="st9" width="63.8" height="10.9"/>
	</g>
	<rect x="27.6" y="177.3" class="st21" width="69.2" height="2.5"/>
	<rect x="27.5" y="164.2" class="st21" width="69.2" height="2.5"/>
	<rect x="45.2" y="169.4" class="st24" width="35.1" height="5.5"/>
	<ellipse class="st9" cx="63.7" cy="161.9" rx="25.2" ry="2"/>
	<ellipse class="st25" cx="64.7" cy="161.9" rx="10.7" ry="1"/>
	<g>
		<g>
			<path id="XMLID_60_" class="st17" d="M89.8,161.9l2.7-3.2c1.1-1.3,1.7-2.9,1.8-4.6l0.6-9.1l-6,2.5l-0.4,5.6
				c-0.1,1.5-0.6,3-1.5,4.2l-2.4,3.3L89.8,161.9z"/>
		</g>
		<g>
			<defs>
				<path id="SVGID_27_" d="M89.8,161.9l2.7-3.2c1.1-1.3,1.7-2.9,1.8-4.6l0.6-9.1l-6,2.5l-0.4,5.6c-0.1,1.5-0.6,3-1.5,4.2l-2.4,3.3
					L89.8,161.9z"/>
			</defs>
			<clipPath id="SVGID_28_">
				<use xlink:href="#SVGID_27_"  style="overflow:visible;"/>
			</clipPath>
			<path class="st26" d="M91.8,145.1l-0.5,8.5c-0.1,1.5-0.6,2.9-1.5,4.1l-2.8,3.7l-3.2-0.5l4.5-14.8L91.8,145.1z"/>
		</g>
	</g>
	<path class="st7" d="M73.6,155.4"/>
	<g>
		<g>
			<path id="XMLID_61_" class="st27" d="M95.4,147.1c0.1-3,0.2-6,0.3-9c0.2-3.8-1.8-7.4-5.2-9.2c-4.9-2.2-10.8-5.5-17.1-10.4
				c-5-3.9-8.9-7.9-11.9-11.4c-0.8,8.9-1.6,17.7-2.5,26.6c2.4-0.5,5.9-0.9,10-0.5c5.4,0.6,9.5,2.4,12,3.7c0.7,0.3,2.3,1.1,3.4,3
				c0.3,0.6,1.2,2,1.1,3.8c-0.2,2.3-1.6,4.3-3.6,5.4l-7.8,4l-0.2,1.2l1.1,0.9l15.4-1.9c0.7-0.4,1.7-1.2,2.7-2.2
				C94.5,149.5,95.1,148,95.4,147.1z"/>
		</g>
		<g>
			<defs>
				<path id="SVGID_29_" d="M95.4,147.1c0.1-3,0.2-6,0.3-9c0.2-3.8-1.8-7.4-5.2-9.2c-4.9-2.2-10.8-5.5-17.1-10.4
					c-5-3.9-8.9-7.9-11.9-11.4c-0.8,8.9-1.6,17.7-2.5,26.6c2.4-0.5,5.9-0.9,10-0.5c5.4,0.6,9.5,2.4,12,3.7c0.7,0.3,2.3,1.1,3.4,3
					c0.3,0.6,1.2,2,1.1,3.8c-0.2,2.3-1.6,4.3-3.6,5.4l-7.8,4l-0.2,1.2l1.1,0.9l15.4-1.9c0.7-0.4,1.7-1.2,2.7-2.2
					C94.5,149.5,95.1,148,95.4,147.1z"/>
			</defs>
			<clipPath id="SVGID_30_">
				<use xlink:href="#SVGID_29_"  style="overflow:visible;"/>
			</clipPath>
			<path class="st28" d="M66.9,112.6l3.2,6.8c2.3,4.8,5.6,9,9.7,12.3l6.9,5.5c1.8,1.4,2.7,3.7,2.5,6l0,0c-0.3,3.5-2.7,6.5-6,7.7
				l-9.2,3.3L54.4,134l2.5-27.2L66.9,112.6L66.9,112.6"/>
		</g>
	</g>
	<g>
		<g>
			<path id="XMLID_62_" class="st27" d="M25.4,127.5c-0.2,1.1-0.7,4.9,1.5,9c2.2,3.9,5.6,5.4,6.6,5.9c0.1,0.6,1,4,4.2,5.9
				c3,1.7,6.8,1.5,9.9-0.6c0.6,0.2,4.6,1.6,8.7-0.6c4-2.1,5.1-6,5.3-6.6c1.2-0.5,3.6-1.8,5.4-4.5c2.9-4.2,2.2-8.7,2-9.7
				c0.4-0.8,3.3-7.1,0.2-12.7c-1-1.8-2.3-2.9-3.4-3.7c0.1-0.3,1.3-5.4-2.3-9.1c-2.9-2.9-6.7-2.8-7.3-2.8c-1.9-3.6-5.6-5.9-9.6-5.7
				c-5,0.2-7.7,4.2-8,4.6c-0.7,0-4.4,0-7.4,2.9c-3.2,3.2-3.1,7.2-3.1,7.9c-1.1,1.2-3.6,4.4-4.3,9.3C22.9,122,24.7,126,25.4,127.5z"
				/>
		</g>
		<g>
			<defs>
				<path id="SVGID_31_" d="M25.4,127.5c-0.2,1.1-0.7,4.9,1.5,9c2.2,3.9,5.6,5.4,6.6,5.9c0.1,0.6,1,4,4.2,5.9c3,1.7,6.8,1.5,9.9-0.6
					c0.6,0.2,4.6,1.6,8.7-0.6c4-2.1,5.1-6,5.3-6.6c1.2-0.5,3.6-1.8,5.4-4.5c2.9-4.2,2.2-8.7,2-9.7c0.4-0.8,3.3-7.1,0.2-12.7
					c-1-1.8-2.3-2.9-3.4-3.7c0.1-0.3,1.3-5.4-2.3-9.1c-2.9-2.9-6.7-2.8-7.3-2.8c-1.9-3.6-5.6-5.9-9.6-5.7c-5,0.2-7.7,4.2-8,4.6
					c-0.7,0-4.4,0-7.4,2.9c-3.2,3.2-3.1,7.2-3.1,7.9c-1.1,1.2-3.6,4.4-4.3,9.3C22.9,122,24.7,126,25.4,127.5z"/>
			</defs>
			<clipPath id="SVGID_32_">
				<use xlink:href="#SVGID_31_"  style="overflow:visible;"/>
			</clipPath>
			<path class="st29" d="M32.2,105.6c1-0.7,1.7-1.7,2.4-2.7c1.4-2,2.8-4.2,2.5-6.7c-3.3-0.9-7-0.2-9.7,1.9c-1.2,0.9-2.3,2.2-2.6,3.7
				c-0.2,1.3,0.2,2.7,1.3,3.5c0.5,0.3,1.1,0.5,1.7,0.7c0.7,0.3,1.4,0.4,2.1,0.4C30.7,106.3,31.5,106.1,32.2,105.6z"/>
		</g>
		<g>
			<defs>
				<path id="SVGID_33_" d="M25.4,127.5c-0.2,1.1-0.7,4.9,1.5,9c2.2,3.9,5.6,5.4,6.6,5.9c0.1,0.6,1,4,4.2,5.9c3,1.7,6.8,1.5,9.9-0.6
					c0.6,0.2,4.6,1.6,8.7-0.6c4-2.1,5.1-6,5.3-6.6c1.2-0.5,3.6-1.8,5.4-4.5c2.9-4.2,2.2-8.7,2-9.7c0.4-0.8,3.3-7.1,0.2-12.7
					c-1-1.8-2.3-2.9-3.4-3.7c0.1-0.3,1.3-5.4-2.3-9.1c-2.9-2.9-6.7-2.8-7.3-2.8c-1.9-3.6-5.6-5.9-9.6-5.7c-5,0.2-7.7,4.2-8,4.6
					c-0.7,0-4.4,0-7.4,2.9c-3.2,3.2-3.1,7.2-3.1,7.9c-1.1,1.2-3.6,4.4-4.3,9.3C22.9,122,24.7,126,25.4,127.5z"/>
			</defs>
			<clipPath id="SVGID_34_">
				<use xlink:href="#SVGID_33_"  style="overflow:visible;"/>
			</clipPath>
			<path class="st30" d="M26.2,105.5l11.9,8.3c1.3,0.9,2.7,1.8,4.2,2.5l5.9,2.8c0.1,0.1,0.2,0.2,0.2,0.4l-0.2,1.9
				c-0.2,1.7,0,3.5,0.4,5.1l0.3,1.3c0.4,1.6,1.5,2.8,3,3.4l1.4,0.5c1.8,0.7,3.8,0.5,5.5-0.4l0,0c1.2-0.7,2.2-1.8,2.6-3.1l1.4-4.2
				c0.1-0.2,0.3-0.3,0.5-0.2l5.4,2.1c0.2,0.1,0.4,0,0.4-0.2l4.2-7.3c0.1-0.1,0.1-0.2,0-0.3L65,96.7c0-0.1-0.1-0.1-0.1-0.2l-10.8-7.9
				c-0.1-0.1-0.2-0.1-0.3-0.1l-11.2,2h-0.1L31.2,97c-0.1,0-0.1,0.1-0.1,0.1l-4.7,7.8"/>
		</g>
		<g>
			<defs>
				<path id="SVGID_35_" d="M25.4,127.5c-0.2,1.1-0.7,4.9,1.5,9c2.2,3.9,5.6,5.4,6.6,5.9c0.1,0.6,1,4,4.2,5.9c3,1.7,6.8,1.5,9.9-0.6
					c0.6,0.2,4.6,1.6,8.7-0.6c4-2.1,5.1-6,5.3-6.6c1.2-0.5,3.6-1.8,5.4-4.5c2.9-4.2,2.2-8.7,2-9.7c0.4-0.8,3.3-7.1,0.2-12.7
					c-1-1.8-2.3-2.9-3.4-3.7c0.1-0.3,1.3-5.4-2.3-9.1c-2.9-2.9-6.7-2.8-7.3-2.8c-1.9-3.6-5.6-5.9-9.6-5.7c-5,0.2-7.7,4.2-8,4.6
					c-0.7,0-4.4,0-7.4,2.9c-3.2,3.2-3.1,7.2-3.1,7.9c-1.1,1.2-3.6,4.4-4.3,9.3C22.9,122,24.7,126,25.4,127.5z"/>
			</defs>
			<clipPath id="SVGID_36_">
				<use xlink:href="#SVGID_35_"  style="overflow:visible;"/>
			</clipPath>
			<path class="st31" d="M28.3,115.7c-0.4,2.8-1.4,5.5-1.4,8.3c-0.1,2.4,0.5,4.7,1.4,6.9c2.5,6.3,7.8,11.5,14.2,14
				c1.2,0.5,2.5,0.9,3.6,1.6c1.1,0.7,1.9,2,1.9,3.3c-0.1,1.3-1.1,2.5-2.3,3c-1.2,0.6-2.6,0.7-3.9,0.8c-3.4,0.3-6.9,0.6-10.3,0.1
				s-6.8-1.7-9.2-4.1c-2.5-2.5-3.8-6-4.8-9.5c-1.3-4.5-2.2-9.1-2.8-13.7c-0.3-2.4-0.5-4.9,0-7.3c0.7-2.8,2.4-5.2,4.5-7.1
				c0.9-0.9,1.9-1.6,2.9-2.3c0.9-0.6,1.9-1.5,3-1.7c2.2-0.5,3.1,1.8,3.4,3.6C28.6,112.9,28.5,114.3,28.3,115.7z"/>
		</g>
		<g>
			<defs>
				<path id="SVGID_37_" d="M25.4,127.5c-0.2,1.1-0.7,4.9,1.5,9c2.2,3.9,5.6,5.4,6.6,5.9c0.1,0.6,1,4,4.2,5.9c3,1.7,6.8,1.5,9.9-0.6
					c0.6,0.2,4.6,1.6,8.7-0.6c4-2.1,5.1-6,5.3-6.6c1.2-0.5,3.6-1.8,5.4-4.5c2.9-4.2,2.2-8.7,2-9.7c0.4-0.8,3.3-7.1,0.2-12.7
					c-1-1.8-2.3-2.9-3.4-3.7c0.1-0.3,1.3-5.4-2.3-9.1c-2.9-2.9-6.7-2.8-7.3-2.8c-1.9-3.6-5.6-5.9-9.6-5.7c-5,0.2-7.7,4.2-8,4.6
					c-0.7,0-4.4,0-7.4,2.9c-3.2,3.2-3.1,7.2-3.1,7.9c-1.1,1.2-3.6,4.4-4.3,9.3C22.9,122,24.7,126,25.4,127.5z"/>
			</defs>
			<clipPath id="SVGID_38_">
				<use xlink:href="#SVGID_37_"  style="overflow:visible;"/>
			</clipPath>
			<path class="st32" d="M50,146.3c-0.6,0.7-1.2,1.5-1,2.4c0.2,0.7,0.8,1.2,1.4,1.4c0.7,0.2,1.4,0.2,2,0.1c2.6-0.2,5.3-0.7,7.3-2.3
				c1.1-0.8,1.9-2,2.3-3.4c0.3-0.9,0.6-2.8-0.3-3.5c-0.4-0.4-1.2-0.1-1.7-0.1c-0.7,0.1-1.5,0.3-2.2,0.5c-1.4,0.4-2.8,1-4.1,1.8
				C52.4,144.1,51.1,145.1,50,146.3z"/>
		</g>
		<g>
			<defs>
				<path id="SVGID_39_" d="M25.4,127.5c-0.2,1.1-0.7,4.9,1.5,9c2.2,3.9,5.6,5.4,6.6,5.9c0.1,0.6,1,4,4.2,5.9c3,1.7,6.8,1.5,9.9-0.6
					c0.6,0.2,4.6,1.6,8.7-0.6c4-2.1,5.1-6,5.3-6.6c1.2-0.5,3.6-1.8,5.4-4.5c2.9-4.2,2.2-8.7,2-9.7c0.4-0.8,3.3-7.1,0.2-12.7
					c-1-1.8-2.3-2.9-3.4-3.7c0.1-0.3,1.3-5.4-2.3-9.1c-2.9-2.9-6.7-2.8-7.3-2.8c-1.9-3.6-5.6-5.9-9.6-5.7c-5,0.2-7.7,4.2-8,4.6
					c-0.7,0-4.4,0-7.4,2.9c-3.2,3.2-3.1,7.2-3.1,7.9c-1.1,1.2-3.6,4.4-4.3,9.3C22.9,122,24.7,126,25.4,127.5z"/>
			</defs>
			<clipPath id="SVGID_40_">
				<use xlink:href="#SVGID_39_"  style="overflow:visible;"/>
			</clipPath>
			<path class="st33" d="M24.8,105.4c6.4,8.6,16.9,12,26.7,14.9c0.6,0.2,1.3,0,1.8-0.3c0.2-0.1,0.8-0.7,0.3-0.8
				c-9.8-2.9-20.1-6.2-26.4-14.7C26.7,103.9,24.3,104.8,24.8,105.4L24.8,105.4z"/>
		</g>
		<g>
			<defs>
				<path id="SVGID_41_" d="M25.4,127.5c-0.2,1.1-0.7,4.9,1.5,9c2.2,3.9,5.6,5.4,6.6,5.9c0.1,0.6,1,4,4.2,5.9c3,1.7,6.8,1.5,9.9-0.6
					c0.6,0.2,4.6,1.6,8.7-0.6c4-2.1,5.1-6,5.3-6.6c1.2-0.5,3.6-1.8,5.4-4.5c2.9-4.2,2.2-8.7,2-9.7c0.4-0.8,3.3-7.1,0.2-12.7
					c-1-1.8-2.3-2.9-3.4-3.7c0.1-0.3,1.3-5.4-2.3-9.1c-2.9-2.9-6.7-2.8-7.3-2.8c-1.9-3.6-5.6-5.9-9.6-5.7c-5,0.2-7.7,4.2-8,4.6
					c-0.7,0-4.4,0-7.4,2.9c-3.2,3.2-3.1,7.2-3.1,7.9c-1.1,1.2-3.6,4.4-4.3,9.3C22.9,122,24.7,126,25.4,127.5z"/>
			</defs>
			<clipPath id="SVGID_42_">
				<use xlink:href="#SVGID_41_"  style="overflow:visible;"/>
			</clipPath>
			<path class="st34" d="M22.7,129.8c4.6-1.7,9.5-2.9,14.4-3.4s9.9-0.2,14.8-1.1c0.5-0.1,1.2-0.6,1-1.2s-1-0.6-1.5-0.5
				c-5,0.9-10.3,0.4-15.3,1.1c-5,0.6-9.8,1.9-14.5,3.6c-0.5,0.2-0.9,0.8-0.6,1.3C21.3,130.2,22.2,130,22.7,129.8L22.7,129.8z"/>
		</g>
		<g>
			<defs>
				<path id="SVGID_43_" d="M25.4,127.5c-0.2,1.1-0.7,4.9,1.5,9c2.2,3.9,5.6,5.4,6.6,5.9c0.1,0.6,1,4,4.2,5.9c3,1.7,6.8,1.5,9.9-0.6
					c0.6,0.2,4.6,1.6,8.7-0.6c4-2.1,5.1-6,5.3-6.6c1.2-0.5,3.6-1.8,5.4-4.5c2.9-4.2,2.2-8.7,2-9.7c0.4-0.8,3.3-7.1,0.2-12.7
					c-1-1.8-2.3-2.9-3.4-3.7c0.1-0.3,1.3-5.4-2.3-9.1c-2.9-2.9-6.7-2.8-7.3-2.8c-1.9-3.6-5.6-5.9-9.6-5.7c-5,0.2-7.7,4.2-8,4.6
					c-0.7,0-4.4,0-7.4,2.9c-3.2,3.2-3.1,7.2-3.1,7.9c-1.1,1.2-3.6,4.4-4.3,9.3C22.9,122,24.7,126,25.4,127.5z"/>
			</defs>
			<clipPath id="SVGID_44_">
				<use xlink:href="#SVGID_43_"  style="overflow:visible;"/>
			</clipPath>
			<path class="st35" d="M32.1,147.8c2.2-4.4,4.4-8.9,7.8-12.5c3.6-3.7,8.4-5.7,13.1-7.5c0.3-0.1,1-0.5,0.7-1
				c-0.3-0.4-1.3-0.2-1.6,0c-5,1.9-10,4-13.8,7.9c-3.7,3.7-6.1,8.4-8.4,13.1C29.3,148.8,31.8,148.5,32.1,147.8L32.1,147.8z"/>
		</g>
		<g>
			<defs>
				<path id="SVGID_45_" d="M25.4,127.5c-0.2,1.1-0.7,4.9,1.5,9c2.2,3.9,5.6,5.4,6.6,5.9c0.1,0.6,1,4,4.2,5.9c3,1.7,6.8,1.5,9.9-0.6
					c0.6,0.2,4.6,1.6,8.7-0.6c4-2.1,5.1-6,5.3-6.6c1.2-0.5,3.6-1.8,5.4-4.5c2.9-4.2,2.2-8.7,2-9.7c0.4-0.8,3.3-7.1,0.2-12.7
					c-1-1.8-2.3-2.9-3.4-3.7c0.1-0.3,1.3-5.4-2.3-9.1c-2.9-2.9-6.7-2.8-7.3-2.8c-1.9-3.6-5.6-5.9-9.6-5.7c-5,0.2-7.7,4.2-8,4.6
					c-0.7,0-4.4,0-7.4,2.9c-3.2,3.2-3.1,7.2-3.1,7.9c-1.1,1.2-3.6,4.4-4.3,9.3C22.9,122,24.7,126,25.4,127.5z"/>
			</defs>
			<clipPath id="SVGID_46_">
				<use xlink:href="#SVGID_45_"  style="overflow:visible;"/>
			</clipPath>
			<path class="st36" d="M51.6,153.4c-1.9-3.4-2.2-7.4-2.3-11.2c0-2.1,0.2-3.8,1.2-5.6c0.9-1.8,2.1-3.5,3.4-5c1-1.1-1.4-1.2-2-0.5
				c-1.3,1.6-2.5,3.2-3.5,5.1c-1.1,1.9-1.5,3.7-1.5,6c0,4.1,0.3,8.3,2.3,12C49.5,154.9,52,154.1,51.6,153.4L51.6,153.4z"/>
		</g>
		<g>
			<defs>
				<path id="SVGID_47_" d="M25.4,127.5c-0.2,1.1-0.7,4.9,1.5,9c2.2,3.9,5.6,5.4,6.6,5.9c0.1,0.6,1,4,4.2,5.9c3,1.7,6.8,1.5,9.9-0.6
					c0.6,0.2,4.6,1.6,8.7-0.6c4-2.1,5.1-6,5.3-6.6c1.2-0.5,3.6-1.8,5.4-4.5c2.9-4.2,2.2-8.7,2-9.7c0.4-0.8,3.3-7.1,0.2-12.7
					c-1-1.8-2.3-2.9-3.4-3.7c0.1-0.3,1.3-5.4-2.3-9.1c-2.9-2.9-6.7-2.8-7.3-2.8c-1.9-3.6-5.6-5.9-9.6-5.7c-5,0.2-7.7,4.2-8,4.6
					c-0.7,0-4.4,0-7.4,2.9c-3.2,3.2-3.1,7.2-3.1,7.9c-1.1,1.2-3.6,4.4-4.3,9.3C22.9,122,24.7,126,25.4,127.5z"/>
			</defs>
			<clipPath id="SVGID_48_">
				<use xlink:href="#SVGID_47_"  style="overflow:visible;"/>
			</clipPath>
			<path class="st37" d="M65.8,142.2c-2.1-2-3.8-4.3-5-7c-1.3-2.7-2.3-5.8-1.8-8.8c0.1-1-2.4-0.6-2.5,0.3c-0.4,3.1,0.5,6.4,1.8,9.2
				c1.3,2.7,3,5.2,5.2,7.3C64.2,143.8,66.5,142.9,65.8,142.2L65.8,142.2z"/>
		</g>
		<g>
			<defs>
				<path id="SVGID_49_" d="M25.4,127.5c-0.2,1.1-0.7,4.9,1.5,9c2.2,3.9,5.6,5.4,6.6,5.9c0.1,0.6,1,4,4.2,5.9c3,1.7,6.8,1.5,9.9-0.6
					c0.6,0.2,4.6,1.6,8.7-0.6c4-2.1,5.1-6,5.3-6.6c1.2-0.5,3.6-1.8,5.4-4.5c2.9-4.2,2.2-8.7,2-9.7c0.4-0.8,3.3-7.1,0.2-12.7
					c-1-1.8-2.3-2.9-3.4-3.7c0.1-0.3,1.3-5.4-2.3-9.1c-2.9-2.9-6.7-2.8-7.3-2.8c-1.9-3.6-5.6-5.9-9.6-5.7c-5,0.2-7.7,4.2-8,4.6
					c-0.7,0-4.4,0-7.4,2.9c-3.2,3.2-3.1,7.2-3.1,7.9c-1.1,1.2-3.6,4.4-4.3,9.3C22.9,122,24.7,126,25.4,127.5z"/>
			</defs>
			<clipPath id="SVGID_50_">
				<use xlink:href="#SVGID_49_"  style="overflow:visible;"/>
			</clipPath>
			<path class="st38" d="M34.9,92c4.2,10.8,11.6,19.8,18.9,28.6c0.6,0.7,2.9-0.2,2.3-1c-7.2-8.7-14.5-17.6-18.7-28.3
				C37,90.4,34.6,91.2,34.9,92L34.9,92z"/>
		</g>
		<g>
			<defs>
				<path id="SVGID_51_" d="M25.4,127.5c-0.2,1.1-0.7,4.9,1.5,9c2.2,3.9,5.6,5.4,6.6,5.9c0.1,0.6,1,4,4.2,5.9c3,1.7,6.8,1.5,9.9-0.6
					c0.6,0.2,4.6,1.6,8.7-0.6c4-2.1,5.1-6,5.3-6.6c1.2-0.5,3.6-1.8,5.4-4.5c2.9-4.2,2.2-8.7,2-9.7c0.4-0.8,3.3-7.1,0.2-12.7
					c-1-1.8-2.3-2.9-3.4-3.7c0.1-0.3,1.3-5.4-2.3-9.1c-2.9-2.9-6.7-2.8-7.3-2.8c-1.9-3.6-5.6-5.9-9.6-5.7c-5,0.2-7.7,4.2-8,4.6
					c-0.7,0-4.4,0-7.4,2.9c-3.2,3.2-3.1,7.2-3.1,7.9c-1.1,1.2-3.6,4.4-4.3,9.3C22.9,122,24.7,126,25.4,127.5z"/>
			</defs>
			<clipPath id="SVGID_52_">
				<use xlink:href="#SVGID_51_"  style="overflow:visible;"/>
			</clipPath>
			<path class="st39" d="M56.8,93.8c-0.5,2.1-1.6,4-2.3,6.1c-0.6,2.1-0.9,4.2-1,6.4c-0.2,4.4,0.4,8.8,0,13.2
				c-0.1,1.1,2.4,0.7,2.5-0.3c0.4-4.4-0.2-8.8,0-13.2c0.1-2.1,0.3-4.2,0.9-6.2c0.6-2.1,1.8-4.1,2.3-6.3C59.5,92.5,57,92.8,56.8,93.8
				L56.8,93.8z"/>
		</g>
		<g>
			<defs>
				<path id="SVGID_53_" d="M25.4,127.5c-0.2,1.1-0.7,4.9,1.5,9c2.2,3.9,5.6,5.4,6.6,5.9c0.1,0.6,1,4,4.2,5.9c3,1.7,6.8,1.5,9.9-0.6
					c0.6,0.2,4.6,1.6,8.7-0.6c4-2.1,5.1-6,5.3-6.6c1.2-0.5,3.6-1.8,5.4-4.5c2.9-4.2,2.2-8.7,2-9.7c0.4-0.8,3.3-7.1,0.2-12.7
					c-1-1.8-2.3-2.9-3.4-3.7c0.1-0.3,1.3-5.4-2.3-9.1c-2.9-2.9-6.7-2.8-7.3-2.8c-1.9-3.6-5.6-5.9-9.6-5.7c-5,0.2-7.7,4.2-8,4.6
					c-0.7,0-4.4,0-7.4,2.9c-3.2,3.2-3.1,7.2-3.1,7.9c-1.1,1.2-3.6,4.4-4.3,9.3C22.9,122,24.7,126,25.4,127.5z"/>
			</defs>
			<clipPath id="SVGID_54_">
				<use xlink:href="#SVGID_53_"  style="overflow:visible;"/>
			</clipPath>
			<path class="st40" d="M70.3,106.5c-3,0.7-5.4,2.5-7.1,5.1c-1.9,2.8-3.7,5.6-5.6,8.5c-0.3,0.5,0.3,0.8,0.7,0.8
				c0.6,0,1.3-0.2,1.6-0.7c1.7-2.6,3.4-5.1,5-7.7c0.7-1.1,1.5-2.3,2.5-3.1c0.9-0.8,2-1.2,3.1-1.5c0.4-0.1,1.2-0.5,1.1-1
				C71.6,106.3,70.7,106.4,70.3,106.5L70.3,106.5z"/>
		</g>
		<g>
			<defs>
				<path id="SVGID_55_" d="M25.4,127.5c-0.2,1.1-0.7,4.9,1.5,9c2.2,3.9,5.6,5.4,6.6,5.9c0.1,0.6,1,4,4.2,5.9c3,1.7,6.8,1.5,9.9-0.6
					c0.6,0.2,4.6,1.6,8.7-0.6c4-2.1,5.1-6,5.3-6.6c1.2-0.5,3.6-1.8,5.4-4.5c2.9-4.2,2.2-8.7,2-9.7c0.4-0.8,3.3-7.1,0.2-12.7
					c-1-1.8-2.3-2.9-3.4-3.7c0.1-0.3,1.3-5.4-2.3-9.1c-2.9-2.9-6.7-2.8-7.3-2.8c-1.9-3.6-5.6-5.9-9.6-5.7c-5,0.2-7.7,4.2-8,4.6
					c-0.7,0-4.4,0-7.4,2.9c-3.2,3.2-3.1,7.2-3.1,7.9c-1.1,1.2-3.6,4.4-4.3,9.3C22.9,122,24.7,126,25.4,127.5z"/>
			</defs>
			<clipPath id="SVGID_56_">
				<use xlink:href="#SVGID_55_"  style="overflow:visible;"/>
			</clipPath>
			<path class="st41" d="M77.5,132.6c-3.3-7-11.2-9-18.1-10c-1.2-0.2-2.5,1.5-0.9,1.7c6.2,0.9,13.6,2.7,16.5,9
				C75.5,134.3,77.9,133.5,77.5,132.6L77.5,132.6z"/>
		</g>
		<g>
			<defs>
				<path id="SVGID_57_" d="M25.4,127.5c-0.2,1.1-0.7,4.9,1.5,9c2.2,3.9,5.6,5.4,6.6,5.9c0.1,0.6,1,4,4.2,5.9c3,1.7,6.8,1.5,9.9-0.6
					c0.6,0.2,4.6,1.6,8.7-0.6c4-2.1,5.1-6,5.3-6.6c1.2-0.5,3.6-1.8,5.4-4.5c2.9-4.2,2.2-8.7,2-9.7c0.4-0.8,3.3-7.1,0.2-12.7
					c-1-1.8-2.3-2.9-3.4-3.7c0.1-0.3,1.3-5.4-2.3-9.1c-2.9-2.9-6.7-2.8-7.3-2.8c-1.9-3.6-5.6-5.9-9.6-5.7c-5,0.2-7.7,4.2-8,4.6
					c-0.7,0-4.4,0-7.4,2.9c-3.2,3.2-3.1,7.2-3.1,7.9c-1.1,1.2-3.6,4.4-4.3,9.3C22.9,122,24.7,126,25.4,127.5z"/>
			</defs>
			<clipPath id="SVGID_58_">
				<use xlink:href="#SVGID_57_"  style="overflow:visible;"/>
			</clipPath>
			<path class="st42" d="M34.1,105.9c2.2-1.6,3.4-4.2,4-6.8c0.2-1,0.3-2.1-0.4-2.8c-0.6-0.6-1.5-0.7-2.3-0.7
				c-4.2,0.1-8.2,2.9-9.8,6.8c-0.6,1.4-0.5,3.4,0.9,4.3c0.5,0.3,1.1,0.4,1.7,0.5c0.9,0.1,1.8,0.2,2.8,0
				C32.2,107,33.2,106.5,34.1,105.9z"/>
		</g>
		<g>
			<defs>
				<path id="SVGID_59_" d="M25.4,127.5c-0.2,1.1-0.7,4.9,1.5,9c2.2,3.9,5.6,5.4,6.6,5.9c0.1,0.6,1,4,4.2,5.9c3,1.7,6.8,1.5,9.9-0.6
					c0.6,0.2,4.6,1.6,8.7-0.6c4-2.1,5.1-6,5.3-6.6c1.2-0.5,3.6-1.8,5.4-4.5c2.9-4.2,2.2-8.7,2-9.7c0.4-0.8,3.3-7.1,0.2-12.7
					c-1-1.8-2.3-2.9-3.4-3.7c0.1-0.3,1.3-5.4-2.3-9.1c-2.9-2.9-6.7-2.8-7.3-2.8c-1.9-3.6-5.6-5.9-9.6-5.7c-5,0.2-7.7,4.2-8,4.6
					c-0.7,0-4.4,0-7.4,2.9c-3.2,3.2-3.1,7.2-3.1,7.9c-1.1,1.2-3.6,4.4-4.3,9.3C22.9,122,24.7,126,25.4,127.5z"/>
			</defs>
			<clipPath id="SVGID_60_">
				<use xlink:href="#SVGID_59_"  style="overflow:visible;"/>
			</clipPath>
			<path class="st43" d="M42.5,97.5c2.9,0.7,5.8,1.4,8.7,2.1c0.8,0.2,1.7,0.4,2.5,0.2c1.4-0.3,2.4-1.9,2.4-3.3c0-1.8-1-3.5-2.4-4.7
				c-2.2-1.9-5.2-2.7-8-2.2c-1.9,0.3-3.6,1.2-5,2.4c-1.1,1-2.7,2.8-1.1,4.2C40.3,96.9,41.5,97.2,42.5,97.5z"/>
		</g>
		<g>
			<defs>
				<path id="SVGID_61_" d="M25.4,127.5c-0.2,1.1-0.7,4.9,1.5,9c2.2,3.9,5.6,5.4,6.6,5.9c0.1,0.6,1,4,4.2,5.9c3,1.7,6.8,1.5,9.9-0.6
					c0.6,0.2,4.6,1.6,8.7-0.6c4-2.1,5.1-6,5.3-6.6c1.2-0.5,3.6-1.8,5.4-4.5c2.9-4.2,2.2-8.7,2-9.7c0.4-0.8,3.3-7.1,0.2-12.7
					c-1-1.8-2.3-2.9-3.4-3.7c0.1-0.3,1.3-5.4-2.3-9.1c-2.9-2.9-6.7-2.8-7.3-2.8c-1.9-3.6-5.6-5.9-9.6-5.7c-5,0.2-7.7,4.2-8,4.6
					c-0.7,0-4.4,0-7.4,2.9c-3.2,3.2-3.1,7.2-3.1,7.9c-1.1,1.2-3.6,4.4-4.3,9.3C22.9,122,24.7,126,25.4,127.5z"/>
			</defs>
			<clipPath id="SVGID_62_">
				<use xlink:href="#SVGID_61_"  style="overflow:visible;"/>
			</clipPath>
			<path class="st44" d="M57.4,101.8c0.6,1.1,1.8,1.7,2.8,2.5c1.2,1,2,2.3,2.5,3.8c0.2,0.7,0.4,1.5,1,1.9c0.9,0.5,2-0.2,2.6-1
				c0.9-1.4,1.1-3.1,1.3-4.7c0.1-1.5,0.2-3.2-0.5-4.5s-2.1-2.1-3.6-2.5c-1.3-0.3-3-0.5-4.3-0.2c-1,0.2-1.7,1.4-2,2.3
				C56.9,100.2,57,101.1,57.4,101.8z"/>
		</g>
	</g>
	<ellipse class="st45" cx="54.8" cy="122.3" rx="7.8" ry="9.8"/>
	<ellipse class="st27" cx="72.7" cy="154.6" rx="5.6" ry="5.2"/>
	<ellipse class="st46" cx="72.9" cy="154.4" rx="3.6" ry="3.6"/>
	
		<ellipse transform="matrix(0.9981 -6.142300e-02 6.142300e-02 0.9981 -9.3522 4.7693)" class="st27" cx="72.9" cy="154.5" rx="2.7" ry="2.8"/>
	<rect x="69.7" y="155.9" class="st46" width="0.8" height="6.2"/>
	<path class="st47" d="M199.5,94.8"/>
	<path class="st47" d="M192.2,94.8"/>
</g>
</svg>
