<?xml version="1.0" encoding="utf-8"?>
<!-- Generator: Adobe Illustrator 25.2.1, SVG Export Plug-In . SVG Version: 6.00 Build 0)  -->
<svg version="1.1" id="Layer_3" xmlns="http://www.w3.org/2000/svg" xmlns:xlink="http://www.w3.org/1999/xlink" x="0px" y="0px"
	 viewBox="0 0 250 250" style="enable-background:new 0 0 250 250;" xml:space="preserve">
<style type="text/css">
	.st0{fill:#F4EEC3;}
	.st1{fill:none;stroke:#F4EEC3;stroke-width:2;stroke-linecap:round;stroke-miterlimit:10;}
	.st2{fill:none;stroke:#F4EEC3;stroke-width:2;stroke-linecap:round;stroke-linejoin:round;stroke-miterlimit:10;}
</style>
<g>
	<ellipse class="st0" cx="52" cy="56.7" rx="3.7" ry="3.7"/>
	<line class="st1" x1="50" y1="43.1" x2="54.5" y2="55.3"/>
</g>
<g>
	<ellipse class="st0" cx="66" cy="41.4" rx="3.7" ry="3.7"/>
	<path class="st1" d="M73.5,35.5c0,0,1.6-1.6,0.5-3.4c-1.1-1.9-2-3.1-2.2-4.7c-0.2-1.6-3.3,14.5-3.3,14.5"/>
</g>
<g>
	<ellipse class="st0" cx="44.2" cy="20.4" rx="3.7" ry="3.7"/>
	<ellipse class="st0" cx="54.3" cy="21" rx="3.7" ry="3.7"/>
	<polyline class="st2" points="57,21.7 59,11.3 48.9,10.3 46.8,21.2 	"/>
</g>
<ellipse class="st0" cx="205.9" cy="72.5" rx="3.7" ry="3.7"/>
<path class="st1" d="M213.9,63.3c-1.1-1.9-2-3.1-2.2-4.7s-3.3,14.5-3.3,14.5"/>
<g>
	<ellipse class="st0" cx="184.1" cy="51.5" rx="3.7" ry="3.7"/>
	<ellipse class="st0" cx="194.3" cy="52.2" rx="3.7" ry="3.7"/>
	<polyline class="st2" points="197,52.9 199,42.5 188.9,41.5 186.7,52.4 	"/>
</g>
<ellipse transform="matrix(0.2642 -0.9645 0.9645 0.2642 -56.2066 369.7465)" class="st0" cx="214.2" cy="221.7" rx="3.7" ry="3.7"/>
<path class="st1" d="M224.4,214.9c-0.6-2.1-1.1-3.5-0.9-5.1s-7,13.1-7,13.1"/>
<g>
	
		<ellipse transform="matrix(0.2642 -0.9645 0.9645 0.2642 -42.5002 335.7209)" class="st0" cx="198.8" cy="195.7" rx="3.7" ry="3.7"/>
	<ellipse transform="matrix(0.2642 -0.9645 0.9645 0.2642 -38.6035 347.3694)" class="st0" cx="208.4" cy="199" rx="3.7" ry="3.7"/>
	<polyline class="st2" points="210.8,200.4 215.5,190.9 206,187.3 201,197.2 	"/>
</g>
</svg>
