<?xml version="1.0" encoding="utf-8"?>
<!-- Generator: Adobe Illustrator 25.2.1, SVG Export Plug-In . SVG Version: 6.00 Build 0)  -->
<svg version="1.1" id="Layer_1" xmlns="http://www.w3.org/2000/svg" xmlns:xlink="http://www.w3.org/1999/xlink" x="0px" y="0px"
	 viewBox="0 0 100 78.5" style="enable-background:new 0 0 100 78.5;" xml:space="preserve">
<style type="text/css">
	.st0{fill:#C2B59B;}
	.st1{fill:#123534;}
	.st2{fill:#F15A29;}
</style>
<path class="st0" d="M68.8,19.9c0,0.2,0,0.3-0.1,0.5L68.8,19.9L68.8,19.9z"/>
<path class="st1" d="M16.4,42.2c-2-1-3.7-2.3-4.8-4c-1.2-1.7-1.8-3.5-1.8-5.6c0-2.1,0.6-4,1.7-5.6c1.2-1.7,2.7-3,4.7-3.9
	c2-0.9,4.3-1.4,6.8-1.4c1.4,0,2.7,0.1,4,0.4c1.3,0.3,2.4,0.6,3.3,1.1l-1,4.7c-1.8-0.6-3.4-0.8-4.9-0.8c-2,0-3.5,0.5-4.6,1.4
	c-1.1,0.9-1.6,2.3-1.6,4.1c0,1.7,0.6,3.1,1.7,4.1c1.1,1,2.7,1.5,4.8,1.5c0.8,0,1.5-0.1,2.2-0.2c0.7-0.1,1.5-0.3,2.5-0.7l1.1,4.8
	c-2.2,1-4.6,1.6-7.1,1.6C20.7,43.6,18.5,43.1,16.4,42.2z"/>
<path class="st1" d="M50.5,34.5c0-0.2-0.1-0.3-0.1-0.5c0,0,0.1,0,0.1-0.1c1.5-0.6,2.7-1.3,3.4-2.2c0.3-0.4,0.6-0.9,0.8-1.4
	c0.2-0.4,0.3-0.9,0.3-1.4c0-0.2,0-0.5,0-0.7c0-1.2-0.4-2.3-1.3-3.2c-0.8-0.9-2-1.7-3.6-2.2c-1.5-0.5-3.3-0.8-5.3-0.8H34.3v21h7.7v-8
	h1.6l0.6,2.3l0.1,0.2c0.2,0.7,0.6,1.3,1,1.9c1.1,1.5,2.9,2.7,5.2,3.4c1,0.3,2.1,0.5,3.2,0.6c0.4,0,0.8,0,1.1,0
	c3.9,0,7.3-1.4,9.2-3.5c0.7-0.8,1.1-1.6,1.4-2.6V37h0.1c0-0.2,0-0.4,0-0.7v-8.5h-7.4v8.4h0c0,0.5-0.2,0.9-0.5,1.2
	c-0.6,0.9-1.8,1.4-3.1,1.4c-0.5,0-1-0.1-1.5-0.3c-0.8-0.3-1.4-0.8-1.8-1.4c-0.2-0.3-0.3-0.6-0.4-1 M50.7,36 M46.9,30.4
	c-0.7,0.3-1.9,0.5-3.7,0.5h-1.3v-4.2h2.4c1.3,0,2.2,0.2,2.8,0.5c0.6,0.3,0.9,0.8,0.9,1.5C48,29.5,47.6,30,46.9,30.4z"/>
<path class="st2" d="M65.2,17.5c-1.1-1-2.4-1.5-3.9-1.5c-1.4,0-2.7,0.5-3.8,1.4c-1.1,0.9-1.7,2.1-1.7,3.5c0,1.4,0.5,2.6,1.6,3.5
	c1.1,1,2.4,1.4,3.9,1.4c1.5,0,2.8-0.5,3.9-1.4c1.1-0.9,1.7-2.1,1.7-3.6C66.8,19.6,66.3,18.5,65.2,17.5z"/>
<path class="st1" d="M68.7,42l1.8-4.7c2.5,0.8,4.7,1.1,6.7,1.1c1.1,0,1.8-0.1,2.3-0.3c0.5-0.2,0.7-0.5,0.7-1c0-0.3-0.1-0.5-0.4-0.7
	c-0.3-0.2-0.8-0.5-1.6-0.7c-0.8-0.3-2-0.6-3.6-1c-2-0.5-3.5-1.3-4.6-2.4c-1.1-1.1-1.6-2.4-1.6-3.8c0-2.2,0.9-3.9,2.6-5.1
	c1.8-1.2,4.1-1.7,7.1-1.7c1.6,0,3.1,0.1,4.6,0.4c1.5,0.3,2.8,0.7,4,1.2l-2,4.6c-1.4-0.4-2.5-0.7-3.5-0.8c-1-0.2-2-0.3-2.9-0.3
	c-1.6,0-2.4,0.4-2.4,1.1c0,0.4,0.3,0.7,0.8,0.9c0.5,0.3,1.6,0.6,3.2,1c2.5,0.6,4.5,1.4,5.8,2.6c1.3,1.2,2,2.6,2,4.2
	c0,2.3-0.9,4-2.6,5.2c-1.7,1.2-4.3,1.8-7.7,1.8S71,43.1,68.7,42z"/>
<path class="st1" d="M12.2,47.1h6.1l2.9,12.2l2.9-12.2h6.4l-5.8,19.6h-6.9L12.2,47.1z"/>
<path class="st1" d="M42.6,47.1h5.9v15.2h6.5v4.3H42.6V47.1z"/>
<path class="st1" d="M57.6,47.1h5.9v15.2H70v4.3H57.6V47.1z"/>
<rect x="33" y="46.8" class="st1" width="5.8" height="19.6"/>
<path class="st1" d="M87.6,54.7c0-0.2,0-0.4,0-0.6c0,0,0,0,0,0c-0.3-4-4.6-7.1-9.8-7.1c-0.2,0-0.3,0-0.5,0c-0.2,0-0.3,0-0.5,0v0
	h-5.5v4.1h5.5v0c0.1,0,0.1,0,0.2,0c0.4,0,0.8,0,1.2,0.1c0,0,0,0,0,0c0.6,0.1,1.2,0.3,1.7,0.6c0.9,0.4,1.5,1.1,1.8,1.8c0,0,0,0,0,0
	c0,0.1,0.1,0.1,0.1,0.2c0.1,0.3,0.1,0.6,0.1,0.9c0,0,0,0.1,0,0.1c0,0,0,0.1,0,0.1v1.4c-0.1-0.2-0.1-0.3-0.2-0.5
	c-0.1-0.2-0.2-0.3-0.3-0.5c0,0,0-0.1-0.1-0.1c-0.3-0.5-0.8-0.9-1.2-1.2c-0.8-0.5-1.7-0.8-2.6-0.8c-1.2,0-2.3,0.3-3.3,0.9
	c-0.3,0.2-0.6,0.3-0.8,0.5c-0.3,0.2-0.5,0.4-0.8,0.7c-0.1,0.1-0.2,0.2-0.2,0.3c-0.1,0.1-0.2,0.3-0.3,0.4c-0.1,0.2-0.2,0.3-0.3,0.5
	c-0.3,0.5-0.5,1-0.7,1.6c-0.2,0.6-0.2,1.2-0.2,1.9c0,0,0,0.1,0,0.1c0,1.2,0.3,2.3,0.9,3.3c0.6,1,1.4,1.9,2.5,2.5
	c1,0.6,2.1,0.9,3.3,0.9c2.1,0,3.5-0.9,4.5-2.6v2.4h5.7V55.1C87.6,55,87.6,54.8,87.6,54.7z M81.9,60.1c0,0.6-0.2,1.1-0.6,1.5
	c-0.1,0.1-0.1,0.2-0.2,0.3c-0.5,0.5-1.1,0.7-1.9,0.7c-0.6,0-1.1-0.1-1.6-0.5c-0.1-0.1-0.3-0.2-0.4-0.3c-0.5-0.5-0.8-1.1-0.8-1.9
	c0,0,0-0.1,0-0.1c0-0.6,0.2-1.1,0.6-1.6c0-0.1,0.1-0.1,0.2-0.2c0.5-0.5,1.2-0.8,1.9-0.8h0c0.3,0,0.6,0,0.8,0.1
	c0.4,0.1,0.7,0.3,1,0.6c0.4,0.4,0.7,0.8,0.8,1.3c0,0.1,0.1,0.3,0.1,0.5V60.1z"/>
</svg>
