<?xml version="1.0" encoding="utf-8"?>
<!-- Generator: Adobe Illustrator 25.2.1, SVG Export Plug-In . SVG Version: 6.00 Build 0)  -->
<svg version="1.1" id="Layer_2" xmlns="http://www.w3.org/2000/svg" xmlns:xlink="http://www.w3.org/1999/xlink" x="0px" y="0px"
	 viewBox="0 0 250 250" style="enable-background:new 0 0 250 250;" xml:space="preserve">
<style type="text/css">
	.st0{fill:#647B6A;}
</style>
<path class="st0" d="M73.5,199c0,6.1-5,11.1-11.1,11.1s-11.1-5-11.1-11.1c0-6.1,5-11.1,11.1-11.1S73.5,193,73.5,199z M59.9,194.9
	c-0.8,0-1.7,0.8-1.7,1.7v4.8c0,1,0.8,1.8,1.7,1.8s1.7-0.8,1.7-1.7v-5C61.7,195.7,60.9,194.9,59.9,194.9z M64.9,194.9
	c-1,0-1.8,0.8-1.8,1.7v4.8c0,1,0.8,1.7,1.7,1.7c0.8,0,1.8-0.7,1.8-1.5v-5C66.5,195.7,65.7,194.9,64.9,194.9z"/>
</svg>
