<?xml version="1.0" encoding="utf-8"?>
<!-- Generator: Adobe Illustrator 25.2.1, SVG Export Plug-In . SVG Version: 6.00 Build 0)  -->
<svg version="1.1" id="Layer_3" xmlns="http://www.w3.org/2000/svg" xmlns:xlink="http://www.w3.org/1999/xlink" x="0px" y="0px"
	 viewBox="0 0 250 250" style="enable-background:new 0 0 250 250;" xml:space="preserve">
<style type="text/css">
	.st0{fill:#647B6A;}
</style>
<path class="st0" d="M73.5,199.1c0,6.1-5,11.1-11.1,11.1c-6.1,0-11.1-5-11.1-11.1c0-6.1,5-11.1,11.1-11.1
	C68.5,188.1,73.5,193,73.5,199.1z M60.7,195.1c-0.3-0.3-0.7-0.1-1,0.1c-0.1,0.1-0.1,0.3-0.1,0.4v6.9c0,0.4,0.3,0.7,0.7,0.7
	c0.1,0,0.3,0,0.4-0.1l4.8-3.5c0.3-0.3,0.4-0.7,0.1-1l-0.1-0.1L60.7,195.1z"/>
</svg>
