<?xml version="1.0" encoding="utf-8"?>
<!-- Generator: Adobe Illustrator 25.2.1, SVG Export Plug-In . SVG Version: 6.00 Build 0)  -->
<svg version="1.1" id="Layer_3" xmlns="http://www.w3.org/2000/svg" xmlns:xlink="http://www.w3.org/1999/xlink" x="0px" y="0px"
	 viewBox="0 0 150 19.7" style="enable-background:new 0 0 150 19.7;" xml:space="preserve">
<style type="text/css">
	.st0{fill:#28635C;}
</style>
<g id="proj-separator">
	<path class="st0" d="M150.3,14.6l-16,2.7c-1.7,0.3-3.4,0.4-5,0.2l-6.2-0.5c-4-0.3-8.1,0-12,1l-1.7,0.4c-1.5,0.4-3,0.6-4.6,0.6
		l-5.5,0.1c-2.3,0-4.6-0.3-6.7-1l-2.1-0.7c-1.5-0.5-3.1-0.8-4.7-1.1l-1.5-0.2c-1.1-0.2-2.1-0.4-3.1-0.8l-2-0.6
		c-2.2-0.7-4.3-1.8-6.2-3.2l0,0c-1.1-0.8-2.3-1.4-3.5-1.7L55.4,6c-0.6-0.2-1.3-0.3-1.9-0.3L35.6,4.3c-0.6-0.1-1.2,0-1.8,0L17.9,5.9
		C14.2,6.3,10.4,5.6,7,4l-9.6-4.4h153.1L150.3,14.6z"/>
</g>
<path class="st0" d="M-0.5,6.3L8,5.8c1-0.1,2-0.1,2.9,0l22,1.7c3.1,0.2,6.1,1.2,8.8,2.9l6.5,4.1l0,0c3.4,2.2,7.1,3.6,11.1,4.2
	l4.5,0.6l9.7-0.7c4.1-0.3,8.3-0.2,12.3,0.2l5.3,0.5l13.7-0.2l13.1-7.1L75.5,2.4L-1.4-1.5L-0.5,6.3z"/>
</svg>
