<?xml version="1.0" encoding="utf-8"?>
<!-- Generator: Adobe Illustrator 25.2.1, SVG Export Plug-In . SVG Version: 6.00 Build 0)  -->
<svg version="1.1" id="Layer_2" xmlns="http://www.w3.org/2000/svg" xmlns:xlink="http://www.w3.org/1999/xlink" x="0px" y="0px"
	 viewBox="0 0 250 250" style="enable-background:new 0 0 250 250;" xml:space="preserve">
<style type="text/css">
	.st0{opacity:0.18;clip-path:url(#XMLID_2_);fill:#15433D;}
	.st1{opacity:0.31;clip-path:url(#XMLID_3_);fill:#F2CE8E;}
	.st2{clip-path:url(#XMLID_3_);fill:#F2CE8E;}
	.st3{opacity:0.28;clip-path:url(#XMLID_3_);fill:#F2CE8E;}
	.st4{opacity:0.54;clip-path:url(#XMLID_3_);fill:#F2CE8E;}
	.st5{opacity:0.18;clip-path:url(#XMLID_3_);fill:#E18655;}
	.st6{opacity:0.27;clip-path:url(#XMLID_3_);fill:#E18655;}
	.st7{opacity:0.24;clip-path:url(#XMLID_3_);fill:#E18655;}
	.st8{fill:#DF7D4A;}
	.st9{opacity:0.33;fill:#DF7D4A;}
	.st10{opacity:0.96;clip-path:url(#XMLID_4_);fill:#BD5840;}
	.st11{opacity:0.77;clip-path:url(#XMLID_4_);fill:#BD5840;}
	.st12{clip-path:url(#XMLID_4_);fill:#F4EEC3;}
	.st13{clip-path:url(#XMLID_4_);fill:#F2CE8E;}
	.st14{opacity:0.76;clip-path:url(#XMLID_5_);fill:#A33322;}
	.st15{clip-path:url(#XMLID_5_);fill:#F9F7E9;}
	.st16{opacity:0.5;clip-path:url(#XMLID_5_);fill:#F2CE8E;}
	.st17{clip-path:url(#XMLID_5_);}
	.st18{clip-path:url(#XMLID_6_);fill:#DF7D4A;}
	.st19{clip-path:url(#XMLID_5_);fill:#F2CE8E;}
	.st20{clip-path:url(#XMLID_5_);fill:#BD5840;}
</style>
<g>
	<g>
		<defs>
			<polygon id="XMLID_40_" points="46.2,58.6 42.7,58.9 42.7,61 58.6,79.9 81.6,88.7 82.8,92.3 90.8,92.5 91.5,89 116.6,76.8 
				116.6,74.5 112.8,74.5 86.5,84.4 56.8,72.9 			"/>
		</defs>
		<use xlink:href="#XMLID_40_"  style="overflow:visible;fill:#86A48F;"/>
		<clipPath id="XMLID_2_">
			<use xlink:href="#XMLID_40_"  style="overflow:visible;"/>
		</clipPath>
		<path class="st0" d="M42.2,57.8l17.5,20.1c-0.2,0.1-0.3,0.2-0.5,0.4c-0.9,0.9-0.9,2.2-0.9,2.6c7.6,2.7,15.1,5.5,22.7,8.2l1.5,4.7
			l11.3-0.5l23.4-15.8l0-3.2l-2.9-0.3L87.6,86.8L43.9,56.9l-1.8,0.6L42.2,57.8z"/>
	</g>
	<g>
		<defs>
			<path id="XMLID_22_" d="M44.7,59.4l15.7,18.4l23.4,9.9l0,2.7l5.9-0.1l0-3.1l24.8-12.6c0-0.9,0-1.8,0-2.8c0.1-1.3,0.2-2.5,0.3-3.6
				c-5.3-2.7-10.7-5.4-16-8.1c-0.2-0.1-0.4-0.1-0.6-0.1c-1.8,0.8-3.8,1.5-6,2.2c-4.8,1.4-9.2,2.1-12.9,2.4c-0.2,0-1.6-0.2-2.6,0.9
				c-0.6,0.6-0.8,1.4-0.8,1.7c-0.2-0.5-0.6-1.3-1.3-2.1c-0.6-0.5-1.1-0.9-1.5-1c-3.7-1.4-7.5-3.1-11.5-5c-6.1-2.9-11.6-5.9-16.5-9
				C44.9,53.3,44.8,56.4,44.7,59.4z"/>
		</defs>
		<use xlink:href="#XMLID_22_"  style="overflow:visible;fill:#F9F7E9;"/>
		<clipPath id="XMLID_3_">
			<use xlink:href="#XMLID_22_"  style="overflow:visible;"/>
		</clipPath>
		<polygon class="st1" points="44.4,49.4 62.3,70.6 59.5,82.9 43.6,60.3 		"/>
		<path class="st2" d="M115.5,67.5l-22,13.5c-1.5,0.9-2.8,2.1-4,3.4l-2,2.3l-0.9-1.2c-1.8-2.3-4-4.2-6.6-5.5l-17.9-9.5L60,79.1
			l25,13.4l15.3-1.9l16-11.7L115.5,67.5z"/>
		<polyline class="st3" points="75.9,67.2 87.6,86.8 89.6,84.5 91.1,82.7 76.6,64.7 75.9,67.2 75.9,67.2 75.9,67.2 		"/>
		<path class="st4" d="M84.7,66.8c2.7-0.7,5.5-1.5,8.4-2.5c1.8-0.6,3.5-1.3,5.2-2c2.5,1.3,5,2.6,7.5,4c-2.5,1.3-5.1,2.7-8,4
			c-3,1.4-5.9,2.6-8.6,3.7C87.7,71.6,86.2,69.2,84.7,66.8z"/>
		<polygon class="st5" points="44.9,51.6 47.6,54.9 44.7,52.2 		"/>
		<polygon class="st6" points="115,71 110.9,73.7 115.2,71.7 		"/>
		<polygon class="st7" points="83.9,85.7 74.9,81.4 80.2,84.4 		"/>
	</g>
	<path class="st8" d="M67.9,76.6l4.7,2.4c0.2,1,0.3,2.2,0.3,3.5c-0.1,2.7-0.8,4.8-1.4,6.1c-0.4-1.3-0.8-2.7-1.3-4
		c-1.4,0.9-2.7,1.8-4.1,2.8c0.7-1.4,1.6-3.6,1.9-6.5C68.2,79.2,68.1,77.8,67.9,76.6z"/>
	<path class="st9" d="M61.5,73.9l7.9,3.3l7.6,4L71.7,79L70,81.7l-1.9,1.7L66.4,83c0.2-0.2,0.5-0.6,0.6-1.1c0.1-0.5,0.1-0.9,0.1-1.1
		c-0.2-0.1-0.5-0.3-0.7-0.4c0.1-0.4,0.3-0.9,0.3-1.7c0-0.8-0.2-1.5-0.4-1.9c-1.7-0.9-3.3-1.7-5-2.6l-2-2L61.5,73.9z"/>
</g>
<g>
	<defs>
		<path id="XMLID_23_" d="M55.6,107c0.6,0.5,1.5,1.4,2.2,2.6c0.9,1.7,1.1,3.2,1.1,4.1c-9.8,6-19.6,12.1-29.4,18.1l-18.3,11.3
			l-5.8-8.6l8.7-4.8c-1.8,0.4-4,0.8-6.5,1c-1.8,0.1-3.4,0.1-4.8,0c9.1-4.8,18.3-9.7,27.4-14.5c1.5-0.1,3.2-0.3,4.8-0.6
			C44,114,50.9,110.3,55.6,107z"/>
	</defs>
	<use xlink:href="#XMLID_23_"  style="overflow:visible;fill:#E18655;"/>
	<clipPath id="XMLID_4_">
		<use xlink:href="#XMLID_23_"  style="overflow:visible;"/>
	</clipPath>
	<path class="st10" d="M2.7,129.8c2.7,0.2,6.4,0.1,10.7-0.9c6.1-1.4,10.4-3.9,12.9-5.7c1.4,2.8,2.7,5.6,4.1,8.4l-19.5,12.3
		l-8.5-11.4L2.7,129.8z"/>
	<polygon class="st11" points="57,106.1 26.3,123.3 30.9,132.5 61.7,113.6 56.6,105.6 	"/>
	<polygon class="st12" points="8.7,131.1 20.9,127.6 25.8,125 28.6,130.8 9.8,143.1 3.5,134.1 	"/>
	<polygon class="st13" points="4.7,137 16.5,131 4.8,138.2 	"/>
	<polygon class="st13" points="8.3,139.9 15.2,136.6 9.2,140.7 	"/>
</g>
<g>
	<defs>
		<polygon id="XMLID_21_" points="58,164.6 34.3,167.2 34.6,169.5 29.3,175.6 24,176 23.1,177.5 59.9,225.2 62.4,223.2 69.3,217.5 
			70.1,217.8 83.3,206.7 		"/>
	</defs>
	<use xlink:href="#XMLID_21_"  style="overflow:visible;fill:#DF7D4A;"/>
	<clipPath id="XMLID_5_">
		<use xlink:href="#XMLID_21_"  style="overflow:visible;"/>
	</clipPath>
	<path class="st14" d="M23.2,174.6L62,226c0,0,2.6-1.2,2.8-2.4s-38.2-50.3-38.2-50.3L23.2,174.6z"/>
	<polygon class="st15" points="31.1,164.8 71.7,221.8 63.2,224.3 27.5,174.1 	"/>
	<polygon class="st16" points="27.1,165.1 69.1,221.6 73.5,218.6 33.1,162.3 	"/>
	<g class="st17">
		<defs>
			<polygon id="XMLID_29_" points="57.9,161.1 88.8,207.5 70.6,220 30.8,164.4 57.6,160.2 			"/>
		</defs>
		<use xlink:href="#XMLID_29_"  style="overflow:visible;fill:#994322;"/>
		<clipPath id="XMLID_6_">
			<use xlink:href="#XMLID_29_"  style="overflow:visible;"/>
		</clipPath>
		<polygon class="st18" points="33,165.1 71.1,218.6 85.5,206.3 57.9,161.1 33.3,164.4 		"/>
	</g>
	<polygon class="st19" points="29.7,173.6 34.8,180.3 29.8,171.4 	"/>
	<polyline class="st19" points="64,222.7 52.8,206.6 64.5,221.8 64,222.7 64,222.7 	"/>
	<polygon class="st20" points="42.1,171.4 54.3,188.9 66.9,184.1 58.4,168.7 	"/>
	<polygon class="st20" points="68,187.9 57.8,192 58.4,193.3 68.4,188.9 	"/>
	<polygon class="st20" points="69.3,190.1 59.9,194.8 60.4,195.7 69.8,191 	"/>
</g>
</svg>
