<?xml version="1.0" encoding="utf-8"?>
<!-- Generator: Adobe Illustrator 25.2.1, SVG Export Plug-In . SVG Version: 6.00 Build 0)  -->
<svg version="1.1" id="Layer_1" xmlns="http://www.w3.org/2000/svg" xmlns:xlink="http://www.w3.org/1999/xlink" x="0px" y="0px"
	 viewBox="0 0 250 250" style="enable-background:new 0 0 250 250;" xml:space="preserve">
<style type="text/css">
	.st0{opacity:0.49;fill:#17352F;enable-background:new    ;}
	.st1{fill:#6B8972;}
	.st2{fill:#AEC4B8;}
	.st3{fill:#587C6B;}
	.st4{fill:#319D88;}
	.st5{fill:#42B19C;}
	.st6{fill:#203A49;}
	.st7{fill:#364F5E;}
	.st8{fill:#86A48F;}
	.st9{fill:#AAC7B4;}
	.st10{fill:#7A958B;}
	.st11{fill:#204C45;}
	.st12{fill:#2E5E5C;}
	.st13{fill:#192E34;}
	.st14{fill:#A9B3A3;}
	.st15{fill:#B4C1AC;}
	.st16{fill:#688377;}
	.st17{fill:#275B53;}
	.st18{fill:#15433D;}
	.st19{fill:#1A4C44;}
	.st20{fill:#DAB438;}
	.st21{fill:#EEC84E;}
	.st22{fill:#193D36;}
	.st23{fill:#275B52;}
	.st24{fill:#5F7865;}
	.st25{fill:#DE4949;}
	.st26{fill:#264F4C;}
	.st27{fill:#F2CE8E;}
	.st28{fill:#F5D99E;}
	.st29{fill:#F4EEC3;}
	.st30{fill:#536D61;}
	.st31{clip-path:url(#SVGID_2_);fill:#6F8C77;}
	.st32{clip-path:url(#SVGID_4_);fill:#6F8C77;}
</style>
<g id="Layer_3">
	<path class="st0" d="M140.8,231.5l92.7-0.3c1.3,0,2.5-0.3,3.7-0.9l4.9-2.6c1.6-0.9,2.6-2.6,2.6-4.4L245,63.5c0-3-2.4-5.5-5.4-5.6
		l-85.4-2.6l-8.7,166.9l-9.5,5.9l0,0C136.7,230.1,138.6,231.5,140.8,231.5z"/>
	<path class="st1" d="M220.6,225h-7.2c-0.3,0-0.5-0.2-0.5-0.5v-3.2c0-0.3,0.2-0.5,0.5-0.5h7.2c0.3,0,0.5,0.2,0.5,0.5v3.2
		C221.1,224.8,220.9,225,220.6,225z"/>
	<path class="st1" d="M155.4,224.7h-7.2c-0.3,0-0.5-0.2-0.5-0.5V221c0-0.3,0.2-0.5,0.5-0.5h7.2c0.3,0,0.5,0.2,0.5,0.5v3.2
		C155.9,224.4,155.7,224.7,155.4,224.7z"/>
	<g>
		<rect x="129" y="50.1" class="st2" width="110.4" height="171.9"/>
		<rect id="XMLID_39_" x="135.3" y="56.9" class="st3" width="97.4" height="47.2"/>
		<rect x="135.7" y="112.7" class="st3" width="97.4" height="47.2"/>
		<rect x="135.3" y="167.5" class="st3" width="97.4" height="47.2"/>
	</g>
	<g>
		<polygon class="st4" points="216.9,169.3 217,214.5 220.3,214.5 220.3,169.3 		"/>
		<polygon class="st5" points="224.3,169.3 220.3,169.3 220.3,214.5 224.4,214.5 		"/>
		<rect x="216.9" y="175.4" class="st6" width="3.4" height="4.3"/>
		<rect x="220.3" y="175.4" class="st7" width="3.8" height="4.3"/>
		<rect x="216.9" y="179.3" class="st8" width="3.4" height="1.8"/>
		<rect x="220.3" y="179.3" class="st9" width="3.8" height="1.8"/>
	</g>
	<g>
		<polygon class="st10" points="209.5,169.3 209.6,214.5 212.9,214.5 212.9,169.3 		"/>
		<polygon class="st9" points="216.8,169.3 212.9,169.3 212.9,214.5 217,214.5 		"/>
		<rect x="209.5" y="204.1" class="st8" width="3.4" height="3.7"/>
		<rect x="212.9" y="204.1" class="st8" width="4.1" height="3.6"/>
		<rect x="209.5" y="202.7" class="st8" width="3.4" height="1.8"/>
		<rect x="212.9" y="202.7" class="st2" width="4.1" height="1.8"/>
	</g>
	<g>
		<polygon class="st6" points="202.2,169.3 202.3,214.5 206,214.5 206,169.3 		"/>
		<polygon class="st7" points="209.5,169.3 206,169.3 206,214.5 209.6,214.5 		"/>
		<rect x="204" y="186.7" class="st9" width="2" height="23.4"/>
		<rect x="206" y="186.7" class="st2" width="1.9" height="23.4"/>
	</g>
	<g>
		<polygon class="st11" points="194.8,175.3 194.9,214.5 198.6,214.5 198.6,175.3 		"/>
		<polygon class="st12" points="202.2,175.3 198.6,175.3 198.6,214.5 202.3,214.5 		"/>
		<rect x="196.7" y="191.1" class="st6" width="1.9" height="18.8"/>
		<rect x="198.6" y="191.1" class="st7" width="1.9" height="18.8"/>
	</g>
	<g>
		<polygon class="st4" points="191,175.3 191.1,214.5 192.9,214.5 192.9,175.3 		"/>
		<polygon class="st5" points="194.9,175.3 192.9,175.3 192.9,214.5 195,214.5 		"/>
		<rect x="192" y="191.1" class="st6" width="0.9" height="18.8"/>
		<rect x="192.9" y="191.1" class="st7" width="1.1" height="18.8"/>
	</g>
	<g>
		<polygon class="st6" points="183.6,175.3 183.8,214.5 187.4,214.5 187.4,175.3 		"/>
		<polygon class="st7" points="191,175.3 187.4,175.3 187.4,214.5 191.1,214.5 		"/>
		<rect x="187.4" y="191.1" class="st2" width="1.9" height="18.8"/>
		<rect x="185.5" y="191.1" class="st8" width="2" height="18.8"/>
	</g>
	<g>
		<polygon class="st11" points="182.7,169.4 165.8,213.6 166.8,213.9 184.2,169.9 		"/>
		<polygon class="st13" points="185.5,170.3 184.2,169.9 166.8,213.9 168.6,214.5 		"/>
	</g>
	<g>
		<g>
			<g>
				<polygon class="st7" points="182.3,170.3 180.6,169.7 164.2,214.1 165.4,214.5 				"/>
			</g>
			<polygon class="st6" points="179.5,169.4 162.6,213.6 164.2,214.1 180.6,169.7 			"/>
		</g>
	</g>
	<g>
		<g>
			<polygon class="st11" points="176.3,169.4 159.4,213.6 161,214.1 177.8,169.9 			"/>
			<g>
				<polygon class="st11" points="179.1,170.3 177.8,169.9 161,214.1 162.2,214.5 				"/>
			</g>
		</g>
	</g>
	<g>
		<g>
			<polygon class="st4" points="173.1,169.4 156.2,213.6 157.6,214.1 174.4,169.8 			"/>
			<g>
				<polygon class="st5" points="175.9,170.3 174.4,169.8 157.6,214.1 159,214.5 				"/>
			</g>
		</g>
	</g>
	<g>
		<g>
			<rect x="224.4" y="180.2" class="st4" width="1.9" height="34.4"/>
			<rect x="226.2" y="180.2" class="st5" width="2" height="34.4"/>
			<g>
				<rect x="224.4" y="185.7" class="st6" width="1.9" height="4.9"/>
				<rect x="226.2" y="185.7" class="st7" width="2" height="4.9"/>
			</g>
		</g>
	</g>
	<g>
		<g>
			<rect x="228.3" y="180.2" class="st6" width="2" height="34.4"/>
			<rect x="230.3" y="180.2" class="st7" width="1.8" height="34.4"/>
			<g>
				<g>
					<rect x="228.3" y="185.7" class="st10" width="2" height="4.9"/>
					<g>
						<rect x="230.3" y="185.7" class="st10" width="1.8" height="4.9"/>
					</g>
				</g>
			</g>
		</g>
	</g>
	<g>
		<g>
			<g>
				<g>
					<rect x="143.8" y="170.8" class="st2" width="2.9" height="43.9"/>
					<g>
						<rect x="146.6" y="170.8" class="st10" width="3.2" height="43.9"/>
					</g>
				</g>
			</g>
		</g>
		<g>
			<g>
				<g>
					<g>
						<rect x="146.6" y="179.6" class="st7" width="3.2" height="16.6"/>
					</g>
					<rect x="143.8" y="179.6" class="st6" width="2.9" height="16.6"/>
				</g>
			</g>
		</g>
		<g>
			<g>
				<g>
					<g>
						<rect x="146.6" y="198.1" class="st7" width="3.2" height="3.7"/>
					</g>
					<rect x="143.8" y="198.1" class="st6" width="2.9" height="3.7"/>
				</g>
			</g>
		</g>
	</g>
	<g>
		<g>
			<g>
				<g>
					<g>
						<rect x="153.8" y="170.8" class="st12" width="3" height="43.9"/>
					</g>
					<rect x="150.7" y="170.8" class="st12" width="3" height="43.9"/>
				</g>
			</g>
		</g>
		<g>
			<g>
				<g>
					<rect x="150.7" y="179.6" class="st14" width="3" height="16.6"/>
					<g>
						<rect x="153.8" y="179.6" class="st14" width="3" height="16.6"/>
					</g>
				</g>
			</g>
		</g>
		<g>
			<g>
				<g>
					<rect x="150.7" y="198.2" class="st12" width="3" height="3.7"/>
					<g>
						<rect x="153.8" y="198.2" class="st12" width="3" height="3.7"/>
					</g>
				</g>
			</g>
		</g>
	</g>
	<g>
		<rect x="182.2" y="117.6" class="st15" width="3.9" height="42"/>
		<rect x="186.1" y="117.6" class="st14" width="3.4" height="42"/>
		<rect x="182.2" y="150.7" class="st4" width="3.9" height="5"/>
		<rect x="186.1" y="150.7" class="st5" width="3.4" height="5"/>
		<rect x="182.2" y="149.1" class="st6" width="3.9" height="2.1"/>
		<rect x="186.1" y="149.1" class="st7" width="3.4" height="2.1"/>
	</g>
	<g>
		<rect x="194.3" y="120.4" class="st2" width="3.4" height="39.3"/>
		<rect x="190.8" y="120.4" class="st16" width="3.4" height="39.3"/>
		<rect x="192.5" y="146" class="st6" width="1.8" height="11.3"/>
		<rect x="194.3" y="146" class="st7" width="1.3" height="11.3"/>
	</g>
	<g>
		<rect x="197.5" y="120.4" class="st13" width="3.2" height="39.3"/>
		<rect x="200.7" y="120.4" class="st11" width="3.6" height="39.3"/>
		<rect x="199.1" y="146" class="st6" width="1.6" height="11.3"/>
		<rect x="200.7" y="146" class="st7" width="1.5" height="11.3"/>
	</g>
	<g>
		<rect x="204.1" y="120.4" class="st4" width="3.3" height="39.3"/>
		<rect x="207.4" y="120.4" class="st5" width="3.5" height="39.3"/>
		<rect x="205.8" y="146" class="st6" width="1.6" height="11.3"/>
		<rect x="207.4" y="146" class="st7" width="1.4" height="11.3"/>
	</g>
	<g>
		<rect x="210.8" y="120.4" class="st17" width="3.2" height="39.3"/>
		<rect x="214" y="120.4" class="st11" width="3.6" height="39.3"/>
		<rect x="212.4" y="146" class="st6" width="1.5" height="11.3"/>
		<rect x="214" y="146" class="st7" width="1.5" height="11.3"/>
	</g>
	<g>
		<g>
			<g>
				<rect x="136.7" y="148" class="st18" width="38.5" height="2.7"/>
				<rect x="136.7" y="150.7" class="st19" width="38.5" height="3.1"/>
				<g>
					<rect x="148.4" y="148" class="st20" width="0.9" height="2.7"/>
					<rect x="148.4" y="150.7" class="st21" width="0.9" height="3.1"/>
					<rect x="142" y="148" class="st20" width="0.9" height="2.7"/>
					<rect x="142" y="150.7" class="st21" width="0.9" height="3.1"/>
					<rect x="142.9" y="150.7" class="st7" width="5.5" height="3.1"/>
					<rect x="142.9" y="148" class="st6" width="5.5" height="2.7"/>
				</g>
			</g>
		</g>
		<g>
			<g>
				<rect x="136.8" y="136.2" class="st22" width="38.5" height="2.6"/>
				<rect x="136.8" y="138.8" class="st11" width="38.5" height="3.3"/>
				<g>
					<rect x="148.5" y="136.2" class="st20" width="0.9" height="2.6"/>
					<rect x="148.5" y="138.8" class="st21" width="0.9" height="3.3"/>
					<rect x="142.1" y="136.2" class="st20" width="0.9" height="2.6"/>
					<rect x="142.1" y="138.8" class="st21" width="0.9" height="3.3"/>
					<rect x="143" y="136.2" class="st6" width="5.5" height="2.6"/>
					<rect x="143" y="138.8" class="st7" width="5.5" height="3.3"/>
				</g>
			</g>
		</g>
		<g>
			<g>
				<rect x="136.7" y="153.8" class="st16" width="38.5" height="2.9"/>
				<rect x="136.7" y="156.7" class="st2" width="38.5" height="3"/>
				<g>
					<rect x="162.6" y="153.8" class="st20" width="0.9" height="2.9"/>
					<rect x="162.6" y="156.7" class="st21" width="0.9" height="3"/>
					<rect x="169.1" y="153.8" class="st20" width="0.9" height="2.9"/>
					<rect x="169.1" y="156.7" class="st21" width="0.9" height="3"/>
					<rect x="163.6" y="153.8" class="st6" width="5.5" height="2.9"/>
					<rect x="163.6" y="156.7" class="st7" width="5.5" height="3"/>
				</g>
			</g>
		</g>
		<g>
			<g>
				<rect x="136.7" y="142.2" class="st4" width="38.5" height="2.9"/>
				<rect x="136.7" y="145.1" class="st5" width="38.5" height="2.9"/>
				<g>
					<rect x="162.6" y="142.2" class="st20" width="0.9" height="2.9"/>
					<rect x="162.6" y="145.1" class="st21" width="0.9" height="2.9"/>
					<rect x="169.1" y="142.2" class="st20" width="0.9" height="2.9"/>
					<rect x="169.1" y="145.1" class="st21" width="0.9" height="2.9"/>
					<rect x="163.6" y="142.2" class="st6" width="5.5" height="2.9"/>
					<rect x="163.6" y="145.1" class="st7" width="5.5" height="2.9"/>
				</g>
			</g>
		</g>
	</g>
	<g>
		<g>
			<polygon class="st5" points="232.8,158.5 219.9,114.4 217.7,115.1 231.2,159 			"/>
			<polygon class="st4" points="217.7,115.1 216.3,115.5 229.1,159.7 231.2,159 			"/>
			<g>
				<polygon class="st7" points="230.7,151.4 228.9,145.2 227.1,145.7 229.1,151.9 				"/>
				<polygon class="st6" points="227.1,145.7 225.2,146.3 227,152.6 229.1,151.9 				"/>
			</g>
		</g>
	</g>
	<g>
		<g>
			<rect x="194" y="80.6" class="st7" width="31.2" height="3.3"/>
			<rect x="194" y="77.3" class="st6" width="31.2" height="3.3"/>
			<rect x="197.7" y="77.3" class="st4" width="1.2" height="3.3"/>
			<rect x="197.7" y="80.6" class="st5" width="1.2" height="3.3"/>
			<rect x="201.7" y="77.3" class="st11" width="1.2" height="3.3"/>
			<rect x="201.7" y="80.6" class="st23" width="1.2" height="3.3"/>
			<rect x="205.7" y="77.3" class="st24" width="1.2" height="3.3"/>
			<rect x="205.7" y="80.6" class="st2" width="1.2" height="3.3"/>
			<rect x="209.7" y="77.3" class="st24" width="1.2" height="3.3"/>
			<rect x="209.7" y="80.6" class="st2" width="1.2" height="3.3"/>
		</g>
		<g>
			<g>
				<rect x="194.4" y="70.6" class="st25" width="30.3" height="4.9"/>
				<g>
					<rect x="203.6" y="70.6" class="st20" width="0.7" height="4.9"/>
					<rect x="198.5" y="70.6" class="st20" width="0.7" height="4.9"/>
					<rect x="199.3" y="70.6" class="st6" width="4.3" height="4.9"/>
				</g>
			</g>
		</g>
		<g>
			<g>
				<rect x="194.4" y="75.1" class="st4" width="30.3" height="2.5"/>
				<rect x="194.4" y="72.6" class="st4" width="30.3" height="2.5"/>
				<g>
					<rect x="203.6" y="72.6" class="st8" width="0.7" height="2.5"/>
					<rect x="203.6" y="75.1" class="st8" width="0.7" height="2.5"/>
					<rect x="198.5" y="72.6" class="st8" width="0.7" height="2.5"/>
					<rect x="198.5" y="75.1" class="st8" width="0.7" height="2.5"/>
					<rect x="199.3" y="72.6" class="st6" width="4.3" height="2.5"/>
					<rect x="199.3" y="75.1" class="st6" width="4.3" height="2.5"/>
				</g>
			</g>
		</g>
		<g>
			<g>
				<rect x="194.4" y="67.6" class="st12" width="30.3" height="2.7"/>
				<rect x="194.4" y="70.2" class="st26" width="30.3" height="2.3"/>
				<g>
					<rect x="203.6" y="67.6" class="st12" width="0.7" height="2.7"/>
					<rect x="203.6" y="70.2" class="st12" width="0.7" height="2.3"/>
					<rect x="198.5" y="67.6" class="st12" width="0.7" height="2.7"/>
					<rect x="198.5" y="70.2" class="st12" width="0.7" height="2.3"/>
					<rect x="199.3" y="67.6" class="st6" width="4.3" height="2.7"/>
					<rect x="199.3" y="70.2" class="st7" width="4.3" height="2.3"/>
				</g>
			</g>
		</g>
		<g>
			<path class="st13" d="M224.5,88.9h-33.4c0.1,5,3.5,4.9,3.5,4.9h32.5C227.1,93.8,224.5,92.3,224.5,88.9z"/>
			<path class="st13" d="M224.5,88.8c0-3.4,2.6-4.9,2.6-4.9h-32.5c0,0-3.4-0.4-3.4,4.8c0,0.1,0,0.1,0,0.2L224.5,88.8
				C224.5,88.9,224.5,88.8,224.5,88.8z"/>
			<path class="st27" d="M224.5,88.9h-32.8c0.1,3.9,3.1,4.3,3.1,4.3h31.5C226.3,93.1,224.6,91.4,224.5,88.9z"/>
			<path class="st28" d="M224.5,88.7c0-2.5,1.7-4,1.7-4h-31.8c0,0-2.7,0-2.7,4.1v0.1h32.8C224.5,88.8,224.5,88.7,224.5,88.7z"/>
		</g>
		<g>
			<path class="st4" d="M232.1,93.9H189c0,0-3.4-0.4-3.4,4.8l0,0h44C229.6,95.3,232.1,93.9,232.1,93.9z"/>
			<path class="st5" d="M229.5,98.8L229.5,98.8l-44-0.1c0,5.2,3.5,5,3.5,5h43C232.1,103.7,229.5,102.2,229.5,98.8z"/>
			<path class="st28" d="M229.5,98.6c0-2.5,1.7-4,1.7-4h-42.4c0,0-2.7,0-2.7,4H229.5L229.5,98.6z"/>
			<path class="st29" d="M229.5,98.7h-43.4l0,0c0,4.1,3.1,4.4,3.1,4.4h42.1C231.3,103.1,229.5,101.3,229.5,98.7z"/>
			<polygon class="st13" points="188.7,98.6 188.7,105.3 190.6,104 192.5,105.3 192.5,98.6 190.6,98.6 			"/>
		</g>
	</g>
	<g>
		<g>
			<g>
				<rect x="139.8" y="62.6" class="st18" width="6.2" height="41.5"/>
				<rect x="145.9" y="62.6" class="st11" width="6.5" height="41.5"/>
			</g>
		</g>
		<g>
			<rect x="139.8" y="71" class="st6" width="6.3" height="15.7"/>
			<rect x="146" y="71" class="st7" width="6.4" height="15.7"/>
		</g>
		<g>
			<rect x="139.8" y="88.8" class="st6" width="6.3" height="5.8"/>
			<rect x="146" y="88.8" class="st7" width="6.4" height="5.8"/>
		</g>
	</g>
	<g>
		<g>
			<g>
				<g>
					<rect x="155.1" y="62.6" class="st4" width="6.5" height="41.5"/>
					<g>
						<rect x="161.6" y="62.6" class="st5" width="6.2" height="41.5"/>
					</g>
				</g>
			</g>
		</g>
		<g>
			<g>
				<g>
					<rect x="155.1" y="71" class="st6" width="6.5" height="15.7"/>
					<g>
						<rect x="161.6" y="71" class="st7" width="6.2" height="15.7"/>
					</g>
				</g>
			</g>
		</g>
		<g>
			<g>
				<g>
					<rect x="155.1" y="89" class="st6" width="6.5" height="5.8"/>
					<g>
						<rect x="161.6" y="89" class="st7" width="6.2" height="5.8"/>
					</g>
				</g>
			</g>
		</g>
	</g>
	<g>
		<g>
			<g>
				<g>
					<rect x="170.5" y="62.6" class="st30" width="6.3" height="41.5"/>
					<g>
						<rect x="176.8" y="62.6" class="st16" width="6.4" height="41.5"/>
					</g>
				</g>
			</g>
		</g>
		<g>
			<g>
				<g>
					<rect x="170.5" y="71" class="st6" width="6.3" height="15.7"/>
					<g>
						<rect x="176.8" y="71" class="st7" width="6.4" height="15.7"/>
					</g>
				</g>
			</g>
		</g>
		<g>
			<g>
				<g>
					<rect x="170.5" y="89.2" class="st6" width="6.3" height="5.8"/>
					<g>
						<rect x="176.8" y="89.2" class="st7" width="6.4" height="5.8"/>
					</g>
				</g>
			</g>
		</g>
	</g>
	<g>
		<g>
			<g>
				<path id="XMLID_38_" class="st8" d="M232.7,230h-8.6c-0.5,0-0.9-0.4-0.9-0.9v-7h10.4v7C233.6,229.5,233.2,230,232.7,230z"/>
			</g>
			<g>
				<defs>
					<path id="SVGID_1_" d="M232.7,230h-8.6c-0.5,0-0.9-0.4-0.9-0.9v-7h10.4v7C233.6,229.5,233.2,230,232.7,230z"/>
				</defs>
				<clipPath id="SVGID_2_">
					<use xlink:href="#SVGID_1_"  style="overflow:visible;"/>
				</clipPath>
				<path class="st31" d="M234.2,225.2c-1.2-0.4-3.2-1-5.6-1c-1.3,0-3.3,0.2-5.6,1c0-1.1,0-2.2,0-3.3h11.2L234.2,225.2L234.2,225.2z
					"/>
			</g>
		</g>
	</g>
	<g>
		<g>
			<g>
				<path id="XMLID_34_" class="st8" d="M144.5,230h-8.6c-0.5,0-0.9-0.4-0.9-0.9v-7h10.4v7C145.4,229.6,145,230,144.5,230z"/>
			</g>
			<g>
				<defs>
					<path id="SVGID_3_" d="M144.5,230h-8.6c-0.5,0-0.9-0.4-0.9-0.9v-7h10.4v7C145.4,229.6,145,230,144.5,230z"/>
				</defs>
				<clipPath id="SVGID_4_">
					<use xlink:href="#SVGID_3_"  style="overflow:visible;"/>
				</clipPath>
				<path class="st32" d="M146,225.2c-1.2-0.4-3.2-1-5.6-1c-1.3,0-3.3,0.2-5.6,1c0-1.1,0-2.2,0-3.3H146V225.2z"/>
			</g>
		</g>
	</g>
</g>
</svg>
