<?xml version="1.0" encoding="utf-8"?>
<!-- Generator: Adobe Illustrator 25.2.1, SVG Export Plug-In . SVG Version: 6.00 Build 0)  -->
<svg version="1.1" id="tools2" xmlns="http://www.w3.org/2000/svg" xmlns:xlink="http://www.w3.org/1999/xlink" x="0px" y="0px"
	 viewBox="0 0 255.8 180.9" style="enable-background:new 0 0 255.8 180.9;" xml:space="preserve">
<style type="text/css">
	.st0{fill:#FFFFFF;}
	.st1{fill:#574E81;}
	.st2{fill:#8163A8;}
	.st3{fill:#EFF6F8;}
	.st4{fill:#EEF4F6;}
	.st5{fill:#1F5F58;}
	.st6{fill:#3EC0E7;}
	.st7{fill:#131124;}
	.st8{fill:#11294B;}
	.st9{fill:#101936;}
	.st10{fill:#151228;}
	.st11{fill:#262741;}
	.st12{fill:#211D38;}
	.st13{fill:#34BDE2;}
	.st14{fill:#1A1B37;}
	.st15{fill:#32C5EE;}
	.st16{fill:#434E5F;}
	.st17{fill:#DC493D;}
	.st18{fill:#159E5B;}
	.st19{fill:#15854F;}
	.st20{fill:#D04636;}
	.st21{fill:#F9C33C;}
	.st22{fill:#E1B73D;}
	.st23{fill:#FDCD42;}
	.st24{fill:#A63D2E;}
	.st25{fill:#E9BD3D;}
	.st26{fill:#E8E8EB;}
	.st27{fill:#EDEDEE;}
	.st28{fill:#414142;}
	.st29{fill:#DCA232;}
	.st30{fill:#3F873F;}
	.st31{fill:#78B461;}
	.st32{fill:#75AD65;}
	.st33{fill:#77BA5B;}
	.st34{fill:#639B5A;}
	.st35{fill:#68A05C;}
	.st36{fill:#6FA461;}
	.st37{fill:#70BF4D;}
	.st38{fill:#51914B;}
	.st39{fill:#6EA460;}
	.st40{fill:#72BD53;}
	.st41{fill:#599451;}
	.st42{fill:#478B43;}
	.st43{fill:#FDFEFD;}
	.st44{fill:#F4F8F2;}
</style>
<g>
	<path class="st0" d="M187,96.1L176.6,99c-1,0.3-2-0.3-2.3-1.3l-3.8-13.3c-0.3-1,0.3-2,1.3-2.3l10.4-2.9c1-0.3,2,0.3,2.3,1.3
		l3.8,13.3C188.6,94.7,188,95.8,187,96.1z"/>
	<polygon class="st1" points="176.3,81.8 178.1,81.2 182.9,96.4 180.8,97 	"/>
	<path class="st1" d="M186.4,95.5c-1.6,0.5-3.2,0.9-4.8,1.4c0-0.1-0.1-0.2-0.1-0.3c-0.7-2.4-1.4-4.8-2-7.2c0,0,0,0,0,0
		c0.1,0,0.1,0,0.2-0.1c0.3-0.2,0.6-0.3,1-0.5c0.3-0.1,0.6,0,0.7,0.4c0,0.1,0,0.1,0.1,0.2c0.5,1.7,1,3.4,1.4,5.1
		c0,0.1,0.1,0.1,0.2,0.1c0.5-0.1,0.9-0.3,1.4-0.4c0.1,0,0.2-0.1,0.1-0.2c-0.4-1.2-0.7-2.4-1-3.7c-0.2-0.5-0.3-1.1-0.5-1.6
		c-0.4-1.3-1.7-2-2.9-1.7c-0.4,0.1-0.8,0.3-1.2,0.5c0,0,0-0.1,0-0.1c-0.6-2-1.1-4-1.7-6c1.6-0.4,3.1-0.9,4.7-1.3
		c0.3-0.1,0.5-0.1,0.8,0c0.7,0.2,1.1,0.7,1.3,1.4c0.5,1.8,1,3.5,1.5,5.3c0.6,2.1,1.2,4.3,1.8,6.4c0.2,0.8,0.1,1.5-0.5,2
		C186.7,95.3,186.5,95.4,186.4,95.5z M180.6,84.3c0.3-0.1,0.5-0.1,0.8-0.2c0.1,0,0.1,0,0.1-0.1c-0.1-0.6-0.1-1.1-0.3-1.7
		c0-0.1-0.1-0.1-0.1-0.1c-0.5,0.1-1,0.3-1.5,0.4c-0.1,0-0.1,0-0.1,0.1c0.1,0.6,0.2,1.1,0.2,1.7c0,0.1,0,0.1,0.1,0.1
		C180.1,84.5,180.4,84.4,180.6,84.3z"/>
	<path class="st2" d="M179.4,89.3c0.7,2.4,1.4,4.8,2,7.2c0,0.1,0.1,0.2,0.1,0.3c-1.6,0.4-3.1,0.9-4.7,1.3c-0.1,0-0.2,0-0.3,0
		c-0.8,0-1.5-0.6-1.7-1.5c-1.1-3.9-2.2-7.8-3.3-11.7c0-0.1-0.1-0.3-0.1-0.4c-0.1-0.9,0.4-1.7,1.3-2c1.1-0.3,2.2-0.6,3.3-0.9
		c0.4-0.1,0.7-0.2,1.1-0.3c0.6,2,1.1,4,1.7,6c0,0,0,0.1,0,0.1c0,0,0,0,0,0c0,0-0.1,0-0.1,0c-0.4,0.2-0.9,0.4-1.3,0.6
		c-0.1,0.1-0.2,0-0.2-0.1c-0.4-1.4-0.8-2.8-1.2-4.2c0-0.1-0.1-0.2-0.2-0.1c-0.5,0.1-0.9,0.3-1.4,0.4c-0.1,0-0.1,0.1-0.1,0.2
		c0.2,0.9,0.5,1.7,0.7,2.6c0.4,1.3,0.7,2.5,1.1,3.8c0,0.1,0.1,0.1,0.2,0.1c0.5-0.3,1.1-0.5,1.6-0.8
		C178.5,89.7,178.9,89.5,179.4,89.3z M177.6,95.5C177.6,95.5,177.7,95.5,177.6,95.5c0.4-0.6,0.9-1.2,1.3-1.7c0.1-0.1,0-0.1-0.1-0.1
		c-0.6-0.3-1.2-0.5-1.8-0.8c0,0-0.1,0-0.1,0C177.1,93.8,177.4,94.6,177.6,95.5z"/>
	<path class="st3" d="M178.9,87.4C178.9,87.4,178.9,87.4,178.9,87.4c0.4-0.2,0.7-0.4,1.2-0.5c1.2-0.4,2.5,0.3,2.9,1.7
		c0.2,0.5,0.3,1.1,0.5,1.6c0.3,1.2,0.7,2.4,1,3.7c0,0.1,0,0.2-0.1,0.2c-0.5,0.1-0.9,0.3-1.4,0.4c-0.1,0-0.2,0-0.2-0.1
		c-0.5-1.7-1-3.4-1.4-5.1c0-0.1,0-0.1-0.1-0.2c-0.1-0.3-0.4-0.5-0.7-0.4c-0.3,0.1-0.7,0.3-1,0.5c-0.1,0-0.1,0-0.2,0.1
		C179.3,88.7,179.1,88,178.9,87.4z"/>
	<path class="st0" d="M178.9,87.4c0.2,0.6,0.3,1.2,0.5,1.8c0,0,0,0,0,0c-0.5,0.2-1,0.5-1.4,0.7c-0.5,0.3-1.1,0.5-1.6,0.8
		c-0.1,0.1-0.1,0-0.2-0.1c-0.4-1.3-0.7-2.5-1.1-3.8c-0.2-0.9-0.5-1.7-0.7-2.6c0-0.1,0-0.2,0.1-0.2c0.5-0.1,0.9-0.3,1.4-0.4
		c0.1,0,0.2,0,0.2,0.1c0.4,1.4,0.8,2.8,1.2,4.2c0,0.1,0.1,0.2,0.2,0.1c0.4-0.2,0.8-0.4,1.3-0.6C178.8,87.5,178.9,87.5,178.9,87.4z"
		/>
	<path class="st4" d="M180.6,84.3c-0.3,0.1-0.5,0.1-0.8,0.2c-0.1,0-0.1,0-0.1-0.1c0-0.6-0.1-1.1-0.2-1.7c0-0.1,0-0.1,0.1-0.1
		c0.5-0.1,1-0.3,1.5-0.4c0.1,0,0.1,0,0.1,0.1c0.1,0.6,0.2,1.1,0.3,1.7c0,0.1,0,0.1-0.1,0.1C181.2,84.2,180.9,84.3,180.6,84.3z"/>
	<path class="st0" d="M177.6,95.5c-0.3-0.9-0.5-1.8-0.8-2.6c0,0,0.1,0,0.1,0c0.6,0.3,1.2,0.5,1.8,0.8c0.1,0,0.1,0,0.1,0.1
		C178.5,94.4,178.1,94.9,177.6,95.5C177.7,95.5,177.6,95.5,177.6,95.5z"/>
</g>
<ellipse class="st5" cx="33.6" cy="109.4" rx="1.4" ry="1.6"/>
<ellipse class="st5" cx="179.1" cy="143.6" rx="2.2" ry="2"/>
<ellipse class="st5" cx="216.3" cy="104.9" rx="3.1" ry="3.2"/>
<ellipse class="st5" cx="83.5" cy="37.1" rx="2.6" ry="3.2"/>
<ellipse class="st5" cx="184.3" cy="20.6" rx="3.2" ry="2.9"/>
<g>
	<path class="st0" d="M70.5,33l-16.1-4.5c-0.9-0.3-1.4-1.2-1.2-2.1l4.4-15.7c0.3-0.9,1.2-1.4,2.1-1.2l16.1,4.5
		c0.9,0.3,1.4,1.2,1.2,2.1l-4.4,15.7C72.3,32.8,71.4,33.3,70.5,33z"/>
	<path class="st6" d="M67.5,12.5c2.7,0.8,5.4,1.5,8.1,2.3c0.5,0.1,0.6,0.4,0.5,0.9c-1.5,5.3-3,10.6-4.5,15.9
		c-0.1,0.5-0.3,0.6-0.8,0.5c-5.4-1.5-10.8-3-16.1-4.5c-0.5-0.1-0.7-0.3-0.5-0.9c1.5-5.3,3-10.6,4.5-15.9c0.1-0.5,0.3-0.5,0.8-0.4
		C62.2,11,64.8,11.8,67.5,12.5z M72,14.7c-4.1-1.1-8.1-2.3-12.2-3.4c-0.1,0-0.2,0-0.3-0.1c-0.4-0.1-0.3,0.3-0.4,0.5
		c-1,3.4-1.9,6.9-2.9,10.3c-0.4,1.5-0.8,3-1.2,4.5c0,0.1,0,0.2-0.1,0.2c0.1,0.3,0.4,0.3,0.6,0.3c3.4,1,6.8,1.9,10.3,2.9
		c1.5,0.4,3.1,0.9,4.6,1.3c0.2,0.1,0.6,0.3,0.6-0.2c0.3-1,0.6-1.9,0.8-2.9c1.1-4,2.2-8,3.4-12c0.2-0.3,0-0.4-0.3-0.5
		C74,15.2,73,14.9,72,14.7z"/>
	<path class="st7" d="M75.3,16c-1.1,4-2.2,8-3.4,12c-0.3,1-0.6,1.9-0.8,2.9c-0.2,0.2-0.4,0.1-0.7,0.1c-5.1-1.4-10.2-2.9-15.4-4.3
		c0-0.1,0-0.2,0.1-0.2c0.4-0.6,0.4-1.4,0.7-2c0.6,0.2,0.2,0.8,0.5,1.1c0.2,0,0.2-0.4,0.5-0.1c0.7,0.7,1.6,1.1,2.5,1.4
		c0.5,0.2,1.1,0.3,1.6,0.5c0.7,0.3,1.4,0.4,2.1,0.4c1.5,0.1,3,0.1,4.4-0.5c1.5-0.6,3.1-0.9,4.2-2.3c-0.5,1.9-1.1,3.8-1.6,5.6
		c0.1,0,0.1,0,0.2,0.1c0.6-2.3,1.3-4.6,1.9-6.9c0.3,0,0.3-0.3,0.4-0.5c0.3-1.1,0.6-2.1,0.9-3.2c0.5-0.1,1.2-1.2,0.9-1.8
		c-0.1-0.4,0.3-0.8-0.1-1.1c0.1-0.4,0.2-0.9,0.4-1.3C74.8,15.8,75,15.9,75.3,16z"/>
	<path class="st8" d="M55,26.6c5.1,1.4,10.2,2.9,15.4,4.3c0.2,0.1,0.5,0.1,0.7-0.1c0,0.5-0.3,0.3-0.6,0.2c-1.5-0.4-3.1-0.9-4.6-1.3
		c-3.4-1-6.8-1.9-10.3-2.9C55.4,26.9,55.1,26.9,55,26.6z"/>
	<path class="st8" d="M59.6,11.2c-0.9,2.2-1.3,4.6-2,6.8c-0.2,0.9-0.5,1.8-0.7,2.6c-0.1,0.4-0.2,0.9-0.4,1.3
		c-0.1,0.2-0.1,0.4-0.2,0.6c-0.2,0.6-0.3,1.2-0.5,1.8c-0.3,0.7-0.3,1.4-0.7,2c0.4-1.5,0.8-3,1.2-4.5c1-3.4,1.9-6.9,2.9-10.3
		C59.3,11.5,59.2,11.1,59.6,11.2z"/>
	<path class="st8" d="M61.1,11.7c-0.2-0.1-0.4-0.1-0.7,0c-0.3,0.1-0.7,0.1-0.6-0.5c4.1,1.1,8.1,2.3,12.2,3.4c0,0,0,0.1,0,0.1
		c-0.8-0.2-1.5-0.4-2.3-0.6c-0.5-0.1-1-0.3-1.4-0.4c-0.6-0.2-1.3-0.4-1.9-0.5c-1.2-0.3-2.4-0.7-3.6-1C62.2,12,61.7,11.9,61.1,11.7z"
		/>
	<path class="st9" d="M72,14.8c0,0,0-0.1,0-0.1c1,0.3,2,0.5,3,0.8c0.3,0.1,0.4,0.2,0.3,0.5c-0.2-0.1-0.5-0.1-0.7-0.2
		c-0.1,0-0.2,0-0.2-0.1c0-0.2,0-0.3-0.2-0.3c-0.5-0.1-1-0.3-1.6-0.4C72.4,14.9,72.2,14.9,72,14.8z"/>
	<path class="st10" d="M74.3,15.7c0.1,0,0.2,0,0.2,0.1c-0.1,0.4-0.2,0.9-0.4,1.3c-0.3,1-0.5,1.9-0.8,2.9c-0.3,1.1-0.6,2.1-0.9,3.2
		c-0.1,0.2,0,0.5-0.4,0.5c0,0,0,0,0,0C72.9,21,73.6,18.4,74.3,15.7z"/>
	<path class="st9" d="M73.4,20c0.3-1,0.5-1.9,0.8-2.9c0.4,0.3,0,0.7,0.1,1.1C74.5,18.8,73.9,19.8,73.4,20z"/>
	<path class="st11" d="M59.7,23.3C59.7,23.3,59.8,23.3,59.7,23.3C59.7,23.4,59.7,23.4,59.7,23.3z"/>
	<path class="st12" d="M70.3,15.4c-0.8-0.2-0.8-0.3-0.4-0.9c0.3,0.1,0.7,0.1,1.1,0.4C70.7,15,70.4,15.1,70.3,15.4z"/>
	<path class="st13" d="M61.1,23.2c-0.2-0.1-0.4-0.1-0.6-0.3c0.2-0.2,0.6,0.1,0.8-0.2C61.2,22.8,61.1,23,61.1,23.2z"/>
	<path class="st13" d="M61.3,22.4c-0.1-0.1-0.1-0.2,0.1-0.2C61.4,22.3,61.3,22.4,61.3,22.4z"/>
	<path class="st13" d="M60.4,21.4c0.1,0.1,0.1,0.2-0.1,0.2C60.3,21.6,60.3,21.5,60.4,21.4z"/>
	<path class="st13" d="M60.2,21.9c0.1,0.1,0.1,0.2-0.1,0.2C60.2,22,60.2,22,60.2,21.9z"/>
	<path class="st13" d="M68.9,23c-0.1,0-0.2-0.1-0.1-0.2c0,0,0,0,0,0C69,22.8,68.9,22.9,68.9,23C68.9,23,68.9,23,68.9,23z"/>
	<path class="st14" d="M70.4,31.2l-15-4c-0.4-0.1-0.6-0.5-0.5-0.9l3.9-14.8c0.1-0.4,0.5-0.6,0.9-0.5l15,4c0.4,0.1,0.6,0.5,0.5,0.9
		l-3.9,14.8C71.2,31.1,70.8,31.3,70.4,31.2z"/>
	<path class="st6" d="M65.1,16.4c0.1,0,0.1,0.1,0.2,0.1c-0.8-0.1-1.5-0.4-2.2-0.6c-0.6-0.2-0.8-0.1-1,0.5c-0.5,1.8-1,3.5-1.5,5.3
		c0,0.1,0,0.2-0.1,0.2c0,0.1,0,0.2-0.1,0.2c0,0.1,0,0.2-0.1,0.2c-0.1,0.4-0.2,0.8-0.3,1.2c0,0,0,0.1,0,0.1c0,0-0.1-0.1-0.1-0.1
		c0,0,0,0,0,0c0.7-2.5,1.4-5,2.1-7.5c0.1-0.5,0.3-0.6,0.8-0.4C63.6,16,64.3,16.2,65.1,16.4z"/>
	<path class="st15" d="M60.1,23.7c0.1-0.4,0.2-0.8,0.3-1.2c0.1,0,0.2-0.1,0.1-0.2c0-0.1,0-0.2,0.1-0.2c0.1-0.1,0.2-0.1,0.1-0.2
		c0.5-1.8,1-3.5,1.5-5.3c0.2-0.6,0.4-0.7,1-0.5c0.7,0.2,1.4,0.5,2.2,0.6c0.4,0.2,0.6,0.5,0.8,0.8c-0.1,0.4,0.1,0.7,0.2,1.1
		c0,0.2,0.2,0.4-0.1,0.6c-0.1-0.1,0-0.4-0.3-0.4c-0.3,0-0.1,0.3-0.1,0.4c-0.1,0.1-0.1,0.3-0.2,0.3c-0.1-0.3-0.3-0.5-0.2-0.8
		c0.1-0.8-0.4-1.1-0.9-1.4c-0.3-0.2-1-0.6-1.3-0.1c-0.6,0.8-0.8,1.8-0.8,2.8c0,0,0.1,0.1,0.1,0.1c0,0.3,0,0.5,0.1,0.8
		c-0.1,0-0.3,0-0.2,0.1c0,0,0.1,0.1,0.1,0.1c0-0.1,0.1-0.2,0.1-0.3c0.5,0.2,0.5-0.1,0.4-0.4c0,0,0.1,0,0.1,0
		c0.2,0.1,0.5,0.1,0.7,0.2c0.5-0.2,1.1-0.2,1.4-0.8c0,0,0.2,0,0.2,0c-0.2,0.5,0.1,0.5,0.4,0.4c0.1,0.5-0.5,0.6-0.5,1
		c-0.1,0-0.1,0.1-0.2,0.1c-0.2-0.1-0.3-0.1-0.4,0.2c-0.7,0.2-1.3,0.1-2,0c-0.2-0.1-0.5-0.2-0.6,0.1c-0.5,0.2-0.4,0.6-0.3,1
		c0,0.1,0,0.2-0.1,0.3c-0.1,0-0.1,0.1-0.1,0.2c0,0.1,0,0.2-0.1,0.3c-0.2,0.3-0.5,0-0.8,0.2c0.2,0.2,0.4,0.2,0.6,0.3
		c-0.2,0.6-0.7,0.2-1.1,0.2C60.2,23.7,60.2,23.7,60.1,23.7z M65.5,17.5c0-0.1,0-0.2-0.1-0.2c-0.1,0-0.2,0.1-0.1,0.2
		c0,0,0.1,0.1,0.1,0.1C65.4,17.6,65.5,17.6,65.5,17.5z"/>
	<path class="st13" d="M69.8,24c-0.1,1-0.6,1.7-1.6,2c-0.8,0-1.5-0.2-2.1-0.5c-0.1,0-0.2-0.1-0.2-0.1c-0.4-0.5,0-1,0.2-1.5
		c0,0,0.1,0,0.1,0l0.1,0c0,0,0,0,0,0c0.6,0.5,1,1.2,2,0.8c0.3-0.2,0.4-0.4,0.2-0.7c-0.2-0.5-0.6-0.8-1-1.1c-0.1-0.1-0.2-0.2-0.3-0.3
		c-0.1-0.2-0.2-0.4-0.3-0.6c0,0,0,0,0,0c0-0.2,0-0.3,0-0.5c0.2,0.1,0.5,0.1,0.7,0.2c0.3,0.1,0.4,0,0.5-0.3c0,0,0.1,0,0.1,0
		c0,0,0,0,0,0c-0.3,0.4,0.2,0.6,0.2,1c-0.2,0-0.4,0.1-0.5,0.1c0-0.1,0-0.2,0-0.2c-0.1-0.1-0.2,0.1-0.2,0.1c0.3,0.5,0.8,0.7,1.4,0.7
		c0,0.2-0.2,0.4,0,0.5c0.2,0.1,0.3,0.1,0.4-0.1l0,0c0.1,0,0.3,0.1,0.4,0.1C69.7,23.7,69.7,23.8,69.8,24z"/>
	<path class="st13" d="M65.2,21.1c0-0.4,0.6-0.5,0.5-1c0.1-0.3,0.3-0.7,0.4-1c0.3-0.1,0.1-0.4,0.1-0.6c0-0.4-0.3-0.7-0.2-1.1
		c0.2,0.1,0.2,0.4,0.4,0.6C66.6,19.2,66.4,20.4,65.2,21.1z"/>
	<path class="st13" d="M68.3,19.6c0.1,0.1,0.2,0.1,0.3,0c0.4,0.1,0.7,0.2,1.1,0.3c0.1,0,0.2,0.1,0.2,0.1c0,0.1,0.1,0.1,0.2,0.2
		c0.2,0.1,0.4,0.1,0.4,0.4c-0.1,0.3-0.2,0.6-0.3,0.9c-0.1,0.1-0.2,0-0.3-0.1c-0.4-0.3-0.9-0.5-1.4-0.6c-0.1-0.5-0.4-0.6-1-0.5
		c-0.3,0.1-0.3,0.5-0.7,0.4c0.2-0.6,0.7-1,1.3-1.1C68.2,19.6,68.3,19.6,68.3,19.6L68.3,19.6z M68.9,20.1c0.2,0.3,0.4,0.5,0.5,0.7
		c0.2,0.2,0.4,0.3,0.6,0.1c0.2-0.2-0.1-0.3-0.2-0.5C69.7,20.2,69.5,20,68.9,20.1z"/>
	<path class="st6" d="M66.9,20.7c0.4,0.2,0.4-0.3,0.7-0.4c0.5-0.1,0.8-0.1,1,0.5C68.3,20.9,68,21,68,21.4c0,0-0.1,0-0.1,0
		c0-0.2,0.1-0.4-0.1-0.6c-0.2,0.3-0.2,0.6-0.3,0.9c-0.2-0.1-0.5-0.1-0.7-0.2C66.7,21.1,66.8,20.9,66.9,20.7z"/>
	<path class="st6" d="M69.2,23.4c-0.1,0.2-0.2,0.2-0.4,0.1c-0.2-0.1,0-0.3,0-0.5c0.1-0.1,0.2-0.2,0-0.2c-0.3-0.1-0.4-0.3-0.6-0.5
		c-0.1-0.3-0.6-0.6-0.2-1c0.4,0.8,1.1,1.2,1.6,1.9c0,0,0,0,0,0c0,0.1,0,0.2,0,0.2C69.5,23.5,69.3,23.4,69.2,23.4
		c0-0.1,0-0.2-0.1-0.2c0,0,0,0,0,0C69,23.3,69.1,23.4,69.2,23.4z"/>
	<path class="st13" d="M61.7,22.3c-0.1-0.4-0.2-0.8,0.3-1C61.9,21.7,61.8,22,61.7,22.3z"/>
	<path class="st13" d="M64.6,21.3c0.1-0.2,0.2-0.2,0.4-0.2C64.9,21.3,64.8,21.4,64.6,21.3z"/>
	<path class="st13" d="M63,20.3c0,0-0.1,0-0.1,0c-0.1,0-0.2-0.1-0.2-0.3c0.3,0.1,0.6,0.1,0.8,0.2c0.6,0.1,1.1-0.1,1.4-0.6
		c0.6-1.2,0.2-2-1.2-2.4c-0.3-0.1-0.5,0-0.6,0.3c-0.2,0.8-0.4,1.6-0.6,2.3l0,0c0,0-0.1-0.1-0.1-0.1c0.1-1,0.3-2,0.8-2.8
		c0.4-0.5,1-0.1,1.3,0.1c0.4,0.3,1,0.7,0.9,1.4c0,0.2,0.1,0.5,0.2,0.8c0,0.1-0.1,0.3-0.2,0.3c-0.1,0-0.2,0-0.2,0
		c-0.3,0.6-0.9,0.6-1.4,0.8C63.5,20.3,63.2,20.2,63,20.3z"/>
	<path class="st6" d="M65.3,19.7c0.2,0,0.2-0.2,0.2-0.3c0.2-0.1,0.2-0.2,0.2-0.3c0.1-0.1-0.1-0.4,0.1-0.4c0.3,0,0.1,0.3,0.3,0.4
		c-0.1,0.3-0.3,0.7-0.4,1C65.4,20.2,65.1,20.2,65.3,19.7z"/>
	<path class="st6" d="M62.6,20.1c0,0.1,0.1,0.2,0.2,0.3c0.1,0.3,0.1,0.6-0.4,0.4l0,0c0-0.3,0-0.5,0-0.8c0,0,0,0,0,0
		C62.5,20,62.6,20,62.6,20.1z"/>
	<path class="st13" d="M65.5,17.5c0,0.1-0.1,0.1-0.2,0.1c0,0-0.1-0.1-0.1-0.1c0-0.1,0.1-0.1,0.1-0.2C65.5,17.3,65.5,17.4,65.5,17.5z
		"/>
	<path class="st6" d="M63,20.3c0.3-0.1,0.5,0,0.7,0.2C63.4,20.5,63.2,20.4,63,20.3z"/>
	<path class="st13" d="M62.5,20.7c0,0.1-0.1,0.2-0.1,0.3c0,0-0.1-0.1-0.1-0.1C62.2,20.7,62.3,20.7,62.5,20.7
		C62.5,20.7,62.5,20.7,62.5,20.7z"/>
	<path class="st15" d="M68.2,22.3c0.2,0.1,0.3,0.4,0.6,0.5c0.1,0,0.1,0.2,0,0.2c-0.6,0-1-0.2-1.4-0.7c0.1,0,0.2,0,0.2,0.1
		C67.8,22.4,68,22.4,68.2,22.3z"/>
	<path class="st15" d="M67.4,21.6c0.1-0.3,0.1-0.6,0.3-0.9c0.3,0.2,0.2,0.4,0.1,0.6C67.8,21.6,67.6,21.7,67.4,21.6z"/>
	<path class="st6" d="M67.7,22.4c-0.1,0-0.2,0-0.2-0.1c0-0.1,0.1-0.2,0.2-0.1C67.7,22.3,67.6,22.4,67.7,22.4z"/>
	<path class="st15" d="M68.9,20.1c0.6-0.1,0.8,0.1,1,0.3c0.1,0.1,0.4,0.2,0.2,0.5c-0.2,0.2-0.5,0.1-0.6-0.1
		C69.3,20.6,69.2,20.4,68.9,20.1z"/>
	<path class="st13" d="M66.9,22.4c0.2,0.3,0.6,0.5,0.9,0.7c0.3,0.2,0.7,0.4,0.9,0.7c0.1,0.1,0.2,0.3,0.3,0.4s0.3,0.2,0.4,0.2
		c0.1,0,0.3-0.1,0.3-0.2c0.1-0.1,0.1-0.3,0.1-0.4c-0.1-0.4-0.4-0.6-0.6-0.9c-0.2-0.3-0.5-0.5-0.7-0.8c-0.2-0.3-0.5-0.5-0.8-0.7
		c-0.3-0.2-0.6-0.2-0.9-0.2c0,0-0.1,0-0.1,0.1c0,0-0.1,0.1-0.1,0.2c0,0.1,0,0.3,0,0.4C66.7,22.1,66.8,22.2,66.9,22.4z"/>
	<path class="st13" d="M60,23.6c0.2,0.2,0.5,0.3,0.8,0.4c0.1,0,0.3,0.1,0.4,0c0.1-0.1,0.1-0.1,0.1-0.2c0.2-0.5,0.3-1.1,0.4-1.6
		c0-0.1,0-0.3,0-0.4c-0.1-0.1-0.2-0.1-0.4-0.2c-0.2,0-0.4,0-0.6,0c-0.1,0-0.1,0-0.2,0c-0.1,0-0.1,0.1-0.1,0.1
		c-0.1,0.2-0.1,0.4-0.2,0.6c-0.1,0.2-0.1,0.4-0.2,0.6S60.1,23.4,60,23.6C60,23.6,60,23.6,60,23.6z"/>
	<polygon class="st15" points="63.5,17.1 64.7,17.5 65.2,18.3 65.2,19.1 64.5,20.2 63.8,20.4 62.8,20.1 62.4,20 63.1,17.3 63.3,17 
		62.8,16.7 62.1,20.2 63.4,21 64.6,21.3 65.6,20.7 66.5,18.9 66.3,17.8 65.5,16.9 64.4,16.4 63.5,16.6 63.5,17.1 	"/>
</g>
<g>
	<path class="st0" d="M36.1,87.3l0.2,5.3c0,0.5-0.2,1-0.7,1.3l-2.4,1.5L31,91.5L36.1,87.3z"/>
	<ellipse class="st0" cx="26" cy="88.1" rx="10.7" ry="10.5"/>
	<path class="st16" d="M35.4,87c0.1,0,0.1,0,0.1,0.1c-0.2,0.1-0.1,0.3-0.1,0.4c0,1.4,0,2.8,0,4.1c0,0.4,0.2,0.9-0.1,1.2
		c-0.2,0.2-0.8,0.1-1.1,0.1c-0.7,0-1.5,0-2.2,0c-0.2,0-0.3,0-0.5,0c0,0-0.1,0-0.1,0c-0.8,0-1.5,0-2.3,0c-0.3,0-0.5,0-0.8,0
		c0,0-0.1,0-0.1,0c0,0,0,0-0.1,0c-0.1,0-0.1-0.1-0.2-0.1c-2.1,0-4.3,0-6.4,0c-0.2-0.1-0.2-0.3-0.2-0.4c0-1,0-2,0-3
		c0-0.2,0-0.3-0.1-0.5c0.1-0.1,0.1-0.2,0.1-0.4c0-0.5,0-0.9,0-1.4c0-0.1,0-0.3,0.1-0.3c0.1,0,0.1,0,0.2,0c0.5,0.1,0.7-0.1,0.9-0.5
		c0.6-1.3,1.7-2,3.2-2c1.5,0,2.6,0.7,3.2,2c0.2,0.5,0.5,0.7,1,0.6c0,0,0.1,0,0.1,0c0,0,0.1,0,0.1,0C31.9,87,33.6,87,35.4,87z
		 M24.8,88.3L24.8,88.3c-0.2,0-0.2,0.1-0.2,0.3c0,0.9,0,1.8,0,2.7c0,0.1,0,0.2,0.1,0.2l0,0l0,0c0,0.1,0.1,0.1,0.2,0.1
		c0.4,0,0.8,0,1.2,0c0.1,0,0.1,0,0.2-0.1c0.7-0.3,1.1-0.9,1.1-1.7c-0.1-0.8-0.4-1.3-1.1-1.5c0,0-0.1-0.1-0.1-0.1c-0.4,0-0.9,0-1.3,0
		C24.9,88.2,24.9,88.3,24.8,88.3z M30.4,91.5c0.1-0.3,0-0.4-0.3-0.4c-0.5,0-1,0-1.5,0c0,0-0.1-0.1-0.1-0.1c0-0.3,0-0.5,0-0.8
		c0.5,0,0.9,0,1.4,0c0.1,0,0.3,0,0.3-0.2c0.1-0.3-0.1-0.4-0.4-0.4c-0.2,0-0.5,0-0.7,0c-0.7,0-0.7,0-0.7-0.7c0-0.2,0.1-0.3,0.3-0.3
		c0.4,0,0.8,0,1.2,0c0.3,0,0.4-0.1,0.4-0.4c0-0.2-0.2-0.2-0.3-0.2c-0.6,0-1.2,0-1.7,0c-0.1,0-0.2,0-0.3,0.1c-0.1,0.4-0.1,0.9,0,1.3
		c0,0.6-0.1,1.3,0,1.9c0,0.1,0.1,0.1,0.2,0.1c0.6,0,1.3,0,1.9,0C30.3,91.7,30.4,91.6,30.4,91.5z M32.2,90.9
		C32.2,90.9,32.1,90.9,32.2,90.9c-0.2-0.3-0.3-0.6-0.4-0.9c-0.2-0.5-0.3-1-0.5-1.5c-0.1-0.2-0.3-0.2-0.4-0.2c-0.2,0-0.1,0.1-0.1,0.2
		c0.3,0.9,0.7,1.9,1,2.8c0.1,0.2,0.1,0.2,0.3,0.2c0.2,0,0.3,0,0.3-0.2c0.3-0.9,0.6-1.8,1-2.7c0.1-0.3,0-0.3-0.2-0.3
		c-0.2,0-0.2,0.1-0.3,0.3C32.7,89.4,32.4,90.1,32.2,90.9z"/>
	<path class="st17" d="M19.1,81c1-1,2.1-1.7,3.4-2.1c4.5-1.6,9.7,0.4,11.9,4.6c0,0,0,0,0,0c-2.8,0-5.7,0-8.5,0c-0.3,0-0.7,0-1,0.1
		c-0.4,0.2-0.9,0.1-1.2,0.6l0,0c0,0-0.1,0-0.1,0.1l0,0c-0.2,0-0.3,0.1-0.4,0.3l0,0c0,0-0.1,0.1-0.1,0.1c0,0,0,0,0,0
		c0,0-0.1,0.1-0.1,0.1c0,0,0,0,0,0c-0.2,0-0.3,0.1-0.3,0.3l0,0c-0.3,0.2-0.4,0.1-0.6-0.2c-0.8-1.2-1.7-2.2-2.4-3.4
		C19.5,81.1,19.4,81,19.1,81z"/>
	<path class="st18" d="M21.3,89.1c0.1,0.1,0.1,0.3,0.1,0.5c0,1,0,2,0,3c0,0.1-0.1,0.3,0.2,0.4c0,0.2,0.2,0.2,0.3,0.3
		c1,0.6,2.1,1.3,3.1,1.9c0.3,0.2,0.4,0.3,0.2,0.6c-0.3,0.5-0.6,0.9-0.8,1.4c-0.2,0.3-0.4,0.3-0.7,0.3c-0.8-0.2-1.6-0.5-2.4-0.9
		c-0.2-0.1-0.3-0.2-0.5-0.2c0,0,0,0,0,0c-0.1-0.2-0.2-0.3-0.5-0.3c0,0,0,0,0,0c0-0.2-0.1-0.2-0.2-0.2c0,0,0,0,0,0c0,0-0.1,0-0.1-0.1
		c0,0,0,0,0,0c0-0.2-0.1-0.2-0.2-0.2c0,0,0,0,0,0c0,0-0.1,0-0.1-0.1c0,0,0,0,0,0c0,0-0.1-0.1-0.1-0.1c0,0,0,0,0,0
		c0-0.2-0.1-0.2-0.3-0.3c0,0,0,0,0,0c0,0,0,0-0.1-0.1l0,0c0,0,0,0-0.1-0.1c0,0,0,0,0,0c0,0,0,0-0.1-0.1c0,0,0,0,0,0c0,0,0,0-0.1-0.1
		l0,0c0,0,0,0-0.1-0.1l0,0c0,0,0,0-0.1-0.1c0,0,0,0,0,0c0,0,0,0-0.1-0.1c0,0,0,0,0,0c0,0,0,0-0.1-0.1c0,0,0,0,0,0c0,0,0,0,0,0
		c-1.5-1.6-2.2-3.5-2.4-5.6c-0.2-2.1,0.2-4,1.3-5.8c0.1-0.1,0.1-0.2,0.2-0.3c0.1,0.1,0.1,0.2,0.2,0.2c0,0,0,0,0,0
		c0,0.1,0,0.2,0.1,0.3C19,85.3,20.2,87.2,21.3,89.1z"/>
	<path class="st19" d="M20.7,96.3c0.2,0,0.4,0.1,0.5,0.2c0.7,0.4,1.5,0.7,2.4,0.9c0.3,0.1,0.5,0,0.7-0.3c0.3-0.5,0.5-1,0.8-1.4
		c0.2-0.3,0.1-0.5-0.2-0.6c-1.1-0.6-2.1-1.3-3.1-1.9c-0.1-0.1-0.2-0.1-0.3-0.3c2.1,0,4.3,0,6.4,0c0.1,0,0.1,0,0.2,0.1
		c-0.6,1-1.1,2-1.7,3c-0.4,0.6-0.7,1.1-1,1.7C23.7,97.7,22.1,97.2,20.7,96.3z"/>
	<path class="st20" d="M19.1,81c0.2,0,0.4,0.1,0.5,0.3c0.7,1.2,1.6,2.2,2.4,3.4c0.2,0.3,0.3,0.3,0.6,0.2c-0.5,0.5-0.8,1.1-1.1,1.7
		c-0.2,0.1-0.3,0.2-0.4-0.1c-0.1-0.2-0.2-0.3-0.4-0.5c-0.6-0.6-1.1-1.2-1.7-1.7c-0.4-0.4-0.8-0.9-1.3-1.2c0,0,0,0,0,0
		c0-0.1,0-0.3-0.2-0.3C18.1,82.1,18.5,81.5,19.1,81z"/>
	<path class="st21" d="M30.2,87c0,0-0.1,0-0.1,0c-0.1-0.7-0.5-1.3-0.9-1.9c0-0.1,0.1-0.1,0.2-0.2c1.2-0.3,2.3-0.6,3.5-0.9
		c0,0.1,0.1,0.2,0.2,0.2c0.4,0,0.8-0.1,1.2-0.1c0.1,0,0.3-0.1,0.3-0.2c0.3,0.5,0.4,1.1,0.6,1.6c-1.4,0.2-2.9,0.4-4.3,0.8
		c-0.2,0.1-0.5,0-0.6,0.1C30,86.5,30.3,86.8,30.2,87z"/>
	<path class="st22" d="M26.4,96c0.6-1,1.1-2,1.7-3c0,0,0,0,0.1,0c0,0.1,0.1,0.1,0.1,0c0.3,0,0.5,0,0.8,0c-0.1,0.4-0.1,0.9-0.1,1.3
		c0,0.8,0,1.5,0,2.3c0,0.5,0.1,0.6,0.6,0.4c0.4-0.2,0.8-0.3,1.2-0.5l0,0c-0.8,0.5-1.6,0.9-2.6,1c0.1-0.1,0.3-0.2,0-0.4
		C27.6,96.8,27,96.4,26.4,96z"/>
	<path class="st23" d="M30.2,87c0.1-0.2-0.2-0.5-0.1-0.7c0.1-0.1,0.4-0.1,0.6-0.1c1.4-0.3,2.9-0.5,4.3-0.8c0.1,0.5,0.3,0.9,0.2,1.4
		c0,0,0,0.1-0.1,0.1c0,0,0,0,0,0C33.6,87,31.9,87,30.2,87z"/>
	<path class="st21" d="M31.9,92.9c0.7,0,1.5,0,2.2,0c0,0.3-0.3,0.5-0.4,0.8c-0.3,0.5-0.7,0.8-1,1.2c-0.3,0.1-0.3,0.4-0.6,0.5
		c0,0-0.1,0.1-0.1,0.1c0,0,0,0,0,0c0,0-0.1,0-0.1,0c-0.1-0.1-0.3-0.2-0.2-0.3C31.7,94.5,31.5,93.7,31.9,92.9z"/>
	<path class="st23" d="M26.4,96c0.6,0.4,1.2,0.7,1.8,1.1c0.3,0.2,0.1,0.2,0,0.4c0,0,0,0,0,0c-0.4,0-0.8,0-1.1,0.2
		c-0.6,0.1-1.1,0.1-1.7,0.1C25.7,97.2,26,96.6,26.4,96z"/>
	<path class="st16" d="M32.7,95c0.3-0.5,0.7-0.8,1-1.2c0.1-0.3,0.4-0.5,0.4-0.8c0.4,0,0.9,0.2,1.1-0.1c0.3-0.3,0.1-0.8,0.1-1.2
		c0-1.4,0-2.8,0-4.1c0-0.1-0.1-0.3,0.1-0.4c0,1.9,0,3.8,0,5.6c0,0.1,0,0.2-0.1,0.3c-0.9,0.6-1.7,1.3-2.6,1.9
		C32.8,94.9,32.7,94.9,32.7,95z"/>
	<path class="st22" d="M34.5,83.8c0,0.1-0.2,0.2-0.3,0.2c-0.4,0-0.8,0.1-1.2,0.1c-0.1,0-0.2,0-0.2-0.2c0.2-0.1,0.4-0.1,0.6-0.2
		c0.1,0,0.3,0,0.3-0.3c0.2-0.1,0.4,0.1,0.6-0.1c0,0,0,0,0,0C34.5,83.6,34.4,83.8,34.5,83.8z"/>
	<path class="st22" d="M27.1,97.7c0.3-0.2,0.7-0.3,1.1-0.2C27.8,97.6,27.5,97.7,27.1,97.7z"/>
	<path class="st19" d="M20.2,96c0.2,0,0.4,0.1,0.5,0.3C20.5,96.3,20.4,96.2,20.2,96z"/>
	<path class="st19" d="M19.2,95.2c0.2,0,0.3,0,0.3,0.3C19.4,95.4,19.3,95.3,19.2,95.2z"/>
	<path class="st24" d="M17.7,82.8c0.1,0.1,0.1,0.2,0.2,0.3c-0.1,0-0.1-0.2-0.2-0.2C17.6,82.8,17.7,82.8,17.7,82.8z"/>
	<path class="st19" d="M19.7,95.6c0.1,0,0.2,0,0.2,0.2C19.8,95.8,19.7,95.7,19.7,95.6z"/>
	<path class="st19" d="M20,95.9c0.1,0,0.2,0,0.2,0.2C20.1,96,20.1,95.9,20,95.9z"/>
	<path class="st22" d="M31.9,95.6c-0.1,0.1-0.1,0.1-0.2,0.2l0,0C31.7,95.7,31.8,95.6,31.9,95.6L31.9,95.6z"/>
	<path class="st22" d="M31.6,95.9C31.5,96,31.5,96,31.4,96c0,0,0,0,0,0C31.4,95.9,31.5,95.9,31.6,95.9L31.6,95.9z"/>
	<path class="st22" d="M31.4,96c-0.1,0.1-0.1,0.1-0.2,0.2c0,0,0,0,0,0C31.2,96.1,31.2,96,31.4,96L31.4,96z"/>
	<path class="st22" d="M31.1,96.2c-0.1,0.1-0.1,0.1-0.2,0.2c0,0,0,0,0,0C30.9,96.2,31,96.2,31.1,96.2L31.1,96.2z"/>
	<path class="st22" d="M30.9,96.4c-0.1,0-0.1,0.1-0.2,0.1c0,0,0,0,0,0C30.8,96.4,30.8,96.4,30.9,96.4L30.9,96.4z"/>
	<path class="st19" d="M18.8,94.8C18.8,94.8,18.9,94.9,18.8,94.8C18.9,94.9,18.8,94.8,18.8,94.8z"/>
	<path class="st19" d="M18.9,94.9C18.9,94.9,18.9,95,18.9,94.9C18.9,95,18.9,94.9,18.9,94.9z"/>
	<path class="st19" d="M19,95C19,95,19,95,19,95C19,95,19,95,19,95z"/>
	<path class="st19" d="M19.1,95.1C19.1,95.1,19.1,95.1,19.1,95.1C19.1,95.1,19.1,95.1,19.1,95.1z"/>
	<path class="st19" d="M19.1,95.1C19.2,95.2,19.2,95.2,19.1,95.1C19.2,95.2,19.2,95.2,19.1,95.1z"/>
	<path class="st22" d="M32,95.6c0,0,0.1-0.1,0.1-0.1C32.1,95.5,32,95.5,32,95.6z"/>
	<path class="st19" d="M19.6,95.5C19.6,95.6,19.7,95.6,19.6,95.5C19.7,95.6,19.6,95.6,19.6,95.5z"/>
	<path class="st22" d="M31.9,95.5C31.9,95.5,32,95.5,31.9,95.5C32,95.6,31.9,95.6,31.9,95.5C31.9,95.6,31.9,95.6,31.9,95.5
		C31.9,95.6,31.9,95.6,31.9,95.5z"/>
	<path class="st19" d="M19.9,95.8C19.9,95.8,20,95.8,19.9,95.8C20,95.8,19.9,95.8,19.9,95.8z"/>
	<path class="st22" d="M31.7,95.8C31.7,95.8,31.6,95.8,31.7,95.8C31.6,95.9,31.6,95.9,31.7,95.8C31.6,95.8,31.6,95.8,31.7,95.8
		L31.7,95.8z"/>
	<path class="st21" d="M35.3,87c0,0,0-0.1,0.1-0.1C35.4,87,35.4,87,35.3,87z"/>
	<path class="st19" d="M18.5,94.5C18.6,94.5,18.6,94.6,18.5,94.5C18.6,94.6,18.5,94.6,18.5,94.5z"/>
	<path class="st19" d="M18.6,94.6C18.6,94.6,18.6,94.6,18.6,94.6C18.6,94.6,18.6,94.6,18.6,94.6z"/>
	<path class="st19" d="M18.7,94.7C18.7,94.7,18.7,94.7,18.7,94.7C18.7,94.7,18.7,94.7,18.7,94.7z"/>
	<path class="st19" d="M18.7,94.7C18.8,94.8,18.8,94.8,18.7,94.7C18.8,94.8,18.8,94.8,18.7,94.7z"/>
	<path class="st19" d="M19.5,95.5C19.5,95.5,19.6,95.5,19.5,95.5C19.6,95.5,19.5,95.5,19.5,95.5z"/>
	<path class="st25" d="M31.7,95.8C31.6,95.8,31.6,95.8,31.7,95.8c-0.2,0.1-0.3,0.1-0.3,0.2c-0.1,0-0.2,0.1-0.2,0.2
		c-0.1,0-0.2,0.1-0.2,0.2c-0.1,0-0.1,0.1-0.2,0.1c-0.4,0.2-0.8,0.3-1.2,0.5C29,97.1,29,97.1,29,96.6c0-0.8,0-1.5,0-2.3
		c0-0.4,0-0.9,0.1-1.3c0.8,0,1.5,0,2.3,0c0,0,0,0.1,0,0.1c0,0,0-0.1,0-0.1c0.2,0,0.3,0,0.5,0c-0.4,0.7-0.2,1.5-0.2,2.3
		c0,0.2,0.2,0.2,0.2,0.3c0,0,0,0.1,0,0.1C31.8,95.6,31.7,95.7,31.7,95.8z"/>
	<path class="st26" d="M29.2,85.1c0.4,0.6,0.8,1.2,1,1.9c0,0-0.1,0-0.1,0c-0.5,0.1-0.8-0.1-1-0.6c-0.6-1.3-1.8-2-3.2-2
		c-1.5,0-2.6,0.7-3.2,2c-0.2,0.5-0.4,0.6-0.9,0.5c-0.1,0-0.1,0-0.2,0c0-0.1,0.1-0.3,0.1-0.4c0.3-0.6,0.6-1.2,1.1-1.7c0,0,0,0,0,0
		c0.1-0.1,0.2-0.2,0.3-0.3c0,0,0,0,0,0c0,0,0.1-0.1,0.1-0.1c0,0,0,0,0,0c0,0,0.1-0.1,0.1-0.1c0,0,0,0,0,0c0.1-0.1,0.3-0.1,0.4-0.3
		c0,0,0,0,0,0c0,0,0.1,0,0.1-0.1c0,0,0,0,0,0c0.9-0.4,1.8-0.6,2.8-0.5c0.2,0,0.4,0.1,0.5,0.1C27.8,84,28.5,84.4,29.2,85.1z"/>
	<path class="st24" d="M21.6,86.6c0,0.1-0.1,0.3-0.1,0.4c-0.1,0.1-0.1,0.2-0.1,0.3c0,0.5,0,0.9,0,1.4c0,0.1,0,0.3-0.1,0.4
		c-1.1-1.9-2.2-3.8-3.3-5.8c0-0.1-0.1-0.2-0.1-0.3c0.5,0.3,0.8,0.8,1.3,1.2c0.6,0.6,1.2,1.1,1.7,1.7c0.1,0.1,0.3,0.3,0.4,0.5
		C21.3,86.8,21.4,86.7,21.6,86.6z"/>
	<path class="st27" d="M24.8,91.5L24.8,91.5C24.8,91.5,24.8,91.5,24.8,91.5c0-1.1,0-2.1,0-3.2c0,0,0,0,0,0c0.5,0,1,0,1.5,0
		c0.8,0.2,1.1,0.7,1.1,1.5c0,0.8-0.3,1.4-1.1,1.7C25.9,91.5,25.4,91.5,24.8,91.5z M25.4,91.1c0.2,0,0.4,0,0.6,0c0.3,0,0.5,0,0.7-0.2
		c0.4-0.5,0.4-1.1,0.2-1.6c-0.2-0.5-0.6-0.6-1.1-0.5c-0.1,0-0.3,0-0.4,0c-0.1,0-0.1,0.1-0.1,0.2c0,0.7,0,1.4,0,2
		C25.3,91,25.3,91.1,25.4,91.1z"/>
	<path class="st27" d="M28.5,90.2c0,0.3,0,0.5,0,0.8c0,0.1,0,0.1,0.1,0.1c0.5,0,1,0,1.5,0c0.4,0,0.4,0.1,0.3,0.4c-0.8,0-1.5,0-2.3,0
		c-0.1-0.6,0-1.3,0-1.9c0-0.4-0.1-0.9,0-1.3c0.8,0,1.5,0,2.3,0c0,0.3-0.1,0.4-0.4,0.4c-0.4,0-0.8,0-1.2,0c-0.2,0-0.3,0.1-0.3,0.3
		c0,0.7,0,0.7,0.7,0.7c0.2,0,0.5,0,0.7,0c0.3,0,0.4,0.1,0.4,0.4c-0.5,0-1.1,0-1.6,0C28.5,90.1,28.5,90.1,28.5,90.2
		C28.5,90.2,28.5,90.2,28.5,90.2z"/>
	<path class="st27" d="M32.2,90.9c0.3-0.8,0.5-1.5,0.8-2.3c0-0.1,0.1-0.3,0.3-0.3c0.2,0,0.3,0,0.2,0.3c-0.3,0.9-0.7,1.8-1,2.7
		c-0.1,0.2-0.2,0.2-0.3,0.2c-0.1,0-0.2,0-0.3-0.2c-0.3-0.9-0.7-1.9-1-2.8c0-0.1-0.1-0.2,0.1-0.2c0.2,0,0.3-0.1,0.4,0.2
		c0.2,0.5,0.3,1,0.5,1.5C31.9,90.3,32,90.6,32.2,90.9C32.1,90.9,32.2,90.9,32.2,90.9z"/>
	<path class="st16" d="M24.8,88.3c0,1.1,0,2.1,0,3.2c-0.1,0-0.1-0.1-0.1-0.2c0-0.9,0-1.8,0-2.7C24.7,88.5,24.7,88.4,24.8,88.3z"/>
	<path class="st16" d="M30.4,88.3c-0.8-0.1-1.5,0-2.3,0c0-0.2,0.2-0.1,0.3-0.1c0.6,0,1.2,0,1.7,0C30.2,88.2,30.4,88.2,30.4,88.3z"/>
	<path class="st16" d="M26.3,88.3c-0.5,0-1,0-1.5,0c0-0.1,0-0.1,0.1-0.1c0.4,0,0.9,0,1.3,0C26.3,88.2,26.3,88.3,26.3,88.3z"/>
	<path class="st16" d="M28.5,90.2C28.5,90.2,28.5,90.2,28.5,90.2c0-0.1,0.1-0.1,0.1-0.1c0.5,0,1.1,0,1.6,0c0,0.2-0.2,0.2-0.3,0.2
		C29.4,90.2,29,90.2,28.5,90.2z"/>
	<path class="st16" d="M28.1,91.5c0.8,0,1.5,0,2.3,0c0,0.1-0.1,0.1-0.2,0.1c-0.6,0-1.3,0-1.9,0C28.2,91.7,28.1,91.6,28.1,91.5z"/>
	<path class="st16" d="M24.8,91.5c0.5,0,1.1,0,1.6,0c0,0.1-0.1,0.1-0.2,0.1c-0.4,0-0.8,0-1.2,0C24.9,91.7,24.9,91.6,24.8,91.5z"/>
	<path class="st21" d="M31.4,92.9C31.4,93,31.4,93,31.4,92.9C31.4,93,31.4,93,31.4,92.9C31.4,92.9,31.4,92.9,31.4,92.9z"/>
	<path class="st25" d="M28.3,93C28.2,93,28.2,93.1,28.3,93C28.2,93,28.2,93,28.3,93z"/>
	<path class="st28" d="M28.6,91.1C28.5,91.1,28.5,91.1,28.6,91.1C28.5,91.1,28.5,91.1,28.6,91.1z"/>
	<path class="st20" d="M26.4,83.6c-1-0.1-1.9,0.1-2.8,0.5c0.3-0.4,0.8-0.4,1.2-0.6c0.3-0.1,0.6-0.1,1-0.1c2.8,0,5.7,0,8.5,0
		c-0.2,0.2-0.4,0-0.6,0.1c-0.2,0-0.3,0-0.5,0c-2,0-4.1,0-6.1,0C26.9,83.6,26.6,83.5,26.4,83.6z"/>
	<path class="st20" d="M23.5,84.2c-0.1,0.1-0.2,0.2-0.4,0.3C23.2,84.3,23.3,84.2,23.5,84.2z"/>
	<path class="st20" d="M22.9,84.6c-0.1,0.1-0.2,0.2-0.3,0.3C22.7,84.7,22.8,84.6,22.9,84.6z"/>
	<path class="st20" d="M23,84.5C23,84.6,23,84.6,23,84.5C23,84.6,23,84.6,23,84.5z"/>
	<path class="st20" d="M23.6,84.1C23.6,84.2,23.5,84.2,23.6,84.1C23.5,84.2,23.6,84.2,23.6,84.1z"/>
	<path class="st20" d="M23.1,84.5C23.1,84.5,23.1,84.5,23.1,84.5C23.1,84.5,23.1,84.5,23.1,84.5z"/>
	<path class="st29" d="M27.1,83.6c2,0,4.1,0,6.1,0c0.2,0,0.3,0,0.5,0c0,0.2-0.2,0.2-0.3,0.3c-0.2,0.1-0.4,0.1-0.6,0.2
		c-1.2,0.3-2.3,0.6-3.5,0.9c-0.1,0-0.2,0.1-0.2,0.2c-0.6-0.7-1.4-1.1-2.3-1.4C27,83.7,27.1,83.6,27.1,83.6z"/>
	<path class="st17" d="M27.1,83.6c-0.1,0-0.2,0.1-0.3,0.1c-0.2,0-0.4-0.1-0.5-0.1C26.6,83.5,26.9,83.6,27.1,83.6z"/>
	<path class="st16" d="M25.4,88.7c0.1,0,0.3,0,0.4,0c0.5,0,0.9,0,1.1,0.5c0.2,0.6,0.2,1.1-0.2,1.6c-0.2,0.2-0.5,0.2-0.7,0.2
		c-0.2,0-0.4,0-0.6,0C25.4,90.3,25.4,89.5,25.4,88.7z"/>
	<path class="st16" d="M25.4,88.7c0,0.8,0,1.6,0,2.4c-0.1,0-0.1-0.1-0.1-0.2c0-0.7,0-1.4,0-2C25.3,88.8,25.3,88.7,25.4,88.7z"/>
	<path class="st16" d="M28.6,90.1c0,0-0.1,0-0.1,0.1C28.5,90.1,28.5,90.1,28.6,90.1z"/>
</g>
<g>
	<path class="st0" d="M230,36.7l9.5-2c0.7-0.1,1.4,0.1,1.9,0.6l6.8,7.5c0.5,0.5,0.6,1.3,0.4,2l-3.1,9.1c-0.2,0.7-0.8,1.2-1.5,1.3
		l-9.4,2c-0.7,0.1-1.4-0.1-1.9-0.6l-6.6-7c-0.5-0.5-0.7-1.3-0.5-1.9l2.8-9.5C228.7,37.4,229.3,36.8,230,36.7z"/>
	<polygon class="st30" points="230.2,38.5 240.2,36.3 247.2,44.4 244.1,53.9 233.8,56.1 226.8,48.3 	"/>
	<path class="st31" d="M237,36.5c1-0.2,1.9-0.4,2.9-0.6c-0.1,0.2-0.2,0.3-0.2,0.5c-0.9,2.8-1.8,5.5-2.7,8.3
		c-0.1-0.1-0.2-0.2-0.3-0.3c-0.1-0.2-0.3-0.2-0.5-0.2c-0.4,0.1-0.8,0.2-1.2,0.2c-0.2,0-0.2,0.1-0.3,0.3c-0.1,0.4-0.2,0.8-0.4,1.1
		c-0.1,0.2,0,0.3,0.1,0.5c0.2,0.2,0.3,0.3,0.4,0.5c0.3,0.4,0.6,0.6,1.1,0.4c0,0.2-0.2,0.4-0.1,0.6c-0.4,0-0.6,0.2-0.6,0.6
		c0,0.2-0.1,0.5-0.2,0.7c-0.2,0.3-0.2,0.6,0.2,0.9c-0.5,1.6-1,3.2-1.6,4.8c0,0.1,0.1,0.3-0.1,0.4c0-0.1,0-0.1,0-0.2
		c-0.2-1.1-0.4-2.3-0.6-3.4c-0.1-0.6-0.2-1.3-0.3-1.9c0.2,0,0.2-0.1,0.2-0.2c1.4-4.2,2.8-8.4,4.1-12.7C237,36.7,237,36.6,237,36.5z"
		/>
	<path class="st30" d="M232.6,49.7c0.1,0.6,0.2,1.3,0.3,1.9c0.2,1.1,0.4,2.3,0.6,3.4c0,0.1,0,0.1,0,0.2c0,0.1,0,0.2,0,0.3
		c0.1,0.3,0.1,0.6,0.2,0.9c-0.3,0-0.5-0.2-0.6-0.4c-1.7-1.9-3.4-3.9-5.2-5.8c-0.4-0.4-0.8-0.8-1.2-1.3c-0.1-0.1-0.3-0.3-0.3-0.5
		c0.3-0.3,0.7-0.6,1.1-1c0.3-0.2,0.7-0.5,0.9-0.8c0.2-0.2,0.5-0.3,0.6-0.6c0.2-0.1,0.3-0.3,0.5-0.4c0.4-0.4,0.9-0.7,1.3-1.2
		c0,0,0.1,0,0.1,0c-0.1,0.3-0.2,0.5-0.2,0.8c-0.1,0.2-0.1,0.3,0.2,0.2c0.2,0,0.5-0.1,0.7-0.1c0.2,0.9,0.3,1.8,0.5,2.7
		C232.4,48.6,232.5,49.2,232.6,49.7z"/>
	<path class="st32" d="M236,47.9c0-0.2,0.1-0.4,0.1-0.6c0.3-0.1,0.6-0.1,0.8-0.2c0.1,0,0.2-0.1,0.3-0.2c0.1-0.4,0.3-0.8,0.4-1.3
		c0.1-0.1,0-0.3-0.1-0.4c-0.2-0.2-0.4-0.4-0.5-0.6c0.9-2.8,1.8-5.5,2.7-8.3c0.1-0.2,0.1-0.3,0.2-0.5c0,0,0,0,0,0c0,0,0,0,0.1,0
		c0.2,0,0.4,0,0.6,0.2c0,0.6,0.2,1.2,0.4,1.8c0,0.1,0,0.2,0,0.3c0.1,0.3,0.2,0.7,0.2,1c-0.1,0.1-0.1,0.2-0.1,0.3
		c-0.6,1.8-1.2,3.5-1.7,5.3c-0.1,0.3-0.2,0.5-0.2,0.8c-0.7,0-0.9,0.4-1.1,1c-0.2,0.6-0.2,1,0.3,1.4c0,0,0,0.1,0.1,0.1
		c-0.1,0-0.2,0.1-0.2,0.2c0,0.1-0.1,0.3-0.1,0.4c-0.2-0.2-0.4-0.4-0.6-0.7c-0.1-0.2-0.3-0.2-0.5-0.2C236.7,47.8,236.3,47.8,236,47.9
		z"/>
	<path class="st33" d="M232.6,49.7c-0.1-0.6-0.2-1.1-0.3-1.7c-0.2-0.9-0.3-1.8-0.5-2.7c0.1-0.1,0.2-0.1,0.2-0.2
		c0.1-0.2,0.1-0.4,0.2-0.6c0.1-0.2,0.2-0.3,0.4-0.4c0.2-0.1,0.3,0.1,0.5,0.2c0.2,0.2,0.1,0.4,0,0.6c-0.2,0.5-0.2,0.9,0.2,1.2
		c0,0,0,0.1,0.1,0.1c0.1,0,0.1,0.2,0.2,0.2c0.1,0,0.1-0.1,0.2-0.2c0.2-0.5,0.3-1.1,0.5-1.6c0.1-0.2,0-0.3-0.1-0.5
		c-0.2-0.2-0.4-0.5-0.6-0.7c-0.2-0.3-0.4-0.4-0.7-0.3c0.6-1.9,1.2-3.8,1.9-5.7c0-0.1,0.1-0.2,0-0.4c0.6-0.2,1.2-0.3,1.7-0.4
		c0.2,0,0.5-0.1,0.7-0.1c0,0.1,0,0.2,0,0.3c-1.4,4.2-2.8,8.4-4.1,12.7C232.8,49.6,232.8,49.8,232.6,49.7z"/>
	<path class="st34" d="M241.2,39.1c0-0.3-0.1-0.7-0.2-1c0-0.1,0-0.2,0-0.3c0.1,0,0.1,0,0.2,0.1c0.1,0.2,0.1,0.3,0.2,0.5
		c0.2,0.6,0.4,1.3,0.6,1.9c0.5,1.4,0.9,2.7,1.4,4.1c0.3,0.8,0.5,1.5,0.7,2.3c0,0.1,0.1,0.1,0.1,0.2c0,0.1-0.1,0.1-0.2,0.2
		c0,0-0.1,0-0.1-0.1c-0.2-0.4-0.6-0.6-1.1-0.4c-0.1-0.5-0.2-1-0.3-1.4c0-0.1-0.1-0.2-0.2-0.2c-0.1,0-0.1,0.1-0.1,0.2
		c-0.2,0.4-0.3,0.9-0.4,1.3c0,0.1-0.1,0.2,0,0.3c-0.2,0.5-0.3,1-0.5,1.4c-0.1,0.2,0,0.3,0.1,0.4c-0.1,0-0.1,0.2-0.2,0.3
		c-0.7,2.1-1.4,4.1-2,6.2c0,0.1-0.1,0.2,0,0.3c-0.4,0.1-0.8,0.2-1.2,0.2c0-0.1,0-0.2,0.1-0.4c0.7-2.3,1.5-4.6,2.2-6.9
		c0.2-0.1,0.3-0.1,0.4-0.3c0.4-1.1,0.7-2.3,1.1-3.4c0-0.1,0-0.3-0.1-0.4c-0.2-0.2-0.3-0.4-0.5-0.6c0.2-0.5,0.3-0.9,0.5-1.4
		c0.1-0.2,0.2-0.5,0.1-0.8c0-0.1-0.1-0.3-0.1-0.4C241.5,40.5,241.4,39.8,241.2,39.1z"/>
	<path class="st32" d="M233.8,56.4c-0.1-0.3-0.1-0.6-0.2-0.9c0-0.1,0-0.2,0-0.3c0.2-0.1,0.1-0.2,0.1-0.4c0.5-1.6,1.1-3.2,1.6-4.8
		c0.4,0.3,0.6,0.3,0.8-0.2c0.1-0.3,0.2-0.6,0.3-1c0-0.1,0.2-0.2,0-0.3c-0.2-0.1-0.2,0.1-0.2,0.2c-0.1,0.3-0.2,0.7-0.3,1
		c-0.1,0.2-0.2,0.3-0.4,0.1c0,0-0.1-0.1-0.1-0.1c0.2-0.5,0.3-1,0.5-1.6c0.3-0.1,0.7-0.2,1-0.2c0.1,0,0.3,0,0.4,0.1
		c0.2,0.2,0.4,0.5,0.7,0.7c0.2,0.2,0.2,0.3,0.1,0.6c-0.1,0.3-0.2,0.6-0.3,0.9c0,0.1-0.1,0.2-0.2,0.2c-0.4,0.1-0.8,0.1-1.1,0.2
		c-0.1,0-0.3,0-0.3-0.1c-0.1-0.2-0.2-0.2-0.4-0.1c0.3,0.5,0.4,0.5,1,0.4c0.2,0,0.4-0.1,0.7-0.1c-0.5,1.5-1,3-1.5,4.5
		c-0.1,0.2-0.2,0.5-0.2,0.7C235.1,56.2,234.4,56.4,233.8,56.4z M236.8,50.1c0.1,0,0.2,0.1,0.3,0.1c0.2,0,0.4,0,0.5-0.3
		c0.1-0.3-0.1-0.4-0.3-0.5c-0.1-0.1-0.3-0.1-0.4-0.2c-0.1,0-0.1-0.1-0.1-0.1c0-0.1,0.1-0.1,0.2-0.1c0.2,0,0.4,0,0.5,0.3
		c0,0.1,0.1,0.1,0.2,0.1c0.1,0,0.1-0.1,0.1-0.2c0-0.1-0.1-0.2-0.1-0.2c-0.1-0.1-0.3-0.2-0.5-0.2c-0.2-0.1-0.4,0-0.5,0.2
		c-0.1,0.2,0,0.4,0.3,0.5c0.1,0.1,0.3,0.1,0.4,0.2c0.1,0,0.1,0.1,0.1,0.2c0,0.1-0.1,0.1-0.1,0.1c-0.2,0-0.5-0.1-0.6-0.4
		c0-0.1-0.1-0.2-0.2-0.1c-0.1,0-0.1,0.1-0.1,0.2C236.4,49.9,236.5,50.1,236.8,50.1z"/>
	<path class="st35" d="M244.2,46.8c-0.1,0-0.1-0.1-0.1-0.2c-0.2-0.8-0.5-1.5-0.7-2.3c-0.5-1.4-0.9-2.7-1.4-4.1
		c-0.2-0.6-0.4-1.3-0.6-1.9c-0.1-0.2-0.1-0.3-0.2-0.5c0-0.1-0.1-0.1-0.2-0.1c-0.2-0.6-0.3-1.2-0.4-1.8c0.1,0,0.2,0.1,0.2,0.2
		c0.5,0.6,1.1,1.2,1.6,1.8c-0.1,0.1,0,0.2,0,0.3c0.2,0.5,0.3,1.1,0.5,1.6c0.2,0.5,0.3,0.9,0.5,1.4c0.4,1.1,0.7,2.2,1.1,3.4
		c0.1,0.4,0.2,0.8,0.4,1.2C244.7,46.2,244.5,46.5,244.2,46.8z"/>
	<path class="st36" d="M235.7,56c0-0.3,0.1-0.5,0.2-0.7c0.5-1.5,1-3,1.5-4.5c0.1,0,0.1,0,0.2,0c0.3,0,0.4-0.2,0.5-0.4
		c0.1-0.2,0.1-0.5,0.2-0.7c0.2-0.4,0.2-0.8-0.2-1c0-0.1,0.1-0.3,0.1-0.4c0-0.1,0.1-0.2,0.2-0.2c0.3,0.2,0.4,0.7,0.9,0.5
		c0.1,0.2-0.1,0.4-0.1,0.6c0,0.1-0.1,0.1-0.2,0.1c0-0.1-0.1-0.3-0.3-0.3c-0.1,0-0.2,0.1-0.2,0.2c0,0.1,0,0.2,0.1,0.3
		c0.1,0.1,0.2,0.1,0.4,0c0.2,0.1,0.1,0.2,0,0.3c-0.7,2-1.3,4.1-2,6.1C236.6,55.9,236.1,56,235.7,56z"/>
	<path class="st30" d="M244.5,53.8c-0.1,0.3-0.3,0.5-0.6,0.6c-0.8,0.2-1.5,0.4-2.3,0.5c-0.1,0-0.1,0-0.2,0.1
		c0.5-1.6,1.1-3.3,1.6-4.9c0-0.1,0.1-0.3,0.1-0.4c0.1,0,0.3-0.1,0.4-0.1c0.1,0,0.1,0.1,0.1,0.1c0.2,1,0.4,2,0.6,3
		C244.2,53,244.3,53.4,244.5,53.8z"/>
	<path class="st37" d="M230.3,37.9c0.9-0.2,1.9-0.4,2.8-0.6c0.2,0.1,0.1,0.3,0,0.4c-0.5,1.7-1.1,3.3-1.6,5c-0.1,0.2-0.1,0.3-0.3,0.4
		c-0.1-0.1-0.1-0.2-0.1-0.3c-0.1-0.6-0.2-1.2-0.3-1.7c0-0.3-0.1-0.7-0.2-1C230.6,39.3,230.5,38.6,230.3,37.9z"/>
	<path class="st38" d="M244.5,53.8c-0.2-0.4-0.2-0.8-0.3-1.2c-0.2-1-0.4-2-0.6-3c0-0.1,0-0.1-0.1-0.1c0.1-0.1,0-0.2-0.1-0.2
		c-0.3-0.3-0.5-0.6-0.8-0.9c0-0.1-0.1-0.1-0.1-0.2c0.1-0.2,0-0.4,0.2-0.5c0.2-0.1,0.4-0.2,0.7,0.1c0.1,0.2,0.2,0.3,0.1,0.5
		c-0.1,0.2,0,0.3,0.2,0.2c0.2-0.1,0.5-0.1,0.7-0.2c0.1,0,0.2-0.1,0.2-0.2c0.2,0,0.3,0.1,0.4,0.2c0.3,0.4,0.7,0.7,1.1,1
		c-0.1,0.6-0.4,1.2-0.6,1.8c-0.3,0.8-0.5,1.7-0.8,2.5C244.5,53.7,244.5,53.7,244.5,53.8z M243.2,48.1c0.1-0.2-0.1-0.3-0.2-0.4
		c-0.1,0-0.3,0-0.4,0.2c-0.1,0.2,0,0.3,0.2,0.4C243,48.4,243.2,48.3,243.2,48.1z"/>
	<path class="st39" d="M245,46c-0.2-0.4-0.3-0.8-0.4-1.2c-0.4-1.1-0.7-2.3-1.1-3.4c-0.2-0.5-0.3-0.9-0.5-1.4
		c-0.2-0.5-0.4-1.1-0.5-1.6c0-0.1-0.1-0.2,0-0.3c0.5,0.6,1,1.1,1.6,1.7c0.1,0.1,0.2,0.3,0.4,0.4c0,0,0,0,0,0.1c0,0,0,0,0,0
		c0,0.2,0.1,0.4,0.2,0.6c0.2,0.6,0.4,1.3,0.6,1.9c0.2,0.7,0.5,1.4,0.7,2.1c0,0.1,0.1,0.1,0.1,0.1C245.7,45.4,245.4,45.7,245,46z"/>
	<path class="st30" d="M245,46c0.4-0.3,0.7-0.6,1-0.9c0.5-0.4,1-0.9,1.5-1.4c0.2,0.3,0.1,0.6,0,0.9c-0.5,1.4-0.9,2.8-1.4,4.2
		c-0.1,0.2-0.1,0.3-0.2,0.5c-0.4-0.3-0.7-0.6-1.1-1c-0.1-0.1-0.2-0.2-0.4-0.2c0.1-0.3,0.1-0.5-0.2-0.7c-0.1-0.1-0.2-0.3-0.3-0.4
		c0-0.1,0.1-0.1,0.2-0.2C244.5,46.5,244.7,46.2,245,46z"/>
	<path class="st34" d="M230.9,41c0.2,0.6,0.2,1.1,0.3,1.7c0,0.1,0,0.2,0.1,0.3c0,0.1,0,0.2,0,0.4c-0.1,0.3-0.2,0.7-0.3,1
		c0,0-0.1,0-0.1,0c-0.1-0.1-0.3-0.2-0.4-0.4c-0.6-0.5-1.1-1.1-1.7-1.6c-0.1-0.1-0.3-0.3-0.4-0.3c0.1-0.5,0.3-0.9,0.4-1.3
		c0.1-0.4,0.3-0.8,0.4-1.2c0.1,0,0.2,0.1,0.3,0.2c0.4,0.4,0.8,0.8,1.2,1.2C230.8,41,230.8,41.1,230.9,41z"/>
	<path class="st40" d="M231.4,43.4c0-0.1-0.1-0.2,0-0.4c0.1-0.1,0.2-0.3,0.3-0.4c0.5-1.7,1.1-3.3,1.6-5c0-0.1,0.1-0.3,0-0.4
		c0.5-0.1,0.9-0.2,1.4-0.3c0.1,0.1,0,0.2,0,0.4c-0.6,1.9-1.2,3.8-1.9,5.7c-0.3,0.1-0.6,0.1-1,0.2C231.6,43.3,231.5,43.3,231.4,43.4z
		"/>
	<path class="st35" d="M228.4,42.1c0.2,0.1,0.3,0.2,0.4,0.3c0.6,0.5,1.1,1.1,1.7,1.6c0.1,0.1,0.3,0.2,0.4,0.4
		c-0.4,0.4-0.9,0.8-1.3,1.2c-0.1,0.1-0.3,0.3-0.5,0.4c-0.3-0.2-0.5-0.6-0.9-0.8c-0.3-0.2-0.4-0.5-0.7-0.6
		C227.8,43.8,228.1,43,228.4,42.1z"/>
	<path class="st35" d="M237.1,55.7c0.7-2,1.3-4.1,2-6.1c0-0.1,0.1-0.2,0-0.3c0,0,0-0.1,0-0.1c0.1,0,0.2,0,0.2-0.1
		c0-0.2,0.2-0.4,0.1-0.6c0.3-0.1,0.6-0.2,0.9-0.2c-0.7,2.3-1.5,4.6-2.2,6.9c0,0.1-0.1,0.2-0.1,0.4C237.7,55.6,237.4,55.7,237.1,55.7
		z"/>
	<path class="st32" d="M247.5,43.7c-0.5,0.5-0.9,1-1.5,1.4c-0.1,0-0.1-0.1-0.1-0.1c-0.2-0.7-0.4-1.4-0.7-2.1
		c-0.2-0.6-0.4-1.3-0.6-1.9c-0.1-0.2-0.2-0.4-0.2-0.6c0.8,0.9,1.6,1.7,2.4,2.6C247,43.1,247.3,43.3,247.5,43.7z"/>
	<path class="st41" d="M239.2,55.3c-0.1-0.1,0-0.2,0-0.3c0.7-2.1,1.3-4.1,2-6.2c0-0.1,0-0.2,0.2-0.3c0.2,0.2,0.4,0.4,0.6,0.6
		c-0.2,0-0.2,0.2-0.2,0.3c-0.6,1.8-1.2,3.6-1.7,5.3c0,0.1-0.1,0.2,0,0.3C239.7,55.2,239.5,55.3,239.2,55.3z"/>
	<path class="st38" d="M240,55.2c0-0.1,0-0.2,0-0.3c0.6-1.8,1.2-3.6,1.7-5.3c0-0.1,0-0.3,0.2-0.3c0.2,0.1,0.3,0.3,0.5,0.4
		c-0.5,1.7-1.1,3.3-1.6,5c0,0.1-0.1,0.2,0,0.3C240.6,55,240.3,55.1,240,55.2z"/>
	<path class="st42" d="M240.8,55c-0.1-0.1,0-0.2,0-0.3c0.5-1.7,1.1-3.3,1.6-5c0.2,0,0.4-0.1,0.5-0.1c0,0.1,0,0.3-0.1,0.4
		c-0.5,1.6-1.1,3.3-1.6,4.9C241.2,54.9,241,55,240.8,55z"/>
	<path class="st41" d="M230.9,41c-0.1,0.1-0.1,0-0.2-0.1c-0.4-0.4-0.8-0.8-1.2-1.2c-0.1-0.1-0.2-0.1-0.3-0.2
		c0.1-0.4,0.2-0.8,0.4-1.1c0.1-0.3,0.4-0.5,0.7-0.6c0.1,0.7,0.3,1.4,0.4,2.1C230.8,40.3,230.9,40.7,230.9,41z"/>
	<path class="st32" d="M227.6,44.6c0.3,0.1,0.4,0.4,0.7,0.6c0.3,0.2,0.5,0.6,0.9,0.8c-0.2,0.2-0.4,0.4-0.6,0.6
		c-0.2-0.2-0.4-0.4-0.7-0.6c-0.2-0.2-0.3-0.4-0.6-0.5C227.4,45.2,227.5,44.9,227.6,44.6z"/>
	<path class="st35" d="M227.3,45.6c0.2,0.1,0.4,0.3,0.6,0.5c0.2,0.2,0.5,0.4,0.7,0.6c-0.3,0.3-0.6,0.6-0.9,0.8
		c-0.2-0.2-0.4-0.5-0.7-0.6C227,46.4,227.1,46,227.3,45.6z"/>
	<path class="st41" d="M226.9,46.8c0.3,0.1,0.5,0.4,0.7,0.6c-0.3,0.4-0.7,0.6-1.1,1c-0.1-0.2-0.1-0.4,0-0.6
		C226.6,47.5,226.7,47.2,226.9,46.8z"/>
	<path class="st32" d="M244.4,40.2C244.4,40.2,244.4,40.2,244.4,40.2C244.4,40.2,244.4,40.2,244.4,40.2z"/>
	<path class="st31" d="M240,35.8C240,35.9,240,35.9,240,35.8C240,35.9,240,35.9,240,35.8z"/>
	<path class="st43" d="M237,44.6c0.2,0.2,0.4,0.4,0.5,0.6c0.1,0.1,0.1,0.2,0.1,0.4c-0.1,0.4-0.3,0.8-0.4,1.3c0,0.1-0.1,0.2-0.3,0.2
		c-0.3,0.1-0.6,0.1-0.8,0.2c-0.5,0.2-0.9,0-1.1-0.4c-0.1-0.2-0.3-0.3-0.4-0.5c-0.2-0.1-0.2-0.3-0.1-0.5c0.1-0.4,0.3-0.8,0.4-1.1
		c0-0.2,0.1-0.2,0.3-0.3c0.4-0.1,0.8-0.1,1.2-0.2c0.2-0.1,0.3,0,0.5,0.2C236.8,44.5,236.9,44.5,237,44.6z"/>
	<path class="st44" d="M238.1,48.5c0.4,0.3,0.4,0.6,0.2,1c-0.1,0.2-0.2,0.5-0.2,0.7c-0.1,0.3-0.2,0.4-0.5,0.4c-0.1,0-0.1,0-0.2,0
		c-0.2,0-0.4,0.1-0.7,0.1c-0.5,0.1-0.7,0.1-1-0.4c0.2-0.1,0.3-0.1,0.4,0.1c0.1,0.1,0.2,0.1,0.3,0.1c0.4-0.1,0.8-0.2,1.1-0.2
		c0.1,0,0.2-0.1,0.2-0.2c0.1-0.3,0.2-0.6,0.3-0.9c0.1-0.2,0.1-0.4-0.1-0.6c-0.3-0.2-0.4-0.5-0.7-0.7c-0.1-0.1-0.2-0.1-0.4-0.1
		c-0.3,0.1-0.7,0.2-1,0.2c-0.1,0-0.2,0.1-0.2,0.2c-0.1,0.4-0.2,0.7-0.4,1.1c0,0.1,0,0.2,0.1,0.3c0,0,0.1,0.1,0.1,0.1
		c0.2,0.2,0.3,0.1,0.4-0.1c0.1-0.3,0.2-0.7,0.3-1c0-0.1,0-0.3,0.2-0.2c0.2,0.1,0,0.2,0,0.3c-0.1,0.3-0.2,0.6-0.3,1
		c-0.2,0.5-0.4,0.6-0.8,0.2c-0.3-0.3-0.3-0.6-0.2-0.9c0.1-0.2,0.2-0.4,0.2-0.7c0.1-0.4,0.3-0.6,0.6-0.6c0.3-0.1,0.6-0.1,1-0.2
		c0.2,0,0.3,0,0.5,0.2C237.6,48.1,237.8,48.3,238.1,48.5z"/>
	<path class="st43" d="M231.4,43.4c0.1-0.1,0.2-0.1,0.4-0.1c0.3-0.1,0.6-0.1,1-0.2c0.3-0.1,0.5,0,0.7,0.3c0.2,0.3,0.4,0.5,0.6,0.7
		c0.1,0.1,0.2,0.3,0.1,0.5c-0.2,0.5-0.4,1.1-0.5,1.6c0,0.1-0.1,0.2-0.2,0.2c-0.1,0-0.1-0.1-0.2-0.2c0,0,0-0.1-0.1-0.1
		c-0.5-0.3-0.5-0.7-0.2-1.2c0.1-0.2,0.2-0.4,0-0.6c-0.1-0.1-0.2-0.3-0.5-0.2c-0.2,0.1-0.4,0.1-0.4,0.4c0,0.2-0.1,0.4-0.2,0.6
		c0,0.1-0.1,0.2-0.2,0.2c-0.2,0-0.5,0.1-0.7,0.1c-0.2,0-0.3,0-0.2-0.2c0.1-0.3,0.2-0.5,0.2-0.8C231.2,44.1,231.3,43.8,231.4,43.4z"
		/>
	<path class="st43" d="M240.3,48.3c-0.3,0-0.6,0.1-0.9,0.2c-0.5,0.2-0.7-0.3-0.9-0.5c0,0,0-0.1-0.1-0.1c-0.5-0.4-0.5-0.8-0.3-1.4
		c0.2-0.6,0.4-1,1.1-1c0.1,0,0.2,0,0.2,0c0.3,0,0.7-0.3,0.9,0.2c0.1,0.2,0.2,0,0.2-0.1c0.2-0.6,0.4-1.1,0.5-1.7c0-0.1,0-0.3,0.2-0.2
		c0.2,0.2,0.3,0.4,0.5,0.6c0.1,0.1,0.1,0.2,0.1,0.4c-0.4,1.1-0.8,2.3-1.1,3.4C240.6,48.3,240.4,48.2,240.3,48.3z M239.9,47.1
		c0.1-0.2-0.1-0.6-0.3-0.7c-0.2-0.1-0.6,0.1-0.6,0.4c-0.1,0.2,0.1,0.6,0.3,0.7C239.5,47.5,239.9,47.3,239.9,47.1z"/>
	<path class="st36" d="M241.2,43.7c-0.2-0.1-0.2,0.1-0.2,0.2c-0.2,0.5-0.4,1.1-0.5,1.7c0,0.1-0.1,0.2-0.2,0.1
		c-0.3-0.4-0.6-0.2-0.9-0.2c-0.1,0-0.2,0-0.2,0c0-0.3,0.1-0.5,0.2-0.8c0.6-1.8,1.1-3.5,1.7-5.3c0-0.1,0-0.2,0.1-0.3
		c0.2,0.7,0.3,1.4,0.5,2c0,0.1,0,0.3,0.1,0.4c0.1,0.3,0,0.5-0.1,0.8C241.5,42.8,241.4,43.2,241.2,43.7z"/>
	<path class="st43" d="M243,49.6c-0.2,0-0.4,0.1-0.5,0.1c-0.2-0.1-0.3-0.3-0.5-0.4c-0.2-0.2-0.4-0.4-0.6-0.6
		c-0.1-0.1-0.1-0.2-0.1-0.4c0.2-0.5,0.3-1,0.5-1.4c0.3-0.1,0.7-0.2,1-0.2c0.5-0.2,0.8,0,1.1,0.4c0,0,0.1,0,0.1,0.1
		c0.1,0.1,0.2,0.3,0.3,0.4c0.2,0.2,0.3,0.4,0.2,0.7c0,0.1-0.1,0.2-0.2,0.2c-0.2,0-0.5,0.1-0.7,0.2c-0.2,0.1-0.3,0-0.2-0.2
		c0.1-0.2,0-0.3-0.1-0.5c-0.2-0.3-0.4-0.2-0.7-0.1c-0.2,0.1-0.2,0.3-0.2,0.5c0,0,0.1,0.1,0.1,0.2c0.3,0.3,0.5,0.6,0.8,0.9
		c0.1,0.1,0.2,0.1,0.1,0.2C243.3,49.5,243.1,49.5,243,49.6z"/>
	<path class="st41" d="M242.9,46.5c-0.3,0.1-0.7,0.2-1,0.2c-0.1-0.1-0.1-0.2,0-0.3c0.1-0.4,0.3-0.9,0.4-1.3c0-0.1,0-0.2,0.1-0.2
		c0.1,0,0.1,0.1,0.2,0.2C242.6,45.6,242.8,46,242.9,46.5z"/>
	<path class="st44" d="M236.8,50.1c-0.2,0-0.4-0.2-0.4-0.4c0-0.1,0-0.2,0.1-0.2c0.1,0,0.2,0,0.2,0.1c0.1,0.2,0.4,0.4,0.6,0.4
		c0.1,0,0.1,0,0.1-0.1c0-0.1,0-0.1-0.1-0.2c-0.1-0.1-0.3-0.1-0.4-0.2c-0.2-0.1-0.4-0.4-0.3-0.5c0.1-0.2,0.3-0.3,0.5-0.2
		c0.2,0.1,0.3,0.1,0.5,0.2c0.1,0.1,0.1,0.1,0.1,0.2c0,0.1,0,0.2-0.1,0.2c-0.1,0-0.1,0-0.2-0.1c-0.1-0.3-0.3-0.3-0.5-0.3
		c-0.1,0-0.1,0-0.2,0.1c0,0.1,0,0.1,0.1,0.1c0.1,0.1,0.3,0.1,0.4,0.2c0.2,0.1,0.3,0.2,0.3,0.5c-0.1,0.3-0.3,0.3-0.5,0.3
		C237,50.2,236.9,50.1,236.8,50.1z"/>
	<path class="st31" d="M235.4,49.8c-0.1-0.1-0.1-0.2-0.1-0.3c0.1-0.4,0.2-0.7,0.4-1.1c0-0.1,0.1-0.2,0.2-0.2
		C235.7,48.7,235.6,49.2,235.4,49.8z"/>
	<path class="st44" d="M239.1,49.2c0,0,0,0.1,0,0.1c-0.1,0.1-0.2,0.1-0.4,0c-0.1-0.1-0.1-0.2-0.1-0.3c0-0.1,0.1-0.2,0.2-0.2
		C239,48.9,239,49,239.1,49.2z"/>
	<path class="st44" d="M243.2,48.1c0,0.2-0.2,0.2-0.4,0.2c-0.1,0-0.3-0.2-0.2-0.4c0.1-0.2,0.2-0.2,0.4-0.2
		C243.2,47.8,243.3,47.9,243.2,48.1z"/>
	<path class="st36" d="M239.9,47.1c-0.1,0.2-0.4,0.4-0.6,0.3c-0.2-0.1-0.4-0.4-0.3-0.7c0.1-0.2,0.4-0.4,0.6-0.4
		C239.9,46.5,240,46.9,239.9,47.1z"/>
</g>
</svg>
