<?xml version="1.0" encoding="utf-8"?>
<!-- Generator: Adobe Illustrator 25.2.1, SVG Export Plug-In . SVG Version: 6.00 Build 0)  -->
<svg version="1.1" id="tools1" xmlns="http://www.w3.org/2000/svg" xmlns:xlink="http://www.w3.org/1999/xlink" x="0px" y="0px"
	 viewBox="0 0 255.8 180.9" style="enable-background:new 0 0 255.8 180.9;" xml:space="preserve">
<style type="text/css">
	.st0{fill:#FFFFFF;}
	.st1{fill:#F36D3B;}
	.st2{fill:#FFFBF8;}
	.st3{fill:#FFF9F7;}
	.st4{fill:#FFFCF9;}
	.st5{fill:#FFF9F6;}
	.st6{fill:#FFF3EF;}
	.st7{fill:#FFF7F3;}
	.st8{fill:#FEE9E1;}
	.st9{fill:#F47C4E;}
	.st10{fill:#68B145;}
	.st11{fill:#599642;}
	.st12{fill:#C2BEBD;}
	.st13{fill:#83BA65;}
	.st14{fill:#82B963;}
	.st15{fill:#7BB060;}
	.st16{fill:#82B962;}
	.st17{fill:#82B961;}
	.st18{fill:#81B961;}
	.st19{fill:#93BB7A;}
	.st20{fill:#82B964;}
	.st21{fill:#81B862;}
	.st22{fill:#1F5F58;}
</style>
<g>
	<ellipse class="st0" cx="175.9" cy="45.2" rx="11.2" ry="11.4"/>
	<path class="st1" d="M175.9,34.7c5.6,0.1,10.2,4.7,10.1,10.4c-0.1,5.8-4.6,10.4-10.2,10.3c-5.6,0-10.2-4.7-10.1-10.4
		C165.8,39.2,170.3,34.6,175.9,34.7z M176.3,47c0,0-0.1-0.1-0.1-0.1c-0.3-0.4-0.7-0.8-1.3-0.5c-0.2,0.1-0.5,0.1-0.7,0.2
		c-0.1,0-0.2,0.1-0.3,0.2c-1,1-1.9,2-2.9,3c-0.1,0.1-0.1,0.2,0,0.3c0.2,0.2,0.4,0.4,0.6,0.6c0.1,0.1,0.2,0.4,0.4,0.3
		c0.2-0.1,0-0.3,0-0.5c-0.1-0.5-0.1-0.5,0.4-0.8c1.3-0.7,2.5-1.5,3.7-2.4C176.1,47.2,176.2,47.1,176.3,47z M179.1,41.2
		c-0.2-0.2-0.5-0.2-0.7-0.2c-0.3,0.1-0.5,0.2-0.8,0.4c-1,0.7-1.9,1.6-2.8,2.5c-0.6,0.6-0.6,0.6,0,1.3c0.2,0.2,0.2,0.1,0.4,0
		c0.6-0.7,1.3-1.3,1.9-2C177.7,42.5,178.3,41.7,179.1,41.2z M179.2,41.5c-0.2,0-0.3,0.1-0.4,0.2c-1.2,1.2-2.3,2.4-3.5,3.6
		c-0.2,0.2-0.2,0.3,0,0.4c0.2,0.1,0.2,0.4,0.5,0.1c0.7-0.6,1.4-1.2,2-1.9c0.6-0.5,1.1-1,1.7-1.5c0.2-0.2,0.3-0.4,0.2-0.6
		C179.6,41.6,179.4,41.5,179.2,41.5z M179.1,40.1c0,1,1,1.8,1.9,1.5c0.2-0.1,0.2-0.1,0.1-0.3c-0.2-0.2-0.4-0.5-0.7-0.7
		c-0.2-0.2-0.3-0.3,0-0.5c0.3-0.3,0.7-0.7,1-1c0.2-0.2,0.1-0.3-0.1-0.4C180.3,38.2,179.1,38.9,179.1,40.1z M179.7,42.6
		c-0.1,0-0.2,0.1-0.3,0.2c-1.1,0.9-2.1,1.9-3.2,2.8c-0.6,0.5-0.5,0.5,0,1c0.1,0.1,0.2,0.1,0.4,0c0.4-0.4,0.8-0.8,1.1-1.2
		c0.6-0.7,1.3-1.4,1.7-2.2C179.6,43.1,179.7,42.9,179.7,42.6z M182.2,40.1c0-0.3-0.1-0.6-0.3-0.8c-0.1-0.2-0.2-0.2-0.3,0
		c-0.3,0.3-0.6,0.7-0.9,1c-0.2,0.2-0.1,0.3,0,0.4c0.2,0.2,0.5,0.4,0.7,0.7c0.1,0.2,0.2,0.1,0.3,0C182,41,182.1,40.6,182.2,40.1z
		 M171.6,51C171.6,51,171.6,51,171.6,51c-0.2-0.4-0.5-0.6-0.8-0.9c-0.1-0.1-0.1-0.1-0.2,0c-0.3,0.2-0.5,0.5-0.8,0.7
		c0,0,0.1,0.1,0.1,0.1C170.5,51,171,51,171.6,51z M173,45.7C173,45.7,173,45.8,173,45.7c0.6,0,1.1-0.2,1.7-0.3c0,0,0-0.1,0.1-0.1
		c-0.2-0.2-0.4-0.4-0.6-0.6c-0.1-0.1-0.1-0.1-0.2,0C173.6,45.1,173.3,45.4,173,45.7z M174.4,46.3c0.3-0.1,0.5-0.1,0.7-0.2
		c0.1,0,0.2,0,0.2-0.1c0-0.2-0.2-0.2-0.2-0.3c-0.1-0.1-0.1-0.1-0.2,0C174.7,45.9,174.5,46,174.4,46.3z"/>
	<path class="st2" d="M176.3,47c-0.1,0.1-0.2,0.2-0.3,0.2c-1.1,0.9-2.4,1.7-3.7,2.4c-0.5,0.2-0.5,0.2-0.4,0.8c0,0.2,0.2,0.4,0,0.5
		c-0.2,0.1-0.3-0.2-0.4-0.3c-0.2-0.2-0.4-0.4-0.6-0.6c-0.1-0.1-0.1-0.2,0-0.3c1-1,1.9-2,2.9-3c0.1-0.1,0.2-0.1,0.3-0.2
		c0.2,0,0.5-0.1,0.7-0.2c0.6-0.3,1,0.1,1.3,0.5C176.2,46.9,176.2,47,176.3,47z"/>
	<path class="st2" d="M179.1,41.2c-0.8,0.6-1.4,1.3-2,2c-0.7,0.6-1.3,1.3-1.9,2c-0.1,0.1-0.2,0.2-0.4,0c-0.6-0.6-0.6-0.6,0-1.3
		c0.9-0.9,1.8-1.8,2.8-2.5c0.2-0.2,0.5-0.3,0.8-0.4C178.6,40.9,178.9,41,179.1,41.2z"/>
	<path class="st3" d="M179.2,41.5c0.2,0,0.4,0.1,0.5,0.3c0.1,0.2,0,0.5-0.2,0.6c-0.6,0.5-1.1,1-1.7,1.5c-0.7,0.6-1.4,1.2-2,1.9
		c-0.3,0.3-0.4,0-0.5-0.1c-0.2-0.1-0.2-0.2,0-0.4c1.2-1.2,2.3-2.4,3.5-3.6C178.9,41.5,179.1,41.5,179.2,41.5z"/>
	<path class="st4" d="M179.1,40.1c0-1.2,1.3-2,2.3-1.4c0.2,0.1,0.3,0.2,0.1,0.4c-0.3,0.3-0.6,0.7-1,1c-0.2,0.2-0.2,0.4,0,0.5
		c0.2,0.2,0.5,0.5,0.7,0.7c0.2,0.2,0.1,0.2-0.1,0.3C180.1,42,179.1,41.2,179.1,40.1z"/>
	<path class="st3" d="M179.7,42.6c0,0.3-0.1,0.5-0.2,0.7c-0.5,0.8-1.1,1.5-1.7,2.2c-0.4,0.4-0.8,0.8-1.1,1.2c-0.1,0.1-0.2,0.1-0.4,0
		c-0.5-0.5-0.5-0.5,0-1c1-1,2.1-1.9,3.2-2.8C179.5,42.7,179.6,42.6,179.7,42.6z"/>
	<path class="st5" d="M182.2,40.1c0,0.5-0.2,0.9-0.5,1.2c-0.1,0.1-0.2,0.1-0.3,0c-0.2-0.2-0.4-0.5-0.7-0.7c-0.1-0.1-0.2-0.2,0-0.4
		c0.3-0.3,0.6-0.6,0.9-1c0.1-0.2,0.2-0.1,0.3,0C182.1,39.6,182.1,39.8,182.2,40.1z M181.8,40.1c0-0.1,0-0.3-0.2-0.3
		c-0.2,0-0.1,0.2-0.1,0.3c0,0.1,0,0.2-0.1,0.2c0,0.1,0,0.2,0.1,0.2c0.1,0,0.1,0,0.2-0.1C181.8,40.4,181.9,40.3,181.8,40.1z"/>
	<path class="st6" d="M171.6,51c-0.6,0-1.1-0.1-1.7-0.1c0,0-0.1-0.1-0.1-0.1c0.3-0.2,0.5-0.4,0.8-0.7c0.1-0.1,0.2,0,0.2,0
		C171.1,50.4,171.4,50.7,171.6,51C171.6,51,171.6,51,171.6,51z"/>
	<path class="st7" d="M173,45.7c0.3-0.3,0.6-0.7,0.9-1c0.1-0.1,0.1,0,0.2,0c0.2,0.2,0.4,0.4,0.6,0.6c0,0,0,0.1-0.1,0.1
		C174.1,45.5,173.6,45.7,173,45.7C173,45.8,173,45.7,173,45.7z"/>
	<path class="st8" d="M174.4,46.3c0.1-0.3,0.3-0.4,0.5-0.6c0.1-0.1,0.1-0.1,0.2,0c0.1,0.1,0.2,0.2,0.2,0.3c0,0.1-0.1,0.1-0.2,0.1
		C174.9,46.2,174.6,46.2,174.4,46.3z"/>
	<path class="st9" d="M181.8,40.1c0,0.2,0,0.3-0.1,0.4c0,0.1-0.1,0.1-0.2,0.1c-0.1,0-0.1-0.1-0.1-0.2c0-0.1,0.1-0.2,0.1-0.2
		c0-0.1-0.1-0.3,0.1-0.3C181.9,39.9,181.8,40.1,181.8,40.1z"/>
</g>
<g>
	<path class="st0" d="M31.8,45l-3.2,2.2c-1.2,0.8-2.1,1.8-2.9,3l-0.8,1.3c-0.6,1-1.1,2.2-1.3,3.4l-0.2,1c-0.3,1.8-0.2,3.6,0.4,5.3
		l0.7,1.8l0.7,1.1c0.2,0.4,0.3,0.8,0.3,1.2l-0.3,1.6c-0.1,0.3,0.1,0.7,0.4,0.9h0c0.5,0.4,1.2,0.1,1.4-0.5l0.3-1
		c0.1-0.4,0.4-0.8,0.8-1l1.4-0.9c0.7-0.4,1.4-1,2-1.6l0.5-0.5c0.9-0.9,1.6-2,2.1-3.1l0.3-0.8c0.5-1.1,0.7-2.2,0.8-3.4l0.1-1.2
		c0.1-1.2-0.1-2.3-0.4-3.5l-0.5-1.8c-0.1-0.4-0.3-0.8-0.5-1.2l-0.9-2.1C32.7,44.8,32.2,44.7,31.8,45z"/>
	<g>
		<path class="st10" d="M26.2,64.4c-0.3-0.4-0.6-0.9-0.9-1.3c-0.8-1.6-1.4-3.2-1.5-5c-0.1-0.9,0-1.9,0.2-2.8
			c0.3-1.3,0.8-2.4,1.4-3.5c0.8-1.5,1.9-2.8,3.2-3.9c0.9-0.7,1.8-1.3,2.9-1.7c0.4-0.2,0.6-0.4,0.8-0.9c0,0.1,0,0.1,0,0.2
			c0,0,0,0,0,0c-0.1,0.4-0.1,0.7-0.2,1c0,0.1,0,0.1,0,0.2C32,46.8,32,46.9,32,47c0,0.1,0,0.1,0,0.2c-0.1,0.1-0.1,0.3-0.1,0.5
			c0,0.1,0,0.1,0,0.2c-0.1,0.1-0.1,0.3-0.1,0.4c0,0.1-0.1,0.1,0,0.2c0,0.1-0.1,0.2-0.1,0.3c0,0,0,0,0,0c-0.1,0.3-0.2,0.6-0.3,0.8
			c0,0,0,0,0,0c-0.1,0.1-0.1,0.3-0.1,0.4c0,0,0,0.1,0,0.1c-0.1,0.4-0.3,0.9-0.4,1.3c0,0,0,0.1,0,0.1c-0.1,0.3-0.2,0.6-0.3,1
			c0,0,0,0.1-0.1,0.1c-0.3,0.9-0.5,1.8-0.8,2.6c0,0,0,0.1,0,0.1c0,0.1-0.1,0.3-0.1,0.4c-0.1,0.1-0.1,0.3-0.1,0.4
			c0,0.1-0.1,0.1,0,0.2c0,0.1-0.1,0.2-0.1,0.4c0,0,0,0,0,0.1c-0.1,0.4-0.3,0.9-0.4,1.3c0,0,0,0.1,0,0.1c-0.1,0.1-0.1,0.2-0.1,0.3
			c-0.1,0.1-0.1,0.1-0.1,0.2c0,0.1-0.1,0.3-0.1,0.4c0,0.1-0.1,0.1-0.1,0.2c-0.1,0.1-0.1,0.3-0.1,0.4c0,0,0,0.1-0.1,0.1
			c-0.1,0.1-0.1,0.2-0.1,0.3c-0.1,0.4-0.3,0.8-0.4,1.1c-0.1,0.1-0.1,0.3-0.2,0.4c-0.2,0.5-0.4,1-0.7,1.6
			C26.6,63.8,26.5,64.1,26.2,64.4z"/>
		<path class="st11" d="M30.4,52.7c0.1-0.3,0.2-0.6,0.3-1c0.2-0.5,0.3-1,0.5-1.5c0-0.1,0.1-0.3,0.1-0.4c0.1-0.3,0.2-0.6,0.3-0.9
			c0-0.1,0-0.2,0.1-0.3c0.1-0.2,0.1-0.4,0.2-0.6c0-0.1,0-0.2,0-0.2c0-0.2,0.1-0.3,0.1-0.5c0-0.1,0-0.1,0-0.2c0-0.1,0.1-0.2,0.1-0.3
			c0-0.1,0-0.1,0-0.2c0.1-0.3,0.2-0.7,0.2-1c0,0,0,0,0,0c0,0.2,0.1,0.5,0.1,0.7c0.1,0.4,0.2,0.9,0.4,1.3c0.6,1.1,1.1,2.3,1.4,3.6
			c0.3,1.2,0.3,2.4,0.3,3.7c0,0.8-0.1,1.6-0.3,2.3c-0.5,1.8-1.3,3.4-2.6,4.8c-0.9,1-2,1.8-3.2,2.4c-0.3,0.1-0.6,0.3-0.8,0.4
			c0,0-0.1,0-0.1,0c-0.2-0.2-0.3-0.5-0.3-0.8c0-0.6,0.1-1.2,0.3-1.8c0-0.1,0.1-0.3,0.1-0.4c0.2-0.4,0.3-0.7,0.4-1.1
			c0.1-0.1,0.1-0.2,0.1-0.3c0,0,0-0.1,0.1-0.1c0-0.1,0.1-0.3,0.1-0.4c0-0.1,0.1-0.1,0.1-0.2c0.1-0.2,0.1-0.4,0.2-0.6
			c0-0.1,0.1-0.2,0.1-0.3c0.1-0.5,0.3-1,0.4-1.4c0-0.1,0.1-0.2,0.1-0.4c0.1-0.2,0.1-0.4,0.2-0.6c0-0.1,0.1-0.3,0.1-0.4
			C29.8,54.6,30.1,53.6,30.4,52.7z"/>
		<path class="st12" d="M27.5,61.9c-0.1,0.6-0.3,1.2-0.3,1.8c0,0.3,0.1,0.6,0.3,0.8c-0.1,0.1-0.3,0.2-0.4,0.4
			c-0.1,0.2-0.2,0.4-0.3,0.6c-0.1,0.3-0.2,0.6-0.3,0.9c0,0.3-0.2,0.5-0.2,0.8c0,0.1,0,0.1-0.1,0.1c-0.1-0.1-0.2-0.1-0.3-0.2
			c-0.1,0-0.1-0.1-0.1-0.2c0.1-0.3,0.2-0.5,0.2-0.8c0.1-0.5,0.2-1.1,0.2-1.6c0,0,0,0,0,0c0.2-0.3,0.4-0.6,0.5-0.9
			C27,63,27.2,62.5,27.5,61.9C27.5,61.9,27.5,61.9,27.5,61.9z"/>
		<path class="st13" d="M30.4,52.7c-0.3,1-0.6,1.9-0.9,2.9c0,0,0-0.1,0-0.1c0.3-0.9,0.5-1.8,0.8-2.6C30.4,52.7,30.4,52.7,30.4,52.7z
			"/>
		<path class="st14" d="M31.1,50.2c-0.2,0.5-0.3,1-0.5,1.5c0,0,0-0.1,0-0.1C30.8,51.2,30.9,50.7,31.1,50.2
			C31.1,50.2,31.1,50.2,31.1,50.2z"/>
		<path class="st15" d="M29.2,56.9c-0.1,0.5-0.3,1-0.4,1.4c0,0,0-0.1,0-0.1C28.9,57.8,29,57.4,29.2,56.9
			C29.1,57,29.1,56.9,29.2,56.9z"/>
		<path class="st16" d="M31.5,48.8c-0.1,0.3-0.2,0.6-0.3,0.9c0,0,0,0,0,0C31.3,49.4,31.4,49.1,31.5,48.8
			C31.5,48.8,31.5,48.8,31.5,48.8z"/>
		<path class="st17" d="M29.4,55.9c-0.1,0.2-0.1,0.4-0.2,0.6c0-0.1,0-0.1,0-0.2C29.3,56.2,29.4,56,29.4,55.9z"/>
		<path class="st18" d="M28.6,58.7c-0.1,0.2-0.1,0.4-0.2,0.6c0-0.2,0.1-0.3,0.1-0.4C28.5,58.8,28.5,58.7,28.6,58.7z"/>
		<path class="st16" d="M31.8,47.9c-0.1,0.2-0.1,0.4-0.2,0.6c0-0.1,0-0.1,0-0.2C31.7,48.2,31.7,48,31.8,47.9z"/>
		<path class="st19" d="M27.5,61.9C27.5,61.9,27.5,61.9,27.5,61.9c0-0.1,0.1-0.3,0.1-0.4C27.6,61.7,27.5,61.8,27.5,61.9z"/>
		<path class="st16" d="M31.9,47.2c0,0.2-0.1,0.3-0.1,0.5C31.8,47.5,31.9,47.4,31.9,47.2z"/>
		<path class="st16" d="M28.3,59.5c0,0.1-0.1,0.3-0.1,0.4C28.2,59.8,28.3,59.7,28.3,59.5z"/>
		<path class="st20" d="M32.1,46.7c0,0.1-0.1,0.2-0.1,0.3C32,46.9,32,46.8,32.1,46.7z"/>
		<path class="st21" d="M28.1,60.1c0,0.1,0,0.2-0.1,0.3C28.1,60.3,28.1,60.2,28.1,60.1z"/>
	</g>
</g>
<circle class="st22" cx="85.1" cy="61.7" r="4.3"/>
<circle class="st22" cx="47.3" cy="73.6" r="1.8"/>
<ellipse class="st22" cx="73.1" cy="144.5" rx="4.5" ry="4.3"/>
<ellipse class="st22" cx="168.6" cy="108.7" rx="2.9" ry="2.7"/>
<ellipse class="st22" cx="168.8" cy="59.2" rx="3.8" ry="3.6"/>
<ellipse class="st22" cx="201.2" cy="79" rx="2.7" ry="2.5"/>
<ellipse class="st22" cx="157.3" cy="88" rx="1.3" ry="1.4"/>
</svg>
