<?xml version="1.0" encoding="utf-8"?>
<!-- Generator: Adobe Illustrator 25.2.1, SVG Export Plug-In . SVG Version: 6.00 Build 0)  -->
<svg version="1.1" id="tools3" xmlns="http://www.w3.org/2000/svg" xmlns:xlink="http://www.w3.org/1999/xlink" x="0px" y="0px"
	 viewBox="0 0 255.8 180.9" style="enable-background:new 0 0 255.8 180.9;" xml:space="preserve">
<style type="text/css">
	.st0{fill:#FFFFFF;}
	.st1{fill:#474747;}
	.st2{fill:#484848;}
	.st3{fill:#F8971D;}
	.st4{fill:#F8961D;}
	.st5{fill:#F39020;}
	.st6{fill:#ED8C22;}
	.st7{fill:#E48325;}
	.st8{fill:#EA8824;}
	.st9{fill:#E1452A;}
	.st10{fill:#F36E2B;}
	.st11{fill:#FAA328;}
	.st12{fill:#1F5F58;}
	.st13{fill:#292929;}
	.st14{fill:#222222;}
	.st15{fill:#1F2020;}
	.st16{fill:#1C1C1C;}
	.st17{fill:#171717;}
	.st18{fill:#191918;}
	.st19{fill:#242424;}
	.st20{fill:#060505;}
	.st21{fill:#020202;}
	.st22{fill:#42A147;}
	.st23{fill:#898A63;}
	.st24{fill:#898962;}
	.st25{fill:#278340;}
	.st26{fill:#43A347;}
	.st27{fill:#90936B;}
	.st28{fill:#216B36;}
	.st29{fill:#237A3D;}
	.st30{fill:#C5E7E8;}
	.st31{fill:#8ECEA3;}
	.st32{fill:#6DC17B;}
	.st33{fill:#CFE9D7;}
	.st34{fill:#C3E3C8;}
	.st35{fill:#4BC8ED;}
	.st36{fill:#6751A2;}
	.st37{fill:#7253A2;}
	.st38{fill:#6951A2;}
	.st39{fill:#694EA0;}
	.st40{fill:#E6D8EA;}
	.st41{fill:#6251A2;}
	.st42{fill:#EFE4F1;}
	.st43{fill:#6A51A2;}
	.st44{fill:#6F52A2;}
	.st45{fill:#6C52A2;}
	.st46{fill:#F6F2F8;}
	.st47{fill:#EDE1EF;}
	.st48{fill:#F9F8FC;}
	.st49{fill:#6351A2;}
</style>
<g>
	<path class="st0" d="M74.2,63.8l-13.4,4c-1.1,0.3-2.2-0.3-2.6-1.4l-4-13.3c-0.3-1.1,0.3-2.2,1.4-2.6l13.4-4
		c1.1-0.3,2.2,0.3,2.6,1.4l4,13.3C76,62.3,75.3,63.5,74.2,63.8z"/>
	<polygon class="st1" points="55.9,52.1 69.9,48 71.9,52.9 73.8,59.2 73.3,62.3 59.3,65.9 55.6,53.8 	"/>
	<path class="st1" d="M73,56.7c0,0.2,0.1,0.4,0.2,0.6c0.1,0.2,0.1,0.4,0.2,0.7c0.1,0.2,0.1,0.4,0.2,0.7s0.1,0.4,0.2,0.7
		c0.1,0.2,0.1,0.4,0.2,0.7c0.1,0.2,0.1,0.4,0.2,0.7c0.1,0.3,0.2,0.5,0.2,0.8c0.2,0.6-0.1,1.2-0.7,1.3c-3.7,1.1-7.3,2.2-11,3.3
		c-0.7,0.2-1.4,0.4-2.1,0.6c-0.6,0.2-1.2-0.1-1.3-0.7c-0.4-1.3-0.8-2.6-1.2-3.9c0,0,0.1-0.1,0.1-0.1c0,0-0.1,0.1,0,0.1
		c0.1,0,0.1,0,0.2,0c0,0,0.1-0.1,0.1-0.1c0-0.1,0.1,0,0.2,0c0,0,0.1,0,0.1,0.1c0,0.1,0,0.1-0.1,0.1c0,0,0,0,0,0c0,0,0,0.1,0,0.1
		c0.1,0,0.2,0,0.2-0.1c0.1-0.2,0.2-0.3,0.4-0.2c0.1,0,0.2,0,0.2-0.1c0-0.1,0.1-0.1,0.2-0.1c0.2,0.1,0.3,0,0.4-0.1c0,0,0-0.1,0.1,0
		c0.2,0.1,0.3,0.1,0.4-0.1c0.1-0.1,0.1-0.3,0.3-0.1c0,0,0.1,0,0.1,0c0.1-0.1,0.3-0.1,0.4-0.1c0,0,0,0,0.1,0c0.3,0.9,0.5,1.7,0.8,2.6
		c0.1,0.3,0.2,0.3,0.4,0.2c1.1-0.7,2.2-1.5,3.3-2.2c0.8-0.6,1.7-1.1,2.5-1.7c0.2-0.1,0.5-0.3,0.7-0.5c0.1-0.1,0.3-0.1,0.4-0.2
		c0.1-0.1,0.2-0.1,0.3-0.2c0.1-0.1,0.3-0.1,0.3-0.3c0,0,0,0,0,0c0,0,0,0,0-0.1c0-0.3-0.1-0.6-0.2-0.9c0.2,0,0.3,0,0.5-0.1
		c0,0,0.1-0.1,0.1-0.1c0.1,0.1,0.2,0,0.4,0c-0.1,0-0.2-0.1-0.2-0.2c0,0,0-0.1,0-0.1c0,0,0.1,0,0.1,0c0.1,0.3,0.2,0.1,0.3,0
		c0.1-0.1,0.1-0.1,0.2,0c0,0.1,0.1,0.1,0.1,0c0.2,0,0.2-0.2,0.3-0.3c0,0,0-0.1,0.1-0.1c0.1,0,0.1,0,0.1-0.1c0-0.1,0.1-0.1,0.1-0.1
		c0.1,0,0,0.1,0,0.1c0,0.1,0.1,0.1,0.1,0.2c0,0,0.1,0,0.1,0c0-0.1,0.1-0.1,0.1-0.3c0,0,0,0,0.1,0c0.1,0.1,0.3,0,0.3,0.2
		c0,0.1,0.1,0,0.1,0c0.1,0,0.1-0.1,0.1-0.2C72.8,56.7,72.9,56.7,73,56.7z M70.1,57.9c0,0-0.1-0.1-0.1-0.1c0,0-0.1,0,0,0.1
		C69.9,58,70,58,70.1,57.9C70.1,58,70.1,58,70.1,57.9z M60.7,61.3C60.7,61.3,60.6,61.4,60.7,61.3c0,0.1,0,0.1,0,0.1
		C60.7,61.4,60.8,61.4,60.7,61.3C60.7,61.3,60.7,61.3,60.7,61.3z"/>
	<path class="st1" d="M56.5,56.8c-0.4-1.2-0.7-2.4-1.1-3.5c0-0.2-0.1-0.3-0.1-0.5c-0.1-0.5,0.1-1,0.6-1.2c0,0,0.1,0,0.1,0
		c4.3-1.3,8.7-2.6,13-3.9c0.5-0.2,1,0,1.3,0.5c0,0.1,0.1,0.2,0.1,0.3c0.2,0.7,0.4,1.5,0.7,2.2c0.1,0.3,0.2,0.6,0.3,0.9
		c-0.2-0.1-0.4-0.1-0.5,0.1c-0.1,0.1-0.2,0-0.3,0c-0.1,0.1-0.1,0.2-0.2,0.3c0,0-0.1,0.1-0.1,0c0,0,0-0.1,0-0.1c0,0,0-0.1,0-0.1
		c0,0-0.1,0-0.1,0c0,0.1-0.1,0.1,0,0.2c0,0,0,0.1,0,0.1c0,0,0,0,0,0c0-0.1-0.1-0.1-0.1-0.1c-0.1,0-0.2,0-0.2,0.1
		c0,0.1-0.1,0.2-0.2,0.1c-0.1,0-0.1,0-0.1,0.1c0,0,0,0.1-0.1,0.1c0,0,0-0.1-0.1-0.1c0-0.1,0-0.1,0-0.1c0,0,0.1-0.1,0-0.1
		c-0.1,0-0.1,0-0.1,0.1c-0.1,0.1-0.1,0.1-0.2,0c0,0-0.1-0.1-0.1,0c0,0.1,0,0.1,0.1,0.1c0.1,0,0.1,0.1,0.1,0.2c0,0.1-0.1,0.1-0.2,0.1
		c-0.1-0.1-0.2,0-0.4,0c-0.1,0-0.2,0-0.1,0.2c0.1,0.1,0,0.1-0.1,0.1c-0.2-0.7-0.4-1.3-0.6-2c-0.1-0.3-0.2-0.4-0.4-0.2
		c-0.7,0.5-1.5,1-2.2,1.5c-1.7,1.1-3.4,2.3-5,3.4c-0.1,0.1-0.2,0.1-0.2,0.3c0,0-0.1,0-0.1,0c-0.1,0.2-0.3,0.2-0.5,0.3
		C59,56,58.9,56.1,58.7,56c0,0,0,0-0.1,0c-0.1,0.1-0.2,0.1-0.3,0c-0.1-0.1-0.1-0.1-0.2,0c0,0.1-0.1,0.2-0.2,0.1c0,0-0.1,0-0.1,0
		c0,0,0,0.1,0,0.1c0.1,0.1,0,0.2-0.1,0.2c-0.1,0-0.2,0-0.2,0.1c-0.1,0.1-0.1,0.1-0.2,0c-0.1-0.1-0.1-0.2-0.2-0.1c-0.1,0-0.1,0-0.2,0
		c0,0-0.1,0-0.1,0c0,0,0,0.1,0,0.1c0.1,0.1,0,0.2,0.1,0.3c0,0.1,0,0.1-0.1,0.1C56.7,56.7,56.6,56.7,56.5,56.8z M57.4,56.2
		C57.4,56.3,57.4,56.3,57.4,56.2c0,0.1,0,0.1,0.1,0.1C57.5,56.3,57.5,56.3,57.4,56.2C57.5,56.3,57.5,56.2,57.4,56.2z M59.1,55.8
		C59.2,55.8,59.2,55.8,59.1,55.8c0-0.1,0-0.1,0-0.1C59,55.7,59,55.7,59.1,55.8C59,55.8,59.1,55.8,59.1,55.8z M69.6,51.6
		C69.6,51.6,69.6,51.6,69.6,51.6C69.6,51.7,69.6,51.7,69.6,51.6C69.7,51.7,69.7,51.6,69.6,51.6C69.7,51.6,69.7,51.6,69.6,51.6z
		 M58.6,55.7C58.6,55.7,58.6,55.7,58.6,55.7C58.6,55.7,58.6,55.7,58.6,55.7C58.6,55.7,58.6,55.7,58.6,55.7
		C58.6,55.7,58.6,55.7,58.6,55.7z"/>
	<path class="st1" d="M56.5,56.8c0.1,0,0.2-0.1,0.3,0c0.1,0,0.1,0,0.1-0.1c0-0.1,0.1-0.2-0.1-0.3c0,0,0-0.1,0-0.1c0,0,0.1,0,0.1,0
		c0.1,0.1,0.1,0.1,0.2,0c0.1,0,0.1,0.1,0.2,0.1c0.1,0.1,0.1,0.1,0.2,0c0.1-0.1,0.1-0.1,0.2-0.1c0.1,0,0.2-0.1,0.1-0.2
		c0-0.1,0-0.1,0-0.1c0,0,0.1,0,0.1,0c0.1,0.1,0.2,0,0.2-0.1c0-0.1,0.1-0.1,0.2,0c0.1,0.1,0.2,0.1,0.3,0c0,0,0.1,0,0.1,0
		c0.2,0.1,0.3,0,0.4-0.1c0.1-0.1,0.3-0.1,0.5-0.3c0,0,0.1,0,0.1,0c0.3,0.9,0.5,1.8,0.8,2.7c0.1,0.3,0.2,0.4,0.5,0.4
		c1.2,0,2.4,0,3.6,0.1c-0.1,0.1-0.2,0.1-0.3,0.2c-0.1,0.1-0.2,0.1-0.3,0.2c-0.1,0.1-0.3,0.1-0.4,0.2c-0.2,0.1-0.5,0.3-0.7,0.5
		c-0.5,0.3-1,0.7-1.5,1c-0.1,0.1-0.1,0.2-0.1,0.3c0,0,0,0-0.1,0c-0.2-0.1-0.3,0-0.4,0.1c0,0-0.1,0-0.1,0c-0.2-0.1-0.2,0-0.3,0.1
		c-0.1,0.2-0.2,0.2-0.4,0.1c-0.1,0-0.1,0-0.1,0c-0.1,0.1-0.3,0.2-0.4,0.1c-0.1,0-0.1,0-0.2,0.1c0,0.1-0.1,0.1-0.2,0.1
		c-0.2,0-0.3,0.1-0.4,0.2c0,0.1-0.1,0.1-0.2,0.1c0,0,0,0,0-0.1c0,0,0,0,0,0c0,0,0.1,0,0.1-0.1c0,0,0-0.1-0.1-0.1c-0.1,0-0.1,0-0.2,0
		c0,0.1-0.1,0.1-0.1,0.1c0,0-0.1,0.1-0.2,0c-0.1,0,0-0.1,0-0.1c-0.1,0-0.1,0-0.1,0.1c-0.2-0.6-0.4-1.2-0.6-1.9
		C57.2,59,56.8,57.9,56.5,56.8z"/>
	<path class="st2" d="M68.2,52.5c0.1,0,0.2,0,0.1-0.1c-0.1-0.1,0-0.2,0.1-0.2c0.1,0,0.2-0.1,0.4,0c0,0,0.1,0,0.2-0.1
		c0-0.1,0-0.1-0.1-0.2c0,0-0.1,0-0.1-0.1c0,0,0.1,0,0.1,0c0.1,0.1,0.2,0,0.2,0c0,0,0-0.1,0.1-0.1c0.1,0.1,0,0.1,0,0.1
		c0,0-0.1,0.1,0,0.1c0,0,0,0.1,0.1,0.1c0,0,0.1,0,0.1-0.1c0-0.1,0.1-0.1,0.1-0.1c0.2,0.1,0.2-0.1,0.2-0.1c0-0.1,0.1-0.1,0.2-0.1
		c0.1,0,0.1,0,0.1,0.1c0,0,0,0,0,0c0,0,0,0,0-0.1c0-0.1,0-0.1,0-0.2c0,0,0-0.1,0.1,0c0,0,0,0.1,0,0.1c0,0,0,0.1,0,0.1
		c0,0,0.1,0,0.1,0c0.1-0.1,0.1-0.2,0.2-0.3c0.1,0,0.2,0.1,0.3,0c0.2-0.1,0.3-0.1,0.5-0.1c0.4,1.2,0.7,2.3,1.1,3.5
		c0.2,0.6,0.3,1.1,0.5,1.7c-0.1,0-0.2,0-0.1,0.2c0,0.1,0,0.1-0.1,0.2c0,0-0.1,0-0.1,0c0-0.2-0.2-0.2-0.3-0.2c0,0-0.1,0-0.1,0
		c0,0.1-0.1,0.1-0.1,0.3c0,0,0,0.1-0.1,0c0,0-0.1-0.1-0.1-0.2c0,0,0-0.1,0-0.1c-0.1,0-0.1,0-0.1,0.1c0,0.1,0,0.1-0.1,0.1
		c-0.1,0-0.1,0.1-0.1,0.1c-0.1,0.1-0.1,0.3-0.3,0.3c-0.1,0-0.1,0-0.1,0c0-0.1-0.1-0.1-0.2,0c-0.1,0.1-0.2,0.3-0.3,0c0,0,0,0-0.1,0
		c0,0,0,0,0,0.1c0,0.1,0,0.1,0.2,0.2c-0.2,0-0.3,0.1-0.4,0c0,0-0.1,0-0.1,0.1c-0.1,0.1-0.3,0.2-0.5,0.1c-0.2-0.6-0.4-1.2-0.6-1.8
		c-0.1-0.2-0.2-0.3-0.4-0.3c-0.8,0-1.7,0-2.5,0c-0.4,0-0.8,0-1.2,0c0.1-0.1,0.2-0.1,0.2-0.2c0.9-0.6,1.9-1.3,2.8-1.9
		c0.3-0.2,0.3-0.3,0.2-0.6C68.3,52.8,68.2,52.7,68.2,52.5z"/>
	<path class="st3" d="M68.2,52.5c0,0.1,0.1,0.2,0.1,0.4c0.1,0.3,0.1,0.4-0.2,0.6c-0.9,0.6-1.9,1.3-2.8,1.9c-0.1,0-0.1,0.1-0.2,0.2
		c0.4,0,0.8,0,1.2,0c0.8,0,1.7,0,2.5,0c0.2,0,0.4,0.1,0.4,0.3c0.2,0.6,0.4,1.2,0.6,1.8c0.1,0.3,0.2,0.6,0.2,0.9c0,0,0,0,0,0.1
		c0,0,0,0,0,0c-0.1,0-0.1,0-0.2,0c-1.3,0-2.6,0-3.8-0.1c-0.4,0-0.9,0-1.3,0c-1.2,0-2.4,0-3.6-0.1c-0.3,0-0.4-0.1-0.5-0.4
		c-0.3-0.9-0.5-1.8-0.8-2.7c0-0.1,0.1-0.2,0.2-0.3c1.7-1.1,3.4-2.3,5-3.4c0.7-0.5,1.5-1,2.2-1.5c0.3-0.2,0.3-0.2,0.4,0.2
		C67.8,51.2,68,51.9,68.2,52.5z"/>
	<path class="st4" d="M61.4,61.2c0-0.1,0-0.3,0.1-0.3c0.5-0.3,1-0.7,1.5-1c0,0.1,0.1,0.1,0.2,0.1c0.3,0,0.6,0,0.9,0
		c0.4,0,0.8,0,1.2,0c0.3,0,0.6,0,1,0c0.7,0,1.3,0,2,0c0.1,0,0.1,0,0.1,0.1c-0.8,0.6-1.7,1.2-2.5,1.7c-1.1,0.7-2.2,1.5-3.3,2.2
		c-0.2,0.2-0.3,0.1-0.4-0.2C61.9,62.9,61.6,62,61.4,61.2z"/>
	<path class="st5" d="M68.3,59.9c0-0.1-0.1-0.1-0.1-0.1c-0.7,0-1.3,0-2,0c-0.3,0-0.6,0-1,0c-0.4,0-0.8,0-1.2,0c-0.3,0-0.6,0-0.9,0
		c-0.1,0-0.1,0-0.2-0.1c0.2-0.2,0.5-0.3,0.7-0.5c0.1,0.1,0.1,0.1,0.2,0.1c0.5,0,0.9,0,1.4,0c0.6,0,1.3,0,1.9,0c0.5,0,1.1,0,1.6,0
		c0.1,0,0.1,0,0.2,0.1C68.8,59.6,68.6,59.8,68.3,59.9z"/>
	<path class="st6" d="M69,59.5c0-0.1-0.1-0.1-0.2-0.1c-0.5,0-1.1,0-1.6,0c-0.6,0-1.3,0-1.9,0c-0.5,0-0.9,0-1.4,0
		c-0.1,0-0.2,0-0.2-0.1c0.1-0.1,0.2-0.2,0.4-0.2c0,0,0.1,0.1,0.1,0.1c0.2,0,0.5,0,0.7,0c1.4,0,2.9,0,4.3,0c0.1,0,0.1,0,0.1,0.1
		C69.3,59.3,69.1,59.4,69,59.5z"/>
	<path class="st7" d="M64.6,58.7c0.4,0,0.9,0,1.3,0c1.3,0,2.6,0,3.8,0.1c0.1,0,0.1,0,0.2,0c0,0.2-0.2,0.2-0.3,0.3
		c-0.1-0.1-0.2-0.1-0.2-0.1c-0.4,0-0.9,0-1.3,0c-0.8,0-1.6,0-2.4,0c-0.4,0-0.8,0-1.2,0c-0.1,0-0.1,0-0.2-0.1
		C64.4,58.8,64.6,58.8,64.6,58.7z"/>
	<path class="st8" d="M64.4,58.9c0,0.1,0.1,0.1,0.2,0.1c0.4,0,0.8,0,1.2,0c0.8,0,1.6,0,2.4,0c0.4,0,0.9,0,1.3,0c0.1,0,0.2,0,0.2,0.1
		c-0.1,0.1-0.2,0.1-0.3,0.2c0-0.1-0.1-0.1-0.1-0.1c-1.4,0-2.9,0-4.3,0c-0.2,0-0.5,0-0.7,0c-0.1,0-0.1,0-0.1-0.1
		C64.2,59,64.3,58.9,64.4,58.9z"/>
	<path class="st2" d="M70.1,57.9C70.1,58,70.1,58,70.1,57.9C70,58,69.9,58,69.9,58c0,0,0-0.1,0-0.1C70,57.9,70.1,57.9,70.1,57.9z"/>
	<path class="st1" d="M60.7,61.3C60.7,61.3,60.7,61.3,60.7,61.3c0.1,0.1,0.1,0.1,0,0.1C60.7,61.4,60.7,61.4,60.7,61.3
		C60.6,61.4,60.7,61.3,60.7,61.3z"/>
	<path class="st7" d="M70,58.7C70,58.7,70,58.6,70,58.7C70,58.6,70,58.7,70,58.7z"/>
	<path class="st1" d="M57.4,56.2C57.5,56.2,57.5,56.3,57.4,56.2c0.1,0.1,0.1,0.1,0.1,0.1C57.5,56.4,57.4,56.4,57.4,56.2
		C57.4,56.3,57.4,56.3,57.4,56.2z"/>
	<path class="st1" d="M59.1,55.8C59.1,55.8,59,55.8,59.1,55.8c-0.1-0.1-0.1-0.1,0-0.1C59.1,55.7,59.1,55.7,59.1,55.8
		C59.2,55.8,59.2,55.8,59.1,55.8z"/>
	<path class="st2" d="M69.6,51.6C69.7,51.6,69.7,51.6,69.6,51.6C69.7,51.6,69.7,51.7,69.6,51.6C69.6,51.7,69.6,51.7,69.6,51.6
		C69.6,51.6,69.6,51.6,69.6,51.6z"/>
	<path class="st1" d="M58.6,55.7C58.6,55.7,58.6,55.7,58.6,55.7C58.6,55.7,58.6,55.7,58.6,55.7C58.6,55.7,58.6,55.7,58.6,55.7
		C58.6,55.7,58.6,55.7,58.6,55.7z"/>
</g>
<g>
	<path class="st0" d="M231.4,85.2l4.3-1.1l0.5-6.3c0-0.4,0.3-0.7,0.6-0.8l0.2-0.1c0.4-0.1,0.8,0,1,0.4l5.4,8.4
		c0.3,0.5,0.3,1.1,0,1.5l-5.9,8.4c-0.2,0.4-0.7,0.5-1.1,0.3l-10-3.9c-0.4-0.2-0.7-0.6-0.7-1.1l0.3-10.3c0-0.4,0.3-0.8,0.7-0.8l0,0
		c0.3,0,0.6,0.1,0.8,0.4L231.4,85.2z"/>
	<path class="st9" d="M230.9,86.3c2-0.6,3.9-1.1,5.9-1.7c0,0,0,0,0,0c0,0,0,0.1,0,0.1c0,0.6,0,1.3,0,1.9c0,0.8,0,1.6,0,2.3
		c0,1.2,0,2.5,0,3.7c0,0.9,0,1.8,0,2.7c0,0,0,0.1,0,0.1c0,0,0,0,0,0c0,0,0,0,0-0.1c0,0,0-0.1,0-0.1c-0.4-0.7-0.8-1.3-1.3-2
		c-0.3-0.5-0.6-0.9-0.9-1.4c-0.4-0.7-0.9-1.3-1.3-2c-0.6-1-1.3-1.9-1.9-2.9C231.2,86.8,231.1,86.5,230.9,86.3z"/>
	<path class="st10" d="M236.7,95.4c0,0,0-0.1,0-0.1c0-0.9,0-1.8,0-2.7c0-1.2,0-2.5,0-3.7c0-0.8,0-1.6,0-2.3c0-0.6,0-1.3,0-1.9
		c0,0,0-0.1,0-0.1c0,0,0,0,0,0c1-0.3,2-0.6,3-0.9c0.4-0.1,0.8-0.2,1.1-0.3c0,0.1,0,0.1,0,0.2c-0.2,0.5-0.4,1-0.5,1.6
		c-0.2,0.5-0.4,1-0.5,1.5c-0.2,0.6-0.4,1.1-0.6,1.7c-0.2,0.4-0.3,0.9-0.5,1.3c-0.2,0.4-0.3,0.9-0.5,1.3c-0.2,0.4-0.3,0.9-0.5,1.3
		c-0.2,0.4-0.3,0.9-0.5,1.3c-0.2,0.5-0.4,1-0.6,1.6c0,0,0,0.1,0,0.1c0,0,0,0,0,0C236.8,95.3,236.8,95.3,236.7,95.4
		C236.8,95.4,236.8,95.4,236.7,95.4z"/>
	<path class="st10" d="M230.9,86.3c0.2,0.2,0.3,0.5,0.5,0.7c0.6,1,1.3,1.9,1.9,2.9c0.4,0.7,0.9,1.3,1.3,2c0.3,0.5,0.6,0.9,0.9,1.4
		c0.4,0.7,0.8,1.3,1.3,2c0,0,0,0.1,0,0.1c0,0,0,0-0.1,0c0,0,0,0,0,0c0,0,0-0.1,0-0.1c-0.4-0.3-0.7-0.6-1.1-0.8
		c-0.3-0.3-0.7-0.5-1-0.8c-0.4-0.3-0.8-0.6-1.2-1c-0.4-0.3-0.8-0.6-1.2-0.9c-0.4-0.3-0.8-0.6-1.2-0.9c-0.5-0.4-0.9-0.7-1.4-1.1
		c-0.4-0.3-0.8-0.6-1.2-0.9c-0.5-0.4-1-0.8-1.5-1.2c-0.1-0.1-0.1-0.1-0.2-0.2c0,0,0,0,0,0C228.1,87.1,229.5,86.7,230.9,86.3
		L230.9,86.3z"/>
	<path class="st11" d="M226.7,87.5c0.1,0,0.2,0.1,0.2,0.2c0.5,0.4,1,0.8,1.5,1.2c0.4,0.3,0.8,0.6,1.2,0.9c0.5,0.4,0.9,0.7,1.4,1.1
		c0.4,0.3,0.8,0.6,1.2,0.9c0.4,0.3,0.8,0.6,1.2,0.9c0.4,0.3,0.8,0.6,1.2,1c0.3,0.3,0.7,0.5,1,0.8c0.4,0.3,0.7,0.6,1.1,0.8
		c0,0,0,0,0,0.1c-0.2-0.1-0.5-0.2-0.7-0.3c-0.3-0.1-0.6-0.2-1-0.4c-0.4-0.2-0.7-0.3-1.1-0.5c-0.4-0.2-0.8-0.3-1.1-0.5
		c-0.4-0.2-0.8-0.3-1.2-0.5c-0.4-0.2-0.8-0.3-1.2-0.5c-0.4-0.2-0.8-0.3-1.2-0.5c-0.4-0.2-0.8-0.3-1.1-0.5c-0.3-0.1-0.7-0.3-1-0.4
		c-0.3-0.1-0.4-0.4-0.4-0.7c0-0.5,0-1,0-1.5c0-0.5,0-1,0-1.5C226.7,87.7,226.7,87.6,226.7,87.5z"/>
	<path class="st11" d="M236.9,95.3c0,0,0-0.1,0-0.1c0.2-0.5,0.4-1,0.6-1.6c0.2-0.4,0.3-0.9,0.5-1.3c0.2-0.4,0.3-0.9,0.5-1.3
		c0.2-0.4,0.3-0.9,0.5-1.3c0.2-0.4,0.3-0.9,0.5-1.3c0.2-0.6,0.4-1.1,0.6-1.7c0.2-0.5,0.4-1,0.5-1.5c0.2-0.5,0.4-1,0.5-1.6
		c0-0.1,0.1-0.1,0-0.2c0,0,0,0,0,0c0.3,0.4,0.6,0.8,0.8,1.3c0.3,0.4,0.6,0.9,0.8,1.3c0.1,0.1,0.2,0.3,0.2,0.4c0.1,0.2,0,0.5-0.1,0.7
		c-0.3,0.4-0.6,0.8-0.9,1.2c-0.2,0.3-0.5,0.7-0.7,1c-0.2,0.3-0.5,0.7-0.7,1c-0.2,0.3-0.5,0.7-0.7,1c-0.2,0.3-0.5,0.7-0.7,1
		c-0.2,0.3-0.5,0.7-0.7,1c-0.2,0.3-0.5,0.7-0.7,1c-0.2,0.3-0.4,0.6-0.6,0.9C236.9,95.2,236.9,95.3,236.9,95.3z"/>
	<path class="st9" d="M241,83.3C241,83.4,241,83.4,241,83.3c-0.4,0.1-0.8,0.2-1.2,0.3c-1,0.3-2,0.6-3,0.9c0-0.2,0-0.3,0-0.5
		c0-0.5,0-0.9,0-1.4c0-0.4,0-0.8,0-1.2c0-0.7,0-1.4,0-2c0-0.4,0-0.8,0-1.2c0-0.1,0-0.1,0-0.2c0-0.2,0.1-0.3,0.3-0.3
		c0.1,0,0.3,0,0.4,0.2c0.5,0.7,0.9,1.4,1.4,2.1c0.2,0.3,0.4,0.6,0.5,0.8c0.2,0.4,0.5,0.8,0.7,1.2c0.2,0.3,0.4,0.6,0.6,0.9
		C240.8,83,240.9,83.2,241,83.3z"/>
	<path class="st9" d="M230.9,86.3c-1.4,0.4-2.8,0.8-4.2,1.2c0-0.2,0-0.3,0-0.5c0-0.3,0-0.6,0-0.9c0-0.7,0-1.4,0-2.1
		c0-0.4,0-0.8,0-1.2c0-0.6,0-1.2,0-1.8c0-0.3,0.1-0.4,0.4-0.4c0.1,0,0.2,0.1,0.2,0.1c0.2,0.3,0.3,0.5,0.5,0.8
		c0.2,0.3,0.4,0.6,0.5,0.8c0.2,0.4,0.5,0.7,0.7,1.1c0.2,0.3,0.4,0.6,0.6,0.9c0.2,0.4,0.5,0.7,0.7,1.1
		C230.6,85.7,230.7,86,230.9,86.3z"/>
	<path class="st11" d="M236.7,95.4C236.7,95.3,236.7,95.3,236.7,95.4C236.7,95.4,236.7,95.4,236.7,95.4
		C236.7,95.4,236.7,95.4,236.7,95.4z"/>
	<path class="st11" d="M236.8,95.4C236.8,95.3,236.8,95.3,236.8,95.4C236.8,95.3,236.8,95.3,236.8,95.4z"/>
</g>
<ellipse class="st12" cx="95.2" cy="82.1" rx="2.2" ry="2"/>
<ellipse class="st12" cx="86.2" cy="110.1" rx="3.6" ry="3.4"/>
<ellipse class="st12" cx="58.8" cy="107.7" rx="1.4" ry="1.5"/>
<circle class="st12" cx="162" cy="69.8" r="1.3"/>
<circle class="st12" cx="128.9" cy="25.9" r="2.7"/>
<g>
	
		<ellipse transform="matrix(0.2567 -0.9665 0.9665 0.2567 40.2375 303.2427)" class="st0" cx="217.3" cy="125.5" rx="13.3" ry="13.2"/>
	<ellipse class="st13" cx="218.5" cy="126.3" rx="10" ry="9.9"/>
	<path class="st13" d="M205.7,122.4c1.7-6.3,8.2-10.1,14.5-8.4c6.3,1.7,10.1,8,8.4,14.5c-1.6,6.3-8.2,10.1-14.5,8.4
		C207.7,135.3,204.1,128.8,205.7,122.4z M213.7,126.3C213.7,126.3,213.8,126.3,213.7,126.3c-0.1,0.1,0,0.2,0,0.3
		c0.4,0.6,0.7,1.3,1.1,1.9c0.1,0.1,0.1,0.2,0.2,0.2c0,0.1,0,0.3-0.3,0.3c-0.7,0-1.3-0.2-1.8-0.7c0.2-0.4-0.2-0.5-0.3-0.8
		c-0.1-0.1-0.1-0.4-0.4-0.5c-0.1-0.2-0.2-0.4-0.3-0.5c-0.2-0.4-0.6-0.6-1.1-0.7c-0.1,0-0.2-0.1-0.2,0c-0.1,0.1,0,0.2,0.1,0.2
		c0.5,0.5,0.6,1.2,0.8,1.8c0.1,0.6,0.3,1.1,0.7,1.5c-0.2,0.2,0.1,0.3,0.2,0.5c0.4,0.8,0.9,1.6,1.3,2.4c0.4,0.7,0.7,1.4,1.1,2
		c0.1,0.4,0.4,0.7,0.6,1.1c0.1,0.2,0.3,0.2,0.5,0.1c0.2-0.2,0.4-0.3,0.6-0.4c3.7-2.2,7.4-4.3,11.1-6.5c0.2-0.1,0.4-0.2,0.6-0.3
		c0.2,0,0.3-0.2,0.2-0.3c-0.2-0.6-0.4-1.1-0.8-1.6c-0.2-0.4-0.4-0.8-0.6-1.2c-0.1-0.3-0.3-0.6-0.4-0.9c-0.1-0.2-0.1-0.5-0.4-0.6
		c-0.1-0.3-0.3-0.6-0.4-0.9c-0.5-1-1-2-1.6-3c0-0.1-0.1-0.1-0.2-0.1c0-0.2-0.1-0.2-0.3-0.2c-0.4,0-0.7,0.1-1,0.3
		c-0.4,0.2-0.7,0.4-1,0.7c-0.2-0.3-0.5-0.4-0.8-0.6c-0.7-0.3-1.5-0.5-2.3-0.7c-0.5-0.1-1-0.2-1.5,0c-0.2,0.1-0.3,0-0.3-0.2
		c-0.2-0.6-0.6-1.2-1.2-1.6c-0.2-0.1-0.3-0.1-0.4,0.1c-0.4,0.6-0.6,1.2-0.5,2c0,0.2,0,0.3-0.2,0.4c-0.4,0.2-0.7,0.5-0.9,0.9
		c-0.3,0.5-0.5,1.1-0.7,1.7c-0.4,1.3-0.3,2.5,0.5,3.7C213.6,126.3,213.6,126.4,213.7,126.3z"/>
	<path class="st0" d="M212.2,129.5c-0.4-0.4-0.6-1-0.7-1.5c-0.1-0.6-0.3-1.3-0.8-1.8c-0.1-0.1-0.1-0.2-0.1-0.2c0.1-0.1,0.2,0,0.2,0
		c0.5,0.1,0.8,0.3,1.1,0.7c0.1,0.2,0.2,0.3,0.3,0.5c0.1,0.5,0.3,0.9,0.7,1.2c0.5,0.5,1.1,0.7,1.8,0.7c0.2,0,0.2-0.2,0.3-0.3
		c0.2-0.4,0.4-0.7,0.7-1c-0.8-0.3-1.5-0.7-2-1.3c0,0,0,0,0,0c0,0-0.1-0.1-0.1-0.1c-0.9-1.1-0.9-2.3-0.5-3.7c0.2-0.6,0.4-1.2,0.7-1.7
		c0.2-0.4,0.5-0.7,0.9-0.9c0.2-0.1,0.2-0.2,0.2-0.4c-0.1-0.7,0.2-1.4,0.5-2c0.1-0.2,0.2-0.2,0.4-0.1c0.6,0.4,0.9,0.9,1.2,1.6
		c0.1,0.2,0.1,0.2,0.3,0.2c0.5-0.1,1-0.1,1.5,0c0.8,0.2,1.6,0.4,2.3,0.7c0.3,0.1,0.6,0.3,0.8,0.6c0.3-0.3,0.6-0.5,1-0.7
		c0.3-0.1,0.7-0.2,1-0.3c0.2,0,0.3,0.1,0.3,0.2c0,0.7-0.1,1.5-0.6,2.1c-0.1,0.1,0,0.2,0,0.3c0.3,0.5,0.3,1,0.3,1.5
		c0,0.5-0.2,1.1-0.3,1.6c0,0.1-0.1,0.2-0.1,0.3c-0.5,1.6-1.5,2.6-3.2,2.8c-0.5,0.1-1,0-1.6,0c0.2,0.6,0.1,1.2,0,1.9
		c-0.2,0.6-0.3,1.1-0.5,1.7c-0.1,0.2-0.1,0.5-0.2,0.7c-0.2,0.6-0.2,0.6-0.8,0.4c0,0-0.1,0-0.1,0c-1-0.3-1.9-0.5-2.9-0.8
		c-0.2,0-0.2-0.1-0.2-0.3c0.1-0.5,0.3-1,0.4-1.5c0-0.2,0-0.2-0.2-0.2C213.5,130.4,212.8,130.1,212.2,129.5z"/>
	<path class="st14" d="M217.2,133.2C217.2,133.2,217.3,133.2,217.2,133.2c0.7,0.2,0.7,0.2,0.9-0.4c0.1-0.2,0.1-0.5,0.2-0.7
		c0.1,0,0.2,0,0.3-0.1c1.1-0.6,2.1-1.3,3.2-1.9c1.5-0.9,3-1.7,4.5-2.6c0.4-0.2,0.8-0.5,1.2-0.6c0.1,0,0.2-0.2,0.2-0.3
		c0.4,0.5,0.6,1,0.8,1.6c0.1,0.2,0,0.3-0.2,0.3c-0.2,0-0.4,0.2-0.6,0.3c-3.7,2.2-7.4,4.3-11.1,6.5c-0.2,0.1-0.4,0.2-0.6,0.4
		c-0.2,0.2-0.4,0.1-0.5-0.1c-0.2-0.4-0.5-0.7-0.6-1.1c0.1,0.1,0.2,0,0.3,0c0.4-0.3,0.9-0.5,1.4-0.8
		C216.8,133.5,217,133.4,217.2,133.2z"/>
	<path class="st15" d="M227.7,126.6c0,0.1-0.1,0.3-0.2,0.3c-0.5,0.1-0.8,0.4-1.2,0.6c-1.5,0.9-3,1.7-4.5,2.6
		c-1.1,0.6-2.1,1.3-3.2,1.9c-0.1,0.1-0.2,0.1-0.3,0.1c0.1-0.6,0.3-1.2,0.5-1.7c0.2,0,0.3-0.1,0.4-0.2c2.5-1.4,4.9-2.8,7.4-4.3
		c0.1-0.1,0.2-0.1,0.3-0.2c0.2,0,0.3-0.1,0.3-0.3C227.3,125.7,227.6,126.1,227.7,126.6z"/>
	<path class="st16" d="M227.1,125.4c0,0.2-0.1,0.3-0.3,0.3c-0.1,0-0.2,0.1-0.3,0.2c-2.5,1.4-4.9,2.8-7.4,4.3
		c-0.1,0.1-0.2,0.2-0.4,0.2c0.1-0.6,0.2-1.2,0-1.9c0.5,0.1,1.1,0.1,1.6,0c1.7-0.2,2.8-1.2,3.2-2.8c0-0.1,0.1-0.2,0.1-0.3
		c0.4,0,0.5-0.3,0.8-0.4c0.2-0.1,0.4-0.2,0.7-0.4c0.4-0.2,0.7-0.5,1.1-0.7c0.3,0.1,0.3,0.4,0.4,0.6C226.8,124.8,227,125,227.1,125.4
		z"/>
	<path class="st17" d="M226.3,123.9c-0.4,0.2-0.8,0.4-1.1,0.7c-0.2,0.1-0.4,0.3-0.7,0.4c-0.3,0.1-0.5,0.5-0.8,0.4
		c0.1-0.5,0.2-1.1,0.3-1.6c0-0.5,0-1-0.3-1.5c-0.1-0.1-0.1-0.2,0-0.3c0.5-0.6,0.6-1.3,0.6-2.1c0.1,0,0.1,0.1,0.2,0.1
		c0.5,1,1,2,1.6,3C226,123.3,226.2,123.5,226.3,123.9z"/>
	<path class="st15" d="M217.2,133.2c-0.1,0.2-0.4,0.3-0.6,0.4c-0.4,0.3-0.9,0.5-1.4,0.8c-0.1,0.1-0.2,0.1-0.3,0
		c-0.4-0.6-0.8-1.3-1.1-2c-0.4-0.8-0.9-1.6-1.3-2.4c-0.1-0.2-0.3-0.2-0.2-0.5c0.6,0.6,1.3,0.9,2.1,0.9c0.2,0,0.2,0.1,0.2,0.2
		c-0.1,0.5-0.3,1-0.4,1.5c-0.1,0.2,0,0.3,0.2,0.3C215.3,132.7,216.2,132.9,217.2,133.2z"/>
	<path class="st18" d="M213.8,126.3c0.6,0.6,1.2,1,2,1.3c-0.3,0.3-0.6,0.6-0.7,1c-0.1,0-0.2-0.1-0.2-0.2c-0.4-0.6-0.7-1.3-1.1-1.9
		C213.7,126.5,213.6,126.4,213.8,126.3z"/>
	<path class="st19" d="M213,128.4c-0.4-0.3-0.6-0.7-0.7-1.2c0.2,0,0.3,0.3,0.4,0.5C212.8,127.8,213.2,128,213,128.4z"/>
	<path class="st18" d="M213.6,126.2c0,0,0.1,0.1,0.1,0.1C213.6,126.4,213.6,126.3,213.6,126.2z"/>
</g>
<g>
	<circle class="st0" cx="43.9" cy="127.1" r="12.1"/>
	<ellipse transform="matrix(0.38 -0.925 0.925 0.38 -90.309 119.3491)" class="st20" cx="43.9" cy="127" rx="11.2" ry="11.1"/>
	<path class="st0" d="M42.6,118.8c0.5,0.6,1,1.1,1.5,1.7c0.8,0.9,1.5,1.7,2.3,2.6c0.6,0.6,1.1,1.3,1.7,1.9c0.7,0.8,1.4,1.6,2.1,2.3
		c0.1,0.1,0.1,0.1-0.1,0.2c-3.7,0.7-7.3,1.5-11,2.2c0,0-0.1,0-0.1,0c0,0,0-0.1,0-0.1c0.4-1.2,0.8-2.4,1.2-3.5
		c0.4-1.2,0.8-2.4,1.2-3.6c0.3-1,0.7-2.1,1-3.1C42.5,119.1,42.5,118.9,42.6,118.8z"/>
	<path class="st0" d="M43.3,134.2c-0.2,0.3-0.4,0.6-0.8,0.7c-0.2,0.1-0.5,0.1-0.8,0c-0.5-0.1-0.8-0.4-1-1c-0.2-0.6,0.1-1.2,0.7-1.5
		c0.8-0.4,1.7,0,1.8,1.1c0,0.1,0,0.1-0.1,0.1c-0.4,0.1-0.8,0.2-1.3,0.3c-0.1,0-0.3,0.1-0.4,0.1c-0.1,0-0.1,0,0,0.1
		c0.2,0.2,0.5,0.3,0.8,0.2c0.2-0.1,0.3-0.1,0.4-0.3c0,0,0,0,0.1,0C43,134,43.1,134.1,43.3,134.2z M41.9,133.4
		C41.9,133.4,41.9,133.4,41.9,133.4c0.2,0,0.4-0.1,0.6-0.1c0.1,0,0.1,0,0-0.1c-0.1-0.2-0.4-0.4-0.7-0.3c-0.2,0.1-0.4,0.3-0.5,0.5
		c0,0.1,0,0.1,0.1,0.1C41.6,133.4,41.8,133.4,41.9,133.4z"/>
	<path class="st0" d="M50.5,132.7c-0.2,0.4-0.6,0.7-1.1,0.7c-0.5,0.1-0.9,0-1.2-0.4c-0.5-0.6-0.5-1.7,0.4-2.1c0.8-0.3,1.6,0,1.8,1
		c0,0,0,0,0,0c0,0.2,0,0.2-0.1,0.2c-0.5,0.1-1.1,0.2-1.6,0.3c0,0-0.1,0-0.1,0c0.2,0.3,0.6,0.4,0.9,0.3c0.2-0.1,0.3-0.1,0.4-0.3
		c0,0,0.1,0,0.1,0C50.1,132.6,50.3,132.7,50.5,132.7z M49.1,131.9c0.2,0,0.4-0.1,0.6-0.1c0.1,0,0.1,0,0-0.1
		c-0.1-0.2-0.4-0.3-0.6-0.3c-0.3,0.1-0.5,0.2-0.6,0.5c0,0.1,0,0.1,0.1,0.1C48.8,132,48.9,132,49.1,131.9z"/>
	<path class="st0" d="M39.4,134.2c0.1-0.3,0.2-0.7,0.3-1c0.1-0.4,0.3-0.9,0.4-1.3c0,0,0-0.1,0.1-0.1c0.2,0,0.4-0.1,0.6-0.1
		c-0.4,1.3-0.8,2.5-1.2,3.8c-0.8-1-1.7-2-2.5-3c0.2,0,0.4-0.1,0.6-0.1c0.1,0,0.1,0,0.1,0.1c0.5,0.6,0.9,1.1,1.4,1.7
		C39.3,134.1,39.3,134.2,39.4,134.2z"/>
	<path class="st0" d="M46.9,134c-0.7,0.1-1.2-0.2-1.5-0.8c-0.2-0.7,0-1.3,0.7-1.6c0.5-0.2,1-0.2,1.4,0.2c0.1,0.1,0.1,0.1,0,0.2
		c-0.1,0.1-0.2,0.2-0.3,0.3c0,0-0.1,0-0.1,0c-0.3-0.3-0.8-0.2-1,0.1c-0.1,0.2-0.2,0.4-0.1,0.6c0.1,0.4,0.3,0.7,0.7,0.6
		c0.3,0,0.5-0.1,0.6-0.4c0-0.1,0.1-0.1,0.1-0.1c0.1,0.1,0.3,0.1,0.4,0.1c0.1,0,0.1,0.1,0.1,0.1C47.6,133.6,47.3,133.9,46.9,134z"/>
	<path class="st0" d="M44.1,132.5c0.1-0.4,0.4-0.6,0.7-0.7c0.1,0,0.1,0,0.1,0c0,0.2,0.1,0.4,0.1,0.6c0,0.1,0,0.1-0.1,0.1
		c-0.5,0-0.8,0.5-0.7,0.9c0.1,0.3,0.1,0.6,0.2,1c0,0.1,0,0.1-0.1,0.1c-0.1,0-0.3,0.1-0.4,0.1c-0.1,0-0.1,0-0.1-0.1
		c-0.1-0.8-0.3-1.5-0.5-2.3c0-0.1,0-0.1,0.1-0.1c0.1,0,0.3-0.1,0.4-0.1c0.1,0,0.1,0,0.1,0.1C44.1,132.2,44.1,132.3,44.1,132.5z"/>
	<path class="st0" d="M51.3,131.3c0.1,0.5,0.2,1,0.3,1.5c0,0.1,0,0.1-0.1,0.1c-0.1,0-0.2,0-0.4,0.1c-0.1,0-0.1,0-0.1-0.1
		c-0.1-0.5-0.2-1.1-0.3-1.6c-0.1-0.5-0.2-0.9-0.3-1.4c0-0.1,0-0.1,0.1-0.1c0.1,0,0.3,0,0.4-0.1c0.1,0,0.1,0,0.1,0.1
		C51.1,130.3,51.2,130.8,51.3,131.3z"/>
	<path class="st21" d="M41.9,133.4c-0.2,0-0.4,0.1-0.5,0.1c-0.1,0-0.1,0-0.1-0.1c0-0.2,0.2-0.4,0.5-0.5c0.4-0.1,0.6,0.1,0.7,0.3
		c0,0.1,0,0.1,0,0.1C42.3,133.3,42.1,133.3,41.9,133.4C41.9,133.4,41.9,133.4,41.9,133.4z"/>
	<path class="st21" d="M49.1,131.9c-0.2,0-0.4,0.1-0.5,0.1c-0.1,0-0.1,0-0.1-0.1c0.1-0.3,0.3-0.5,0.6-0.5c0.2,0,0.5,0.1,0.6,0.3
		c0,0.1,0,0.1,0,0.1C49.5,131.9,49.3,131.9,49.1,131.9z"/>
</g>
<g>
	<path class="st0" d="M102.2,16.6l-3,4.2c-0.7,1.1-1.6,2.6-1.9,3.9l-0.9,3.4l-1,1.8c-0.6,1-0.9,2.2-0.9,3.4l0,1.5
		c0,1,0.3,1.9,0.7,2.8l0.8,1.5l0.9,1.8c0.4,0.8,1.2,1.3,2,1.3l0,0c0.7,0.1,1.5-0.2,2-0.8l0.2-0.2c0.3-0.3,0.5-0.8,0.6-1.2l0.1-0.7
		c0.1-0.3,0.5-0.5,0.8-0.3l0.4,0.3l1.2,1.1c0.4,0.4,0.9,0.6,1.4,0.6l0,0c0.7,0.1,1.3-0.1,1.9-0.5l0.5-0.4c0.4-0.3,0.8-0.8,0.9-1.4
		l0.2-0.6l0.6-0.6c0.2-0.2,0.6-0.2,0.9,0l0.8,0.7l0.2,0.6c0.3,0.9,1.3,1.4,2.3,1.2l0,0c0.4-0.1,0.8-0.3,1-0.7l0.3-0.4
		c0.3-0.4,0.5-1,0.4-1.5l-0.1-0.7l0.4-1.7c0.2-0.7,0.2-1.3,0.2-2l-0.1-1c-0.1-1.1-0.4-2.1-0.9-3l-0.4-0.6c-0.3-0.6-0.8-1.1-1.3-1.5
		l-1-0.9c-0.3-0.2-0.5-0.5-0.7-0.9l-1.1-2.2c-0.3-0.7-0.8-1.3-1.3-1.8l-1.5-1.7c-0.5-0.6-1.1-1.1-1.8-1.5l-2.8-1.7
		C103,16,102.4,16.2,102.2,16.6z"/>
	<path class="st22" d="M97.1,28.4c0.3-2,0.9-3.9,1.8-5.7c1.1-2,2.4-3.9,3.8-5.6c0.1-0.2,0.2-0.4,0.5-0.2c3.4,2.2,6.4,4.9,8.2,8.7
		c0.1,0.3,0.2,0.5,0.3,0.8c0.1,1,0.5,2,0.4,3c0,0.1,0,0.3,0.2,0.4c0,0.2-0.1,0.3-0.1,0.5c-0.2,1.9-0.8,3.6-2,5
		c-0.1,0.1-0.1,0.2-0.2,0.3c-0.1,0-0.2,0.1-0.3,0.2c-2.3,2.2-5.4,2.6-8.1,1c-0.1-0.1-0.2-0.1-0.3,0.1c-0.1-0.2-0.3-0.4-0.6-0.6
		c-1.4-1.1-2.4-2.6-3-4.3c0-0.2,0-0.4-0.1-0.6c-0.3-0.7-0.3-1.5-0.4-2.3C97.2,28.9,97.4,28.6,97.1,28.4z M101.5,28.7
		c0.2,1.8,1.9,3.1,3.7,2.8c1.8-0.2,3.1-2,2.9-3.7c-0.2-1.8-1.9-3.1-3.7-2.8C102.5,25.3,101.3,26.9,101.5,28.7z M105.7,33.7
		c0-0.2-0.1-0.4-0.1-0.6c0-0.2-0.1-0.3-0.3-0.3c-0.2,0-0.3,0.2-0.2,0.4c0.1,0.4,0.1,0.8,0.2,1.2c0,0.2,0.1,0.3,0.3,0.3
		c0.2,0,0.3-0.1,0.3-0.4C105.8,34.1,105.7,33.9,105.7,33.7z M104.7,33.8C104.7,33.8,104.7,33.8,104.7,33.8c0-0.2-0.1-0.4-0.1-0.6
		c0-0.2-0.2-0.2-0.3-0.2c-0.2,0-0.3,0.1-0.2,0.3c0.1,0.4,0.1,0.8,0.2,1.2c0,0.2,0.2,0.2,0.4,0.2c0.2,0,0.2-0.2,0.2-0.3
		C104.7,34.2,104.7,34,104.7,33.8z M106.2,33.6C106.2,33.6,106.2,33.6,106.2,33.6c0,0.2,0,0.3,0.1,0.5c0,0.2,0,0.4,0.3,0.4
		c0.2,0,0.3-0.2,0.3-0.4c0-0.3-0.1-0.7-0.1-1c0-0.2-0.1-0.3-0.3-0.2c-0.2,0-0.3,0.1-0.3,0.3C106.1,33.2,106.1,33.4,106.2,33.6z
		 M103.6,33.7c-0.1-0.2,0.1-0.7-0.4-0.6c-0.4,0-0.2,0.3-0.2,0.5c0,0.4,0.2,0.7,0.5,0.6C103.8,34.2,103.6,33.9,103.6,33.7z
		 M107.2,33.2c0.1,0.1-0.1,0.5,0.3,0.5c0.2,0,0.3-0.2,0.2-0.4c-0.1-0.3,0.1-0.6-0.2-0.8c-0.2-0.1-0.3,0-0.3,0.2
		C107.1,32.9,107.1,33.1,107.2,33.2z"/>
	<path class="st23" d="M113.5,35.1c0.7-2,0.5-3.9-0.8-5.6c0.4-0.6,0.5-1.3,0.3-2c1.2,0.8,1.9,2,2.3,3.3c0.5,1.6,0.5,3.3-0.2,4.9
		c-0.1,0.1-0.1,0.2-0.2,0.3C114.6,35.4,114.2,35.1,113.5,35.1z"/>
	<path class="st24" d="M97.1,31.7c-0.7,2-0.4,3.9,0.8,5.6c-0.7,0.1-1,0.6-1.1,1.2c-2.1-2.1-2.4-6.4-0.6-8.7
		C96.3,30.6,96.6,31.2,97.1,31.7z"/>
	<path class="st25" d="M101.3,36.8c0.1-0.2,0.2-0.2,0.3-0.1c2.7,1.6,5.8,1.2,8.1-1c0.1-0.1,0.2-0.2,0.3-0.2
		c-0.2,0.9-0.7,1.5-1.3,2.2c-0.2,0.2-0.4,0.3-0.5,0.5c-0.7,0.4-1.4,0.8-2.3,0.8c-0.7,0.1-1.4-0.2-2-0.2c0,0,0,0,0,0
		c0-0.1,0-0.1-0.1-0.1C102.8,38.3,101.9,37.8,101.3,36.8z"/>
	<path class="st26" d="M98.4,37.4c0.7-0.1,1.4-0.3,2,0.1c0.5,0.3,0.7,0.6,0.5,1c-0.2,0.4-0.6,0.5-1.1,0.2c-0.4-0.2-0.7-0.2-1,0.1
		c-0.3,0.2-0.3,0.5-0.2,0.8c0.1,0.4,0.4,0.6,0.8,0.6c0.4,0,0.8,0.2,0.8,0.7c0,0.4-0.4,0.7-0.9,0.6c-1.1,0-1.9-0.9-2.1-2.3
		c0.2-0.5,0.4-1,0.8-1.4C98.1,37.8,98.4,37.7,98.4,37.4z"/>
	<path class="st26" d="M114.8,36.8c0.3,1.2-0.1,2.2-1.1,2.7c-0.2,0.1-0.4,0.2-0.6,0.2c-0.4,0.1-0.6-0.2-0.7-0.5
		c-0.1-0.3,0.1-0.6,0.3-0.7c0.1-0.1,0.3-0.1,0.5-0.2c0.4-0.2,0.5-0.7,0.3-1.1c-0.2-0.4-0.7-0.5-1.1-0.3c-0.1,0.1-0.2,0.2-0.3,0.3
		c-0.3,0.2-0.7,0.3-1,0c-0.3-0.3-0.2-0.7,0.1-1c0.3-0.4,0.7-0.6,1.2-0.7c0.2,0,0.5-0.1,0.7-0.1C113.7,35.8,114.4,36.1,114.8,36.8z"
		/>
	<path class="st27" d="M103.9,38.9c0.7,0,1.3,0.3,2,0.2c0.9-0.1,1.6-0.5,2.3-0.8c0,1-0.8,2-1.9,2.1
		C105.2,40.5,104.1,39.8,103.9,38.9z"/>
	<path class="st25" d="M97.1,31.7c-0.5-0.5-0.8-1.1-0.9-1.9c0.1-0.6,0.3-1.1,0.9-1.5c0.3,0.2,0.1,0.5,0.1,0.7
		c0.1,0.8,0.1,1.6,0.4,2.3c0.1,0.2,0.1,0.4,0.1,0.6C97.5,31.9,97.3,31.8,97.1,31.7z"/>
	<path class="st25" d="M113,27.5c0.1,0.7,0.1,1.4-0.3,2c-0.1,0.1-0.2,0.1-0.3,0.2c-0.2-0.1-0.2-0.2-0.2-0.4c0.1-1.1-0.3-2-0.4-3
		C112.4,26.5,112.7,27,113,27.5z"/>
	<path class="st25" d="M98.4,37.4c0,0.3-0.3,0.3-0.4,0.5c-0.4,0.4-0.6,0.9-0.8,1.4c-0.2-0.2-0.4-0.4-0.4-0.7
		c0.1-0.7,0.4-1.1,1.1-1.2C98.1,37.4,98.3,37.4,98.4,37.4z"/>
	<path class="st25" d="M114.8,36.8c-0.4-0.7-1.1-1.1-1.7-1.5c0.1-0.1,0.3-0.2,0.4-0.2c0.7-0.1,1.1,0.3,1.4,0.9
		C114.9,36.3,114.9,36.6,114.8,36.8z"/>
	<path class="st27" d="M103.8,38.8c0.1,0,0.1,0,0.1,0.1C103.8,38.9,103.8,38.8,103.8,38.8z"/>
	<path class="st28" d="M101.5,28.7c-0.3-1.8,1-3.5,2.8-3.7c1.8-0.2,3.5,1,3.7,2.8c0.2,1.7-1.1,3.5-2.9,3.7
		C103.4,31.8,101.8,30.5,101.5,28.7z M105.1,31c1.5-0.2,2.6-1.6,2.4-3.1c-0.2-1.5-1.7-2.6-3.2-2.4c-1.5,0.2-2.6,1.6-2.4,3.2
		C102.2,30.2,103.6,31.2,105.1,31z"/>
	<path class="st29" d="M105.7,33.7c0,0.2,0.1,0.4,0.1,0.6c0,0.2,0,0.3-0.3,0.4c-0.2,0-0.3-0.1-0.3-0.3c-0.1-0.4-0.1-0.8-0.2-1.2
		c0-0.2,0-0.3,0.2-0.4c0.2,0,0.3,0.1,0.3,0.3C105.7,33.3,105.7,33.5,105.7,33.7z"/>
	<path class="st29" d="M104.7,33.8c0,0.2,0,0.3,0.1,0.5c0,0.2,0,0.3-0.2,0.3c-0.2,0-0.3,0-0.4-0.2c-0.1-0.4-0.1-0.8-0.2-1.2
		c0-0.2,0.1-0.2,0.2-0.3c0.2,0,0.3,0,0.3,0.2C104.6,33.4,104.6,33.6,104.7,33.8C104.7,33.8,104.7,33.8,104.7,33.8z"/>
	<path class="st29" d="M106.2,33.6c0-0.2-0.1-0.4-0.1-0.6c0-0.2,0.1-0.3,0.3-0.3c0.2,0,0.3,0.1,0.3,0.2c0,0.3,0.1,0.7,0.1,1
		c0,0.2,0,0.4-0.3,0.4c-0.3,0.1-0.3-0.2-0.3-0.4C106.2,33.9,106.2,33.7,106.2,33.6C106.2,33.6,106.2,33.6,106.2,33.6z"/>
	<path class="st29" d="M103.6,33.7c-0.1,0.2,0.2,0.5-0.1,0.5c-0.3,0-0.5-0.3-0.5-0.6c0-0.2-0.2-0.5,0.2-0.5
		C103.7,33.1,103.5,33.5,103.6,33.7z"/>
	<path class="st29" d="M107.2,33.2c0-0.2-0.1-0.3-0.1-0.4c0-0.2,0.1-0.3,0.3-0.2c0.3,0.2,0.2,0.5,0.2,0.8c0.1,0.2,0,0.4-0.2,0.4
		C107,33.8,107.3,33.4,107.2,33.2z"/>
	<path class="st30" d="M105.1,31c-1.6,0.2-3-0.8-3.2-2.4c-0.2-1.5,0.9-2.9,2.4-3.2c1.6-0.2,3,0.9,3.2,2.4
		C107.7,29.4,106.7,30.8,105.1,31z M104.4,25.9c-1.3,0.2-2.2,1.4-2,2.6c0.2,1.3,1.4,2.2,2.7,2.1c1.3-0.2,2.2-1.4,2-2.7
		C106.9,26.6,105.8,25.7,104.4,25.9z"/>
	<path class="st31" d="M104.4,25.9c1.3-0.2,2.5,0.7,2.7,2c0.2,1.3-0.8,2.6-2,2.7c-1.3,0.2-2.5-0.8-2.7-2.1
		C102.2,27.3,103.2,26.1,104.4,25.9z M104.5,27.2c-0.2-0.4-0.5-0.6-1-0.4c-0.6,0.3-0.5,0.8,0.1,1.3c0.1,0.9,0.8,1.5,1.5,1.2
		c0.5-0.2,0.8-0.8,0.7-1.2C105.7,27.4,105.2,27.1,104.5,27.2z"/>
	<path class="st32" d="M104.5,27.2c0.7-0.1,1.2,0.2,1.4,0.8c0.1,0.5-0.2,1-0.7,1.2c-0.7,0.3-1.4-0.3-1.5-1.2c0,0,0.1,0,0.1,0
		C104.3,28,104.5,27.8,104.5,27.2L104.5,27.2z"/>
	<path class="st33" d="M103.7,28c0,0-0.1,0-0.1,0c-0.6-0.4-0.7-1-0.1-1.3c0.5-0.2,0.8,0,1,0.4c0,0,0,0,0,0
		C104.1,27.4,103.8,27.6,103.7,28z"/>
	<path class="st34" d="M103.7,28c0-0.5,0.3-0.7,0.7-0.8C104.5,27.8,104.3,28,103.7,28z"/>
</g>
<g>
	<path class="st0" d="M153.5,11.3l2.6-1.7c0.5-0.3,1-0.5,1.6-0.5l0.5,0c1.5-0.1,2.8,0.8,3.3,2.2l0,0.1c0.2,0.4,0.2,0.9,0.2,1.3
		l-0.2,3.2l2.7,1.3c0.7,0.3,1.3,0.9,1.6,1.5l0.1,0.1c0.6,1.1,0.5,2.5-0.3,3.5v0c-0.3,0.4-0.7,0.7-1.1,1l-2.8,1.5l0.3,2.4
		c0.1,0.6,0,1.2-0.3,1.8l-0.4,0.8c-0.5,1.2-1.7,2-3.1,2h-0.7c-0.7,0-1.4-0.2-2-0.7l-1.9-1.5l-2.1,1.4c-0.5,0.3-1,0.5-1.5,0.5
		l-0.9,0.1c-1.3,0.1-2.6-0.6-3.2-1.8l-0.1-0.1c-0.3-0.6-0.4-1.2-0.4-1.8l0.2-2.8l-2.6-1.3c-0.6-0.3-1.1-0.7-1.4-1.3l-0.3-0.5
		c-0.6-1-0.7-2.3-0.1-3.4l0,0c0.3-0.6,0.8-1.1,1.4-1.4l3.1-1.3l-0.5-3c-0.1-0.6,0-1.2,0.3-1.7l0.1-0.2c0.5-1.1,1.6-1.8,2.8-1.9
		l0.2,0c0.7-0.1,1.4,0.1,2,0.5L153.5,11.3z"/>
	<g>
		<path class="st35" d="M158.8,9.5c0.1,0,0.2,0,0.3,0c0.5,0.1,0.9,0.4,1.2,0.8c0.3,0.4,0.5,0.9,0.6,1.4c0.1,0.6,0.2,1.3,0.1,1.9
			c0,0.9-0.2,1.7-0.4,2.5c0,0,0,0.1,0,0.1c0.6,0.2,1.1,0.3,1.6,0.6c0.8,0.3,1.5,0.7,2.1,1.2c0.4,0.3,0.7,0.7,1,1.1
			c0.2,0.4,0.3,0.7,0.3,1.2c0,0.3-0.1,0.7-0.3,1c-0.3,0.5-0.7,0.9-1.1,1.3c-0.6,0.5-1.2,0.8-1.9,1.1c-0.5,0.2-1.1,0.4-1.7,0.6
			c-0.1,0-0.1,0,0,0.1c0.1,0.5,0.2,1.1,0.3,1.6c0.1,0.6,0.1,1.2,0.1,1.8c0,0.5-0.1,1.1-0.3,1.6c-0.1,0.4-0.4,0.8-0.7,1.1
			c-0.3,0.3-0.7,0.5-1.2,0.6c-0.5,0.1-1.1,0-1.6-0.2c-0.6-0.2-1.2-0.5-1.8-0.9c-0.6-0.4-1.2-0.9-1.7-1.4c0,0-0.1,0-0.1,0
			c-0.8,0.7-1.6,1.4-2.5,1.9c-0.5,0.3-1.1,0.5-1.7,0.6c-0.5,0.1-0.9,0.1-1.4,0c-0.5-0.1-0.9-0.4-1.2-0.8c-0.3-0.4-0.5-0.9-0.6-1.4
			c-0.1-0.6-0.1-1.2-0.1-1.9c0-0.8,0.2-1.6,0.4-2.4c0-0.1,0-0.1-0.1-0.1c-0.9-0.3-1.8-0.6-2.6-1.1c-0.6-0.3-1.1-0.7-1.5-1.1
			c-0.3-0.4-0.6-0.7-0.8-1.2c-0.2-0.5-0.1-1.1,0.1-1.6c0.2-0.5,0.6-0.9,1-1.2c0.5-0.5,1.1-0.8,1.8-1.1c0.7-0.3,1.4-0.6,2.1-0.8
			c0.1,0,0.1,0,0-0.1c-0.1-0.5-0.2-1-0.3-1.5c-0.1-0.7-0.1-1.3-0.1-2c0-0.5,0.1-1.1,0.3-1.6c0.1-0.4,0.3-0.7,0.6-1
			c0.3-0.3,0.8-0.5,1.2-0.6c0.6-0.1,1.1,0.1,1.7,0.2c0.7,0.2,1.3,0.6,1.9,1c0.6,0.4,1.1,0.9,1.6,1.3c0,0,0.1,0,0.1,0
			c0.6-0.6,1.3-1.2,2-1.6c0.5-0.3,1.1-0.6,1.7-0.8c0.3-0.1,0.5-0.1,0.8-0.2c0,0,0,0,0,0C158.5,9.5,158.6,9.5,158.8,9.5z M153.6,24.2
			c0.4,0,0.7,0,1.1,0c0.4,0,0.7,0,1.1-0.1c0,0,0.1,0,0.1-0.1c0.8-1.2,1.5-2.4,2.1-3.7c0,0,0-0.1,0-0.1c-0.1-0.2-0.2-0.4-0.3-0.6
			c-0.6-1.1-1.2-2.1-1.8-3.1c0,0-0.1-0.1-0.1-0.1c-0.1,0-0.1,0-0.2,0c-0.7,0-1.3-0.1-2-0.1c-0.7,0-1.3,0-2,0.1c-0.1,0-0.2,0-0.2,0.1
			c0,0,0,0,0,0c-0.8,1.1-1.4,2.3-2,3.6c0,0.1,0,0.1,0,0.2c0.3,0.7,0.7,1.3,1,2c0.3,0.6,0.7,1.2,1.1,1.7c0,0,0,0.1,0.1,0.1
			c0.2,0,0.4,0,0.6,0C152.6,24.2,153.1,24.2,153.6,24.2z M142.5,20.3c0,0.1,0,0.2,0,0.2c0.1,0.3,0.2,0.5,0.4,0.7
			c0.3,0.4,0.8,0.7,1.2,1c0.8,0.5,1.7,0.9,2.6,1.1c0.1,0,0.1,0,0.1,0c0.3-1,0.7-2,1.1-3c0,0,0-0.1,0-0.1c-0.4-1-0.8-1.9-1.1-2.9
			c0-0.1,0-0.1-0.1,0c-0.4,0.1-0.8,0.2-1.1,0.4c-0.7,0.3-1.4,0.6-2.1,1.1c-0.3,0.2-0.6,0.5-0.8,0.8C142.6,19.8,142.5,20,142.5,20.3z
			 M148.7,30.1c0.1,0,0.2,0,0.3,0c0.4-0.1,0.8-0.2,1.2-0.4c1-0.5,1.9-1.1,2.7-1.9c0,0,0,0,0-0.1c-0.2-0.2-0.3-0.3-0.5-0.5
			c-0.5-0.6-1.1-1.3-1.5-2c0,0-0.1-0.1-0.1-0.1c-0.2,0-0.4,0-0.6-0.1c-0.4,0-0.8-0.1-1.2-0.1c-0.5-0.1-0.9-0.2-1.4-0.3
			c0,0-0.1,0-0.1,0c0,0.2-0.1,0.4-0.1,0.6c-0.1,0.6-0.2,1.2-0.2,1.9c0,0.4,0,0.8,0.1,1.2c0.1,0.3,0.1,0.7,0.3,1
			c0.1,0.2,0.2,0.4,0.4,0.5C148.2,30,148.5,30.1,148.7,30.1z M160,27.2c0-0.4,0-0.8-0.1-1.2c-0.1-0.5-0.1-0.9-0.2-1.3c0,0,0,0-0.1,0
			c-0.4,0.1-0.7,0.2-1.1,0.2c-0.7,0.1-1.4,0.2-2.1,0.3c0,0-0.1,0-0.1,0.1c-0.2,0.2-0.3,0.4-0.5,0.7c-0.5,0.6-0.9,1.2-1.5,1.8
			c0,0,0,0.1,0,0.1c0.4,0.3,0.7,0.7,1.1,1c0.6,0.4,1.2,0.8,1.8,1.1c0.4,0.2,0.8,0.3,1.2,0.3c0.4,0,0.7-0.2,0.9-0.5
			c0.2-0.2,0.3-0.5,0.3-0.8C160,28.3,160,27.8,160,27.2z M148.6,10.6c0,0-0.1,0-0.2,0c-0.2,0-0.4,0.1-0.5,0.2
			c-0.2,0.1-0.3,0.3-0.4,0.5c-0.2,0.4-0.3,0.9-0.3,1.3c0,0.6,0,1.1,0.1,1.7c0.1,0.5,0.2,1,0.3,1.6c0,0.1,0,0.1,0.1,0.1
			c0.4-0.1,0.8-0.2,1.2-0.2c0.6-0.1,1.3-0.2,1.9-0.3c0,0,0.1,0,0.1-0.1c0.6-0.9,1.3-1.7,2-2.5c0,0,0-0.1,0-0.1
			c-0.4-0.3-0.8-0.7-1.2-1c-0.6-0.4-1.2-0.8-1.8-1.1C149.5,10.7,149.1,10.6,148.6,10.6z M160,13.3c0-0.4,0-0.9-0.1-1.3
			c-0.1-0.3-0.2-0.7-0.4-1c-0.1-0.2-0.3-0.4-0.6-0.5c-0.3-0.1-0.6,0-0.9,0c-0.5,0.1-1,0.3-1.4,0.6c-0.8,0.4-1.5,1-2.1,1.6
			c0,0-0.1,0.1-0.1,0.1c0,0,0.1,0.1,0.1,0.1c0.7,0.8,1.3,1.6,1.9,2.4c0,0,0,0.1,0.1,0.1c0.2,0,0.4,0,0.7,0.1c0.4,0,0.8,0.1,1.2,0.2
			c0.4,0.1,0.8,0.2,1.3,0.3c0,0,0.1,0,0.1,0c0-0.1,0-0.1,0-0.2C159.9,15,160,14.2,160,13.3z M164.7,20.3c0,0,0-0.1,0-0.1
			c-0.1-0.3-0.2-0.5-0.4-0.8c-0.3-0.4-0.7-0.7-1.1-0.9c-0.9-0.5-1.8-0.9-2.7-1.2c0,0,0,0-0.1,0c-0.3,1-0.7,2-1.1,2.9
			c0,0,0,0.1,0,0.1c0.5,1,0.9,1.9,1.2,3c0,0,0,0.1,0.1,0c0.5-0.2,1.1-0.4,1.6-0.6c0.6-0.3,1.1-0.6,1.6-1c0.3-0.2,0.6-0.5,0.8-0.9
			C164.6,20.7,164.7,20.5,164.7,20.3z M158.6,21.5c-0.4,0.9-0.9,1.7-1.4,2.5c0,0,0.1,0,0.1,0c0.3,0,0.5-0.1,0.8-0.1
			c0.4-0.1,0.9-0.2,1.3-0.2c0,0,0.1,0,0-0.1c-0.1-0.2-0.1-0.3-0.2-0.5C159,22.6,158.8,22,158.6,21.5z M150.1,24
			c-0.5-0.8-1-1.6-1.4-2.5c0,0,0,0,0,0c-0.1,0.3-0.2,0.5-0.3,0.8c-0.2,0.4-0.3,0.8-0.4,1.2c0,0.1,0,0.1,0,0.1c0.1,0,0.2,0,0.3,0.1
			c0.5,0.1,0.9,0.2,1.4,0.2C149.8,24,149.9,24,150.1,24z M155.1,25.2c-1,0-1.9,0-2.9,0c0,0,0,0,0,0c0.4,0.6,0.9,1.1,1.4,1.7
			c0,0,0,0,0.1,0c0.3-0.3,0.6-0.6,0.8-1C154.7,25.7,154.9,25.5,155.1,25.2z M155,15.4C155,15.4,155,15.4,155,15.4
			c-0.4-0.6-0.9-1.2-1.4-1.7c0,0,0,0-0.1,0c-0.5,0.5-0.9,1.1-1.4,1.6c0,0,0,0,0,0C153.1,15.4,154.1,15.4,155,15.4z M158.6,19.1
			C158.6,19.1,158.6,19.1,158.6,19.1c0.3-0.7,0.5-1.3,0.8-2c0,0,0,0,0-0.1c-0.6-0.1-1.3-0.3-1.9-0.3c-0.1,0-0.2,0-0.3,0
			C157.7,17.5,158.1,18.3,158.6,19.1z M150.1,16.6c0,0-0.1,0-0.1,0c-0.1,0-0.2,0-0.3,0c-0.6,0.1-1.1,0.2-1.7,0.3
			c-0.1,0-0.1,0-0.1,0.1c0.2,0.7,0.5,1.3,0.7,2c0,0,0,0,0,0C149.1,18.3,149.6,17.4,150.1,16.6z"/>
		<path class="st35" d="M153.5,22.6c-1.2,0-2.2-1-2.2-2.2c0-1.2,1-2.2,2.2-2.2c1.2,0,2.2,1,2.2,2.2
			C155.7,21.6,154.7,22.6,153.5,22.6z"/>
	</g>
</g>
<g>
	<path class="st0" d="M85.6,91.3l-0.2,1c-0.1,0.5-0.5,0.9-1,1l-0.3,0.1c-0.6,0.1-1.1,0.6-1.2,1.2l-0.1,0.7l-2.5-0.4l1.5-7.6l2.4,0.5
		l0,0.4c-0.1,0.6,0.2,1.2,0.6,1.6l0.5,0.5C85.5,90.5,85.7,90.9,85.6,91.3z"/>
	<path class="st0" d="M65,87.6l-0.2,1c-0.1,0.5,0.1,1,0.5,1.2l0.2,0.2c0.5,0.3,0.7,0.9,0.7,1.5l-0.1,0.7l2.3,0.4l1.2-7.6l-2.2-0.3
		L67.4,85c-0.1,0.6-0.5,1.1-1.1,1.3l-0.6,0.3C65.3,86.8,65,87.2,65,87.6z"/>
	<path class="st0" d="M80,99.4l-12.7-2.3c-1.1-0.2-1.8-1.2-1.6-2.3l1.8-10.2l0.4-2.5c0.2-1.1,1.2-1.8,2.3-1.6l12.7,2.3
		c1.1,0.2,1.8,1.2,1.6,2.3l-2.3,12.8C82.1,98.9,81,99.6,80,99.4z"/>
	<g>
		<path class="st36" d="M76.8,82.3l5.5,1c1.1,0.2,1.6,1,1.4,2l-0.2,0.8c0,0.2-0.1,0.8-0.2,1l-0.1,1.1c0,0.4-0.1,1,0,1.3l0.1,0.5
			c0.2,0.6,1.1,0.6,1.6,1l0,0l-0.1,1l-1.3-0.2l-0.8,0.9c-0.2,0.3-0.1,0-0.2,0.4l-0.2,0.7c-0.1,0.2-0.1,1.1-0.2,1.3L81.7,97
			c-0.2,1-1.2,1.7-2.2,1.5l-11.4-1.9c-1.1-0.2-1.8-1.3-1.5-2.3l0.6-1.5l0.1-1.7l-0.5-1.7l-0.9-0.4l-0.2-0.1l0.1-1l1.1-0.1l0.8-0.7
			l0.7-1.3l0.6-2.6l-0.1-0.5c0.3-0.9,1.2-1.5,2.2-1.3L76.8,82.3z"/>
		<path class="st36" d="M84.6,91.1C84.6,91.1,84.7,91.1,84.6,91.1c0,0.4,0,0.7-0.1,1c0,0,0,0,0,0c-0.2,0-0.3,0-0.5,0
			c-0.5,0.1-0.8,0.4-1.1,0.7c-0.4,0.4-0.6,1-0.8,1.5c-0.2,0-0.4,0.2-0.6,0.1c-0.1-0.1-0.2,0.1-0.2,0.2c-0.1,0.2-0.2,0.5-0.5,0.6
			c-0.4,0.1-0.7,0.4-0.9,0.7c-0.2,0.2-0.4,0.5-0.7,0.7c-0.2,0.1-0.3,0.5-0.6,0.4c0,0,0,0,0,0.1c0,0.2-0.1,0.2-0.2,0.3
			c-0.2,0.1-0.4,0.2-0.4,0.3c0,0.2-0.1,0.4-0.1,0.5c-1.2-0.2-2.4-0.4-3.6-0.6c0.1-0.2,0.2-0.4,0.4-0.5c0.1,0,0.2-0.1,0.2-0.2
			c0.1-0.3,0.4-0.4,0.6-0.6c0.3-0.4,0.7-0.6,1.1-0.9c0.1,0,0.1-0.1,0.1-0.2c0-0.1-0.1-0.1-0.2-0.1c-1,0.1-1.9-0.3-2.8-0.4
			c-0.5-0.1-1-0.1-1.4-0.4c-0.1-0.1-0.4-0.1-0.5-0.3c0.5,0.2,1.1,0.2,1.6,0.4c0.5,0.2,1.1,0.2,1.7,0.3c0.4,0.1,0.8,0.1,1.1,0
			c1-0.2,1.6-0.8,1.9-1.8c0.1-0.3,0.2-0.6-0.1-0.9l0,0l0,0c0,0,0-0.1,0-0.1c0-0.4-0.2-0.8-0.4-1.1c0.1,0,0.2,0,0.2,0
			c0.3,0.5,0.6,1.1,0.6,1.7c0,0.3,0,0.7,0,1c0,0.1,0,0.1,0,0.2c0.1,0,0.1,0,0.2-0.1c0.1-0.1,0.2-0.2,0.3-0.3
			c0.5-0.4,1.1-0.9,1.5-1.4c0,0,0.1-0.1,0.1-0.1c0.3-0.2,0.6-0.5,1-0.6c0.1,0,0.2-0.1,0.2-0.2c0.1-0.2,0.2-0.3,0.3-0.4
			c0.2-0.2,0.4-0.3,0.6-0.5c0-0.1,0.1-0.1,0.2-0.1c0.2,0.1,0.3,0.1,0.4-0.2c0-0.1,0.1-0.2,0.2-0.2c0,0.1,0.1,0.2,0.1,0.3
			c0.1,0.5,0.4,0.9,0.8,1.2c0.1,0,0.1,0.1,0.2,0.1C84.5,91.1,84.6,91.1,84.6,91.1z"/>
		<path class="st37" d="M65.6,87.8c0.1,0,0.3,0,0.4-0.1c0.1,0,0.2,0,0.3-0.1c0.6-0.2,0.9-0.7,1.2-1.2c0.6-1,0.8-2.1,1-3.2
			c0.1-0.4,0.1-0.7,0.3-1c0.4-0.6,1-0.9,1.7-0.9c0.1,0.1,0.2,0.1,0.3,0.1c1.3,0.2,2.6,0.5,4,0.7c0,0.2-0.3,0.1-0.3,0.3
			c-0.1,0.3-0.4,0.4-0.6,0.5c-0.1,0.1-0.2,0.1-0.2,0.2c0,0.2-0.1,0.3-0.3,0.2c-0.2-0.1-0.2,0-0.2,0.2c0,0.3-0.3,0.4-0.4,0.7
			c-0.3,0-0.4,0.3-0.6,0.5c0,0-0.1,0.1-0.1,0.1c-0.4,0-0.5,0.3-0.6,0.5c-0.1,0.2-0.2,0.5-0.4,0.5c-0.3,0-0.4,0.2-0.6,0.4
			c-0.1,0.1-0.2,0.3-0.4,0.3c-0.1,0-0.1,0-0.2,0.1c-0.3,0.4-0.6,0.6-0.9,1c-0.1,0.2-0.3,0.3-0.5,0.1c-0.1,0-0.1,0-0.1,0
			c-0.2,0.3-0.5,0.4-0.6,0.8c-0.2,0.5-0.7,0.8-1.2,1c-0.2-0.2-0.3-0.4-0.6-0.6c-0.1-0.1-0.2-0.1-0.4-0.2
			C65.4,88.4,65.6,88.1,65.6,87.8z"/>
		<path class="st38" d="M82.3,83.5c0.6,0.2,0.9,0.6,1.1,1.2c0,0.1,0.1,0.2,0.1,0.3c0,0.1,0,0.2,0,0.3c0,0.2-0.1,0.3-0.1,0.5
			c-0.1,0-0.2,0.1-0.2,0.2c-0.2,0.2-0.3,0.6-0.5,0.7c-0.2,0.1-0.4,0.3-0.6,0.4c-0.4,0.2-0.7,0.4-0.9,0.7c-0.1,0.1-0.2,0.2-0.4,0.3
			c-0.2,0.1-0.5,0.2-0.6,0.4c-0.1,0.2-0.4,0.4-0.5,0.6c-0.2,0.2-0.5,0.4-0.7,0.6c-0.1,0.1-0.4,0.2-0.5,0.4c-0.1-0.1,0-0.1,0-0.1
			c0.2-0.3,0.3-0.7,0.3-1c0-0.2,0.1-0.5-0.1-0.7c-0.1-0.5-0.3-0.9-0.6-1.2c0-0.1-0.1-0.1-0.2,0c-0.1-0.1-0.1-0.1-0.2-0.2
			c0.1-0.2,0.3-0.4,0.6-0.2c0.1,0,0.2,0,0.2-0.1c0.2-0.5,0.7-0.7,1-1c0.3-0.2,0.4-0.7,0.9-0.7c0,0,0,0,0,0c0.2-0.4,0.6-0.4,0.8-0.7
			c0.1-0.2,0.4-0.3,0.5-0.6C81.9,83.4,82.1,83.4,82.3,83.5z"/>
		<path class="st39" d="M82.3,83.5c-0.2,0-0.4-0.1-0.6-0.1c-1.3-0.2-2.7-0.5-4-0.7c-1-0.2-1.9-0.3-2.9-0.5c-1.3-0.2-2.6-0.5-4-0.7
			c-0.1,0-0.2,0-0.3-0.1c0.1,0,0.2,0,0.3,0c3.7,0.6,7.3,1.3,11,1.9C82,83.4,82.2,83.4,82.3,83.5z"/>
		<path class="st40" d="M84.7,91.7c-0.1,0.1,0,0.3-0.1,0.4c0.1-0.3,0.1-0.6,0.2-1C84.8,91.3,84.6,91.5,84.7,91.7z"/>
		<path class="st40" d="M84.6,91.1c-0.1,0-0.1,0-0.1,0C84.5,91.1,84.6,91.1,84.6,91.1z"/>
		<path class="st36" d="M83.2,87.2c0,0.6-0.1,1.3,0,1.9c0,0.1,0,0.3,0.1,0.4c-0.1,0.1-0.1,0.1-0.2,0.2c0,0.2-0.1,0.3-0.4,0.2
			c-0.1,0-0.1,0-0.2,0.1c-0.2,0.2-0.4,0.3-0.6,0.5c-0.1,0.1-0.3,0.2-0.3,0.4c0,0.1-0.1,0.2-0.2,0.2c-0.3,0.2-0.6,0.4-1,0.6
			c0,0-0.1,0.1-0.1,0.1c-0.4,0.6-1,1-1.5,1.4c-0.1,0.1-0.2,0.1-0.3,0.3c0,0.1-0.1,0.1-0.2,0.1c-0.1,0-0.1-0.1,0-0.2
			c0.1-0.3,0.1-0.7,0-1c-0.1-0.6-0.3-1.1-0.6-1.7c-0.1-0.3-0.2-0.5,0.1-0.8c0.6-0.5,0.7-1.2,0.7-1.9c0.2,0.2,0.1,0.5,0.1,0.7
			c0,0.4-0.1,0.7-0.3,1c0,0,0,0.1,0,0.1c0.1-0.2,0.4-0.3,0.5-0.4c0.2-0.3,0.5-0.4,0.7-0.6c0.2-0.2,0.4-0.4,0.5-0.6
			c0.1-0.2,0.4-0.3,0.6-0.4c0.2-0.1,0.3-0.2,0.4-0.3c0.2-0.3,0.5-0.6,0.9-0.7c0.2-0.1,0.4-0.2,0.6-0.4c0.2-0.1,0.3-0.4,0.5-0.7
			c0.1-0.1,0.1-0.2,0.2-0.2c-0.1,0.4-0.1,0.8-0.2,1.1C83.2,86.9,83.2,87.1,83.2,87.2z"/>
		<path class="st38" d="M74.2,97.6c1.2,0.2,2.4,0.4,3.6,0.6c0.6,0.1,1.2,0.2,1.8,0.3c-0.1,0-0.2,0-0.4,0c-1.6-0.3-3.3-0.6-4.9-0.9
			c-2.1-0.4-4.1-0.7-6.2-1.1c-0.4-0.1-0.7-0.2-1-0.5c0.1,0,0.1,0,0.2,0c0.5-0.3,0.9-0.7,1.3-1.1c0.2-0.2,0.3-0.5,0.7-0.6
			c0.1,0,0.1-0.1,0.1-0.1c0.2-0.1,0.3-0.4,0.5-0.6c0.3-0.2,0.5-0.4,0.8-0.6c0.1-0.1,0.1-0.1,0.1-0.2c0.1-0.4,0.2-0.8,0.3-1.1
			c0.2-0.5,0.2-1,0.3-1.5c0.2-0.8,0.3-1.7,0.5-2.5c0.1-0.5,0.1-0.9,0.3-1.4c0.1-0.3,0.1-0.6,0.5-0.7c0,0.1,0,0.3-0.1,0.4
			c-0.2,0.1-0.2,0.3-0.2,0.4c-0.1,0.5-0.2,1.1-0.3,1.6c-0.3,1.6-0.7,3.3-1,4.9c0,0.1,0,0.2,0,0.3c-0.1,0.5,0.1,0.9,0.6,1.1
			c0,0.1,0.1,0.2,0.2,0.2c0.2,0,0.3,0.1,0.5,0.2c0.1,0,0.3,0.1,0.3,0.2c0,0.2-0.1,0.3-0.3,0.4c-0.5,0.3-0.7,0.5-0.9,1
			c0,0-0.1,0.1-0.1,0.1c-0.2,0-0.3,0.2-0.4,0.3c-0.2,0.2-0.2,0.3,0.1,0.4C72.2,97.2,73.2,97.4,74.2,97.6z"/>
		<path class="st36" d="M74.2,97.6c-1-0.2-2-0.4-3-0.5c-0.3-0.1-0.3-0.1-0.1-0.4c0.1-0.1,0.2-0.3,0.4-0.3c0,0,0.1-0.1,0.1-0.1
			c0.2-0.5,0.5-0.7,0.9-1c0.2-0.1,0.3-0.3,0.3-0.4c0-0.1-0.2-0.2-0.3-0.2c-0.2-0.1-0.3-0.1-0.5-0.2c-0.1,0-0.2-0.1-0.2-0.2
			c0.1,0,0.2,0,0.3,0.1c0.1,0.1,0.2,0.1,0.2-0.1c0.4,0.3,1,0.3,1.4,0.4c0.9,0.1,1.9,0.5,2.8,0.4c0.1,0,0.1,0,0.2,0.1
			c0,0.1,0,0.1-0.1,0.2c-0.4,0.2-0.8,0.5-1.1,0.9c-0.2,0.2-0.4,0.4-0.6,0.6c0,0.1-0.1,0.2-0.2,0.2C74.4,97.1,74.3,97.3,74.2,97.6z"
			/>
		<path class="st41" d="M82.1,94.5c0,0.1,0,0.1-0.1,0.2c0,0,0,0.1,0,0.1c-0.1,0.2-0.1,0.4-0.2,0.7c-0.1,0-0.1,0.1-0.1,0.2
			c-0.1,0.5-0.2,1.1-0.3,1.6c0,0.1,0,0.1-0.1,0.2c-0.2,0.4-0.5,0.7-1,0.9c-0.3,0.1-0.5,0.2-0.8,0.1c-0.6-0.1-1.2-0.2-1.8-0.3
			c0-0.2,0.1-0.4,0.1-0.5c0-0.1,0.3-0.2,0.4-0.3c0.1-0.1,0.2-0.1,0.2-0.3c0,0,0-0.1,0-0.1c0.4,0.1,0.4-0.3,0.6-0.4
			c0.3-0.2,0.5-0.4,0.7-0.7c0.3-0.3,0.6-0.5,0.9-0.7c0.2-0.1,0.3-0.3,0.5-0.6c0-0.1,0.1-0.2,0.2-0.2c0.2,0.1,0.4-0.1,0.6-0.1
			C82.1,94.4,82.1,94.5,82.1,94.5z"/>
		<path class="st39" d="M78,92c0.2,0.3,0.2,0.6,0.1,0.9c-0.3,1-0.9,1.6-1.9,1.8c-0.4,0.1-0.8,0.1-1.1,0c-0.6-0.1-1.1-0.2-1.7-0.3
			c-0.5-0.2-1.1-0.2-1.6-0.4c-0.2,0-0.3-0.1-0.3-0.3c0.1,0,0.3,0,0.4,0.1c0.1,0,0.1,0,0.2,0c0.1,0,0.2,0,0.3,0c1,0.2,2,0.4,3.1,0.5
			c1.5,0.1,2.5-0.8,2.6-2.2C78,92,78,92,78,92z"/>
		<path class="st42" d="M78,92c0,0,0,0.1,0,0.1c-0.1,0-0.2,0-0.3,0.1c-0.4,0.2-0.8,0.4-1.3,0.5c0,0,0,0,0,0c0.3-0.6,0.3-1.1-0.2-1.6
			c0-0.3,0.1-0.7,0.6-0.7c0,0,0,0,0,0c0.1,0.1,0.2,0.1,0.3,0.2c0.1,0.1,0.2,0.2,0.3,0.3c0,0,0,0.1,0.1,0.1c0.2,0.3,0.4,0.7,0.4,1.1
			C78,91.9,78,91.9,78,92L78,92L78,92z"/>
		<path class="st43" d="M71.5,93.6c0,0.2,0.1,0.3,0.3,0.3c0.1,0.2,0.3,0.2,0.5,0.3c0,0.1-0.1,0.1-0.2,0.1c-0.1-0.1-0.2-0.1-0.3-0.1
			c-0.5-0.2-0.7-0.6-0.6-1.1c0-0.1,0-0.2,0-0.3c0.3-1.6,0.7-3.2,1-4.9c0.1-0.5,0.2-1.1,0.3-1.6c0-0.2,0-0.4,0.2-0.4
			c-0.1,0.5-0.2,1.1-0.3,1.6c-0.1,0.7-0.2,1.4-0.4,2.1c-0.1,0.8-0.3,1.5-0.4,2.3c-0.1,0.4-0.1,0.8-0.2,1.1
			C71.5,93.3,71.4,93.5,71.5,93.6z"/>
		<path class="st43" d="M77.6,90.7C77.6,90.7,77.6,90.7,77.6,90.7c-0.1-0.1,0-0.2,0-0.2c-0.1-0.3,0.1-0.5,0.3-0.7
			c0.2-0.2,0.4-0.5,0.5-0.7c0.1-0.2,0.2-0.5,0-0.7c0-0.1,0-0.1,0-0.2c0.1-0.5-0.2-0.9-0.4-1.3c0.1-0.1,0.1-0.1,0.2,0
			c0.3,0.4,0.5,0.8,0.6,1.2c0,0.7-0.1,1.4-0.7,1.9c-0.3,0.3-0.2,0.5-0.1,0.8C77.8,90.8,77.7,90.7,77.6,90.7z"/>
		<path class="st39" d="M78,91.9C78,91.9,78,91.9,78,91.9C78,91.9,78,91.9,78,91.9z"/>
		<path class="st44" d="M66.8,92.7c0-0.1,0-0.2,0-0.2c0-0.1,0-0.1,0-0.2c0-0.1,0-0.2,0-0.3c0.1-0.8,0-1.7-0.4-2.4
			c0.5-0.3,1-0.5,1.2-1c0.1-0.4,0.5-0.5,0.6-0.8c0-0.1,0.1-0.1,0.1,0c0.2,0.1,0.4,0,0.5-0.1c0.3-0.4,0.6-0.7,0.9-1
			c0-0.1,0.1-0.1,0.2-0.1c0.2,0,0.3-0.1,0.4-0.3c0.2-0.2,0.3-0.4,0.6-0.4c0.2,0,0.3-0.3,0.4-0.5c0.2-0.3,0.3-0.5,0.6-0.5
			c0.1,0,0.1,0,0.1-0.1c0.2-0.2,0.3-0.5,0.6-0.5c0-0.3,0.4-0.3,0.4-0.7c0-0.1,0.1-0.2,0.2-0.2c0.2,0.1,0.3,0,0.3-0.2
			c0-0.1,0.1-0.2,0.2-0.2c0.2-0.1,0.5-0.2,0.6-0.5c0-0.2,0.3-0.1,0.3-0.3c1,0.2,1.9,0.3,2.9,0.5c-0.1,0.2-0.1,0.4-0.4,0.2
			c0,0-0.1,0-0.1,0c0,0.3-0.4,0.3-0.4,0.6c-0.4,0.1-0.4,0.5-0.8,0.7c-0.3,0.1-0.4,0.4-0.7,0.5c-0.1,0-0.1,0.1-0.2,0.1
			c-0.1,0.2-0.2,0.4-0.4,0.4c-0.3,0-0.5,0.1-0.8,0c-0.3-0.1-0.6,0-0.9,0c-0.1,0-0.2,0-0.2,0.1c-0.3,0-0.4,0.2-0.5,0.4
			c-0.2,0.5-0.3,0.9-0.4,1.4c-0.1,0.4-0.2,0.8-0.7,1c-0.1,0-0.2,0.1-0.2,0.3c0,0.1-0.1,0.1-0.1,0.2c-0.1,0.3-0.5,0.3-0.7,0.5
			c-0.1,0.2-0.4,0.2-0.5,0.3c-0.2,0.3-0.4,0.6-0.7,0.8c-0.1,0.1,0,0.2-0.1,0.3c-0.5,0.2-0.9,0.6-1.1,1c-0.1,0.2-0.4,0.4-0.4,0.7
			C67.3,92.6,67.1,92.8,66.8,92.7z"/>
		<path class="st45" d="M72.9,85.4c0-0.1,0.1-0.1,0.2-0.1c0.3,0,0.6-0.1,0.9,0c0.3,0.1,0.5,0,0.8,0c0.2,0,0.3-0.2,0.4-0.4
			c0-0.1,0.1-0.1,0.2-0.1c0.3-0.1,0.4-0.4,0.7-0.5c0.4-0.1,0.4-0.6,0.8-0.7c0-0.3,0.4-0.3,0.4-0.6c0,0,0-0.1,0.1,0
			c0.3,0.1,0.3-0.1,0.4-0.2c1.3,0.2,2.7,0.5,4,0.7c-0.1,0.2-0.4,0.4-0.5,0.6c-0.2,0.3-0.7,0.3-0.8,0.7c0,0,0,0,0,0
			c-0.5,0-0.6,0.5-0.9,0.7c-0.4,0.3-0.8,0.5-1,1c0,0.1-0.2,0.2-0.2,0.1c-0.3-0.2-0.4,0-0.6,0.2c-0.3-0.2-0.5-0.4-0.9-0.5
			c-0.1,0-0.3-0.1-0.4-0.1C75.2,85.8,74.1,85.6,72.9,85.4C72.9,85.4,72.9,85.4,72.9,85.4L72.9,85.4z"/>
		<path class="st46" d="M76.8,86.1c0.3,0.1,0.6,0.3,0.9,0.5c0.1,0.1,0.1,0.1,0.2,0.2c0.3,0.4,0.5,0.8,0.4,1.3c-0.1,0-0.2,0-0.4,0
			c-0.4,0.1-0.7,0.3-1,0.3c0.1-0.8-0.1-1.3-0.9-1.5c-0.3-0.1-0.6-0.1-0.9-0.2c0-0.2,0.2-0.2,0.3-0.2c0.4-0.1,0.8-0.3,1.3-0.4
			C76.7,86.2,76.7,86.2,76.8,86.1z"/>
		<path class="st39" d="M83.2,87.2c-0.1-0.1,0-0.2,0-0.3c0.1-0.4,0.1-0.8,0.2-1.1c0-0.2,0.1-0.3,0.1-0.5c0.1,0.2,0,0.4,0,0.5
			C83.4,86.2,83.3,86.7,83.2,87.2z"/>
		<path class="st45" d="M66.8,92.7c0.3,0.1,0.5-0.1,0.5-0.3c0.1-0.3,0.3-0.5,0.4-0.7c0.2-0.5,0.6-0.8,1.1-1c0.1-0.1,0-0.2,0.1-0.3
			c0.3-0.2,0.6-0.4,0.7-0.8c0.1-0.2,0.4-0.2,0.5-0.3c0.2-0.2,0.6-0.2,0.7-0.5c0-0.1,0.1-0.1,0.1-0.2c0-0.2,0.1-0.3,0.2-0.3
			c0.4-0.2,0.6-0.6,0.7-1c0.1-0.5,0.2-1,0.4-1.4c0.1-0.2,0.2-0.5,0.5-0.4c0,0,0,0,0,0c0,0,0,0,0,0.1c0,0.1,0,0.1,0,0.2
			c-0.4,0.1-0.4,0.4-0.5,0.7c-0.1,0.5-0.1,0.9-0.3,1.4c-0.2,0.8-0.3,1.7-0.5,2.5c-0.1,0.5-0.2,1-0.3,1.5c-0.1,0.4-0.2,0.8-0.3,1.1
			c0,0.1-0.1,0.2-0.1,0.2c-0.3,0.2-0.5,0.4-0.8,0.6c-0.2,0.2-0.3,0.4-0.5,0.6c0,0-0.1,0.1-0.1,0.1c-0.4,0-0.5,0.4-0.7,0.6
			c-0.4,0.4-0.8,0.8-1.3,1.1c-0.1,0-0.1,0-0.2,0c0,0-0.1-0.1-0.1-0.1c-0.2-0.2-0.3-0.5-0.4-0.8c-0.1-0.4,0-0.8,0-1.1
			C66.7,93.5,66.8,93.1,66.8,92.7z"/>
		<path class="st0" d="M72.9,85.6c0-0.1,0-0.1,0-0.2c0,0,0,0,0.1,0c1.1,0.2,2.3,0.4,3.4,0.6c0.1,0,0.3,0.1,0.4,0.1
			c0,0.1-0.1,0.1-0.2,0.1c-0.4,0.1-0.8,0.3-1.3,0.4c-0.1,0-0.3,0.1-0.3,0.2c-0.2,0-0.4-0.1-0.6-0.1c-0.4-0.1-0.4-0.1-0.5,0.3
			c-0.1,0-0.1,0.1-0.2,0.1c-0.2,0.1-0.5,0.3-0.7,0.2c-0.2,0-0.3,0-0.4,0.1c0,0.1-0.1,0.1-0.2,0.1c0.1-0.5,0.2-1.1,0.3-1.6
			C72.8,85.9,72.8,85.7,72.9,85.6z"/>
		<path class="st39" d="M81.4,97.3c0.1-0.5,0.2-1.1,0.3-1.6c0-0.1,0-0.2,0.1-0.2c-0.1,0.5-0.2,1-0.3,1.5
			C81.5,97.1,81.5,97.2,81.4,97.3z"/>
		<path class="st40" d="M66.8,92.3c0,0.1,0,0.1,0,0.2C66.8,92.4,66.8,92.3,66.8,92.3z"/>
		<path class="st40" d="M82,94.8c0,0,0-0.1,0-0.1C82,94.8,82,94.8,82,94.8z"/>
		<path class="st47" d="M76.5,92.6c0.5-0.1,0.9-0.3,1.3-0.5c0.1,0,0.2-0.1,0.3-0.1c-0.1,1.4-1.1,2.3-2.6,2.2c-1-0.1-2-0.3-3.1-0.5
			c0.1-0.2,0.3-0.2,0.4-0.3c0.2-0.1,0.6-0.1,0.4-0.5c0,0,0-0.1,0-0.1c0.1,0,0.1,0,0.2,0c0,0.1,0,0.2,0.1,0.3c0.2,0,0.3,0.1,0.4-0.2
			c0.3,0,0.5,0.1,0.8,0.1C75.4,93.2,76,93.2,76.5,92.6z"/>
		<path class="st42" d="M73.3,92.8c0,0,0,0.1,0,0.1c0.2,0.4-0.2,0.4-0.4,0.5c-0.2,0.1-0.4,0-0.4,0.3c-0.1,0-0.2,0-0.3,0
			c0-0.1,0-0.1,0-0.2c-0.1,0-0.1,0-0.2,0.1c-0.1,0-0.3,0-0.4-0.1c-0.1-0.2,0-0.3,0-0.5c0.1-0.4,0.1-0.8,0.2-1.1
			c0.2,0,0.4,0.1,0.6,0.1c0.3-0.1,0.5-0.2,0.7,0.2c0,0.1,0,0.2,0,0.2C72.9,92.7,73,92.8,73.3,92.8z"/>
		<path class="st47" d="M71.9,93.7c0-0.1,0.1-0.1,0.2-0.1c0.1,0,0.1,0.1,0,0.2C72,93.7,72,93.7,71.9,93.7z"/>
		<path class="st48" d="M73,92.2c-0.2-0.3-0.4-0.2-0.7-0.2c-0.2,0-0.4-0.1-0.6-0.1c0.1-0.8,0.3-1.5,0.4-2.3c0,0,0.1,0,0.1-0.1
			c0.1-0.2,0.2-0.3,0.4-0.1c0.1,0.1,0.3,0.2,0.4-0.1c0.1-0.1,0.2-0.2,0.3-0.2c0.1,0,0.2-0.1,0.2-0.2c0.1,0,0.1,0.1,0.2,0.1
			c0.5,0.1,1.1,0.2,1.6,0.3c0.4,0,0.9,0,1.2-0.4c0.2-0.1,0.2-0.3,0.3-0.4c0.4,0,0.7-0.3,1-0.3c0.1,0,0.2-0.1,0.4,0
			c0,0.1,0,0.1,0,0.2c-0.1,0.4-0.2,0.7-0.4,1c-0.3,0.4-0.8,0.6-1.3,0.7c0.2,0.1,0.3,0.1,0.4,0.2c0,0,0,0,0,0c-0.5,0-0.5,0.3-0.6,0.7
			c-0.2-0.1-0.3-0.2-0.5-0.3c-0.6-0.3-1.2-0.3-1.8-0.4c-0.7-0.1-0.7-0.1-0.7,0.6C73.2,91.3,73.1,91.7,73,92.2z"/>
		<path class="st43" d="M73,92.2c0.1-0.5,0.2-1,0.3-1.5c0.1,0,0.2,0,0.3-0.1c0.2-0.1,0.3-0.2,0.5-0.1c0.5,0.1,1,0.1,1.4,0.3
			c0.6,0.3,1,0.7,0.9,1.4c0,0.1-0.1,0.2,0.1,0.2c0,0,0,0,0,0c-0.4,0.6-1,0.6-1.7,0.5c-0.3,0-0.5-0.1-0.8-0.1c-0.2,0-0.4-0.1-0.6-0.1
			c-0.1,0-0.1,0-0.2,0c-0.3,0-0.4-0.1-0.3-0.4C73,92.4,73,92.3,73,92.2z M73.5,91.5c-0.1,0.2,0,0.4-0.1,0.7
			c-0.1,0.3,0.2,0.6,0.5,0.6c0.3,0,0.6,0.1,0.8,0.1c0.3,0,0.5,0,0.8-0.1c0.3-0.1,0.5-0.3,0.5-0.7c0.1-0.3,0-0.6-0.3-0.8
			c-0.4-0.3-0.9-0.3-1.3-0.4C74.1,90.7,73.5,90.9,73.5,91.5z"/>
		<path class="st39" d="M76.5,92.5c-0.1-0.1-0.1-0.2-0.1-0.2c0.1-0.7-0.3-1.2-0.9-1.4c-0.4-0.2-0.9-0.2-1.4-0.3
			c-0.2,0-0.4,0-0.5,0.1c-0.1,0-0.2,0.1-0.3,0.1c0-0.7,0-0.7,0.7-0.6c0.6,0.1,1.3,0.2,1.8,0.4c0.2,0.1,0.3,0.2,0.5,0.3
			C76.8,91.4,76.7,92,76.5,92.5z"/>
		<path class="st49" d="M77.9,89.3c0.2-0.3,0.4-0.6,0.4-1c0.3,0.2,0.1,0.5,0,0.7c-0.1,0.3-0.2,0.5-0.5,0.7c-0.2,0.2-0.4,0.4-0.3,0.7
			c0,0,0,0.1-0.1,0.1c-0.1-0.1-0.2-0.2-0.3-0.3c0.1-0.3,0.4-0.6,0.6-0.8C77.9,89.5,78,89.4,77.9,89.3z"/>
		<path class="st39" d="M77.9,89.3c0.1,0.1,0,0.2-0.1,0.2c-0.2,0.3-0.5,0.5-0.6,0.8c-0.1-0.1-0.2-0.1-0.3-0.2
			c-0.1-0.1-0.2-0.1-0.4-0.2C77.1,89.9,77.5,89.7,77.9,89.3z"/>
		<path class="st48" d="M73.6,89.1c0,0.1-0.1,0.2-0.2,0.2c-0.1,0-0.2,0.1-0.3,0.2c-0.1,0.2-0.3,0.2-0.4,0.1
			c-0.2-0.2-0.3-0.2-0.4,0.1c0,0.1-0.1,0.1-0.1,0.1c0.1-0.7,0.2-1.4,0.4-2.1c0.1,0,0.1-0.1,0.2-0.1c0.1-0.1,0.2-0.2,0.4-0.1
			c0.2,0.1,0.5-0.1,0.7-0.2c0.1,0,0.1-0.1,0.2-0.1c0,0.1,0,0.2,0,0.3c-0.1,0.4-0.2,0.9-0.2,1.3C73.6,88.9,73.6,89,73.6,89.1z"/>
		<path class="st46" d="M73,85.4C72.9,85.4,72.9,85.4,73,85.4C72.9,85.4,72.9,85.4,73,85.4C72.9,85.4,72.9,85.4,73,85.4z"/>
		<path class="st39" d="M73.9,87.4c0-0.1,0-0.2,0-0.3c0.1-0.4,0.1-0.4,0.5-0.3c0.2,0,0.4,0.1,0.6,0.1c0.3,0.1,0.6,0.1,0.9,0.2
			c0.8,0.2,1.1,0.7,0.9,1.5c-0.1,0.1-0.1,0.3-0.3,0.4c0-0.1,0-0.2,0.1-0.4c0.1-0.4-0.1-0.8-0.4-1c-0.2-0.2-0.5-0.2-0.7-0.3
			C75,87.2,74.4,87,73.9,87.4z"/>
		<path class="st42" d="M73.5,92.9c0.2,0,0.4,0.1,0.6,0.1c-0.1,0.2-0.3,0.2-0.4,0.2C73.5,93.1,73.5,93,73.5,92.9z"/>
		<path class="st43" d="M73.9,87.4c0.5-0.4,1.1-0.2,1.7-0.1c0.3,0.1,0.5,0.1,0.7,0.3c0.3,0.3,0.5,0.6,0.4,1c0,0.1,0,0.2-0.1,0.4
			c-0.3,0.4-0.8,0.4-1.2,0.4c-0.5-0.1-1.1-0.2-1.6-0.3c0-0.1,0-0.3-0.1-0.4C73.7,88.3,73.8,87.8,73.9,87.4z M74.1,88.1
			C74.1,88.1,74.1,88.1,74.1,88.1c0,0.1-0.1,0.2-0.1,0.3c0,0.2,0,0.5,0.3,0.6c0.5,0.2,1,0.2,1.5,0.1c0.4-0.1,0.6-0.3,0.6-0.7
			c0-0.3-0.1-0.6-0.4-0.7c-0.4-0.2-0.8-0.3-1.2-0.3c-0.4,0-0.6,0.1-0.7,0.5C74.1,88,74.1,88.1,74.1,88.1z"/>
		<path class="st39" d="M73.7,88.8c0.2,0.1,0.1,0.2,0.1,0.4c-0.1,0-0.1,0-0.2-0.1C73.6,89,73.6,88.9,73.7,88.8z"/>
		<path class="st38" d="M73.5,91.5c0-0.6,0.5-0.8,1-0.6c0.4,0.2,0.9,0.1,1.3,0.4c0.3,0.2,0.3,0.5,0.3,0.8c-0.1,0.3-0.2,0.6-0.5,0.7
			c-0.2,0.1-0.5,0.1-0.8,0.1c-0.3,0-0.6-0.1-0.8-0.1c-0.4,0-0.6-0.3-0.5-0.6C73.5,91.9,73.4,91.7,73.5,91.5z"/>
		<path class="st45" d="M74.1,88.1c0-0.1,0-0.1,0-0.2c0.1-0.4,0.3-0.6,0.7-0.5c0.4,0,0.8,0.2,1.2,0.3c0.3,0.1,0.5,0.4,0.4,0.7
			c0,0.4-0.2,0.6-0.6,0.7c-0.5,0.1-1,0.1-1.5-0.1c-0.2-0.1-0.3-0.3-0.3-0.6C74,88.4,74.1,88.2,74.1,88.1
			C74.1,88.1,74.1,88.1,74.1,88.1z"/>
	</g>
</g>
</svg>
