<?xml version="1.0" encoding="utf-8"?>
<!-- Generator: Adobe Illustrator 25.2.1, SVG Export Plug-In . SVG Version: 6.00 Build 0)  -->
<svg version="1.1" id="Layer_1" xmlns="http://www.w3.org/2000/svg" xmlns:xlink="http://www.w3.org/1999/xlink" x="0px" y="0px"
	 viewBox="0 0 255.3 129.6" style="enable-background:new 0 0 255.3 129.6;" xml:space="preserve">
<style type="text/css">
	.st0{clip-path:url(#XMLID_5_);fill:#A9B3A3;}
	.st1{clip-path:url(#XMLID_5_);fill:#C2CEBA;}
	.st2{clip-path:url(#XMLID_5_);fill:#A1A488;}
	.st3{fill:#E0743D;}
	.st4{clip-path:url(#XMLID_6_);fill:#A9B3A3;}
	.st5{clip-path:url(#XMLID_6_);fill:#C2CEBA;}
	.st6{clip-path:url(#XMLID_6_);fill:#A1A488;}
	.st7{opacity:0.49;clip-path:url(#XMLID_7_);fill:#ECE7C8;}
	.st8{opacity:0.6;clip-path:url(#XMLID_7_);fill:#A1A488;}
</style>
<g>
	<defs>
		<path id="XMLID_1_" d="M520.1,339.5H-83.4c-4.7,0-8.5-3.8-8.5-8.5v-0.3c0-4.2,3.4-7.6,7.6-7.6h604.4V339.5z"/>
	</defs>
	<use xlink:href="#XMLID_1_"  style="overflow:visible;fill:#A1A488;"/>
	<clipPath id="XMLID_5_">
		<use xlink:href="#XMLID_1_"  style="overflow:visible;"/>
	</clipPath>
	<path class="st0" d="M511.9,336.6H-83.6c-4.5,0-8.2-3.7-8.2-8.2v0c0-4.5,3.7-8.2,8.2-8.2h595.6c4.5,0,8.2,3.7,8.2,8.2v0
		C520.1,332.9,516.5,336.6,511.9,336.6z"/>
	<path class="st1" d="M-3.1,329.3h-63.3c-1.1,0-2-0.9-2-2v0c0-1.1,0.9-2,2-2h63.3c1.1,0,2,0.9,2,2v0C-1.2,328.4-2.1,329.3-3.1,329.3
		z"/>
	<path class="st2" d="M72.6,339.5h15c-1.7-2.2-4.5-6.7-2.6-12.1c0.6-1.7,1.6-3.2,2.6-4.4c-5,0-10,0-15,0V339.5z"/>
	<path class="st2" d="M365.7,339.5h15c-1.7-2.2-4.5-6.7-2.6-12.1c0.6-1.7,1.6-3.2,2.6-4.4c-5,0-10,0-15,0V339.5z"/>
</g>
<path class="st3" d="M73.3,386.6H66c-3.6,0-6.6-2.9-6.6-6.6v-59.4c0-3.6,2.9-6.6,6.6-6.6h7.4c3.6,0,6.6,2.9,6.6,6.6V380
	C79.9,383.6,77,386.6,73.3,386.6z"/>
<path class="st3" d="M364,386.6h-7.4c-3.6,0-6.6-2.9-6.6-6.6v-59.4c0-3.6,2.9-6.6,6.6-6.6h7.4c3.6,0,6.6,2.9,6.6,6.6V380
	C370.6,383.6,367.6,386.6,364,386.6z"/>
<g>
	<defs>
		<path id="XMLID_2_" d="M-91.9,505.5h603.5c4.7,0,8.5-3.8,8.5-8.5v-0.3c0-4.2-3.4-7.6-7.6-7.6H-91.9V505.5z"/>
	</defs>
	<use xlink:href="#XMLID_2_"  style="overflow:visible;fill:#A1A488;"/>
	<clipPath id="XMLID_6_">
		<use xlink:href="#XMLID_2_"  style="overflow:visible;"/>
	</clipPath>
	<path class="st4" d="M-83.6,502.6h595.6c4.5,0,8.2-3.7,8.2-8.2l0,0c0-4.5-3.7-8.2-8.2-8.2H-83.6c-4.5,0-8.2,3.7-8.2,8.2l0,0
		C-91.9,498.9-88.2,502.6-83.6,502.6z"/>
	<path class="st5" d="M434.8,497h63.3c1.1,0,2-0.9,2-2l0,0c0-1.1-0.9-2-2-2h-63.3c-1.1,0-2,0.9-2,2l0,0
		C432.8,496.1,433.7,497,434.8,497z"/>
	<path class="st6" d="M361,505.5h15.7c-1.8-2.2-4.7-6.7-2.7-12.1c0.6-1.7,1.6-3.2,2.7-4.4c-5.2,0-10.5,0-15.7,0V505.5z"/>
	<path class="st6" d="M70.3,505.5h16c-1.8-2.2-4.8-6.7-2.7-12.1c0.6-1.7,1.7-3.2,2.7-4.4c-5.3,0-10.6,0-16,0V505.5z"/>
</g>
<path class="st3" d="M354.9,552.5h7.4c3.6,0,6.6-2.9,6.6-6.6v-59.4c0-3.6-2.9-6.6-6.6-6.6h-7.4c-3.6,0-6.6,2.9-6.6,6.6V546
	C348.4,549.6,351.3,552.5,354.9,552.5z"/>
<path class="st3" d="M64.3,552.5h7.4c3.6,0,6.6-2.9,6.6-6.6v-59.4c0-3.6-2.9-6.6-6.6-6.6h-7.4c-3.6,0-6.6,2.9-6.6,6.6V546
	C57.7,549.6,60.6,552.5,64.3,552.5z"/>
<g>
	<defs>
		<path id="XMLID_3_" d="M255.3,79.9c0,20.3-22,36.7-49.1,36.7c-9.8,0-19-2.2-26.6-5.9c-10.3,11.4-27.6,18.8-47.3,18.8
			c-13.9,0-26.7-3.8-36.7-10c-10.1,6.2-23.1,10-37.4,10C26.1,129.6,0,110.3,0,86.4c0-22.5,23.2-41,52.9-43v-0.2
			C52.9,19.3,78.5,0,110.1,0c14.7,0,28.2,4.2,38.3,11.1c7.1-2.9,15.2-4.6,23.8-4.6c27.1,0,49.1,16.4,49.1,36.7c0,0.6,0,1.2-0.1,1.8
			C241,49.7,255.3,63.6,255.3,79.9z"/>
	</defs>
	<use xlink:href="#XMLID_3_"  style="overflow:visible;fill:#A9B3A3;"/>
	<clipPath id="XMLID_7_">
		<use xlink:href="#XMLID_3_"  style="overflow:visible;"/>
	</clipPath>
	<path class="st7" d="M83.1,21.6c-7,5.9-11.1,15.1-10.7,24.3c3.9,1.8,8.5,0.9,12.2-1.2c3.7-2.1,6.6-5.3,9.4-8.5
		c3.4-3.8,6.9-7.6,10.3-11.4c2.3-2.6,3.5-5.6,0.5-8.3C99.3,11.2,87.7,17.7,83.1,21.6z"/>
	<path class="st8" d="M22.6,120.6c5.5,2.3,23.3,8.9,44.3,2.6c13.6-4.1,22.5-11.8,27-16.2c2.9,2.2,23.7,17.4,49.7,10.8
		c15.8-4,25.5-14,29.2-18.4c21.8,12,47.7,4.9,58.3-13c8.1-13.6,6.4-32.2-4.3-46.4c9.5,0.4,19,0.7,28.5,1.1V121L121,140.4l-94-10.8
		C25.6,126.6,24.1,123.6,22.6,120.6"/>
</g>
</svg>
