<?xml version="1.0" encoding="utf-8"?>
<!-- Generator: Adobe Illustrator 25.2.1, SVG Export Plug-In . SVG Version: 6.00 Build 0)  -->
<svg version="1.1" id="Layer_1" xmlns="http://www.w3.org/2000/svg" xmlns:xlink="http://www.w3.org/1999/xlink" x="0px" y="0px"
	 viewBox="0 0 442.3 84.5" style="enable-background:new 0 0 442.3 84.5;" xml:space="preserve">
<style type="text/css">
	.st0{fill:#ECE7C8;}
</style>
<path class="st0" d="M0,11.5c2.1,0.1,15.1,0.7,24.2,11.5c11.4,13.6,6.1,30.6,5.8,31.7c3-2.2,10.2-6.9,20.2-7.2
	C67.8,46.9,79,60.2,80.4,61.9c4.9-2.8,17.3-9,33.8-7.9c22.3,1.5,36.2,15.2,39.6,18.7c7.3-3.7,24.4-11.1,46.8-9.4
	c18,1.4,31.3,8.1,38.2,12.2c7.6-3.7,20.2-8.7,36.7-10.1c17-1.4,30.7,1.8,38.9,4.3c9.9-7.7,29.2-20.5,56.9-25.9
	c20.5-4,37.8-2.3,49-0.4c-0.7-1.9-5.1-14.7,2.2-27.7c6.5-11.7,17.7-15.2,20-15.8c0.8,28.2,1.6,56.3,2.4,84.5H0V11.5z"/>
</svg>
