<?xml version="1.0" encoding="utf-8"?>
<!-- Generator: Adobe Illustrator 25.2.1, SVG Export Plug-In . SVG Version: 6.00 Build 0)  -->
<svg version="1.1" id="Layer_1" xmlns="http://www.w3.org/2000/svg" xmlns:xlink="http://www.w3.org/1999/xlink" x="0px" y="0px"
	 viewBox="0 0 16 16" style="enable-background:new 0 0 16 16;" xml:space="preserve">
<style type="text/css">
	.st0{fill:#25635C;}
</style>
<path class="st0" d="M6.2,5.7c0,0.8-0.6,1.4-1.4,1.4S3.5,6.5,3.5,5.7s0.6-1.4,1.4-1.4S6.2,5,6.2,5.7z"/>
<path class="st0" d="M2.6,1.6c-1,0-1.8,0.8-1.8,1.8v9.1c0,1,0.8,1.8,1.8,1.8h10.8c1,0,1.8-0.8,1.8-1.8V3.4c0-1-0.8-1.8-1.8-1.8
	C13.4,1.6,2.6,1.6,2.6,1.6z M13.4,2.5c0.5,0,0.9,0.4,0.9,0.9v5.9l-3.4-1.8c-0.2-0.1-0.4-0.1-0.5,0.1L7,11.1L4.6,9.4
	C4.5,9.3,4.2,9.3,4.1,9.5l-2.4,2.1V3.4c0-0.5,0.4-0.9,0.9-0.9H13.4z"/>
</svg>
