<?xml version="1.0" encoding="utf-8"?>
<!-- Generator: Adobe Illustrator 25.2.1, SVG Export Plug-In . SVG Version: 6.00 Build 0)  -->
<svg version="1.1" id="Layer_1" xmlns="http://www.w3.org/2000/svg" xmlns:xlink="http://www.w3.org/1999/xlink" x="0px" y="0px"
	 viewBox="0 0 16 16" style="enable-background:new 0 0 16 16;" xml:space="preserve">
<style type="text/css">
	.st0{fill:#25635C;}
</style>
<path class="st0" d="M14,1c0.6,0,1,0.4,1,1v8c0,0.6-0.4,1-1,1h-2.5c-0.6,0-1.2,0.3-1.6,0.8L8,14.3l-1.9-2.5c-0.4-0.5-1-0.8-1.6-0.8
	H2c-0.6,0-1-0.4-1-1V2c0-0.6,0.4-1,1-1H14z M2,0C0.9,0,0,0.9,0,2v8c0,1.1,0.9,2,2,2h2.5c0.3,0,0.6,0.1,0.8,0.4l1.9,2.5
	c0.3,0.4,1,0.5,1.4,0.2c0.1-0.1,0.1-0.1,0.2-0.2l1.9-2.5c0.2-0.3,0.5-0.4,0.8-0.4H14c1.1,0,2-0.9,2-2V2c0-1.1-0.9-2-2-2H2z"/>
<path class="st0" d="M3,3.5C3,3.2,3.2,3,3.5,3h9C12.8,3,13,3.2,13,3.5S12.8,4,12.5,4h-9C3.2,4,3,3.8,3,3.5z M3,6
	c0-0.3,0.2-0.5,0.5-0.5h9C12.8,5.5,13,5.7,13,6s-0.2,0.5-0.5,0.5h-9C3.2,6.5,3,6.3,3,6z M3,8.5C3,8.2,3.2,8,3.5,8h5
	C8.8,8,9,8.2,9,8.5S8.8,9,8.5,9h-5C3.2,9,3,8.8,3,8.5z"/>
</svg>
