<?xml version="1.0" encoding="utf-8"?>
<!-- Generator: Adobe Illustrator 25.2.1, SVG Export Plug-In . SVG Version: 6.00 Build 0)  -->
<svg version="1.1" id="Layer_1" xmlns="http://www.w3.org/2000/svg" xmlns:xlink="http://www.w3.org/1999/xlink" x="0px" y="0px"
	 viewBox="0 0 612 375.7" style="enable-background:new 0 0 612 375.7;" xml:space="preserve">
<style type="text/css">
	.st0{fill:#154242;}
	.st1{opacity:0.89;}
	.st2{fill:#A9B4A3;}
	.st3{opacity:0.49;clip-path:url(#SVGID_2_);fill:#EBE6C8;enable-background:new    ;}
	.st4{opacity:0.6;clip-path:url(#SVGID_4_);fill:#A0A488;enable-background:new    ;}
	.st5{fill:#F6DEAC;}
	.st6{opacity:0.22;clip-path:url(#SVGID_6_);fill:#8CA199;enable-background:new    ;}
	.st7{opacity:0.22;clip-path:url(#SVGID_8_);fill:#8CA199;enable-background:new    ;}
	.st8{opacity:0.22;clip-path:url(#SVGID_10_);fill:#8CA199;enable-background:new    ;}
	.st9{opacity:0.22;clip-path:url(#SVGID_12_);fill:#8CA199;enable-background:new    ;}
	.st10{opacity:0.22;clip-path:url(#SVGID_14_);fill:#8CA199;enable-background:new    ;}
	.st11{opacity:0.22;clip-path:url(#SVGID_16_);fill:#8CA199;enable-background:new    ;}
	.st12{opacity:0.22;clip-path:url(#SVGID_18_);fill:#8CA199;enable-background:new    ;}
	.st13{opacity:0.22;clip-path:url(#SVGID_20_);fill:#8CA199;enable-background:new    ;}
	.st14{opacity:0.31;clip-path:url(#SVGID_22_);fill:#8CA199;enable-background:new    ;}
	.st15{fill:#ECE7C8;}
	.st16{opacity:0.49;clip-path:url(#SVGID_24_);fill:#EBE6C8;enable-background:new    ;}
	.st17{opacity:0.6;clip-path:url(#SVGID_26_);fill:#A0A488;enable-background:new    ;}
	.st18{opacity:0.49;clip-path:url(#SVGID_28_);fill:#EBE6C8;enable-background:new    ;}
	.st19{opacity:0.6;clip-path:url(#SVGID_30_);fill:#A0A488;enable-background:new    ;}
</style>
<rect class="st0" width="612" height="375.7"/>
<g class="st1">
	<g>
		<path id="XMLID_2_" class="st2" d="M654.2,106.4c0,10.3-10.4,18.6-23.2,18.6c-4.6,0-9-1.1-12.6-3c-4.9,5.8-13,9.5-22.3,9.5
			c-6.6,0-12.6-1.9-17.3-5.1c-4.8,3.1-10.9,5.1-17.6,5.1c-15.1,0.1-27.5-9.7-27.5-21.8c0-11.4,10.9-20.8,25-21.8v-0.1
			c0-12.1,12.1-21.9,27-21.9c6.9,0,13.3,2.1,18.1,5.6c3.4-1.5,7.2-2.3,11.2-2.3c12.8,0,23.2,8.3,23.2,18.6c0,0.3,0,0.6,0,0.9
			C647.4,91.1,654.2,98.1,654.2,106.4z"/>
	</g>
	<g>
		<defs>
			<path id="SVGID_1_" d="M654.2,106.4c0,10.3-10.4,18.6-23.2,18.6c-4.6,0-9-1.1-12.6-3c-4.9,5.8-13,9.5-22.3,9.5
				c-6.6,0-12.6-1.9-17.3-5.1c-4.8,3.1-10.9,5.1-17.6,5.1c-15.1,0.1-27.5-9.7-27.5-21.8c0-11.4,10.9-20.8,25-21.8v-0.1
				c0-12.1,12.1-21.9,27-21.9c6.9,0,13.3,2.1,18.1,5.6c3.4-1.5,7.2-2.3,11.2-2.3c12.8,0,23.2,8.3,23.2,18.6c0,0.3,0,0.6,0,0.9
				C647.4,91.1,654.2,98.1,654.2,106.4z"/>
		</defs>
		<clipPath id="SVGID_2_">
			<use xlink:href="#SVGID_1_"  style="overflow:visible;"/>
		</clipPath>
		<path class="st3" d="M572.9,76.8c-3.3,3-5.2,7.6-5,12.3c1.8,0.9,4,0.5,5.8-0.6s3.1-2.7,4.4-4.3c1.6-1.9,3.3-3.8,4.9-5.8
			c1.1-1.3,1.7-2.8,0.2-4.2C580.6,71.6,575.1,74.9,572.9,76.8z"/>
	</g>
	<g>
		<defs>
			<path id="SVGID_3_" d="M654.2,106.4c0,10.3-10.4,18.6-23.2,18.6c-4.6,0-9-1.1-12.6-3c-4.9,5.8-13,9.5-22.3,9.5
				c-6.6,0-12.6-1.9-17.3-5.1c-4.8,3.1-10.9,5.1-17.6,5.1c-15.1,0.1-27.5-9.7-27.5-21.8c0-11.4,10.9-20.8,25-21.8v-0.1
				c0-12.1,12.1-21.9,27-21.9c6.9,0,13.3,2.1,18.1,5.6c3.4-1.5,7.2-2.3,11.2-2.3c12.8,0,23.2,8.3,23.2,18.6c0,0.3,0,0.6,0,0.9
				C647.4,91.1,654.2,98.1,654.2,106.4z"/>
		</defs>
		<clipPath id="SVGID_4_">
			<use xlink:href="#SVGID_3_"  style="overflow:visible;"/>
		</clipPath>
		<path class="st4" d="M544.4,127c2.6,1.2,11,4.5,20.9,1.3c6.4-2.1,10.6-6,12.7-8.2c1.4,1.1,11.2,8.8,23.5,5.5
			c7.5-2,12-7.1,13.8-9.3c10.3,6.1,22.5,2.5,27.5-6.6c3.8-6.9,3-16.3-2-23.5c4.5,0.2,9,0.4,13.4,0.6v40.5l-63.4,9.8l-44.4-5.5
			C545.8,130,545.1,128.5,544.4,127"/>
	</g>
</g>
<g>
	<g>
		<ellipse id="XMLID_24_" class="st5" cx="506" cy="114.7" rx="63.4" ry="63.2"/>
	</g>
	<g>
		<defs>
			<ellipse id="SVGID_5_" cx="506" cy="114.7" rx="63.4" ry="63.2"/>
		</defs>
		<clipPath id="SVGID_6_">
			<use xlink:href="#SVGID_5_"  style="overflow:visible;"/>
		</clipPath>
		<ellipse class="st6" cx="512" cy="68.7" rx="6" ry="6.2"/>
	</g>
	<g>
		<defs>
			<ellipse id="SVGID_7_" cx="506" cy="114.7" rx="63.4" ry="63.2"/>
		</defs>
		<clipPath id="SVGID_8_">
			<use xlink:href="#SVGID_7_"  style="overflow:visible;"/>
		</clipPath>
		<ellipse class="st7" cx="522.4" cy="67.6" rx="2" ry="2"/>
	</g>
	<g>
		<defs>
			<ellipse id="SVGID_9_" cx="506" cy="114.7" rx="63.4" ry="63.2"/>
		</defs>
		<clipPath id="SVGID_10_">
			<use xlink:href="#SVGID_9_"  style="overflow:visible;"/>
		</clipPath>
		<ellipse class="st8" cx="482.3" cy="78.6" rx="3" ry="3.1"/>
	</g>
	<g>
		<defs>
			<ellipse id="SVGID_11_" cx="506" cy="114.7" rx="63.4" ry="63.2"/>
		</defs>
		<clipPath id="SVGID_12_">
			<use xlink:href="#SVGID_11_"  style="overflow:visible;"/>
		</clipPath>
		<ellipse class="st9" cx="456.8" cy="130.4" rx="5.9" ry="6.1"/>
	</g>
	<g>
		<defs>
			<ellipse id="SVGID_13_" cx="506" cy="114.7" rx="63.4" ry="63.2"/>
		</defs>
		<clipPath id="SVGID_14_">
			<use xlink:href="#SVGID_13_"  style="overflow:visible;"/>
		</clipPath>
		<ellipse class="st10" cx="469.4" cy="133.3" rx="2.5" ry="2.6"/>
	</g>
	<g>
		<defs>
			<ellipse id="SVGID_15_" cx="506" cy="114.7" rx="63.4" ry="63.2"/>
		</defs>
		<clipPath id="SVGID_16_">
			<use xlink:href="#SVGID_15_"  style="overflow:visible;"/>
		</clipPath>
		<ellipse class="st11" cx="514.5" cy="149.9" rx="12.5" ry="13"/>
	</g>
	<g>
		<defs>
			<ellipse id="SVGID_17_" cx="506" cy="114.7" rx="63.4" ry="63.2"/>
		</defs>
		<clipPath id="SVGID_18_">
			<use xlink:href="#SVGID_17_"  style="overflow:visible;"/>
		</clipPath>
		<ellipse class="st12" cx="504" cy="100.7" rx="6.3" ry="6.5"/>
	</g>
	<g>
		<defs>
			<ellipse id="SVGID_19_" cx="506" cy="114.7" rx="63.4" ry="63.2"/>
		</defs>
		<clipPath id="SVGID_20_">
			<use xlink:href="#SVGID_19_"  style="overflow:visible;"/>
		</clipPath>
		<ellipse class="st13" cx="555.7" cy="109.1" rx="2.5" ry="2.6"/>
	</g>
	<g>
		<defs>
			<ellipse id="SVGID_21_" cx="506" cy="114.7" rx="63.4" ry="63.2"/>
		</defs>
		<clipPath id="SVGID_22_">
			<use xlink:href="#SVGID_21_"  style="overflow:visible;"/>
		</clipPath>
		<path class="st14" d="M460.5,60.8l5.4,5l-4.6,19.6c-1.8,7.5-2.1,15.2-1,22.8l0.7,4.8c1.2,7.9,4.4,15.4,9.4,21.5l1.7,2.1
			c5.3,6.4,12.3,11.1,20.3,13l11.3,2.9c6.4,1.6,12.9,2.4,19.5,2.4h6.6c3.9,0,7.7-0.4,11.4-1.3l1.4-0.3c6.5-1.5,12.6-4.4,18-8.6
			l5.8-4.5L537.6,181l-59.2,6.6l-35.9-41.4l-7.1-43.2c0,0,8.1-26,8.8-27.1C444.9,74.9,460.5,60.8,460.5,60.8z"/>
	</g>
</g>
<path class="st15" d="M569.4,209.6c0-0.1-0.1-0.2-0.3-0.2l-6.1-0.8l-2.7-5.2c-0.1-0.1-0.2-0.2-0.3-0.2c-0.1,0-0.2,0.1-0.3,0.2
	l-2.7,5.2l-6.1,0.8c-0.1,0-0.2,0.1-0.3,0.2c0,0.1,0,0.2,0.1,0.3l4.4,4.1l-1,5.7c0,0.1,0,0.2,0.1,0.3c0.1,0.1,0.2,0.1,0.4,0l5.5-2.7
	l5.5,2.7c0,0,0.1,0,0.2,0c0.1,0,0.1,0,0.2-0.1c0.1-0.1,0.2-0.2,0.1-0.3l-1-5.7l4.4-4.1C569.4,209.8,569.4,209.7,569.4,209.6z"/>
<path class="st15" d="M586.2,219.5c0-0.1-0.1-0.1-0.1-0.1l-3.1-0.5l-1.4-3c0-0.1-0.1-0.1-0.2-0.1c-0.1,0-0.1,0-0.2,0.1l-1.4,3
	l-3.1,0.5c-0.1,0-0.1,0.1-0.1,0.1c0,0.1,0,0.1,0,0.2l2.2,2.3l-0.5,3.3c0,0.1,0,0.1,0.1,0.2c0.1,0,0.1,0,0.2,0l2.7-1.5l2.7,1.5
	c0,0,0.1,0,0.1,0c0,0,0.1,0,0.1,0c0.1,0,0.1-0.1,0.1-0.2l-0.5-3.3l2.2-2.3C586.2,219.6,586.2,219.5,586.2,219.5z"/>
<path class="st15" d="M533.7,214.3c0,0-0.1-0.1-0.1-0.1l-2.3-0.3l-1-1.9c0,0-0.1-0.1-0.1-0.1c0,0-0.1,0-0.1,0.1l-1,1.9l-2.3,0.3
	c0,0-0.1,0-0.1,0.1c0,0,0,0.1,0,0.1l1.7,1.5l-0.4,2.1c0,0,0,0.1,0.1,0.1c0,0,0.1,0,0.1,0l2.1-1l2.1,1c0,0,0,0,0.1,0c0,0,0.1,0,0.1,0
	c0,0,0.1-0.1,0.1-0.1l-0.4-2.1l1.7-1.5C533.7,214.4,533.7,214.3,533.7,214.3z"/>
<path class="st15" d="M575.7,191c0,0-0.1-0.1-0.1-0.1l-2.3-0.3l-1-1.9c0,0-0.1-0.1-0.1-0.1s-0.1,0-0.1,0.1l-1,1.9l-2.3,0.3
	c0,0-0.1,0-0.1,0.1c0,0,0,0.1,0,0.1l1.7,1.5l-0.4,2.1c0,0,0,0.1,0.1,0.1c0,0,0.1,0,0.1,0l2.1-1l2.1,1c0,0,0,0,0.1,0c0,0,0.1,0,0.1,0
	c0,0,0.1-0.1,0.1-0.1l-0.4-2.1l1.7-1.5C575.7,191.1,575.7,191.1,575.7,191z"/>
<path class="st15" d="M66.1,72.3c0-0.1-0.1-0.2-0.3-0.2l-6.1-0.8l-2.7-5.2c-0.1-0.1-0.2-0.2-0.3-0.2c-0.1,0-0.2,0.1-0.3,0.2
	l-2.7,5.2l-6.1,0.8c-0.1,0-0.2,0.1-0.3,0.2c0,0.1,0,0.2,0.1,0.3l4.4,4.1l-1,5.7c0,0.1,0,0.2,0.1,0.3c0.1,0.1,0.2,0.1,0.4,0l5.5-2.7
	l5.5,2.7c0,0,0.1,0,0.2,0c0.1,0,0.1,0,0.2-0.1c0.1-0.1,0.2-0.2,0.1-0.3l-1-5.7l4.4-4.1C66.1,72.6,66.1,72.5,66.1,72.3z"/>
<path class="st15" d="M82.9,82.3c0-0.1-0.1-0.1-0.1-0.1l-3.1-0.5l-1.4-3c0-0.1-0.1-0.1-0.2-0.1c-0.1,0-0.1,0-0.2,0.1l-1.4,3
	l-3.1,0.5c-0.1,0-0.1,0.1-0.1,0.1c0,0.1,0,0.1,0,0.2l2.2,2.3L75.2,88c0,0.1,0,0.1,0.1,0.2c0.1,0,0.1,0,0.2,0l2.7-1.5l2.7,1.5
	c0,0,0.1,0,0.1,0c0,0,0.1,0,0.1,0c0.1,0,0.1-0.1,0.1-0.2l-0.5-3.3l2.2-2.3C82.9,82.4,82.9,82.3,82.9,82.3z"/>
<path class="st15" d="M30.4,77.1c0,0-0.1-0.1-0.1-0.1L28,76.7l-1-1.9c0,0-0.1-0.1-0.1-0.1s-0.1,0-0.1,0.1l-1,1.9L23.3,77
	c0,0-0.1,0-0.1,0.1c0,0,0,0.1,0,0.1l1.7,1.5l-0.4,2.1c0,0,0,0.1,0.1,0.1c0,0,0.1,0,0.1,0l2.1-1l2.1,1c0,0,0,0,0.1,0c0,0,0.1,0,0.1,0
	c0,0,0.1-0.1,0.1-0.1l-0.4-2.1l1.7-1.5C30.4,77.1,30.4,77.1,30.4,77.1z"/>
<path class="st15" d="M72.3,53.8c0,0-0.1-0.1-0.1-0.1l-2.3-0.3l-1-1.9c0,0-0.1-0.1-0.1-0.1s-0.1,0-0.1,0.1l-1,1.9l-2.3,0.3
	c0,0-0.1,0-0.1,0.1c0,0,0,0.1,0,0.1l1.7,1.5l-0.4,2.1c0,0,0,0.1,0.1,0.1c0,0,0.1,0,0.1,0l2.1-1l2.1,1c0,0,0,0,0.1,0c0,0,0.1,0,0.1,0
	c0,0,0.1-0.1,0.1-0.1l-0.4-2.1l1.7-1.5C72.3,53.9,72.3,53.9,72.3,53.8z"/>
<g class="st1">
	<g>
		<path id="XMLID_3_" class="st2" d="M99.4,158c0,12.2-10.6,22.1-23.7,22.1c-4.7,0-9.2-1.3-12.8-3.6c-5,6.9-13.3,11.3-22.8,11.3
			c-6.7,0-12.9-2.3-17.7-6c-4.9,3.7-11.1,6-18,6c-15.5,0.1-28.1-11.6-28.1-26c0-13.6,11.2-24.7,25.5-25.9v-0.1
			c0-14.4,12.4-26.1,27.6-26.1c7.1,0,13.6,2.5,18.5,6.7c3.4-1.7,7.3-2.8,11.5-2.8c13.1,0,23.7,9.9,23.7,22.1c0,0.4,0,0.7,0,1.1
			C92.5,139.7,99.4,148.1,99.4,158z"/>
	</g>
	<g>
		<defs>
			<path id="SVGID_23_" d="M99.4,158c0,12.2-10.6,22.1-23.7,22.1c-4.7,0-9.2-1.3-12.8-3.6c-5,6.9-13.3,11.3-22.8,11.3
				c-6.7,0-12.9-2.3-17.7-6c-4.9,3.7-11.1,6-18,6c-15.5,0.1-28.1-11.6-28.1-26c0-13.6,11.2-24.7,25.5-25.9v-0.1
				c0-14.4,12.4-26.1,27.6-26.1c7.1,0,13.6,2.5,18.5,6.7c3.4-1.7,7.3-2.8,11.5-2.8c13.1,0,23.7,9.9,23.7,22.1c0,0.4,0,0.7,0,1.1
				C92.5,139.7,99.4,148.1,99.4,158z"/>
		</defs>
		<clipPath id="SVGID_24_">
			<use xlink:href="#SVGID_23_"  style="overflow:visible;"/>
		</clipPath>
		<path class="st16" d="M16.3,122.8c-3.4,3.6-5.4,9.1-5.2,14.7c1.9,1.1,4.1,0.5,5.9-0.7c1.8-1.3,3.2-3.2,4.5-5.1
			c1.6-2.3,3.3-4.6,5-6.9c1.1-1.6,1.7-3.4,0.2-5C24.2,116.5,18.6,120.4,16.3,122.8z"/>
	</g>
	<g>
		<defs>
			<path id="SVGID_25_" d="M99.4,158c0,12.2-10.6,22.1-23.7,22.1c-4.7,0-9.2-1.3-12.8-3.6c-5,6.9-13.3,11.3-22.8,11.3
				c-6.7,0-12.9-2.3-17.7-6c-4.9,3.7-11.1,6-18,6c-15.5,0.1-28.1-11.6-28.1-26c0-13.6,11.2-24.7,25.5-25.9v-0.1
				c0-14.4,12.4-26.1,27.6-26.1c7.1,0,13.6,2.5,18.5,6.7c3.4-1.7,7.3-2.8,11.5-2.8c13.1,0,23.7,9.9,23.7,22.1c0,0.4,0,0.7,0,1.1
				C92.5,139.7,99.4,148.1,99.4,158z"/>
		</defs>
		<clipPath id="SVGID_26_">
			<use xlink:href="#SVGID_25_"  style="overflow:visible;"/>
		</clipPath>
		<path class="st17" d="M-12.9,182.5c2.7,1.4,11.2,5.4,21.4,1.6c6.6-2.5,10.9-7.1,13-9.8c1.4,1.3,11.4,10.5,24,6.5
			c7.6-2.4,12.3-8.4,14.1-11.1c10.5,7.2,23,3,28.1-7.8c3.9-8.2,3.1-19.4-2.1-28c4.6,0.2,9.2,0.4,13.8,0.7v48.2l-64.8,11.7l-45.4-6.5
			C-11.4,186.1-12.1,184.3-12.9,182.5"/>
	</g>
</g>
<g class="st1">
	<g>
		<path id="XMLID_1_" class="st2" d="M467.7,219.3c0,10.3-10.4,18.6-23.2,18.6c-4.6,0-9-1.1-12.6-3c-4.9,5.8-13,9.5-22.3,9.5
			c-6.6,0-12.6-1.9-17.3-5.1c-4.8,3.1-10.9,5.1-17.6,5.1c-15.1,0.1-27.5-9.7-27.5-21.8c0-11.4,10.9-20.8,25-21.8v-0.1
			c0-12.1,12.1-21.9,27-21.9c6.9,0,13.3,2.1,18.1,5.6c3.4-1.5,7.2-2.3,11.2-2.3c12.8,0,23.2,8.3,23.2,18.6c0,0.3,0,0.6,0,0.9
			C461,204,467.7,211,467.7,219.3z"/>
	</g>
	<g>
		<defs>
			<path id="SVGID_27_" d="M467.7,219.3c0,10.3-10.4,18.6-23.2,18.6c-4.6,0-9-1.1-12.6-3c-4.9,5.8-13,9.5-22.3,9.5
				c-6.6,0-12.6-1.9-17.3-5.1c-4.8,3.1-10.9,5.1-17.6,5.1c-15.1,0.1-27.5-9.7-27.5-21.8c0-11.4,10.9-20.8,25-21.8v-0.1
				c0-12.1,12.1-21.9,27-21.9c6.9,0,13.3,2.1,18.1,5.6c3.4-1.5,7.2-2.3,11.2-2.3c12.8,0,23.2,8.3,23.2,18.6c0,0.3,0,0.6,0,0.9
				C461,204,467.7,211,467.7,219.3z"/>
		</defs>
		<clipPath id="SVGID_28_">
			<use xlink:href="#SVGID_27_"  style="overflow:visible;"/>
		</clipPath>
		<path class="st18" d="M386.5,189.7c-3.3,3-5.2,7.6-5,12.3c1.8,0.9,4,0.5,5.8-0.6c1.7-1.1,3.1-2.7,4.4-4.3c1.6-1.9,3.3-3.8,4.9-5.8
			c1.1-1.3,1.7-2.8,0.2-4.2C394.1,184.5,388.6,187.8,386.5,189.7z"/>
	</g>
	<g>
		<defs>
			<path id="SVGID_29_" d="M467.7,219.3c0,10.3-10.4,18.6-23.2,18.6c-4.6,0-9-1.1-12.6-3c-4.9,5.8-13,9.5-22.3,9.5
				c-6.6,0-12.6-1.9-17.3-5.1c-4.8,3.1-10.9,5.1-17.6,5.1c-15.1,0.1-27.5-9.7-27.5-21.8c0-11.4,10.9-20.8,25-21.8v-0.1
				c0-12.1,12.1-21.9,27-21.9c6.9,0,13.3,2.1,18.1,5.6c3.4-1.5,7.2-2.3,11.2-2.3c12.8,0,23.2,8.3,23.2,18.6c0,0.3,0,0.6,0,0.9
				C461,204,467.7,211,467.7,219.3z"/>
		</defs>
		<clipPath id="SVGID_30_">
			<use xlink:href="#SVGID_29_"  style="overflow:visible;"/>
		</clipPath>
		<path class="st19" d="M357.9,239.9c2.6,1.2,11,4.5,20.9,1.3c6.4-2.1,10.6-6,12.7-8.2c1.4,1.1,11.2,8.8,23.5,5.5
			c7.5-2,12-7.1,13.8-9.3c10.3,6.1,22.5,2.5,27.5-6.6c3.8-6.9,3-16.3-2-23.5c4.5,0.2,9,0.4,13.4,0.6v40.5l-63.4,9.8l-44.4-5.5
			C359.3,242.9,358.6,241.4,357.9,239.9"/>
	</g>
</g>
</svg>
