<?xml version="1.0" encoding="utf-8"?>
<!-- Generator: Adobe Illustrator 25.2.1, SVG Export Plug-In . SVG Version: 6.00 Build 0)  -->
<svg version="1.1" id="Layer_1" xmlns="http://www.w3.org/2000/svg" xmlns:xlink="http://www.w3.org/1999/xlink" x="0px" y="0px"
	 viewBox="0 0 273.5 273.5" style="enable-background:new 0 0 273.5 273.5;" xml:space="preserve">
<style type="text/css">
	.st0{fill:#125654;}
</style>
<path class="st0" d="M-253.7,0c-75.5,0-136.8,61.2-136.8,136.8c0,75.5,61.2,136.8,136.8,136.8s136.8-61.2,136.8-136.8
	C-116.9,61.2-178.2,0-253.7,0z M-288.3,168c4.8,3.5,5.9,10.3,2.6,15.2c-2.1,3-5.4,4.6-8.7,4.6c-2.1,0-4.2-0.7-6.1-2l-53.8-39
	c-3.3-2.4-4.8-6.3-4.4-10.1c-0.4-3.8,1.1-7.8,4.4-10.1l53.8-39c1.9-1.4,4-2,6.1-2c3.3,0,6.6,1.6,8.7,4.6c3.4,4.9,2.2,11.7-2.6,15.2
	l-43.2,31.3L-288.3,168z M-229,81.5l-26.4,96.9c-1.6,5.7-7.5,9.1-13.2,7.5c-4.8-1.3-7.9-5.6-7.9-10.4c0-0.9,0.1-1.9,0.4-2.8
	l26.4-96.9c1.6-5.7,7.5-9.1,13.2-7.5c4.8,1.3,7.9,5.6,7.9,10.4C-228.6,79.6-228.8,80.5-229,81.5z M-150.8,146.9l-53.8,39
	c-1.9,1.3-4,2-6.1,2c-3.3,0-6.6-1.6-8.7-4.6c-3.4-4.9-2.2-11.7,2.6-15.2l43.2-31.3l-43.2-31.3c-4.8-3.5-5.9-10.3-2.6-15.2
	c2.1-3,5.3-4.6,8.7-4.6c2.1,0,4.2,0.6,6.1,2l53.8,39c3.3,2.4,4.8,6.3,4.4,10.1C-146,140.6-147.6,144.5-150.8,146.9z"/>
<path class="st0" d="M136.8,333.4C61.2,333.4,0,394.6,0,470.2c0,75.5,61.2,136.8,136.8,136.8s136.8-61.2,136.8-136.8
	C273.5,394.6,212.3,333.4,136.8,333.4z M211.1,530.9c0,12.2-9.9,22.1-22.1,22.1H90.5c-12.2,0-22.1-9.9-22.1-22.1v-34.5
	c0-14.2,5.5-27.2,14.6-36.8c-5.8-9.5-9.1-20.7-9.1-32.7c0-34.9,28.3-63.1,63.1-63.1c34.9,0,63.1,28.3,63.1,63.1
	c0,10.6-2.6,20.5-7.2,29.3c11.1,9.8,18.1,24.2,18.1,40.2V530.9z"/>
<path class="st0" d="M-235.3,324.3c-75.5,0-136.8,61.2-136.8,136.8c0,75.5,61.2,136.8,136.8,136.8S-98.5,536.6-98.5,461
	C-98.5,385.5-159.8,324.3-235.3,324.3z M-151.7,482.4c0,17.1-13.8,30.9-30.9,30.9h-77.7l-37.6,23.4c-3.1,2-7.2-0.3-7.2-4v-24.3
	c-8.5-5.5-14.2-15.1-14.2-26v-55.9c0-17.1,13.8-30.9,30.9-30.9h105.9c17,0,30.9,13.8,30.9,30.9V482.4z"/>
<path class="st0" d="M136.8,0C61.2,0,0,61.2,0,136.8c0,75.5,61.2,136.8,136.8,136.8s136.8-61.2,136.8-136.8
	C273.5,61.2,212.3,0,136.8,0z M176.4,212.6c0,1.6-0.2,3.1-0.5,4.6c-2.1,10.3-11.2,18-22.1,18h-28.1c-10.9,0-20-7.7-22.1-18
	c-0.3-1.5-0.5-3-0.5-4.6v-59.3c0-1.8,0.2-3.5,0.6-5.1c2.3-10,11.3-17.5,22-17.5h28.1c10.7,0,19.7,7.5,22,17.5
	c0.4,1.6,0.6,3.3,0.6,5.1V212.6z M173.1,95.3c-6.1,13.5-19.6,23-35.4,23c-15.8,0-29.4-9.4-35.5-23c-2.2-4.8-3.4-10.2-3.4-15.8
	c0-2.5,0.2-4.9,0.7-7.2c0.8-4.3,2.3-8.4,4.5-12.1c6.7-11.7,19.3-19.5,33.7-19.5c14.4,0,27,7.9,33.7,19.5c2.1,3.7,3.6,7.7,4.4,12.1
	c0.4,2.3,0.7,4.7,0.7,7.2C176.4,85.2,175.2,90.5,173.1,95.3z"/>
<path class="st0" d="M137,363.7c-34.9,0-63.1,28.3-63.1,63.1c0,12,3.3,23.1,9.1,32.7c11.1,18.2,31.1,30.4,54,30.4
	c24.3,0,45.4-13.7,55.9-33.8c4.6-8.8,7.2-18.7,7.2-29.3C200.2,392,171.9,363.7,137,363.7z M176.8,446.2c-7.7,14.2-22.7,23.9-40,23.9
	c-16.4,0-30.8-8.7-38.8-21.8c-4.2-6.9-6.6-15-6.6-23.6c0-25.1,20.3-45.4,45.4-45.4c25.1,0,45.4,20.3,45.4,45.4
	C182.1,432.6,180.2,439.9,176.8,446.2z"/>
<path class="st0" d="M-194.2,445.6H-283c-5.7,0-10.4-4.7-10.4-10.4v0c0-5.7,4.7-10.4,10.4-10.4h88.8c5.7,0,10.4,4.7,10.4,10.4v0
	C-183.8,440.9-188.5,445.6-194.2,445.6z"/>
<path class="st0" d="M-191.1,480.6h-88.8c-5.7,0-10.4-4.7-10.4-10.4l0,0c0-5.7,4.7-10.4,10.4-10.4h88.8c5.7,0,10.4,4.7,10.4,10.4
	l0,0C-180.7,475.9-185.4,480.6-191.1,480.6z"/>
</svg>
