<?xml version="1.0" encoding="utf-8"?>
<!-- Generator: Adobe Illustrator 25.2.1, SVG Export Plug-In . SVG Version: 6.00 Build 0)  -->
<svg version="1.1" id="Layer_1" xmlns="http://www.w3.org/2000/svg" xmlns:xlink="http://www.w3.org/1999/xlink" x="0px" y="0px"
	 viewBox="0 0 16 16" style="enable-background:new 0 0 16 16;" xml:space="preserve">
<style type="text/css">
	.st0{fill:#25635C;}
</style>
<path class="st0" d="M0.8,2.9c0-0.5,0.3-1,0.7-1h12.6c0.4,0,0.7,0.4,0.7,1s-0.3,1-0.7,1H1.5C1.1,3.9,0.8,3.4,0.8,2.9z M0.7,12.5
	c0-0.5,0.3-1,0.7-1h12.6c0.4,0,0.7,0.4,0.7,1s-0.3,1-0.7,1H1.4C1.1,13.4,0.7,13,0.7,12.5z M0.7,7.6c0-0.5,0.3-1,0.7-1h12.6
	c0.4,0,0.7,0.4,0.7,1s-0.3,1-0.7,1H1.4C1.1,8.5,0.7,8.1,0.7,7.6z"/>
</svg>
