<?xml version="1.0" encoding="utf-8"?>
<!-- Generator: Adobe Illustrator 25.2.1, SVG Export Plug-In . SVG Version: 6.00 Build 0)  -->
<svg version="1.1" id="Layer_1" xmlns="http://www.w3.org/2000/svg" xmlns:xlink="http://www.w3.org/1999/xlink" x="0px" y="0px"
	 viewBox="0 0 612 54.7" style="enable-background:new 0 0 612 54.7;" xml:space="preserve">
<style type="text/css">
	.st0{clip-path:url(#XMLID_5_);fill:#A9B3A3;}
	.st1{clip-path:url(#XMLID_5_);fill:#C2CEBA;}
	.st2{clip-path:url(#XMLID_5_);fill:#A1A488;}
	.st3{fill:#E0743D;}
	.st4{clip-path:url(#XMLID_6_);fill:#A9B3A3;}
	.st5{clip-path:url(#XMLID_6_);fill:#C2CEBA;}
	.st6{clip-path:url(#XMLID_6_);fill:#A1A488;}
	.st7{opacity:0.49;clip-path:url(#XMLID_7_);fill:#ECE7C8;}
	.st8{opacity:0.6;clip-path:url(#XMLID_7_);fill:#A1A488;}
</style>
<g>
	<defs>
		<path id="XMLID_1_" d="M612,25.5H8.5c-4.7,0-8.5-3.8-8.5-8.5v-0.3c0-4.2,3.4-7.6,7.6-7.6H612V25.5z"/>
	</defs>
	<use xlink:href="#XMLID_1_"  style="overflow:visible;fill:#A1A488;"/>
	<clipPath id="XMLID_5_">
		<use xlink:href="#XMLID_1_"  style="overflow:visible;"/>
	</clipPath>
	<path class="st0" d="M603.8,22.7H8.2C3.7,22.7,0,19,0,14.4v0c0-4.5,3.7-8.2,8.2-8.2h595.6c4.5,0,8.2,3.7,8.2,8.2v0
		C612,19,608.3,22.7,603.8,22.7z"/>
	<path class="st1" d="M88.7,15.3H25.4c-1.1,0-2-0.9-2-2v0c0-1.1,0.9-2,2-2h63.3c1.1,0,2,0.9,2,2v0C90.7,14.4,89.8,15.3,88.7,15.3z"
		/>
	<path class="st2" d="M164.5,25.5h15c-1.7-2.2-4.5-6.7-2.6-12.1c0.6-1.7,1.6-3.2,2.6-4.4c-5,0-10,0-15,0V25.5z"/>
	<path class="st2" d="M457.5,25.5h15c-1.7-2.2-4.5-6.7-2.6-12.1c0.6-1.7,1.6-3.2,2.6-4.4c-5,0-10,0-15,0V25.5z"/>
</g>
<path class="st3" d="M165.2,72.6h-7.4c-3.6,0-6.6-2.9-6.6-6.6V6.6c0-3.6,2.9-6.6,6.6-6.6h7.4c3.6,0,6.6,2.9,6.6,6.6V66
	C171.8,69.7,168.8,72.6,165.2,72.6z"/>
<path class="st3" d="M455.9,72.6h-7.4c-3.6,0-6.6-2.9-6.6-6.6V6.6c0-3.6,2.9-6.6,6.6-6.6h7.4c3.6,0,6.6,2.9,6.6,6.6V66
	C462.4,69.7,459.5,72.6,455.9,72.6z"/>
<g>
	<defs>
		<path id="XMLID_2_" d="M0,191.5h603.5c4.7,0,8.5-3.8,8.5-8.5v-0.3c0-4.2-3.4-7.6-7.6-7.6H0L0,191.5z"/>
	</defs>
	<use xlink:href="#XMLID_2_"  style="overflow:visible;fill:#A1A488;"/>
	<clipPath id="XMLID_6_">
		<use xlink:href="#XMLID_2_"  style="overflow:visible;"/>
	</clipPath>
	<path class="st4" d="M8.2,188.6h595.6c4.5,0,8.2-3.7,8.2-8.2v0c0-4.5-3.7-8.2-8.2-8.2H8.2c-4.5,0-8.2,3.7-8.2,8.2v0
		C0,184.9,3.7,188.6,8.2,188.6z"/>
	<path class="st5" d="M526.6,183h63.3c1.1,0,2-0.9,2-2l0,0c0-1.1-0.9-2-2-2h-63.3c-1.1,0-2,0.9-2,2l0,0
		C524.7,182.1,525.6,183,526.6,183z"/>
	<path class="st6" d="M452.9,191.5h15.7c-1.8-2.2-4.7-6.7-2.7-12.1c0.6-1.7,1.6-3.2,2.7-4.4c-5.2,0-10.5,0-15.7,0V191.5z"/>
	<path class="st6" d="M162.1,191.5h16c-1.8-2.2-4.8-6.7-2.7-12.1c0.6-1.7,1.7-3.2,2.7-4.4c-5.3,0-10.6,0-16,0V191.5z"/>
</g>
<path class="st3" d="M446.8,238.6h7.4c3.6,0,6.6-2.9,6.6-6.6v-59.4c0-3.6-2.9-6.6-6.6-6.6h-7.4c-3.6,0-6.6,2.9-6.6,6.6V232
	C440.2,235.6,443.2,238.6,446.8,238.6z"/>
<path class="st3" d="M156.1,238.6h7.4c3.6,0,6.6-2.9,6.6-6.6v-59.4c0-3.6-2.9-6.6-6.6-6.6h-7.4c-3.6,0-6.6,2.9-6.6,6.6V232
	C149.6,235.6,152.5,238.6,156.1,238.6z"/>
<g>
	<defs>
		<path id="XMLID_3_" d="M347.2-234.1c0,20.3-22,36.7-49.1,36.7c-9.8,0-19-2.2-26.6-5.9c-10.3,11.4-27.6,18.8-47.3,18.8
			c-13.9,0-26.7-3.8-36.7-10c-10.1,6.2-23.1,10-37.4,10c-32.2,0-58.3-19.3-58.3-43.2c0-22.5,23.2-41,52.9-43v-0.2
			c0-23.9,25.6-43.2,57.2-43.2c14.7,0,28.2,4.2,38.3,11.1c7.1-2.9,15.2-4.6,23.8-4.6c27.1,0,49.1,16.4,49.1,36.7
			c0,0.6,0,1.2-0.1,1.8C332.9-264.3,347.2-250.4,347.2-234.1z"/>
	</defs>
	<use xlink:href="#XMLID_3_"  style="overflow:visible;fill:#A9B3A3;"/>
	<clipPath id="XMLID_7_">
		<use xlink:href="#XMLID_3_"  style="overflow:visible;"/>
	</clipPath>
	<path class="st7" d="M174.9-292.4c-7,5.9-11.1,15.1-10.7,24.3c3.9,1.8,8.5,0.9,12.2-1.2s6.6-5.3,9.4-8.5c3.4-3.8,6.9-7.6,10.3-11.4
		c2.3-2.6,3.5-5.6,0.5-8.3C191.1-302.7,179.5-296.3,174.9-292.4z"/>
	<path class="st8" d="M114.5-193.4c5.5,2.3,23.3,8.9,44.3,2.6c13.6-4.1,22.5-11.8,27-16.2c2.9,2.2,23.7,17.4,49.7,10.8
		c15.8-4,25.5-14,29.2-18.4c21.8,12,47.7,4.9,58.3-13c8.1-13.6,6.4-32.2-4.3-46.4c9.5,0.4,19,0.7,28.5,1.1v79.9l-134.3,19.4
		l-94-10.8C117.4-187.4,116-190.4,114.5-193.4"/>
</g>
</svg>
